<svg xmlns="http://www.w3.org/2000/svg" viewBox="0 0 64 64"><g id="Expanded"><path d="M49,10H44V7a3,3,0,0,0-6,0v3H33V7a3,3,0,0,0-6,0v3H22V7a3,3,0,0,0-6,0v3H15a5,5,0,0,0-5,5V55a5,5,0,0,0,5,5H49a5,5,0,0,0,5-5V15A5,5,0,0,0,49,10ZM40,7a1,1,0,0,1,2,0v3H40ZM29,7a1,1,0,0,1,2,0v3H29ZM18,7a1,1,0,0,1,2,0v3H18Zm-3,5h5v2.18a3,3,0,1,0,2,0V12h9v2.18a3,3,0,1,0,2,0V12h9v2.18a3,3,0,1,0,2,0V12h5a3,3,0,0,1,3,3v7H12V15A3,3,0,0,1,15,12Zm6,4a1,1,0,1,1-1,1A1,1,0,0,1,21,16Zm11,0a1,1,0,1,1-1,1A1,1,0,0,1,32,16Zm11,0a1,1,0,1,1-1,1A1,1,0,0,1,43,16Zm6,42H15a3,3,0,0,1-3-3V24H52V55A3,3,0,0,1,49,58ZM46,37H42a10.88,10.88,0,0,0-3.44.56,13.05,13.05,0,0,0-3.34-5.76l-2.51-2.51a1,1,0,0,0-1.42,0L28.78,31.8a13.05,13.05,0,0,0-3.34,5.76A10.88,10.88,0,0,0,22,37H18a1,1,0,0,0-1,1v8a7,7,0,0,0,7,7H40a7,7,0,0,0,7-7V38A1,1,0,0,0,46,37ZM30.2,33.22,32,31.41l1.8,1.81a11,11,0,0,1,2.91,5.14A11.1,11.1,0,0,0,32,43.44a11.1,11.1,0,0,0-4.71-5.08A11,11,0,0,1,30.2,33.22ZM19,46V39h3a9,9,0,0,1,9,9v3H24A5,5,0,0,1,19,46Zm26,0a5,5,0,0,1-5,5H33V48a9,9,0,0,1,9-9h3Z"/></g></svg>