<svg xmlns="http://www.w3.org/2000/svg" viewBox="0 0 64 64"><g id="Expanded"><path d="M51,40H49.89A7,7,0,0,0,52,35V29a1,1,0,0,0-1-1H45a7,7,0,0,0-5,2.11V23a3,3,0,0,0-3-3H33V17a1,1,0,0,0-2,0v3H27a3,3,0,0,0-3,3v7.11A7,7,0,0,0,19,28H13a1,1,0,0,0-1,1v6a7,7,0,0,0,2.11,5H13a3,3,0,0,0-3,3v2a3,3,0,0,0,3,3h.28l2.4,7.21A7,7,0,0,0,22.32,60H41.68a7,7,0,0,0,6.64-4.79L50.72,48H51a3,3,0,0,0,3-3V43A3,3,0,0,0,51,40ZM45,30h5v5a5,5,0,0,1-5,5H40V35A5,5,0,0,1,45,30ZM26,23a1,1,0,0,1,1-1H37a1,1,0,0,1,1,1V40H26V23ZM14,35V30h5a5,5,0,0,1,5,5v5H19A5,5,0,0,1,14,35ZM46.42,54.58A5,5,0,0,1,41.68,58H22.32a5,5,0,0,1-4.74-3.42L15.39,48H48.61ZM52,45a1,1,0,0,1-1,1H13a1,1,0,0,1-1-1V43a1,1,0,0,1,1-1H51a1,1,0,0,1,1,1ZM28,34V26a1,1,0,0,1,2,0v8a1,1,0,0,1-2,0Zm4-20a4,4,0,0,0,4-4c0-2.06-1.56-6-4-6s-4,3.94-4,6A4,4,0,0,0,32,14Zm0-8c.75,0,2,2.5,2,4a2,2,0,0,1-4,0C30,8.5,31.25,6,32,6Z"/></g></svg>