<svg xmlns="http://www.w3.org/2000/svg" viewBox="0 0 64 64"><g id="Expanded"><path d="M48,37H46c-.26,0-.51,0-.76,0a5,5,0,0,0-1.36-2.58l-3.17-3.17a1,1,0,0,0-1.42,0l-3.17,3.17A5,5,0,0,0,34.76,37c-.25,0-.5,0-.76,0H32a1,1,0,0,0-1,1v4a5,5,0,0,0,5,5h8a5,5,0,0,0,5-5V38A1,1,0,0,0,48,37ZM37.54,35.88,40,33.41l2.46,2.47a2.91,2.91,0,0,1,.84,1.66A7.1,7.1,0,0,0,40,40.41a7.1,7.1,0,0,0-3.3-2.87A2.91,2.91,0,0,1,37.54,35.88ZM33,42V39h1a5,5,0,0,1,5,5v1H36A3,3,0,0,1,33,42Zm14,0a3,3,0,0,1-3,3H41V44a5,5,0,0,1,5-5h1ZM40,26h-.06a9,9,0,0,0-5.47-7.3A3,3,0,0,0,35,17V15a3,3,0,0,0-3-3H28V7a3,3,0,0,0-6,0v5H18a3,3,0,0,0-3,3v2a3,3,0,0,0,.53,1.7A9,9,0,0,0,10,27V55a5,5,0,0,0,5,5H35a5,5,0,0,0,5-5V54a14,14,0,0,0,0-28ZM24,7a1,1,0,0,1,2,0v5H24ZM18,18a1,1,0,0,1-1-1V15a1,1,0,0,1,1-1H32a1,1,0,0,1,1,1v2a1,1,0,0,1-1,1H18ZM12,28h6a3,3,0,0,1,3,3V49a3,3,0,0,1-3,3H12ZM38,55a3,3,0,0,1-3,3H15a3,3,0,0,1-3-3V54h6a5,5,0,0,0,5-5V31a5,5,0,0,0-5-5H12.08A7,7,0,0,1,19,20H31a7,7,0,0,1,6.94,6.17A14,14,0,0,0,38,53.84Zm2-3A12,12,0,1,1,52,40,12,12,0,0,1,40,52Z"/></g></svg>