<svg xmlns="http://www.w3.org/2000/svg" viewBox="0 0 64 64"><g id="Expanded"><path d="M59.71,31.29,55.9,27.48a14,14,0,0,0-4.41-3,18,18,0,0,0,.6-4.56v-7a1,1,0,0,0-1-1h-7a18,18,0,0,0-4.56.6,14,14,0,0,0-3-4.41L32.71,4.29a1,1,0,0,0-1.42,0L27.48,8.1a14,14,0,0,0-3,4.41,18,18,0,0,0-4.56-.6h-7a1,1,0,0,0-1,1v7a18,18,0,0,0,.6,4.56,14,14,0,0,0-4.41,3L4.29,31.29a1,1,0,0,0,0,1.42L8.1,36.52a14,14,0,0,0,4.41,3,18,18,0,0,0-.6,4.56v7a1,1,0,0,0,1,1h7a18,18,0,0,0,4.56-.6,14,14,0,0,0,3,4.41l3.81,3.81a1,1,0,0,0,1.42,0l3.81-3.81a14,14,0,0,0,3-4.41,18,18,0,0,0,4.56.6h7a1,1,0,0,0,1-1v-7a18,18,0,0,0-.6-4.56,14,14,0,0,0,4.41-3l3.81-3.81A1,1,0,0,0,59.71,31.29ZM44.05,13.91h6v6a16.13,16.13,0,0,1-.49,3.92,14.31,14.31,0,0,0-2.93-.45,17.09,17.09,0,0,0-6.09-6.09,14.31,14.31,0,0,0-.45-2.93A16.13,16.13,0,0,1,44.05,13.91ZM39.13,45.2A14.53,14.53,0,0,1,34,46.87a15.13,15.13,0,0,1-3.92,0,14.68,14.68,0,0,1-5.15-1.66l-.14-.08a14.94,14.94,0,0,1-5.95-6,15,15,0,0,1,0-14.26,14.91,14.91,0,0,1,6.07-6.07A14.53,14.53,0,0,1,30,17.13a15.13,15.13,0,0,1,3.92,0h0a14.53,14.53,0,0,1,5.17,1.67,15,15,0,0,1,6.07,6.07A14.53,14.53,0,0,1,46.87,30h0a15,15,0,0,1-1.67,9.09A15,15,0,0,1,39.13,45.2ZM28.9,9.52,32,6.41l3.1,3.11a11.94,11.94,0,0,1,3.38,6.76,17,17,0,0,0-4.26-1.13h0a17.09,17.09,0,0,0-8.69,1.13A11.94,11.94,0,0,1,28.9,9.52ZM13.91,20v-6h6a16.13,16.13,0,0,1,3.92.49,14.31,14.31,0,0,0-.45,2.93,17.09,17.09,0,0,0-6.09,6.09,14.31,14.31,0,0,0-2.93.45A16.13,16.13,0,0,1,13.91,20ZM6.41,32l3.11-3.1a11.94,11.94,0,0,1,6.76-3.38,17,17,0,0,0-1.13,4.26,17.11,17.11,0,0,0,1.13,8.7A11.94,11.94,0,0,1,9.52,35.1ZM20,50.09h-6v-6a16.13,16.13,0,0,1,.49-3.92,14.31,14.31,0,0,0,2.93.45,17.09,17.09,0,0,0,6.09,6.09,14.31,14.31,0,0,0,.45,2.93A16.13,16.13,0,0,1,20,50.09ZM35.1,54.48,32,57.59l-3.1-3.11a11.94,11.94,0,0,1-3.38-6.76,17,17,0,0,0,4.26,1.13,17.11,17.11,0,0,0,8.7-1.13A11.94,11.94,0,0,1,35.1,54.48Zm15-10.43v6h-6a16.13,16.13,0,0,1-3.92-.49,14.31,14.31,0,0,0,.45-2.93,17.09,17.09,0,0,0,6.09-6.09,14.31,14.31,0,0,0,2.93-.45A16.13,16.13,0,0,1,50.09,44.05Zm4.39-8.95a11.94,11.94,0,0,1-6.76,3.38,16.87,16.87,0,0,0,1.13-8.69h0a16.55,16.55,0,0,0-1.13-4.26,11.94,11.94,0,0,1,6.76,3.38L57.59,32ZM36.76,25h-9.5a3,3,0,0,0-2.68,4.34l4.74,9.5A3,3,0,0,0,32,40.53h0a3,3,0,0,0,2.69-1.66l4.75-9.5A3,3,0,0,0,36.76,25Zm.9,3.45L32.9,38a1,1,0,0,1-.9.55h0a1,1,0,0,1-.89-.56l-4.74-9.49A1,1,0,0,1,27.26,27h9.5a1,1,0,0,1,.85.47A1,1,0,0,1,37.66,28.48Z"/></g></svg>