<svg xmlns="http://www.w3.org/2000/svg" viewBox="0 0 64 64"><g id="Expanded"><path d="M55,10H9a5,5,0,0,0-5,5V49a5,5,0,0,0,5,5H55a5,5,0,0,0,5-5V15A5,5,0,0,0,55,10Zm3,39a3,3,0,0,1-3,3H9a3,3,0,0,1-3-3V15a3,3,0,0,1,3-3H55a3,3,0,0,1,3,3ZM51,27V23a1,1,0,0,0-1-1H48c-.26,0-.51,0-.76,0a5,5,0,0,0-1.36-2.58l-3.17-3.17a1,1,0,0,0-1.42,0l-3.17,3.17A5,5,0,0,0,36.76,22c-.25,0-.5,0-.76,0H34a1,1,0,0,0-1,1v4a5,5,0,0,0,5,5h8A5,5,0,0,0,51,27ZM39.54,20.88,42,18.41l2.46,2.47a2.91,2.91,0,0,1,.84,1.66A7.1,7.1,0,0,0,42,25.41a7.1,7.1,0,0,0-3.3-2.87A2.91,2.91,0,0,1,39.54,20.88ZM35,27V24h1a5,5,0,0,1,5,5v1H38A3,3,0,0,1,35,27Zm8,2a5,5,0,0,1,5-5h1v3a3,3,0,0,1-3,3H43ZM14,29h6a3,3,0,0,0,3-3V20a3,3,0,0,0-3-3H14a3,3,0,0,0-3,3v6A3,3,0,0,0,14,29Zm-1-9a1,1,0,0,1,1-1h6a1,1,0,0,1,1,1v6a1,1,0,0,1-1,1H14a1,1,0,0,1-1-1ZM28,34a1,1,0,0,1-1,1H11a1,1,0,0,1,0-2H27A1,1,0,0,1,28,34ZM10,38a1,1,0,0,1,1-1H21a1,1,0,0,1,0,2H11A1,1,0,0,1,10,38Zm44,9a1,1,0,0,1-1,1H45a1,1,0,0,1,0-2h8A1,1,0,0,1,54,47Zm0-4a1,1,0,0,1-1,1H45a1,1,0,0,1,0-2h8A1,1,0,0,1,54,43ZM28,42a1,1,0,0,1-1,1H11a1,1,0,0,1,0-2H27A1,1,0,0,1,28,42Z"/></g></svg>