<svg xmlns="http://www.w3.org/2000/svg" viewBox="0 0 64 64"><g id="Expanded"><path d="M32,4A28,28,0,1,0,60,32,28,28,0,0,0,32,4Zm0,54A26,26,0,1,1,58,32,26,26,0,0,1,32,58Zm0-48A22,22,0,1,0,54,32,22,22,0,0,0,32,10Zm0,42A20,20,0,1,1,52,32,20,20,0,0,1,32,52ZM47.61,33.79,44.78,31a11,11,0,0,0-6.06-3.08,10.94,10.94,0,0,0-3.18-7.16l-2.83-2.83a1,1,0,0,0-1.42,0l-2.83,2.83a10.94,10.94,0,0,0-3.18,7.16A11,11,0,0,0,19.22,31l-2.83,2.83a1,1,0,0,0-.29.71,1.05,1.05,0,0,0,.29.71L19.22,38a11,11,0,0,0,7.68,3.21,11,11,0,0,0,1.56,2l2.83,2.83a1,1,0,0,0,1.42,0l2.83-2.83a11,11,0,0,0,1.56-2A11,11,0,0,0,44.78,38l2.83-2.83a1.05,1.05,0,0,0,.29-.71A1,1,0,0,0,47.61,33.79ZM29.88,22.14,32,20l2.12,2.13a9,9,0,0,1,0,12.74L32,37.06l-2.12-2.2a9,9,0,0,1,0-12.72ZM18.51,34.5l2.13-2.12a9,9,0,0,1,4.71-2.48,10.91,10.91,0,0,0,3.1,6.37l2.15,2.22a8.82,8.82,0,0,1-3.19.76,9,9,0,0,1-6.77-2.63ZM32,44l-2.12-2.13a7,7,0,0,1-.72-.83A11.17,11.17,0,0,0,32,40a11.17,11.17,0,0,0,2.84,1,7,7,0,0,1-.72.83Zm11.36-7.37a9,9,0,0,1-6.77,2.63,8.82,8.82,0,0,1-3.19-.76l2.14-2.21a11,11,0,0,0,3.11-6.38,9,9,0,0,1,4.71,2.48l2.13,2.12Z"/></g></svg>