<?xml version="1.0" encoding="utf-8"?>
<!-- Generator: Adobe Illustrator 23.1.1, SVG Export Plug-In . SVG Version: 6.00 Build 0)  -->
<svg version="1.1" id="Layer_1" xmlns="http://www.w3.org/2000/svg" xmlns:xlink="http://www.w3.org/1999/xlink" x="0px" y="0px"
	 viewBox="0 0 926.3 1002.9" style="enable-background:new 0 0 926.3 1002.9;" xml:space="preserve">
<style type="text/css">
	.st0{fill:#734C4C;}
	.st1{fill:#FEC3AA;}
	.st2{fill:#BFD7FF;}
	.st3{fill:#FFFFFF;}
	.st4{fill:#A096CF;}
	.st5{fill:#7070B8;}
</style>
<title>mental health problems</title>
<path class="st0" d="M394.6,203.8c0,0-49.6,8.5-77.4,60.6s-8.8,112.6-29.7,139c-16.3,20.7-40.1,26-50.2,41.1
	c-6.8,10.1-12,19.4-11.4,34.3c0.2,7.4-0.4,18.7,5.5,27.1c17.6,25.3,332.3,25.3,332.3,25.3s96.4-21.9,89.2-41.3
	c-6.3-17-7.8-40.9-56-65.6c0,0-11.3-5-13-43.8s-9.2-89.1-28.6-128.7S459.4,163.5,394.6,203.8z"/>
<path class="st1" d="M347.5,350.3c0,0-12.6-19.4-21.1-3.4s7.6,43.7,7.6,43.7s7.6,16,19.4,10.1c0,0,10.6,43.1,24.1,58.2
	s31.4,31,52.4,40.3s69.9-33.7,72.4-35.4s18.5-18.5,21-28.6s5.7-35.3,5.7-35.3s19.5,0.1,25.3-14.2s6.1-27,1.9-34.6s-7.6-10.1-16-0.8
	c0,0-14.3,4.2-29.5-8.5c-15.2-12.7-24.4-36.1-30.3-48.8s-25.2-39.5-47.9-14.3c0,0-28.6-15.1-39.6,0.9c-11,16-22.7,63.9-30.3,68.1
	C358,350.2,352.7,351.1,347.5,350.3z"/>
<path class="st2" d="M369.8,488.7c0,0-22.6,0.6-43.3-2.4s-43.9-9.2-67.1,2.4s-49.4,30.5-60.9,70.7s-6.1,103-3.1,125
	s8.5,59.7,7.3,72.5s-7.3,30.5-4.9,38.4s12.2,51.2,12.2,51.2s-2.4,62.2,15.9,93.9s39.6,36,56.1,36s35.3-3.7,41.4-9.2
	s101.2,3.7,166.4,7.4s94.5,0.6,106.1-1.9s39-9.7,61.6-48.1s25-103,25-103s16.4-161,17.7-163.4s9.1-61.6-2.5-103.7
	s-30.5-62.1-67-66.4s-86,3.1-94.5,1.8S369.8,488.7,369.8,488.7z"/>
<path class="st1" d="M291.6,676.5c0,0,14.8-53.1,19.6-78.7s13.4-69.5,19.5-78.6c6.1-9.1,17.1-16.5,17.1-16.5s36.6-20.7,45.7-21.9
	s58.5,2.4,58.5,2.4l1.3,4.9l57.3,21.9c0,0,21.3,9.8,32.9,39.7c11.6,29.9,31.1,145.1,31.1,147.5s-23.8,12.2-39.6,18.3l-15.9,6.1
	l-14.6-68.3c0,0-14-17.7-17.1-31.1s-8.5-33.5-8.5-33.5l-42.1-12.8c0,0-23.2,12.2-28.6,18.3s-8.6,27.4-19.5,38.4l-11,10.9L362.2,697
	C362.2,697,329.6,702.5,291.6,676.5z"/>
<path class="st1" d="M513.8,451.8c0,0,0.8,22.5,9.3,30.7s16.1,9.2,16.1,9.2s-28.1,7.1-39.7,4.4s-4.4-25.2-4.4-26
	S513.8,451.8,513.8,451.8z"/>
<path d="M420.2,561.9c0,0,5.1,14.3,11.6,16.7l6.2-3.6c0,0-11.3-4.5-13.4-9.1S420.2,561.9,420.2,561.9z"/>
<path d="M415.3,511.4c0,0-12.8-7-14.5-7.1s-14.9,9.1-14.9,9.1s7.9-9.9,13-11.8c3.5-1.1,7.2-1.5,10.8-1.1c0,0,0.8,4.7,3.1,5.1
	l4.2,0.8L415.3,511.4z"/>
<path class="st2" d="M741.2,185.5c-0.4-5.7-5.9-7.7-10.3-6l-3.3,0.9c3.1-2.1,4.2-5.8,2.1-7.3c-2.9-2.1-6-25.9-17-50.5
	c-8.2-18.4-24.2-27.4-40.8-26.7l3.4-1.3c-4.9-6-13.1-8.2-20.4-5.4c-7,3-11.4,9.1-10.3,16.6l1.8-0.7c-10.4,8.2-14.5,20.1-16.9,31.7
	c-3,14.4,1.2,40.5,10.6,59.2c0,0,0,6.8,2.7,8.8l-0.2,0c-2.3,0.4-3.8,2.5-4.8,4.6c-0.9,1.5-1.3,3.3-1.1,5c0.3,2.3,1.7,6.8,9.6,6.8
	c1.4,0,32-9.2,56.8-16.8l-25.9,8.7c0.5,2.2,1.9,4.2,3.8,5.4c1.9,1.2,3.9,2.2,6.1,2.7c2.1,0.7,4.4,1,6.6,0.9c3.2-0.2,6.3-1.3,8.9-3.2
	c1.9-1.7,3.3-3.9,4.3-6.2c1.1-2.2,1.3-7.2,0.2-9.5c14.7-4.5,26.5-8.1,27.4-8.3C738.7,193.8,741.5,189.8,741.2,185.5z"/>
<path class="st3" d="M194.6,265.3H43c-10.4,0-18.8,8.4-18.8,18.8l0,0v84c0,10.4,8.4,18.8,18.8,18.8h86.2c0.4,0,0.8,0.2,1,0.6
	c1.3,2.1,19.2,29.4,19.7,29.2s1.9,0.9,2.2-0.2c1.3-6.3,4.4-18.8,6.6-28.7c0.1-0.5,0.6-0.9,1.1-0.9h34.8c10.4,0,18.8-8.4,18.8-18.8
	v-84C213.4,273.7,205,265.3,194.6,265.3L194.6,265.3z"/>
<path d="M151.7,419.4l-1.3-0.2c-1.8,0.7-2.5-0.4-12.1-14.8c-4-6-8.4-12.7-9.8-15H43c-11.8,0-21.3-9.5-21.3-21.3v-84
	c0.1-11.7,9.6-21.2,21.3-21.3h151.6c11.7,0.1,21.2,9.6,21.3,21.3v84c0,11.8-9.5,21.3-21.3,21.3h-33.7c-1,4.7-2.3,9.9-3.4,14.7
	l-3,12.9l-0.2,1.2l-1.3,0.9C152.6,419.3,152.1,419.4,151.7,419.4z M43,267.8c-9,0-16.3,7.3-16.3,16.3l0,0v84c0,9,7.3,16.3,16.3,16.3
	h86.2c1.3,0,2.6,0.7,3.2,1.9c1.1,1.9,13.5,20.8,17.9,26.9c0.6-2.9,1.4-6.5,2.4-10.3s2.5-10.7,3.6-15.6c0.3-1.7,1.8-2.9,3.5-2.9h34.8
	c9,0,16.3-7.3,16.3-16.3v-84c0-9-7.3-16.3-16.3-16.3c0,0,0,0,0,0H43z"/>
<path d="M352.4,399.1c-7.8,3.8-15.1-7.6-18.3-13c-4.2-7.1-6.8-15-7.5-23.2c-0.5-5.9-1-18.8,7.7-18.6c4,0.1,7.7,3.6,9.5,7.4
	s5.6,0.4,4.3-2.5c-4.9-10.3-19.7-14.4-25-1.8c-3,7.2-1.9,16.4-0.2,23.8c1.8,8.2,5.4,15.9,10.4,22.6c5.1,6.8,12.7,14,21.6,9.6
	C357.8,402,355.3,397.7,352.4,399.1z"/>
<path d="M540.8,348.8v-0.2c-1-1-2.5-1-3.5,0l-0.3,0.3c-0.6,0.6-0.8,1.6-0.6,2.4v0.3c0.3,1.1,1.3,1.8,2.4,1.8
	c2.9-0.3,4.3-3.3,6.9-4.6s6.7,0.4,8.6,3.8c3.2,5.9,3.3,12.9,1.9,19.3s-3.7,12.4-7.5,17.3s-11,7.4-17.7,8.9c-3.2,0.7-1.8,5.5,1.3,4.8
	c8.1-1.8,15.6-4.3,20.7-11.2c4.6-6.5,7.6-14.1,8.6-22c1.1-7.5,0.1-15.9-4.6-22.1c-2.1-3.1-5.8-4.8-9.5-4.4c-4.3,0.6-7,3.1-9.9,5.9
	l1.7-0.8h-0.5l2.4,1.8v-0.2l-0.6,2.4l0.2-0.2h-3.4c2.3,2.3,5.8-1.2,3.5-3.5L540.8,348.8z"/>
<path d="M468.7,492.2c16.9-9.5,33.1-21.4,45.1-36.9c3.9-4.9,7.1-10.2,9.7-15.9c2.6-5.9,3.8-12.2,5-18.5c2.6-13.1,4.6-26.3,6.4-39.5
	c0.4-3.1-4.4-4.5-4.8-1.3c-1.6,11.4-3.3,22.9-5.4,34.2c-1.2,6.9-2.3,14.1-4.7,20.7c-4.8,12.6-14.3,23.4-24.2,32.2
	c-9.1,7.9-19,14.9-29.6,20.7C463.4,489.5,465.9,493.8,468.7,492.2L468.7,492.2z"/>
<path d="M399.4,476.6c-18.3-12-29.5-33.8-36-54.2c-3.3-10.8-5.6-22-7-33.2c-0.5-3.2-5.3-1.9-4.9,1.3c3.6,25.8,10.9,51.2,26.7,72.3
	c5.2,7.1,11.5,13.2,18.7,18.1C399.6,482.7,402.1,478.4,399.4,476.6L399.4,476.6z"/>
<path d="M398,359.2c0.8,0.8,1.4,1.9,1.7,3c0.7,2.4,1,5,0.7,7.5c-0.1,1.1-0.3,2.2-0.8,3.2c-0.5,1-1.5,1.7-2.6,1.9
	c-1.6,0.1-3.1-0.8-3.8-2.2c-1-1.8-1.6-3.8-1.5-5.8c0.1-2,0.6-4,1.3-5.9c0.2-0.7,0.5-1.3,1-1.8c0.6-0.5,1.4-0.8,2.2-0.8
	C396.9,358.4,397.5,358.7,398,359.2z"/>
<path d="M396.7,360.5c0.5,0.6,0.9,1.2,1.1,2c0.4,1.1,0.6,2.2,0.7,3.4c0.2,1.3,0.2,2.5,0.1,3.8c0,1-0.3,1.9-0.9,2.7
	c-1.2,1.5-2.7-0.3-3.4-1.6c-0.8-2.1-0.9-4.3-0.4-6.5c0.2-1.3,0.6-2.5,1.2-3.6c0.1-0.3,0.4-0.5,0.7-0.5
	C396.1,360.1,396.5,360.2,396.7,360.5c0.7,0.7,1.9,0.7,2.6,0c0.7-0.7,0.8-1.9,0-2.7c0,0,0,0,0,0c-0.6-0.6-1.4-1-2.2-1.2
	c-0.9-0.2-1.8-0.2-2.7,0.2c-1.6,0.6-2.8,1.9-3.2,3.6c-1.4,3.3-1.6,6.9-0.8,10.4c0.9,3.2,3.7,6.7,7.3,5.8s4.6-5,4.7-8.2
	c0-2.1-0.2-4.1-0.8-6.1c-0.3-1.7-1.1-3.3-2.3-4.5c-0.7-0.6-1.9-0.6-2.6,0C395.9,358.5,395.9,359.7,396.7,360.5
	C396.6,360.4,396.7,360.5,396.7,360.5z"/>
<path d="M479.5,354.7c0.8,0.9,1.4,1.9,1.7,3c0.7,2.5,1,5,0.7,7.6c-0.1,1.1-0.3,2.2-0.8,3.2c-0.6,1-1.5,1.6-2.6,1.8
	c-1.6,0.1-3.1-0.8-3.8-2.2c-1-1.8-1.6-3.8-1.5-5.8c0.1-2,0.6-3.9,1.3-5.8c0.1-0.7,0.5-1.3,1-1.8c0.6-0.6,1.4-0.9,2.2-0.9
	C478.4,353.9,479,354.2,479.5,354.7z"/>
<path d="M478.2,356c0.5,0.6,0.9,1.3,1.1,2c0.4,1.1,0.6,2.3,0.7,3.5c0.2,1.3,0.2,2.5,0.1,3.8c0,0.9-0.4,1.8-0.9,2.6
	c-1.3,1.5-2.8-0.2-3.4-1.6c-0.8-2-0.9-4.3-0.4-6.4c0.2-1.3,0.6-2.5,1.2-3.7c0.1-0.3,0.4-0.4,0.7-0.4
	C477.6,355.6,477.9,355.7,478.2,356c0.7,0.7,1.9,0.7,2.6,0c0.7-0.7,0.7-1.8,0.1-2.5c0,0,0,0-0.1-0.1c-1.2-1.4-3.2-1.8-4.9-1.1
	c-1.6,0.6-2.8,2-3.2,3.7c-1.2,3.3-1.9,6.9-0.8,10.4s3.7,6.6,7.3,5.7s4.6-5,4.7-8.2c0-2.1-0.2-4.1-0.8-6.1c-0.3-1.7-1.1-3.2-2.3-4.4
	c-0.7-0.7-1.9-0.7-2.6,0S477.5,355.2,478.2,356L478.2,356L478.2,356z"/>
<path d="M428.5,376.6c0.2,3.8-0.3,7.6-1.4,11.3c-1.1,3.8-3.3,6.9-4.7,10.6s-0.6,7,1.7,10.2c2.2,3.1,4.7,6,7.4,8.7
	c2.3,2.2,5.9-1.3,3.5-3.5c-2.4-2.4-4.6-5-6.6-7.8c-1.1-1.5-2-2.9-1.7-4.8c0.5-1.6,1.2-3.1,2.1-4.5c3.3-6.2,4.9-13.2,4.7-20.2
	C433.4,373.4,428.4,373.4,428.5,376.6L428.5,376.6z"/>
<path d="M345.3,350c5.3,4.6,11.8,6,17.5,1.3s9.1-12.8,11.7-19.8c6-15.4,8.8-32.3,17.3-46.6c1.4-2.7,3.4-5,5.7-6.9
	c2.7-1.9,6.2-2.5,9.4-2.8c7.3-0.8,15.5,0.5,20.9,5.8c2.3,2.2,5.8-1.3,3.5-3.6c-8.2-8.1-23.6-9.7-33.9-5c-10.3,4.7-13.4,16.7-17,25.8
	c-5.5,14.2-8,29.8-15.8,43c-1.7,2.9-4,6.3-7.1,7.7s-6.3-0.3-8.7-2.4S342.9,347.9,345.3,350z"/>
<path d="M437.2,281.4c1.1-5.2,6-8.3,10.9-9.5c4.9-1.2,11.7,0.6,16.3,4.2c9.2,7.3,14.1,19.5,18.6,30c3.7,8.4,7.2,16.3,13.1,23.4
	c5.7,6.9,12.4,13,19.9,18.1c6.5,4.4,15.2,8.9,23.3,6.5c3.1-0.9,1.8-5.7-1.3-4.8c-7.6,2.2-15.9-3.4-21.7-7.6
	c-7.4-5.4-14-11.8-19.4-19.2c-6.3-8.7-9.4-19.5-14.1-29.1s-11.5-21-22.3-25.3c-10.8-4.3-25.6,0.1-28.1,11.9
	C431.7,283.2,436.5,284.5,437.2,281.4z"/>
<path d="M448.2,284.7c2.4-3,5.8-5,9.6-5.6c3.6-0.5,7.8,0.3,10.6,2.7c1.1,0.8,2.7,0.6,3.5-0.5c0.7-0.9,0.7-2.1,0-3
	c-7.7-6.9-21-5.2-27.2,2.9c-0.8,1.1-0.6,2.7,0.5,3.5C446.1,285.3,447.3,285.3,448.2,284.7z"/>
<path d="M337.9,243.3c6.7-10.2,15.5-18.9,25.8-25.4c5.1-3.2,10.6-5.7,16.3-7.5c2.4-0.7,4.9-1.3,7.5-1.8c1.3-0.2,2.6-0.5,4-0.6h1.4
	c0.7-0.1,1.2,0.3,0.5-0.2c1,0.9,2.5,0.9,3.5,0c3.3-3.5,7.6-6,12.2-8.3c12.2-6.1,26-8.3,39.6-8.2s24.5,2.1,36.4,5.2
	c3.1,0.8,4.5-4,1.4-4.8c-28.4-7.4-63.7-9.6-88.7,8.8c-1.6,1.1-3.1,2.3-4.4,3.7h3.5c-3.6-2.9-10.6-0.5-14.6,0.4
	c-6.7,1.7-13.1,4.3-19.1,7.7c-11.9,7.1-22,16.9-29.6,28.5C331.8,243.5,336.1,246,337.9,243.3L337.9,243.3z"/>
<path d="M334.6,364.4h0.1l-0.9-3.4h-0.1l0.9-0.9h-0.1l1.9-0.2h-0.2l1.8,1.8v-0.3l-0.2,2c-0.2,0-0.2,0,0-0.2c0.2-0.1,0.4-0.3,0.5-0.5
	l0.9-0.9l1-0.9l0.3-0.4c0.5-0.4,0.4-0.4-0.1,0h-1.3c-0.6-0.4-0.6-0.3-0.2,0.1l0.5,0.6l0.6,0.8c0.5,0.8,1.1,1.6,1.5,2.4
	c0.9,1.6,1.7,3.3,2.3,5l4.6-1.9c-1.4-2.6-4.6-3.6-7.2-2.2c-0.1,0.1-0.2,0.1-0.3,0.2c-2.4,1.5-3.4,4.7-3.8,7.4s-0.5,5.4,1.1,7.6
	s4.4,3.3,7.1,3.8c1.3,0.4,2.7-0.4,3.1-1.7c0.4-1.3-0.4-2.7-1.7-3.1c0,0,0,0,0,0c-1.3-0.3-2.9-0.5-4-1.4c-0.8-0.8-1.1-2-0.9-3.1
	c0.1-1.4,0.4-2.9,1-4.2c0.2-0.5,0.5-0.9,1-1.2c0.1-0.1,0,0-0.2-0.1c0.2,0.1,0.4,0.3,0.5,0.5c1.4,2.3,5.5,0.9,4.5-1.9
	c-0.8-2.4-1.9-4.7-3.2-6.9c-0.7-1.1-1.4-2.2-2.2-3.2c-0.8-1-1.5-2-2.8-2.3s-2.6,0.5-3.6,1.5c-1,0.9-1.9,1.8-2.7,2.8
	c-1.2,1.1-1.2,2.9-0.1,4.1c0.1,0.1,0.1,0.1,0.2,0.2c1.1,0.9,2.7,0.7,3.7-0.4c0.1-0.2,0.2-0.3,0.3-0.5c0.6-1.2,0.2-2.7-0.9-3.4h-0.1
	c-2.8-1.6-5.3,2.7-2.5,4.3L334.6,364.4z"/>
<path d="M549.3,363.7c-0.5-2-2.3-3.4-4.4-3.2c-1.8,0.2-3.4,1.1-4.5,2.5c-2.4,2.9-3.5,6.6-3.1,10.3c0,1,0.7,1.9,1.6,2.3
	c0.9,0.3,2,0.1,2.7-0.5c0.4-0.5,0.8-0.6-0.2-0.4c-0.4,0.2-0.9,0.1-1.2-0.2h-0.1c0.1-0.1,0.3,0.8,0.4,1c0.1,1-0.1,2-0.4,3
	c-0.2,0.9-0.6,1.7-1.2,2.4c-0.4,0.5-1,0.8-1.7,0.9c-1.4,0-2.5,1.1-2.5,2.5s1.1,2.5,2.5,2.5c4.7-0.2,7.5-4.5,8.1-8.8
	c0.4-2.2,0.1-4.4-1-6.3c-1.6-2.4-4.5-2.1-6.2-0.1l4.2,1.8c-0.3-2,0-4.1,1-5.9l0.4-0.6l0.2-0.3l0.6-0.5c0.3-0.4-0.2,0,0.3-0.3
	l0.3-0.2c-0.2,0.1-0.1,0,0.1,0h-0.3c-0.3-0.2-0.6-1.1-0.4-0.3c0.4,1.3,1.7,2,3,1.7c1.3-0.4,2.1-1.8,1.8-3.1L549.3,363.7z"/>
<path d="M373.3,343.5c12.6-1.5,24.7-5.8,35.4-12.7c2.6-1.8,0.1-6.1-2.5-4.3c-9.9,6.4-21.2,10.5-32.9,12c-1.4,0.1-2.4,1.1-2.5,2.5
	C370.8,342.2,372,343.7,373.3,343.5z"/>
<path d="M452.5,322.1c12.4,10.6,27.4,17.8,43.5,20.6c3.2,0.6,4.5-4.2,1.4-4.8c-15.3-2.6-29.6-9.3-41.4-19.3
	C453.5,316.5,450,320,452.5,322.1L452.5,322.1z"/>
<path class="st4" d="M505.7,407.2c-2.2-17.3-19.5-17.3-19.5-17.3s-65-1.5-79.1,1.9s-12.4,14.8-12.4,14.8l7.4,73l44,1.7l8.1,8.5
	l53.8,18.3C508,508.1,507.8,424.6,505.7,407.2z"/>
<path d="M478.8,589c1.6,13.8,4.2,27.5,8.9,40.5c2.3,6.5,5.2,12.6,8.9,18.4c1.7,2.5,3.6,4.9,5.6,7.2c0.4,0.5,1.5,1.5,1.1,0.8
	c0.1,0.2,0.1,0.5,0.1,0.7c3.7,15,6.3,30.4,9.1,45.6c0.8,4.2,1.6,8.5,2.3,12.7c0.2,1.4,0.4,2.7,0.5,3.8c0.1,1.1-0.1,2.2,0.2,1.3
	c-0.9,3.1,3.9,4.4,4.8,1.4c0.9-3-0.1-3.9-0.4-5.5c-0.4-3.3-1-6.6-1.6-9.9c-1.7-9.2-3.5-18.4-5.3-27.6c-1.5-7.1-2.9-14.2-4.4-21.3
	c-0.4-2.3-0.6-3.1-2.3-4.9c-4.5-5-8.2-10.7-10.9-16.9c-6.7-14.5-9.8-30.6-11.6-46.3C483.4,585.9,478.4,585.8,478.8,589L478.8,589z"
	/>
<path d="M486.6,588.5c-3-2.3-7.2-3.3-10.8-4.2l-13.7-3.4c-5.1-1.4-10.1-3.1-15-5c-5.9-2.2-11.8-4.6-17.1-8.1c-2.9-1.9-8.6-6.4-4-9.6
	c2.4-1.7,5.9-1.3,8.6-1c6.8,0.9,13.5,3.4,20.2,5.1l17.7,4.5c3.1,0.7,4.5-4.1,1.3-4.8l-17.7-4.5c-7.7-2-15.3-4.9-23.3-5.4
	c-6.4-0.5-16.2,3.3-13.1,11.7c1.9,5.3,8.1,8.8,12.8,11.2c6.3,3.1,12.7,5.7,19.4,7.8c5.5,1.9,11.2,3.6,16.9,4.9
	c4.9,1.2,11.1,2,15.3,5.1C486.6,594.7,489.1,590.4,486.6,588.5L486.6,588.5z"/>
<path d="M489.8,547.8c-8.7-4.2-18.2-7-27.5-9.5c-11.1-2.9-22.7-5.5-34.2-5.6c-4.8,0-11,0.1-13.4,5c-1.6,3.6-0.9,7.9,1.9,10.7
	c3.4,3.3,8.7,4.5,13.1,5.7l14,3.5c14.2,3.7,28.7,6.4,40.9,15c2.7,1.9,5.2-2.4,2.6-4.3c-10.1-7.1-21.4-10.2-33.2-13.2
	c-8.5-2.1-17-4.1-25.4-6.5c-3-0.8-8-1.9-9.3-4.9c-2.7-5.9,5-6,8.8-6c10.4,0.1,20.8,2.3,30.9,4.9s19.4,5.2,28.3,9.5
	C490.2,553.5,492.7,549.2,489.8,547.8L489.8,547.8z"/>
<path d="M451.7,491.4c17,4.4,33.7,10.1,49.9,16.8c6.9,2.9,13.8,6.1,19.5,11.1c5.8,5.1,10.6,11.3,14.3,18.1c4.5,8.3,7,17.2,9.3,26.2
	s4.4,18.1,6.5,27.2c5.3,23.1,10,46.4,14.7,69.6c2.5,12.2,5,24.3,7.7,36.4c0.6,3.2,5.4,1.8,4.8-1.3c-7.3-33.6-13.7-67.4-21.2-100.9
	c-2.3-9.8-4.5-19.6-6.9-29.3s-4.5-17.9-8.5-26.3c-6.5-13.7-16.7-25-30.3-31.7c-11.6-5.7-24.1-9.8-36.3-14
	c-7.3-2.5-14.7-4.8-22.1-6.7C450,485.8,448.6,490.6,451.7,491.4L451.7,491.4z"/>
<path d="M488.2,546.4c-16.3-12.3-36.5-17-55-24.8c-3.4-1.3-6.7-3-9.8-4.9c-2-1.3-4.5-2.9-5.7-5.1c-2-3.9,6.2-4.7,8.5-4.7
	c5.5-0.2,10.9,1.2,16.2,2.6s10.8,3,16.2,4.7c12.9,4.2,26.1,8.9,37.5,16.5c2.6,1.7,5.1-2.6,2.5-4.3c-11.1-7.4-24-12.1-36.5-16.3
	c-6.1-2-12.2-3.8-18.4-5.5s-12.2-3-18.4-2.7s-11.2,1.6-12.7,6.9c-1.5,5.3,2,7.5,4.9,9.8c5.9,4.8,13.3,7.5,20.3,10.2
	c3.7,1.5,7.3,3,11.1,4.2c12.9,4.1,25.9,9.5,36.8,17.7C488.3,552.6,490.8,548.3,488.2,546.4L488.2,546.4z"/>
<path d="M294.6,677.4c10.3-32.1,19.1-65.1,24.4-98.5c1.8-11.4,3.9-22.8,6.6-34.1c1.4-5.9,3-11.8,5-17.5c1.4-3.9,2.9-8.1,5.6-11.3
	c2.7-3.2,9-7.6,13.8-10.6c6.3-3.9,12.7-7.5,19.2-10.8c5.6-2.9,11.3-5.7,17-8.3c3.1-1.5,5.6-2.8,9-3.3c11.4-1.5,23.5-0.7,35.1-0.3
	c4.9,0.2,9.9,0.5,14.8,0.9c2.2,0.2,4.2-0.1,4.7,2.6c0.9,5-7.7,7.6-11.1,8.5c-9.2,2.5-18.8,3-28.3,3.3c-5,0.2-10.9-0.1-15.3,2.7
	s-10.2,8.2-14.8,12.6l-3.4,3.4c-2.3,2.2,1.3,5.8,3.5,3.5c3.8-3.8,7.7-7.5,11.7-10.9c2.1-1.8,4.3-4,6.8-5s5.3-1,7.8-1.2
	c9.2-0.4,18.2-0.6,27.2-2.3c6.7-1.2,15.6-3,19.5-9.3c2.2-3.4,1.7-7.8-1.1-10.6c-2.3-2.3-5.7-2.2-8.7-2.4c-12.3-0.9-24.7-1.3-37-1.1
	c-4.9,0.1-10.1,0-14.8,1.2s-7.6,3.1-11.2,4.8c-13.1,6.2-26.3,12.8-38.2,21.1c-4.3,2.9-8.7,6.1-11.6,10.4s-4.5,9.4-6,14.2
	c-4,12.4-6.6,25.2-8.9,38c-1.4,8.1-2.5,16.3-4.1,24.4c-4.6,22.9-10.2,45.5-16.9,68c-1.6,5.6-3.3,11.1-5.1,16.6
	C288.8,679.2,293.6,680.5,294.6,677.4L294.6,677.4z"/>
<path d="M379.8,520.8c5.3-2.7,10.9-4.7,16.7-5.9c5.8-1.4,11.7-2,17.6-2c3.2,0,3.2-5,0-5c-12.8-0.2-25.4,2.8-36.8,8.6
	C374.5,518.1,377,522.4,379.8,520.8L379.8,520.8z"/>
<path d="M387.7,545.7c5-2.9,10.7-4.4,16.3-5.6c5.7-1.2,11.5-2,17.3-2.2c3.2-0.1,3.2-5.1,0-4.9c-6.3,0.2-12.5,1-18.6,2.3
	c-6,1.3-12.2,3-17.5,6.1C382.4,543,384.9,547.3,387.7,545.7L387.7,545.7z"/>
<path d="M391.7,575.3c9-5.7,18.5-10.5,29.2-11.8c1.4,0,2.5-1.1,2.5-2.5s-1.1-2.5-2.5-2.5c-11.6,1.4-21.9,6.3-31.7,12.5
	C386.5,572.7,389,577,391.7,575.3z"/>
<path d="M437.4,573.5c-7.7,3.6-14.6,8.6-21.9,12.8c-4.1,2.4-8.1,4.6-10.9,8.5s-3.8,8.9-5.5,13.4c-3.2,8.3-7.7,16.8-13.6,23.5
	c-2.9,3.2-7.4,5-9.8,8.5s-3.8,10.4-5.3,15.2c-4,13.6-7.6,27.3-10.8,41.1c-0.7,3.2,4.1,4.5,4.8,1.4c2.7-11.7,5.7-23.2,9-34.7
	c1.6-5.8,3.3-11.6,5.2-17.3s5.8-6.1,9-9.3c6.2-6,10.6-14.1,14.1-21.9c1.6-3.7,3.1-7.5,4.3-11.3c2-5.7,5.2-8.9,10.4-11.9
	c7.9-4.5,15.3-9.8,23.5-13.7C442.8,576.5,440.2,572.2,437.4,573.5L437.4,573.5z"/>
<path d="M381.9,482.2c-10.6,3.7-21.9,5.4-33.1,5c-10.5-0.7-20.9-2.1-31.1-4.4c-7.5-1.6-15.1-3.3-22.9-3.6c-10-0.3-20,1.6-29.5,4.2
	c-11.1,3.1-21,9.2-30,16.2c-8.4,6.5-15.6,14.5-21.3,23.5c-12.3,19.1-20.1,40.8-22.8,63.4c-3.1,26-2.2,52.3,0.6,78.3
	c2.5,23.3,6.7,46.4,8.2,69.8c0.8,11.5,1.1,23.3-0.6,34.8c-0.9,5.8-2.7,11.3-3.6,17.1s-0.5,12.8,0.9,19.2c0.9,4.3,2.5,8.5,3.4,12.8
	c1.4,6.6,2.6,13.3,4,19.8c0.8,3.4,1.6,6.8,2.6,10.2s5.7,1.7,4.8-1.4c-3.5-11.6-4.8-23.7-8.1-35.4c-2-6.8-3.7-13.8-3.2-21
	c0.3-4.4,2-9.9,3.1-14.8c1.8-9.3,2.5-18.8,2.3-28.3c-0.3-19.4-2.9-38.7-5.6-57.9c-3.7-26-6.5-52.3-5.6-78.6
	c0.4-12.4,1.2-24.9,3.8-37.1s6.5-22,11.4-32.4s10-19.3,17.2-27.5c7.6-8.3,16.6-15.2,26.5-20.5c16.7-9,37-11.2,55.4-7.6
	s38.2,8.2,57.5,5.3c5.8-1,11.5-2.4,17-4.3C386.2,486,384.9,481.2,381.9,482.2L381.9,482.2z"/>
<path d="M285.8,974.5c-15.8-0.6-32.4-4.1-44.6-14.8c-6.6-5.9-11.6-13.3-14.5-21.7c-1.3-3.5-2.6-6.9-4.1-10.4
	c-3.8-8.5-6.3-17.6-7.6-26.8c-2.5-20.5-4.8-40.7-2.2-61.3s8.8-42.3,15.2-62.9s13.9-41.9,21.5-62.6c3.4-9.1,6.8-18.2,10.7-27.1
	c2.4-5.4,4.9-11.1,8.3-15.9c0.9-1.2,2.2-2.2,2.9-3c0.7-0.8-0.1-0.1,0,0.1h-0.2l0.8,0.6c1.9,1.4,4.1,2.5,6.1,3.7
	c11.2,6.6,22.8,12.5,34.7,17.5c13.5,5.6,28.3,10.9,43.1,10.5c3.1,0,6.1-0.4,9.1-1.1l-3.2-2.5l-1.8,28.6c-1.6,22.5-3.3,45-5.2,67.3
	c-2.1,25.8-4.5,51.5-7.6,77.1c-2.4,19.5-4.6,39.4-9.6,58.5c-2.8,11.4-8,22.1-15.4,31.2c-7.6,9-17.6,14.3-29.4,14.9
	C290.4,974.5,288.1,974.6,285.8,974.5c-3.2-0.1-3.2,4.9,0,5c10.7,0.3,21.3-1.3,30.2-7.5c11.9-8.3,19.8-22.2,24.5-35.7
	c2.2-7.1,3.9-14.3,5.1-21.6c2-10.6,3.5-21.2,4.9-31.8c3.4-25.7,5.9-51.6,8.2-77.5c2.1-23.9,4-47.9,5.7-71.9
	c0.5-8.1,1.1-16.2,1.6-24.4c0.5-3.9,0.7-7.9,0.8-11.8v-0.6c0.1-1.6-1.7-2.7-3.2-2.4c-14,3.5-29.8-1.7-42.9-6.7
	c-13.2-5.1-26-11.3-38.2-18.5c-2.6-1.5-5.3-3-7.8-4.7h-0.2c-0.6-0.5-1.3-0.9-2.1-1.1c-1.6-0.3-3.2,0.2-4.5,1.2
	c-3.7,2.7-6,7.5-8,11.5c-3.7,7.4-6.9,15.2-9.9,22.9c-8.3,21-15.7,42.4-22.7,63.8s-13.3,41.6-17.3,63c-2.2,11-3.4,22.2-3.5,33.5
	c0,10.1,0.8,20.3,2.2,30.3c1.1,9.8,1.9,19.6,5.1,29c1.8,5.2,3.9,10.3,6.1,15.3l0.3,0.7c0.1,0.1,0.1,0.2,0.1,0.3
	c0.1,0.1,0.2,0.3,0.2,0.5l0.6,1.6c2.5,8,6.6,15.5,12,21.9c9.7,10.8,23.6,16.8,37.7,19.2c5,0.8,10,1.3,15,1.5
	C289,979.6,289,974.6,285.8,974.5z"/>
<path d="M237.1,558.8c16.1,21.4,25.4,47.2,26.6,74c0.1,3.2,5.1,3.2,5,0c-1.2-27.7-10.7-54.3-27.3-76.5
	C239.5,553.7,235.2,556.2,237.1,558.8z"/>
<path d="M511.3,451.8c0.4,5.6,1.3,11.1,2.8,16.5c2.2,8,6,17.1,13.7,21.2c7.7,4.1,17.5,1.9,25.3,1.3c12.4-0.9,24.9-1.9,37.3-2.2
	c14.5-0.4,29-0.1,43.3,2.3c11.4,2,23.2,4.8,32.4,12.2c17.5,14,25.9,37.4,30.8,58.5c5.5,24.4,7,49.6,4.5,74.5
	c-2.1,21.1-5.1,42.2-7.5,63.4c-6,53.1-11.7,106.4-19.6,159.3c-3.7,24.9-7.5,49.8-21.4,71.4c-12.4,19.3-31.8,33.5-54.8,36.5
	c-9.4,1.3-18.7,1-27.6-2.7c-21.3-9.6-37.8-27.6-45.5-49.7c-3-9.4-3.3-19.2-4.4-29c-4.7-41.8-12.1-83.4-18.8-124.9
	c-1.1-6.9-2.2-13.8-3.2-20.7c-0.3-2.1-0.5-3.4-0.7-5.5c-0.1-0.5-0.1-1-0.1-1.5v-0.3c-0.3,1,0.6-0.3,0.9-0.5c3.4-2.8,8-4.4,12-6
	l7.9-2.8c13.6-4.5,27.6-8,40.9-13.7c12.7-5.2,24.4-12.9,34.2-22.5c2.4-2.4,5.4-5.2,8.9-5.6s3.4,0.9,4.4,2.8l0.2,0.3
	c0.3,0.6-0.2-0.4,0,0.2c4.6,11,8.6,22.4,12.7,33.7c7.2,20.2,14.2,40.6,20.6,61.2s12.7,42.2,17.1,63.8c1.8,8,3,16.1,3.6,24.3
	c0.3,3.2,5.2,3.3,5,0c-1.3-19.6-6.5-39.1-11.7-58.1c-6.2-22.5-13.3-44.8-20.8-66.9c-5.8-16.7-11.7-33.4-18-49.9
	c-1.3-3.6-2.6-7.3-4.2-10.8c-4.1-8.7-13.6-5.5-19.3-0.5s-8.9,8.5-14.1,12.2c-5.9,4.1-12.1,7.6-18.7,10.5
	c-13.2,5.9-27.4,9.5-41.2,13.9c-7.3,2.3-15.3,4.9-21.6,9.3c-4.2,2.9-3.9,5.6-3.3,10c5.2,39,12.6,77.6,18.2,116.5
	c1.4,9.9,2.8,19.9,3.9,29.8c1.1,9.9,1.4,20,4.1,29.6c6.3,22.7,23.6,42.7,44.6,53.3c8.4,4.3,17.8,6.3,27.3,5.8
	c11.2-0.5,22.2-3.3,32.2-8.3c21.9-11,36.8-32,45-54.6c4.5-12.4,6.8-25.2,8.8-38.2s3.7-24.6,5.4-36.9c3.7-27.7,7-55.4,10.2-83.2
	c3-26,5.9-52.1,8.9-78.1c2.6-22.1,6.1-44,5.5-66.2c-0.7-25.3-4.7-51.2-14.7-74.5c-4.4-10.1-10.1-20-17.8-27.9
	c-7.7-7.9-16.5-12.5-26.8-15.4c-27.6-7.7-57.1-6-85.3-3.9c-9.1,0.7-18.8,2.2-27.9,1.4s-13.6-11.2-15.8-18.9
	c-1.5-5.1-2.5-10.4-2.8-15.8C516.1,448.6,511.2,448.6,511.3,451.8L511.3,451.8z"/>
<path d="M622.9,527.7c-18.4,27.8-29,59.9-30.7,93.2c-0.2,3.2,4.8,3.2,5,0c1.7-32.4,12-63.7,30-90.7
	C628.9,527.5,624.6,525,622.9,527.7z"/>
<path d="M510.1,507.9c-0.4-18.4-0.8-36.8-1.1-55.2c-0.3-11.3-0.5-22.7-0.6-34.1s0.8-23.1-10.3-28c-8.4-3.7-17.6-3.6-26.6-3.8
	c-13.7-0.2-27.5,0.2-41.3,0.8c-5.7,0.2-11.5,0.5-17.3,1s-11,0.9-15.4,4.2c-3.7,2.7-5.8,7.1-5.6,11.7l0.3,2.1c0.1,0.9,0,0.2,0,0.5
	s0.3,3.3,0.5,4.9c2,21.4,4,42.7,5.9,64.1c0.1,0.5,0.1,1.1,0.2,1.7c0.1,3.2,5.1,3.2,4.9,0c-0.2-6.7-1.2-13.4-1.8-20.1l-3.3-35.8
	l-1.2-13.2c-0.3-2.7-0.8-3.7-0.4-6.4c1-5.6,6.5-7.6,11.6-8.2s9.3-0.9,14-1.2c13.2-0.7,26.5-1.1,39.7-1.1c5.8,0,11.5,0,17.3,0.2
	c3.3,0.2,6.8,0.2,10,1s9.1,2.3,11.4,6.4s2.3,11.1,2.4,16.5c0.1,10.3,0.3,20.6,0.5,30.9c0.3,20,0.5,40,1.2,60c0,0.4,0,0.7,0.1,1.1
	C505.2,511.1,510.2,511.2,510.1,507.9L510.1,507.9z"/>
<path d="M420,399.7c-2.4-0.1-4.8,0.3-7,1.2c-1.8,0.9-3.2,2.3-4.1,4.1c-1,1.8-1.4,3.9-1.1,6c0.3,2.2,1.3,4.3,2.7,6.1
	c2.6,3.8,7.7,5,11.7,2.8c3.6-1.9,5.3-6.2,5.5-10S424.7,400.1,420,399.7c-1.4-0.1-2.5,1-2.6,2.3c0,0.1,0,0.1,0,0.2
	c0.1,1.4,1.1,2.4,2.5,2.5l0,0c0.2,0,0.6,0.2,0.1,0l0.8,0.5c-0.4-0.3,0,0,0.1,0.1l0.4,0.4l0.3,0.4c-0.3-0.4,0.2,0.2,0.2,0.2l0.5,0.9
	c0,0.1,0.2,0.6,0.1,0.1c0,0.1,0,0.3,0.1,0.4c0.1,0.2,0.1,0.5,0.2,0.8s0-0.4,0,0v1.6c0,0.2,0,0.3-0.1,0.5c0.1-0.5,0,0,0,0.1
	c-0.1,0.7-0.3,1.4-0.6,2.1c-0.2,0.6,0.2-0.3,0,0.1c-0.1,0.1-0.2,0.3-0.2,0.5l-0.5,0.7l-0.3,0.4c-0.1,0.4,0.4-0.3,0,0.1l-0.8,0.7
	c0.4-0.2,0.1,0,0,0l-0.5,0.3c-0.1,0.1-0.5,0.3-0.1,0.1l-0.4,0.2h-0.5c0.1,0-0.7,0.1-0.3,0.1s-0.3,0-0.3,0h-1.6
	c-0.6-0.2,0.3,0.1-0.1-0.1l-0.9-0.5c0.3,0.2-0.1-0.1-0.1-0.1l-0.5-0.6l-0.3-0.3l-0.3-0.4c-0.2-0.2-0.4-0.5-0.5-0.8
	c-0.3-0.4-0.5-0.8-0.7-1.2c0,0-0.1-0.4,0-0.1l-0.3-0.8c0-0.2,0-0.3-0.1-0.5c-0.2-0.7,0,0.2,0-0.2c-0.1-0.3-0.1-0.6-0.1-0.9
	c0.1-0.2,0.1-0.3,0.1-0.5c-0.1,0.6,0,0.1,0,0c0.1-0.4,0.2-0.8,0.4-1.2l0,0l0.3-0.6l0.2-0.3c0.3-0.5-0.2,0.2,0.2-0.2l0.7-0.8
	c0.5-0.4-0.2,0.2,0.1-0.1l0.6-0.3l0.5-0.2h0.3c0.4-0.2,0.9-0.3,1.3-0.3h2.7c1.4,0,2.5-1.1,2.5-2.5s-1.1-2.5-2.5-2.5L420,399.7z"/>
<path d="M232.1,506.8c-4.9-17.9-6.5-37.9,3.4-54.5c7.1-11.8,18.5-19.7,30-26.8c8.7-5.5,19.9-11.1,24.9-20.7
	c6.3-12.1,8.5-26.4,9.7-39.9s1-29.4,2.6-44.1c3.2-31.7,17.3-61.5,39.2-84.7c2.2-2.3-1.3-5.8-3.6-3.5c-19.3,20.5-33.1,46.2-38.6,74
	s-0.6,59.5-10.3,87.7c-2.4,6.8-5.1,11.8-10.6,16.3c-4.7,3.6-9.6,6.8-14.7,9.8c-11.6,7.3-23.3,15.2-31.2,26.7
	c-12.3,18.1-11.1,40.8-5.6,61.1C228.2,511.3,233,510,232.1,506.8L232.1,506.8z"/>
<path d="M490.9,200c9.8,2.8,19,7.2,27.2,13.1c12.2,8.6,21.4,20.1,29.1,32.7c14,23.4,24.6,48,28.9,75c2.4,14.9,3.1,30,3.6,45
	c0.6,16.5,1.2,33.4,6.5,49.2c3.9,11.6,17.1,15.4,26.7,21.1c8,4.5,15.1,10.5,20.9,17.7c8.9,11.1,14,24.7,17.4,38.4
	c0.8,3.1,5.6,1.8,4.8-1.3c-5.4-21.7-15.5-42-34.2-55.1c-5.7-4-12-7.1-18.1-10.4c-4.3-2.2-9.1-4.7-11.5-9s-4.2-13.2-5.1-19.3
	c-1.3-8.4-2-17-2.2-25.5c-0.6-15.6-1.1-31.2-3.2-46.7c-3.7-27.3-13.2-52.4-27-76.1c-8.3-14.4-17.8-27.6-31-37.8
	c-9.4-7.2-20-12.5-31.4-15.8C489.2,194.3,487.8,199.1,490.9,200L490.9,200z"/>
<path d="M204.9,758.8h-0.2c-0.9-0.2-1.8,0-2.5,0.6c-1.2,1.1-1.3,3-0.1,4.2c1.1,1.2,3,1.3,4.2,0.1c0.3-0.3,0.5-0.6,0.7-1
	c1.1-2,2.1-4,3-6.1c0.9-2,1.8-4.1,2.6-6.1c3.5-8.3,6.5-16.9,9-25.6c0.8-3.1-4-4.4-4.8-1.3c-1.8,6.3-3.8,12.6-6.2,18.7
	c-1.2,3.1-2.4,6.2-3.8,9.2l-2,4.5l-1,1.9l-0.6,1.2c-0.5,0.8-0.4,0.9,0.2,0.3l2,0.3h-0.2l1.1,1.5l-0.5,1.8l-2.5,0.6h0.2
	c3.2,0.8,4.5-4,1.4-4.8V758.8z"/>
<path d="M374.7,783c23.2-22.1,50.8-38.8,81.1-49.2c3.1-1,1.8-5.8-1.3-4.8c-31.1,10.6-59.6,27.9-83.4,50.5
	C368.8,781.7,372.3,785.2,374.7,783z"/>
<path d="M408,504.1c0.4,0.8,0.9,1.4,1.5,2c0.8,0.7,1.7,1.2,2.6,1.5l1.9,0.6c0.8,0.3,1.7,0.5,2.6,0.5c1.4,0,2.5-1.1,2.5-2.5
	s-1.1-2.5-2.5-2.5h-0.1l-1.6-0.4l-1.6-0.6l0.6,0.3c-0.4-0.2-0.9-0.4-1.2-0.7l0.5,0.4c-0.3-0.2-0.6-0.5-0.8-0.8l0.4,0.5
	c-0.2-0.3-0.4-0.5-0.5-0.8c-0.3-0.5-0.8-0.9-1.4-1.1c-0.7-0.2-1.4-0.1-2,0.2c-0.5,0.4-0.9,0.9-1.1,1.5v0.7
	C407.8,503.3,407.9,503.7,408,504.1L408,504.1z"/>
<path d="M432.6,524.9c-0.6,0,19.5,9.8,16.9,9.8c-12.5,0-13.9,0.7-13.9,0.7s37.9,7.7,37.4,6.9S437.6,525.1,432.6,524.9z"/>
<path d="M517.4,710.4c0,0,35.4-2.6,50.7-8.7l-50.2,19L517.4,710.4z"/>
<path d="M308.1,683.8c0,0,30.6,11,40.7,9.7s12.6-1.3,12.6-1.3l0.8,4.8C362.2,697,330.9,699.1,308.1,683.8z"/>
<path d="M272,663.5l2.3,5.3c5.9,5.2,17.3,7.7,17.3,7.7l0.9-8C283.4,663.3,272,663.5,272,663.5z"/>
<path d="M510.3,500.2c8.5-2.2,17.4-3.5,24.7-8.5c1.2-0.7,1.6-2.2,0.9-3.4c-0.7-1.1-2.2-1.5-3.4-0.9c-7,4.7-15.5,5.9-23.5,7.9
	C505.9,496.1,507.2,500.9,510.3,500.2z"/>
<g>
	<path d="M507.5,496.8c-4.5,0.5-9.1,0.5-13.6,0c-7.1-0.6-29.2-5.4-37.5-7.6c11.7,4,51.9,17.7,52.3,17.1
		C509.1,505.6,507.5,496.8,507.5,496.8z"/>
	<path d="M456.4,489.1c-2-0.7-3.1-1.1-3.1-1.1C453.3,488.2,454.5,488.6,456.4,489.1z"/>
</g>
<path d="M383.5,465.3c0,0,3.9,8.7,2.4,11.6s-37.5,11.4-37.5,11.4s20.3,0.5,27.6-1s14-6.3,17.5-6.5s5-1.7,5-1.7L383.5,465.3z"/>
<path d="M320.3,482.1c-2.9-5.5-0.7-12.7,1.2-18.2c2.1-6,5.2-11.5,9.2-16.4c2-2.4-1.5-6-3.5-3.5c-4.7,5.7-8.4,12.2-10.7,19.2
	c-2.3,6.8-4,14.8-0.5,21.4C317.5,487.4,321.8,484.9,320.3,482.1L320.3,482.1z"/>
<path d="M583,450.5c7.8,9,13.2,19.9,15.8,31.5c0.6,3.2,5.4,1.9,4.8-1.3c-2.8-12.5-8.7-24.1-17.1-33.7
	C584.4,444.6,580.9,448.1,583,450.5z"/>
<path d="M359.7,785.8c0,0-4.5,81.6-3.9,114.5s-30.1,59-30.1,59s12.5-11.4,18.7-53.3S359.7,785.8,359.7,785.8z"/>
<path d="M510.6,828.9c0,0,1.4,75.3,2,90.6c0.6,15.3,5.4,29,21.3,39.7s49.1,10.5,49.1,10.5s-32.7-8.7-52-36.5
	c-8.7-12.5-10.7-36.5-13.5-57.3C513.9,850.4,510.6,828.9,510.6,828.9z"/>
<path d="M633.5,745.3c0,0,21.1,50.7,23.6,64.3s5.1,32.6,5.1,32.6S638.1,758.4,633.5,745.3z"/>
<path d="M227.3,497.8c0.2-0.8,9.2-10.8,31.4-15.1c13.4-2.6,27.1-2.8,40.6-0.6c0,0-26.3-2.7-43.1,8.2S230,506.8,230,506.8
	L227.3,497.8z"/>
<path d="M596.7,464.3c0,0,4.3,21.7,39.1,22.7c13.1,0.4,13.7-4.8,13.7-4.8l4.8,11.4c0,0-30.9-11.2-53-8.9L596.7,464.3z"/>
<path d="M600.7,577.6c0,0-9.3,75.5-7.8,88.7s-1.9,15.8-1.9,15.8s-8.4,16.1-15,14.1s-11.5-55.3-11.5-55.3s2.6,47.4,11.5,35.4
	s10-36.4,14.6-63.8C592.3,602.7,600.7,577.6,600.7,577.6z"/>
<path d="M271.2,650.9c-0.4-12.7-7.6-51.9-7.6-51.9l-3.9,0.2c2.2,15.8,5.3,55.8,0.6,65.6c-5.1,10.9-8.6,22.4-10.3,34.3
	c4-6.8,7.4-13.9,10.4-21.2c4.1-10.3,12.8-11.4,12.8-11.4S271.7,663.5,271.2,650.9z"/>
<path d="M647.1,105.8c-0.8-6.6,2.9-12.1,9-14.4c8.4-3.1,13.9,0.5,17.4,5c1.1,0.8,2.7,0.6,3.5-0.5c0.7-0.9,0.7-2.1,0-3
	c-5.4-6.7-14.5-9.2-22.6-6.2c-7.8,3.1-13.4,10.4-12.2,19.1c0,1.3,1.1,2.4,2.4,2.5C645.9,108.3,647.3,107.1,647.1,105.8L647.1,105.8z
	"/>
<path d="M654,97.7c-13.7,6.3-21.6,18.3-25.5,32.5s-2.5,28.8,0.9,43c1.7,7.9,4.4,15.5,7.9,22.8c0.5,1.1,0.1-0.4,0.3,0.4
	s0,0.8,0.1,1.1c0.1,1.4,0.3,2.7,0.6,4c0.5,2.2,1.7,5.1,4.1,5.8s4.1-0.1,5.8-0.5c3.5-0.8,7-1.8,10.5-2.8
	c19.3-5.4,38.4-11.7,57.6-17.4c6-1.8,16.5-2.7,17-10.7c0.1-2.1-1.3-3.6-2-4.7s-1.4-3.4-1.9-5c-1.9-6.8-3.6-13.6-5.6-20.3
	c-4.6-15.5-10-32.7-23.2-43.1c-10.5-8.2-24.1-11.3-37.1-8.3C660.2,95.2,657,96.3,654,97.7c-2.9,1.3-0.4,5.5,2.5,4.3
	c11.4-5,24.5-5,35.5,1c13.7,7.5,19.6,21.8,24.4,35.9c2.4,7.1,4.4,14.4,6.4,21.8c1.1,4.1,1.8,8.8,3.9,12.6c0.5,1,1.6,1.6,1.5,2.7
	s-3.8,3.3-5.5,3.7s-3.9,1-5.8,1.5c-17.1,5-34.1,10.6-51.1,15.6c-6.8,2-13.5,4.1-20.4,5.5c-0.5,0.1-1.5-0.1-1.7,0.2h-0.4
	c1.1-0.1,0.6,0.5,0.7,0l-0.6-1.1c-0.3-0.8-0.5-1.7-0.6-2.6c-0.3-1.8-0.2-3.1-1-4.9c-1.7-3.6-3.2-7.3-4.5-11.1
	c-4.7-13.9-8.3-30.6-5.4-45.3c1.4-7,3.5-14,7.1-20.1c4.1-6.8,10.2-12.2,17.5-15.4C659.4,100.6,656.9,96.3,654,97.7z"/>
<path d="M640.9,202.4c-6.7,2-10,11.5-5.8,17.1c2.7,3.6,7.9,4.9,12.2,3.9c7.9-2,15.7-4.6,23.5-6.9L732,198c4.1-1.2,7.8-2.8,9.7-7.1
	c3.8-8.5-3.7-16.7-12.5-13.8c-3,1-1.7,5.8,1.4,4.8s6.4-0.3,7,3.2c0.5,3.2-1.4,6.3-4.5,7.3l-4,1.3l-22.5,6.8
	c-18.3,5.5-36.6,11.2-55,16.5c-2.2,0.6-4.4,1.4-6.6,1.8l0,0c0.8-0.1-1.7-0.2-2-0.2c-1.6-0.2-3-1-4-2.2c-2-2.9-0.1-8.2,3.2-9.2
	S644,201.5,640.9,202.4L640.9,202.4z"/>
<path d="M673.8,213.8c1.1,5,5.6,7.8,10.2,9.3s10,2.1,14.9,0.1c7.8-3.2,13-13.3,9.3-21.3c-0.6-1.2-2.1-1.6-3.2-1
	c-0.1,0-0.1,0.1-0.2,0.1c-1.2,0.6-1.6,2.1-1,3.2c0,0.1,0.1,0.1,0.1,0.2c0.8,1.7,0.6,5.2-0.1,7.1c-1.2,3.1-3.6,5.7-6.6,7.1
	c-3.7,1.5-7.2,1.2-10.9,0s-6.9-2.5-7.6-6.1S673.2,210.7,673.8,213.8L673.8,213.8z"/>
<path d="M69.6,308.7h53.8c4.8,0,4.8-7.5,0-7.5H69.6C64.8,301.2,64.8,308.7,69.6,308.7z"/>
<path d="M69.6,331.8h103.2c4.8,0,4.8-7.4,0-7.4H69.6C64.8,324.4,64.8,331.8,69.6,331.8z"/>
<path d="M69.6,358.6H95c2.1-0.3,3.5-2.3,3.1-4.4c-0.3-1.6-1.5-2.9-3.1-3.1H69.6c-2.1,0.1-3.7,1.7-3.8,3.8
	C65.8,356.9,67.5,358.6,69.6,358.6z"/>
<path d="M118.8,358.6h53.8c4.8,0,4.8-7.5,0-7.5h-53.8C114,351.1,114,358.6,118.8,358.6z"/>
<path d="M156.5,307.5H171c2.1-0.3,3.5-2.3,3.1-4.4c-0.3-1.6-1.5-2.9-3.1-3.1h-14.5c-2.1,0.1-3.7,1.7-3.7,3.8
	C152.8,305.8,154.4,307.4,156.5,307.5z"/>
<path class="st3" d="M729.5,341.2H881c11.7,0,21.2,9.5,21.2,21.2c0,0,0,0.1,0,0.1v94.8c0,11.7-9.5,21.2-21.2,21.2l0,0h-97.4
	c-0.5,0-0.9,0.3-1.1,0.7c-1.4,2.4-21.6,33.2-22.2,32.9c-0.6-0.3-2.2,1-2.4-0.2c-1.6-7.2-5.1-21.2-7.6-32.4c-0.1-0.6-0.6-1-1.2-1
	h-19.6c-11.7,0-21.2-9.5-21.2-21.2c0,0,0,0,0,0v-94.8c-0.1-11.7,9.4-21.2,21.1-21.3C729.4,341.2,729.4,341.2,729.5,341.2z"/>
<path d="M758.3,514.9c-0.5,0-1-0.1-1.4-0.3c-0.8-0.5-1.3-1.3-1.5-2.2c-0.7-3.5-2-8.8-3.3-14.5s-2.8-11.5-4-16.9h-18.6
	c-13.1-0.1-23.6-10.6-23.7-23.7v-94.8c0-13.1,10.6-23.7,23.7-23.8H881c13.1,0.1,23.7,10.7,23.7,23.8v94.8
	c0,13.1-10.6,23.7-23.7,23.7l0,0h-96.7c-1.5,2.4-6.6,10.2-11.1,17c-10.8,16.3-11.6,17.4-13.5,16.6
	C759.2,514.7,758.7,514.8,758.3,514.9z M729.5,343.7c-10.3,0.1-18.7,8.5-18.7,18.8v94.8c0,10.3,8.4,18.7,18.7,18.7l0,0h19.6
	c1.8,0,3.4,1.2,3.7,3c1.2,5.6,2.7,11.9,4.1,17.7l2.9,12.2c4.4-6.1,19.3-28.7,20.5-30.9c0.7-1.2,1.9-1.9,3.3-2H881
	c10.3,0,18.7-8.4,18.7-18.7c0,0,0,0,0,0v-94.8c0-10.3-8.4-18.7-18.7-18.8H729.5z"/>
<path class="st5" d="M778.2,394c-0.9-1.4-3.3-3.3-4.5-4.5c-2.2-2.4-5.1-4-8.2-4.6c-6-1-12.1,3.4-14.2,9.2s-0.5,12.4,2.9,17.6
	s8.3,9,13.4,12.3c0,0,8.1,7.2,10.6,7s21.9-11,26-26.4c3.6-13.5-6-20.5-13.3-20.2S778.2,394,778.2,394z"/>
<path d="M780.4,392.8c-4.3-5.7-11.3-11.6-18.9-10.3s-13,8.3-13.5,15.9s4.1,16.1,10.1,21.6c2.6,2.2,5.3,4.2,8.1,6.1
	c1.9,1.4,3.5,3,5.4,4.3s4,3,6.3,3.1c1.4-0.2,2.8-0.7,4.1-1.4c4.5-2.4,8.7-5.3,12.5-8.7c9.1-8.2,18.4-23.5,9.5-35.1
	c-3.6-4.7-10.1-7.6-16-6s-9.3,6-11.9,10.5c-1.6,2.8,2.7,5.3,4.3,2.5c1.6-2.9,3.9-5.4,6.7-7.2c3.6-2.1,8-1.3,11.2,1.4
	c9.1,7.6,1.9,20.9-4.5,27.6c-3.2,3.3-6.8,6.2-10.7,8.6c-1.3,0.8-2.6,1.6-4,2.3l-0.8,0.4h-0.6c-0.3,0.1-0.1,0.1,0.6,0l-0.7-0.2
	c-2.8-1.9-5.5-3.8-8.1-5.9c-5-4-10.3-7.1-13.6-12.7s-4.6-15.9,2.3-20.6c3-2.1,6.9-2.4,10.1-0.6c3,1.7,5.7,4,7.8,6.8
	C778,397.8,782.3,395.4,780.4,392.8z"/>
<path d="M849.7,383.5c-3.9,0.3-7.8,0.4-11.8,0.5l-6.3,0.2c-1.5-0.1-3,0.4-4.3,1.2c-2.4,2-1.5,6-1.4,8.7s0.3,6.8,0.6,10.2
	c0.1,1.4,1.3,2.5,2.8,2.4c0.6,0,1.1-0.3,1.5-0.6c1.9-1.9,4-3.9,6.9-4c2.5-0.1,5,0.3,7.4,1.2c4.9,2,5.8,8,4.4,12.6s-6,9.2-11.3,9.7
	c-5.3,0.4-10.3-2.2-13.2-6.6c-1.6-2.8-5.9-0.3-4.3,2.5c6.2,10.1,20.8,12.2,29.1,3.5s7.3-23.6-4.9-27c-2.9-0.8-5.8-1.1-8.8-0.7
	c-3.6,0.5-6.4,2.8-8.9,5.2l4.3,1.8c-0.2-2.7-0.4-5.4-0.5-8.1s-0.1-2.7-0.2-4.1v-2c0-0.2-0.1-0.5-0.1-0.8s0-0.4,0.1,0
	c0.8-0.2,1.6-0.3,2.4-0.2h7.1l9.4-0.4c3.2-0.2,3.2-5.2,0-5V383.5z"/>
<path d="M276.2,164c-38.8,0-70.3-31.5-70.3-70.3c0-38.8,31.5-70.3,70.3-70.3s70.3,31.5,70.3,70.3c0,0,0,0,0,0
	C346.5,132.5,315,164,276.2,164z M276.2,28.5c-36.1,0-65.3,29.2-65.3,65.3s29.2,65.3,65.3,65.3s65.3-29.2,65.3-65.3c0,0,0-0.1,0-0.1
	C341.4,57.6,312.2,28.5,276.2,28.5z"/>
<path class="st2" d="M257.5,115.1v-45c0-2.5,2-4.5,4.5-4.5c0.8,0,1.6,0.2,2.3,0.6L301.5,88c2.1,1.3,2.9,4,1.6,6.2
	c-0.4,0.6-0.9,1.2-1.5,1.5l-37.2,23.2c-2.1,1.3-4.9,0.7-6.2-1.4C257.7,116.7,257.5,115.9,257.5,115.1z"/>
<path d="M260,115.1V71.2c0-1.9,0.7-3.8,3-2.9c2.3,0.9,1.8,1.1,2.7,1.6l30.5,17.9c2,1.1,7.3,3.3,3.8,5.9s-7.3,4.6-10.9,6.8
	l-18.5,11.6l-6.2,3.9C262.9,116.9,260.2,118.1,260,115.1c-0.2-3-5.2-3.2-5,0c0.3,4.8,4.8,8.3,9.5,6.6c1.3-0.6,2.5-1.4,3.7-2.2
	l16.5-10.3l16.1-10c1.5-0.8,2.8-1.8,3.9-3.1c2.4-3.1,1.8-7.5-1.3-9.8c-0.2-0.2-0.5-0.3-0.7-0.5c-9.9-6.4-20.4-12-30.6-17.9
	c-3.6-2.2-8.3-6.1-12.7-4.3c-4.4,1.8-4.4,8.3-4.4,13v38.5C255,118.3,260,118.3,260,115.1z"/>
</svg>
