<?xml version="1.0" encoding="utf-8"?>
<!-- Generator: Adobe Illustrator 23.1.1, SVG Export Plug-In . SVG Version: 6.00 Build 0)  -->
<svg version="1.1" id="Layer_1" xmlns="http://www.w3.org/2000/svg" xmlns:xlink="http://www.w3.org/1999/xlink" x="0px" y="0px"
	 viewBox="0 0 1556.9 1408.8" style="enable-background:new 0 0 1556.9 1408.8;" xml:space="preserve">
<style type="text/css">
	.st0{fill:#DCDBF8;}
	.st1{fill:#FFFFFF;}
	.st2{fill:#7070B8;}
	.st3{fill:#734C4C;}
	.st4{fill:#FEC3AA;}
</style>
<g>
	<path class="st0" d="M1479,516.5c-11.2-22.3-31.4-38.9-43.8-49.2c-22.5-18.8-64.5-28-93.5-24.1c-29,3.9-56.1,17.5-79.7,34.9
		c-46.3,34.3-80.2,83.3-102.9,136.3s-34.6,110-42.6,167c-3.7,26.6-7,54.4-21.9,76.6c-16.1,23.9-91.7,93-150.5,73.4l0.2,91.3
		c251.3,64.1,443.2-87.2,515.7-220c15.5-28.3,29.2-57.8,37.3-89.1C1514.7,646.7,1510.1,578.4,1479,516.5z"/>
	<path class="st0" d="M1100.6,501.8c26.4-39.7,58.9-74.9,86-114.1c27.1-39.2,49.1-84,50.4-131.7c0.7-26-10.2-57.6-35.9-61.6
		s-45.8,23.3-67.7,38.8c-24.5,17.4-58.4,20.4-85.6,7.7C981.9,210,977.4,111.1,916.9,70.8c-37.3-24.8-88.9-20.3-127,3.1
		s-64.1,62.7-80.7,104.3c-12.7,31.8-21.3,66.5-44.1,92c-35,39-101.6,43.8-141.8,10.3c0,0-51.8-23.6-45.3,59.5
		c6.5,83.1,163.9,207.5,173.6,288.4s-8.2,148.6-53.9,189.3l126.8,126.7c75.3-6.1,162.3-53.6,214.2-108.6S1009.3,729,1047.8,632
		C1062.8,594.2,1078,535.6,1100.6,501.8z"/>
</g>
<title>mental health problems</title>
<path class="st1" d="M1328.4,570.4c3.2,0.6,6,3.8,7.6,6.6s1.9,6.3,1.9,9.5c0.4,27.9-12.2,54.6-29,76.8c-6.4,8.4-13.5,16.4-22.2,22.2
	s-19.3,9.3-29.7,8s-20.5-7.8-24.3-17.5c-3.1-7.8-2.1-16.6,0.4-24.5c5.2-16.3,16.5-30,29.3-41.4s26.7-21.4,40.6-31.3
	C1308.9,574.6,1317.1,568.4,1328.4,570.4z"/>
<path d="M1327.7,572.8c6.1,1.6,7.7,8.4,7.7,13.7c0.1,5.6-0.3,11.2-1.3,16.7c-1.9,10.9-5.4,21.4-10.3,31.3
	c-4.9,10-10.8,19.6-17.7,28.4c-6.8,8.8-14.5,17.2-24.2,22.6s-20.9,7.7-31.3,4s-17-12.3-17.3-23s4.6-22.4,10.6-31.6
	s13.4-17,21.6-24.2c10.3-9.1,21.4-17.3,32.6-25.4C1306.9,579,1316.1,571,1327.7,572.8c3.2,0.5,4.5-4.3,1.4-4.8
	c-11.1-1.7-19.6,3.1-28.3,9.3c-11.3,8-22.5,16.1-33.1,25c-18.3,15.2-38,35.7-39.4,61c-0.8,11.2,4.7,21.9,14.3,27.8
	c9.9,6.1,22.2,6.4,33,2.6s21.2-12,29.1-21.2c8.2-9.6,15.4-20,21.3-31.2c6.4-12.3,11.3-25.6,13.3-39.4c1.6-10.8,4-30.3-10.2-33.9
	C1326,567.3,1324.6,572.1,1327.7,572.8z"/>
<path class="st1" d="M1393.3,737c5.2,0.6,10.3,1.3,15.3,0c11.7-2.9,21-5.9,27.4-16.1s9.6-19.5,7.1-31.3
	c-2.9-13.7-11.7-25.6-14.1-39.3c-1.1-6.2-0.9-20.5-2.9-26.3s-7.3-11.4-13.5-10.9c-1.7,0.3-3.4,0.8-5,1.5c-6.8,3.1-12.5,8-16.5,14.3
	c-2.3,3.9-4.2,8-5.7,12.2c-5.3,13.3-10.7,26.7-13.4,40.7s-2.6,29,2.7,42.3C1374.7,724.1,1381.4,735.5,1393.3,737z"/>
<path d="M1393.3,739.4c6.9,0.9,12.9,0.9,19.6-0.9c4.6-1.2,9.1-2.9,13.4-5.1c9.2-5.1,15.1-14.8,18.3-24.6c3.7-11.4,0.9-22.6-3.6-33.3
	s-9.5-20.5-10.2-32.1c-0.6-9,0-19.4-6-26.7c-3-3.8-7.5-6.5-12.5-6s-10.6,3.9-14.6,7.1c-9.8,8-13.7,19.9-18.2,31.3s-9.1,25-10.9,38.2
	c-1,7.3-1.1,14.7-0.2,22c0.7,5.3,1.7,11.5,4.3,16.2c4.3,7.3,11.6,12.4,20,13.9c3.1,0.4,4.5-4.4,1.3-4.8c-6.8-1.1-12.9-5.1-16.6-10.9
	c-1.9-3.1-2.7-7.2-3.4-10.8c-1-5.5-1.5-11.2-1.2-16.8c0.5-11.8,3.5-23.2,7.3-34.3c2-5.6,4.2-11.2,6.4-16.8s4.1-10.8,7.3-15.7
	c4.5-6.8,16.9-18.4,25.2-11.5s6.2,16,6.7,24c0.1,3.9,0.6,7.8,1.4,11.7c1.2,4.9,3,9.8,5.1,14.4c4.3,9.8,9.7,19.8,9.2,30.9
	c-0.4,5.7-2,11.2-4.9,16.2c-2.6,4.9-5.7,9.5-10.3,12.6c-4.1,2.6-8.6,4.5-13.3,5.7c-2.9,0.9-5.9,1.6-8.9,1.9
	c-3.6,0.1-7.2-0.2-10.7-0.7C1390.2,734.1,1390.2,739.1,1393.3,739.4z"/>
<path class="st1" d="M1260,836.3c10.1,12.6,30.4,16.1,44.9,8.9s23.6-21.9,29.7-36.9c7.6-18.6,11.6-38.5,11.7-58.6
	c0-8.5-0.6-17.2-4.2-24.9s-10.6-14.3-19-15.4c-14.2-2-27.7,10.5-31.7,24.2c-8.1,27.6-20.3,29.5-34.9,50
	C1244.7,800.3,1247.1,820.4,1260,836.3z"/>
<path d="M1258.2,838.1c7.3,8.8,18.9,13.3,30.3,13.3s23.4-5.9,31.8-14.8s14.8-21.8,19.2-34.1c5.2-14.7,8.3-30.2,9.1-45.8
	c0.7-13.8,0.3-29.1-8.9-40.3c-7.6-9.4-20.7-12.3-31.5-6.8c-5.4,2.7-10,6.8-13.5,11.7c-3.9,5.5-5.4,11.5-7.7,17.7
	c-3.8,10.2-9.9,18.1-17.4,25.8c-9.2,9.3-19,19.5-22.1,32.6C1244,812,1249.1,826.6,1258.2,838.1c2,2.5,5.5-1.1,3.5-3.5
	c-7.5-9.6-12-21.8-9.8-34s9.7-20.3,17.4-28.3c5.9-6.2,12.1-12.1,16.6-19.5c2.7-4.5,5-9.4,6.6-14.4c1.9-5.8,3.6-11.1,7.5-15.9
	c7-8.5,19-14.4,29.4-8.4s14.3,21.1,14.4,33.4c0.1,14-1.6,28-5.3,41.6c-3.4,12.3-8,24.6-15,35.3s-16.9,19.8-29.7,21.6
	s-24.4-2.2-32.1-11.4C1259.7,832.1,1256.2,835.6,1258.2,838.1z"/>
<path d="M946.1,933.8c22.6,7.4,46.8,2.1,68.1-7.2c21.3-9.3,41.8-23.7,59.6-39.6c6.8-6,13.3-12.6,19.2-19.5
	c7.1-8.3,12.7-17.8,16.5-28.1c5.7-14.7,8.3-30.4,10.5-45.9c2.5-17.3,4.9-34.6,8-51.8c11.9-66.3,31.8-132.3,69.7-188.7
	c17.2-25.7,38-49,62.3-68.2s55.3-36.3,87.5-39.5c13.6-1.4,27.5-0.1,40.8,2.8s27,7.5,38.9,14.7s20.2,15.3,28.9,24
	c11,10.7,19.9,23.3,26.4,37.2c29.4,62.4,31.9,134.4,11.9,200.1c-9.3,30.6-23.4,60-39.7,87.5c-10.7,18.2-22.9,35.6-36.4,51.9
	c-30.4,36.9-66.1,69-106,95.2c-44.2,29.2-93.1,50.6-144.5,63.3c-57.7,13.8-117.5,16-176,6.7c-15.6-2.4-31.1-5.6-46.4-9.5
	c-3.1-0.8-4.4,4-1.3,4.8c60.2,15.3,122.8,19.6,184.3,10.7c53.9-8,106-25.6,153.7-52c43.6-24,83.2-54.5,117.5-90.6
	c32.7-34.5,59.7-73.9,79.9-116.9c15.2-31.9,26-65.4,30.5-100.5c4.5-33.6,2.9-67.8-4.8-100.9c-7.5-31.4-19.6-63.5-42.3-87.2
	c-8.6-9.2-18.1-17.5-28.3-24.9c-11.1-7.8-24.1-13-37.2-16.6c-13.5-3.7-27.5-5.5-41.5-5.3c-15.5,0.3-30.8,4.1-45.2,9.7
	c-29.7,11.5-56.1,30.9-78.5,53.4c-46,46-75.2,106-93.1,168c-10,34.6-16.6,70.2-21.7,105.8c-4.1,28.6-6.7,60.5-25.2,84
	c-12.4,15.7-28.2,29.2-44.4,40.7c-19.9,14.2-42.5,26.4-66.9,30c-11.2,1.8-22.7,1-33.5-2.4C944.3,928,943,932.8,946.1,933.8
	L946.1,933.8z"/>
<path d="M724.5,946.9c48.1-4.1,94.6-22.4,136-46.8c39.3-23.1,74.6-52.6,102.5-88.7c24.4-31.7,41.8-67.6,57.3-104.3
	c9.8-23.4,19-47,28.4-70.6c8.5-21.5,15.5-43.5,23.2-65.2s15.9-44.1,28-63.9c14.6-23.8,32.9-45.5,50.2-67.4
	c33.1-41.7,66.6-85.1,81.8-136.9c6.4-22,10.4-46.5,5.5-69.2c-3.7-17.5-13.8-36.5-32.5-41.3c-21-5.3-38.7,9.3-53.4,22.2
	c-8.5,7.6-16.9,15.4-26.9,21c-31.1,17-69.5,12.8-96.3-10.4c-14-12.1-24.4-27.6-33.4-43.6c-18.5-32.8-31.7-69.9-58.2-97.5
	c-14.4-15.2-33.1-25.7-53.6-30.2c-23-4.8-47.3-2.4-69.3,5.6c-45.4,16.4-77.9,55.8-98.3,98.2s-27.5,97.6-69.4,125.4
	c-34.9,23.1-84.9,23.2-118.5-2.5c-9.9-7.6-26.1-8.1-36.4-0.8s-14,20.3-15.4,32.2c-2.2,16.9-0.7,34,4.5,50.2
	c10.9,32.7,32.6,61.5,53.3,88.5c24.2,31.5,50.1,61.7,73.4,93.9c10.3,14.1,20.1,28.6,28.2,44c6.6,12.6,12.3,26.1,14,40.4
	c5.7,46.6,3,96.7-17.9,139.5c-8.6,17.9-20.6,34-35.3,47.3c-2.4,2.1,1.1,5.6,3.5,3.5c31.1-27.9,48.1-67.5,54.2-108.3
	c3.3-23.7,3.9-47.7,1.6-71.5c-1.4-15.7-4.7-29.9-11.3-44.3c-14.8-32.1-37.5-60.4-59.3-88c-24.1-30.4-49.3-60.2-71-92.4
	c-9.3-13.8-18.1-28.1-24.6-43.4c-6.3-14.7-9.4-30.5-9.1-46.5c0.1-13.3,1.5-30.2,12.2-39.6c5.7-5,13.3-6.3,20.6-5.3
	c2.6,0.4,5.1,1,7.5,1.9l1.9,0.7c0.1,0-0.6-0.4-0.2-0.1s3.4,2.7,5.1,3.9c16.3,11.7,36.2,17.8,56.1,18.6c20.1,0.9,40.1-3.6,57.9-13.1
	c19.5-10.6,33.7-27.4,43.9-46.9c11.3-21.6,18-45.1,27.2-67.7s21.1-44.6,36.6-63.6c30.4-37.6,76.9-63.4,126.4-56.1
	c21.6,3.1,41.6,13.3,56.9,28.9c13,13.2,22.8,29.2,31.5,45.5c17.3,32.1,30.8,68.6,58.2,94c14.6,13.5,32.8,22.5,52.8,24.5
	c22.9,2.3,45.8-4.2,64-18.3c8.6-6.6,16.3-14.2,24.7-21.1s17.6-13.3,28.4-14.6c21.8-2.7,35.3,16.4,40.1,35.2c6,23,1.7,48.2-4.9,70.5
	c-7.6,25.4-19.8,49.2-34.1,71.4s-32.1,44.9-49.2,66.5s-34,41.8-48,64.6c-23.7,38.6-33.5,84.1-50,125.9s-32.9,86.5-54.5,127.3
	c-18.7,35.4-43.1,67.6-73,94.3c-37,32.8-80,58.2-126.7,74.6c-21.6,7.5-44.1,13-66.9,14.9C721.3,942.2,721.3,947.2,724.5,946.9z"/>
<path class="st1" d="M814.3,212.2c-17.1-8.7-43.6-13.4-63.2-25c-1.4-1-3-1.7-4.6-2.2c0,0-7.5-0.1-9,11.8s-7.9,46.7,25.3,53.5
	S824.4,217.3,814.3,212.2z"/>
<path d="M815.6,210.1c-10.3-5.2-21.4-8.4-32.2-12c-5.8-2-11.6-4-17.3-6.3s-10.9-5.6-16.4-8.3s-11.1,1.7-13.2,7.1s-2.5,12.7-2.8,18.7
	c-0.9,14.3,2.2,29.8,15.1,38.1c16,10.4,36.7,6.5,51.2-4.4c6.7-4.9,12.9-11.3,16.6-18.9C818.6,219.9,820.8,213,815.6,210.1
	c-2.9-1.6-5.4,2.7-2.6,4.3c0.8,0.4,1,1,0.8,2.6c-0.3,2.1-1.1,4.2-2.2,6c-3.3,5.7-7.7,10.8-12.9,14.8c-12.6,10.1-30.1,14.6-45,6.7
	c-12.2-6.4-15.5-19.8-15.2-32.6c0.2-4.8,0.7-9.6,1.4-14.3c0.4-3.2,1.2-7.1,4.1-9.1s2.4-1.1,4.5,0.1c10.4,5.6,21.3,10.2,32.6,13.9
	c10.7,3.6,21.8,6.8,31.9,11.9C815.9,215.8,818.4,211.5,815.6,210.1z"/>
<path class="st1" d="M870.5,219.8c3.8-7.7,48.1-17.5,62.5-24.2c1.8-0.9,3.7-1.6,5.7-2.1c0,0,7.5,0.1,8.8,12s7.2,46.7-26.1,53.1
	C888.1,265,865.5,229.9,870.5,219.8z"/>
<path d="M872.6,221.1c0.8-1.5,3.2-2.7,4.8-3.5c3.1-1.6,6.3-2.9,9.6-4c8.3-3,16.7-5.5,25-8.1s14.5-4.3,21.4-7.4
	c1.7-0.7,3.5-1.8,5.3-2.1l0,0c0.4,0,0.8,0.1,1.1,0.3c3.2,1.2,4.5,4.9,5,7.9c2.1,11.4,2.9,25.2-1.9,35.9
	c-7.5,16.6-29.2,20.2-44.8,13.6c-8.2-3.6-15.2-9.3-20.3-16.7C875.3,233.3,870.5,225.7,872.6,221.1c1.4-2.9-2.9-5.5-4.3-2.6
	c-2.5,5.5,0.1,12.1,2.8,17c4.2,7.6,10.2,14.1,17.5,18.8c16,10.4,41.1,11,54.1-4.6c9.6-11.6,9.2-27.5,7.6-41.6
	c-0.8-6.6-2.3-15-9.9-16.9c-3.3-0.8-6.6,1.4-9.5,2.6c-3.6,1.5-7.2,2.9-10.9,4c-10.6,3.4-21.4,6.4-32,10.1c-4.3,1.4-8.5,3.1-12.6,5.1
	c-2.6,1.3-5.6,2.9-7.1,5.5S871.1,223.9,872.6,221.1z"/>
<path class="st1" d="M890,350.5c5-15,11.8-30.5,15.4-45.9c2-8.3,1.5-14.2-3.3-15.6s-22.7,25.4-28.4,26.6c-8.1,1.6,0.8-29.5-7.2-31.2
	s-22.2,29.2-31.7,27.4c-7.6-1.5-3.2-28.8-10.8-30.6c-9.7-2.2-21.4,31.2-30.6,27.3c-1.8-0.9-3.4-2.3-4.6-3.9
	c-4.5-5.5-6.7-30-13.4-27.5c-3.9,1.5-5.8,5.8-7.2,9.6c-4.4,11.9-7.9,24.1-10.4,36.6c0,0-4.5,22.1-9.8,31.8s7.4,18,18.1,8.1
	s9,9.1,19.6,12.8c4.7,1.6,20.1-15,28.8-7.5s-5.5,24.6,21.1,4.8c9.9-7.3,0.7,28.1,27.1,2.9C862.7,376.2,876.7,389.8,890,350.5z"/>
<path d="M892.4,351.1c3-8.9,6.5-17.7,9.6-26.7s6.1-16.8,6.9-25.5c0.4-4.8-0.8-11.3-6.4-12.3c-3.5-0.7-6.6,2.4-8.9,4.6
	c-3.6,3.7-7.1,7.6-10.3,11.7c-2.8,3.2-5.5,7.1-9,9.6l-1.3,0.7c0.4-0.1,0.5,0.3,0.3,0c-0.5-1.3-0.7-2.7-0.8-4.1
	c-0.2-4.6,0.2-9.2,0.2-13.8s-0.1-8-2.3-11s-6.1-2.9-9.1-1.2s-6.9,6-9.5,9.5s-6.2,8.4-9.7,12.2c-1.3,1.3-5,5.8-7.2,4.3
	s-1.5-2.9-1.7-4c-0.6-2.5-1-5-1.2-7.6c-0.7-5.8-0.9-20.6-10.4-18.7c-3.8,0.8-6.7,4-9,6.9s-5.9,8.1-8.8,12.2s-4.7,7.3-8.1,8.3
	s-6.5-5.8-7.4-8.6c-1.5-4.8-2.6-9.8-4.4-14.6c-1.1-3.1-2.8-7.7-6.6-8.4c-6.1-1.2-9.8,7-11.5,11.5c-3.4,8.9-6.1,18-8.3,27.2
	c-2.5,10.4-4.4,20.9-7.8,31.1c-0.9,2.8-2,5.6-3.3,8.3c-1.3,2.6-2.4,5.1-2.1,8.1c0.6,5.6,5.7,9.2,11.1,9.4c3.4,0,6.7-1,9.5-2.9
	c1.6-1,4.4-4.8,6.5-4.4s2,2.2,2.5,3.1s2.1,4.1,3.4,5.9c2.2,3.4,6.2,7.5,10.6,6.5s8.4-4.3,12.3-6.4s9.6-5,13.2-1.1
	c1.8,2,1.9,4.8,2.1,7.4s0.3,5.1,2.6,6.3s7.4-1.3,9.9-2.9s5.9-4.2,8.9-6.2l1.1-0.7c0.2-0.2-0.2,0.1-0.2,0s-0.1-0.1,0,0.1
	c0.2,0.3,0.4,0.6,0.5,0.9c0.5,1.2,0.8,2.4,1.2,3.6c1.9,5.5,5.4,10.1,11.8,7.9s9.4-5.7,13.2-9.3h-3.6c3,2.7,7.2,3.7,11.1,2.5
	c4.1-1.2,7.3-4.3,9.8-7.5C886.7,366.5,889.8,358.7,892.4,351.1c1-3-3.8-4.3-4.8-1.3c-2.3,6.7-5,13.6-9.2,19.4
	c-1.9,2.7-4.4,5.5-7.7,6.5c-0.9,0.3-1.9,0.4-2.8,0.3l-1.7-0.5c-0.6-0.2-1.1-0.5-1.6-0.9c-0.4-0.2,0.4,0.4-0.1-0.1
	c-1-1-2.5-1-3.5-0.1c0,0,0,0-0.1,0.1c-3.1,3-7.6,7.7-12.2,8.4c-1.9,0.2-2.6-0.7-3.5-2.6s-2-10.2-6.9-10.5c-1.1,0-2.3,0.3-3.2,0.9
	c-2.9,1.6-5.5,4-8.3,5.8c-1.7,1.3-3.5,2.4-5.5,3.2l-1.1,0.4c0-0.1,0.8,0.5,0.6,0.6s-0.6-6-0.7-6.8c-0.5-3.2-2.2-6-4.8-7.9
	c-8.6-6.1-18.9,3-26.4,6.7c-1.6,0.8-2.3,1.2-3.6,0.4c-2-1.3-3.5-3.1-4.6-5.2c-1.9-3.1-3.3-7.5-6.6-9.3c-5-2.7-8.8,2.8-12.6,5
	s-6,2.2-8.9,0.9c-2.6-1-3.9-3.9-3.1-6.5c0.6-2.5,2.2-4.8,3.1-7.1s2.2-6,3.1-9c1.5-4.9,2.8-9.9,3.9-14.9c3.1-13.7,6.1-27.4,11.3-40.4
	c0.7-1.7,3-7.5,5.4-7.2c0.7,0.1,1.7,2.2,2,3c2.1,4.3,3,9.2,4.4,13.8s2.5,8.5,5.7,11.7s7,4.5,10.9,2s6.1-5.7,8.4-9s5.3-7.8,8.3-11.5
	c1.2-1.6,4.7-6.4,7.3-5.8s2.8,6.5,3,8.4c0.7,4.6,0.9,9.3,1.9,13.9s2.1,7.2,5.6,8.2c7.9,2.3,14.8-9.3,18.6-14.3
	c1.4-1.9,12.1-16.8,14.4-11.9c1.5,3.3,0.9,8.1,0.8,11.6s-0.4,8.4,0.3,12.6s1.8,6,5.2,6s5.9-3,7.9-5.1c3.5-3.6,6.6-7.5,9.8-11.3
	s5.6-7,9.2-9.4c1.2-0.9,1.5-1.2,2.4-0.4s1.7,5.4,1.4,7.9c-1.1,8.5-4.3,17-7.2,25s-6.2,16.6-9,25
	C886.5,352.9,891.4,354.2,892.4,351.1z"/>
<path d="M855.9,211.8c-3.4,3.7-4.9,8.8-4,13.8c0.9,4.6,3.8,8.6,7.9,10.9c2.8,1.6,5.3-2.7,2.5-4.3c-5.3-3-7.2-9.6-4.3-15
	c0.4-0.7,0.8-1.3,1.4-1.9c0.8-1.1,0.6-2.7-0.5-3.5C858,211.1,856.8,211.1,855.9,211.8z"/>
<path class="st0" d="M715.4,990.5c22,78.1-137.1,53.3-183.8,45.4c-183.8-30.8-201.9-109.5-240.1-100.1c-28.5,7-52.8,51.8-97.4,54.7
	c-37.2,2.4-34.6-27.7-88.7-9.7s-90.1-41.6-52.6-94.2s106.7-67.9,110.2-69.2c27.9-9.7-50.8-59.2-79.7-167.4s61.5-241.6,171.5-233.2
	s211.1,102.4,214.8,218.9c0,0,11.6,63.2,57.2,21.7s113.6-85,153-70.5s39.2,51.7-6.5,81.8c-53.2,35-22.7,58-55.8,87
	s23.3,131.9,75.1,158.8S715.4,990.5,715.4,990.5z"/>
<path d="M713,991.1c3.7,13.7,2.1,27.6-9.6,36.8s-28.7,12.5-43.5,14.1c-36.7,4.1-74.3-0.2-110.6-5.7c-49-7.5-97.9-18.7-142.9-39.9
	c-16.7-7.9-32.8-17.1-48-27.6c-10.5-7.3-20.5-15.3-30.8-22.9c-6.9-5-14.3-10.3-22.8-12.5c-12.6-3.1-24.5,3.2-34.4,10.5
	c-19.2,14.1-35.6,32.6-58.6,40.5c-10.6,3.7-22.6,5.1-33.6,2.4c-7.4-1.9-13.8-5.9-20.6-9c-7.9-3.8-16.7-5.6-25.5-5.2
	c-6.7,0.5-13.3,1.6-19.7,3.5c-6.9,1.9-13.5,4.5-20.7,5.2c-22.9,2.4-43.1-11.6-49.6-33.7c-7.8-26.8,5.5-53.3,23.4-72.7
	s39.1-32.6,62.4-42.8c7.9-3.4,16.1-6.4,24.3-9c3.8-1.2,7.7-2,11.4-3.3s6.9-3.6,7.6-7.5s-1.4-8.8-3.4-12.5c-3.2-6-7.4-11.6-11.4-17.1
	c-5.6-7.7-11.4-15.4-16.9-23.2c-14.6-20.7-27.7-42.4-38-65.5c-11.4-25.6-20.2-53-21.1-81.2c-0.8-25.7,4.2-51.4,13.5-75.3
	c17.9-46.1,52.8-88.1,98.9-107.7c23.2-10,47.9-12.7,72.9-9.4c26.8,3.5,52.7,11.8,76.5,24.5c48.2,25.3,88.1,67.1,109,117.5
	c5.2,12.6,9.2,25.7,11.9,39.1c1.4,6.9,2.5,13.8,3.2,20.8c0.4,4.7,0.2,9.7,1,14.3c1.6,10.2,6.4,21.2,13.4,28.8
	c4.8,5.3,11.5,8.8,18.8,8.6c10.8-0.3,20.5-7.2,28.3-14.1c23.4-20.8,48.2-40.1,75.9-54.9c12.4-6.7,25.4-12.4,39.1-15.8
	c10.9-2.8,22.7-4,33.7-0.8s21.7,9.8,26.8,20s2.6,20.6-2.4,29.5c-14.3,25.6-46.4,33.5-59.8,59.8c-4.1,8-5.7,16.7-7.6,25.4
	s-5.4,17.7-11.8,24.9c-3.3,3.7-7.3,6.6-10.2,10.6c-2.2,3.1-3.8,6.5-4.8,10.1c-2.4,8.6-1.9,17.8-0.4,26.5
	c3.8,22.5,14.6,44.1,26.9,63.1s28.4,38.4,47.6,51.9c10.2,7.1,21.8,11.6,30,21.4c6.5,7.7,10.2,17.4,10.2,27.5
	c0.1,10.6-2.5,20.9-7.8,30.1c-1.6,2.8,2.7,5.3,4.3,2.5c5.8-10.1,8.8-21.6,8.5-33.2c-0.2-10.1-3.6-19.8-9.6-27.9
	c-3.7-4.8-8.1-9-13-12.5c-5.3-3.7-11.1-6.4-16.5-9.8c-20-12.9-36.1-32.1-49-51.8s-23.8-41.5-27.1-64.6c-1.2-8.4-1.4-17.5,1.9-25.4
	c1.4-3.3,3.5-6.3,6.1-8.7c4.4-3.9,8.4-8.3,11.7-13.1c4.9-7.7,6.9-16.3,8.8-25.1s4.6-18.2,10.2-26.1c9.3-13.3,23.6-20.6,35.9-30.6
	c10.2-8.3,19.7-18.7,23.8-31.5c3.1-9.6,2.2-20.1-3.4-28.6s-17.2-16-28-19.2c-24-7.1-50.9,4-72.1,14.7
	c-28.2,14.3-54.1,33.6-77.7,54.6c-8,7.2-17.7,16.2-29.3,16.1c-7,0-12.7-4.3-16.7-9.8c-3.6-5.1-6.3-10.8-8.1-16.8
	c-1.2-4.4-2-8.9-2.1-13.4c-3.6-55.6-29.7-107.7-69.3-146.4s-90.6-63.3-144.9-68.1C207.1,410,160,435,127.4,472.4
	s-53.7,90-51.9,141.3c1,28.5,9.9,56,21.3,81.9c10.5,23.7,23.9,45.9,38.8,67c5.5,7.8,11.2,15.4,16.8,23.1c4,5.4,8.1,10.9,11.3,16.9
	c1.1,1.9,2,4,2.5,6.1c0.2,0.6,0.3,1.3,0.2,2c0,0.5-0.1,0.9-0.2,1.4c-0.6,1.3-1.4,1.9-3.1,2.6l-3.3,1c-40.7,11.1-81,32.2-106.9,66.5
	c-15.6,20.6-23.7,48.3-13.3,73.1c8.7,21,30.3,33.6,52.9,30.9c13.8-1.6,26.3-8.1,40.3-8.6c8.5-0.3,17,1.6,24.5,5.6
	c7.1,3.5,14,7.3,21.9,8.9c11.5,2.3,23.7,0.7,34.7-3.1c23.5-8.4,39.9-27,59.6-41.2c6.2-4.5,14.1-9.2,21.2-10.1
	c3.5-0.5,7.1-0.1,10.4,1c8.3,2.6,16.1,8.6,23.2,13.9c11,8.3,21.7,16.6,33.1,24.2c39.4,26.1,84,42.8,129.8,53.6
	c39.3,9.3,79.4,15.2,119.7,17.4c19.3,1.1,38.9,1.1,58.1-2c14.5-2.3,30.5-6.5,41.2-17.3s11.3-25.1,7.6-38.7
	C716.9,986.7,712.1,988,713,991.1z"/>
<path class="st1" d="M218.8,593.5c-6.5-11.4-15.4-21.1-26.2-28.6c-7.9-5.4-13.8-8.8-19.3-9.6s-11.7,0.7-15.7,4.7
	c-6.2,6.2-5.5,16.4-3.7,25.1c3.9,18.7,11,36.5,21.1,52.7c0,0,15.9,29.1,36.3,25.1s31.6-21.9,21.9-41.9S224.5,603.2,218.8,593.5z"/>
<path d="M221,592.2c-6.5-11-15.1-20.6-25.4-28.2c-9.1-6.5-19.8-13.8-31.4-10.5s-15.1,16.1-13.6,27.3c1.9,13.6,6.6,27.1,12.2,39.5
	c6.5,14.3,15,30.1,28,39.5c7.7,5.6,16.4,7.3,25.5,4.5s17.7-9.6,21.2-19c4.7-12.5-1.2-23.8-6.7-34.9
	C227.8,604.2,224.5,598.2,221,592.2c-1.6-2.7-5.9-0.2-4.3,2.5s5,8.4,7.2,12.8c4.1,8.2,9.9,17.1,10.3,26.6c0.4,9-4.2,17.4-11.9,22
	c-7.4,4.6-16.3,6.4-24.3,2.3c-11-5.7-18.1-16.7-24-27.2c-6.3-11-11.2-22.7-14.7-34.8c-2.8-9.6-7.7-24-1.2-33.1
	c3.6-5.1,10.8-6.6,16.6-5.2s10.9,5.1,15.7,8.3c10.8,7.4,19.7,17,26.3,28.3C218.3,597.5,222.6,595,221,592.2z"/>
<path class="st1" d="M284.9,506.5c14.1,11.7,24.5,20.9,41.3,28.4c5.2,2.3,10.6,4.3,15,7.9c8.5,7,11.7,19.5,8.4,30
	s-12.5,18.7-23.2,21.5c-12.9,3.5-26.6-0.4-38.9-5.8c-15.6-6.9-30.6-16.7-39.6-31.1s-10.7-34.4-0.7-48.2c2.2-3.3,5.2-5.9,8.7-7.7
	C265.7,497.6,276.9,499.5,284.9,506.5z"/>
<path d="M283.2,508.2c7.8,6.6,15.5,13.3,24,19c4.1,2.8,8.4,5.3,12.9,7.5c4.9,2.5,10.2,4.4,15,7c8.7,4.8,13.8,14.2,13.2,24.1
	c-0.5,9.9-7,18.6-15.5,23.3s-21.9,4.7-32.5,1.5c-10.4-3.2-20.3-7.9-29.4-13.9c-16.8-11.1-30.2-29.1-27.7-50.2
	c0.6-5.5,2.5-10.7,5.6-15.3c1.6-2.5,3.7-4.6,6.2-6.3c0.7-0.5,1.4-0.9,2.2-1.2h0.3C266.3,500.6,276,502.4,283.2,508.2
	c2.4,2.1,6-1.4,3.5-3.4c-7.9-6.3-17.6-9.1-27.6-6.8c-7.8,1.8-13.5,7.8-17,14.8c-10.2,20.8-0.8,45.1,15.3,59.8
	c8.6,7.6,18.3,13.7,28.9,18.1c11.5,5.1,24.2,9,37,6.9c21.5-3.4,36.6-26.2,27-46.8c-6-12.9-19.9-15.9-31.4-22.2s-21.9-15.2-32.2-23.8
	C284.2,502.7,280.7,506.2,283.2,508.2z"/>
<path class="st1" d="M285.6,685.2c-7.6,8.4-14.5,17.4-20.6,27c-2.2,3.5-4.8,7.4-8.8,8.3c-6.6,1.4-9.5-6.7-11.5-13.2
	c-6.8-21.9,11.4-54.8,28.3-70.4s31.5-21.7,54.5-21.8c7.6-0.1,15.6,0.7,22,4.9s10.4,12.7,7.4,19.7s-10.6,9.4-17.3,12.1
	c-13.5,5.7-30.3,11-40.9,21.2C295.5,676.1,288.6,681.9,285.6,685.2z"/>
<path d="M283.8,683.5c-4.3,4.7-8.3,9.6-12.1,14.7c-3.7,4.9-6.8,10.1-10.3,15s-7.6,7.1-11,1.8c-2.3-4-3.8-8.3-4.4-12.8
	c-1.4-9.6,1.3-19.6,4.9-28.4c4-9.9,9.6-19,16.4-27.2c12.8-15.4,30.2-26.6,50.4-28.6c10.7-1,25.4-2,33.4,6.6
	c3.6,3.8,5.7,9.7,3.2,14.6s-7.4,6.9-11.9,8.8c-11,4.7-22.6,8.4-33.1,14.3c-4.9,2.8-9.5,6.2-13.6,10.1
	C291.7,676.1,287.5,679.5,283.8,683.5c-2.2,2.3,1.4,5.8,3.6,3.5c3.7-4,7.9-7.4,11.8-11.1c4.4-4.2,9.4-7.7,14.8-10.4
	c10.7-5.7,22.4-9.1,33.4-14.3c4.8-2.3,9.5-5.5,11.7-10.6s1.3-10.8-1.4-15.5c-6.5-11.2-20.5-12.8-32.3-12.5s-22.6,2.3-32.9,7.3
	c-9.9,5.1-18.8,12-26.3,20.3c-7.8,8.8-14.3,18.7-19,29.5c-4.2,9.8-7.4,20.8-6.3,31.6c0.9,8.3,5.9,25.8,17.6,21
	c6.2-2.5,9.3-10,12.9-15.2c4.8-7.1,10.2-13.8,16-20.1C289.5,684.6,286,681.1,283.8,683.5z"/>
<path class="st2" d="M457.8,841.5c0,0,21.9,30.6,20.1,67.6s-3.4,74,2.7,80.1L557,1002c0,0,38.7,64.4,53.8,92.4s50.8,127.3,53,137.1
	s2.3,82.6,6.1,87.9s15.1,24.2,78.8,34.1s137.8-6.1,184-12.9s112.8-46.2,117.4-57.6s1.5-20.4-3.8-31s-9.1-16.7-10.6-22.7
	s-39.4-184.8-47-232.6s-11.3-80.2-11.3-80.2s37.1-42.4,50.7-59.1c13.6-16.7,43.2-42.4,48.5-50.7s-2.3-20.5-2.3-20.5l-31.4-38
	l-43.4-41.5c0,0-10-9.1-25.9,2.3s-65.1,43.1-65.1,43.1c-18.1,3.4-35.8,8.2-53.1,14.4c-26.5,9.9-37.8,22.7-37.8,22.7
	s24.2,21.2,22.7,25s-10.6,28.8-41.7,43.2s-57.5,10.6-78.7,2.3s-24.3-15.2-24.3-15.2s6.9-18.2,6.1-23.5s-9.8-23.4-9.8-23.4l-69-2.3
	C622.9,795.3,460.9,824.1,457.8,841.5z"/>
<path class="st3" d="M604.2,516.3c0,0-20,4.2-36.1,31.1s-19.2,57.9-11.9,78.3s27.6,31.5,27.6,31.5s116.4,38.4,156.7,34.1
	s63.3-68.7,62.9-88.6s-6.1-66.5-27.6-81.8s-9.6-15.4-20-21.9s-63.7-28.4-98.3-19.2S606.1,510.5,604.2,516.3z"/>
<path class="st4" d="M570.8,779.3c0,0-15-22.3-17.3-34.2s-1.5-61.4-1.5-61.4s3-16.5,11.9-19.6l4.9,0.4c0,0,3.9-18.5,12-21.9
	s10.7-0.4,10.7-0.4s5-9.2,11.1-10.7s8.1,7.2,8.1,7.2s6.5-6.1,9.6-2.6s8.1,23.8,3.8,32.6s-4.6,33.8-1.9,40.7s18.1,25.3,25.7,45.7
	s8.9,34.9,5.8,49.1s-7.3,33.8-56.8,35.7s-129.8,13.5-129.8,13.5s9.6,36.5,10.8,55.7s-2.7,46-2.7,46s-64.9-14.6-111-43.7
	s-62.6-49.2-62.2-78.8s16.5-48,40.7-61s96.8-12.3,107.9-10.4S570.8,779.3,570.8,779.3z"/>
<path class="st4" d="M604.2,626.1c0,0,3.4-27.7,13.4-42.3s33-5.7,33-5.7s9.2-23.1,15-25.4s11.9,5,16.1,11.2s32.3,23.4,51.1,24.2
	s42.2,23.4,42.2,23.4l7.7,8.4c0,0,7.7-5.3,14.2-1.1s16.1,13.8,15.8,23.8s-3.9,26.1-11.6,33c-4.7,4.2-9.6,8.1-14.9,11.5
	c0,0,0.4,35,10.7,62.6s16.5,41.9,26.5,47.2s18.4,12.7,16.9,17.3s-8.8,35.3-51.1,48S707.8,858,699,853s-0.4-9.6-0.4-16.9
	s1.2-21.5-3.4-29.6s-13.1-41-13.1-41s-30.3-6.6-41.1-19.2s-19.2-36.9-28-53.4S602.3,636.1,604.2,626.1z"/>
<path d="M983.1,935.9c0,0,10.5,67.8,25.4,84.2c14.9,16.4,32.2,16.1,32.2,16.1s-48.2-1.5-50.2-10.9s-13.4-91.4-13.4-91.4L983.1,935.9
	z"/>
<path d="M1118,779.8l7.7-35.1c0,0,42.9-44.8,56.8-69.3l0,0C1182.5,675.4,1144.5,753.8,1118,779.8z"/>
<path d="M557,1002l-26.3-5.7c0,0,20.6,8.1,29.1,20.9c8.5,12.8,8.4,17.4,8.9,20.6s16,5.3,16,5.3L557,1002z"/>
<path d="M783.2,686.9c0.5,19.6-5.2,40.9-15.7,57.4c-4.7,7.1-10.5,13.4-17.1,18.8c-5.7,4.6-12.1,8.8-19.3,10.5s-11.8,0.8-17.7,0.3
	c-7.3-0.6-14.5-2-21.5-4.3c-9-2.8-17.8-6.3-26.3-10.3c-3.6-1.7-7.1-3.4-10.6-5.3c-3.5-1.9-6.3-4.7-8.3-8.1c-1.8-2.7-6.1-0.2-4.4,2.5
	s4.4,6.3,7.6,8.4c2.8,1.7,5.7,3.3,8.7,4.7c7.8,3.9,15.8,7.3,24,10.2c13.9,5.1,29,8.7,43.8,7.5s30.3-12.9,40-24.9
	s15.6-26.4,18.8-41.3c2-8.5,3.1-17.3,3-26.1C788.1,683.7,783.1,683.7,783.2,686.9z"/>
<path d="M777.5,634.8c2.7-7.5,9.7-18.3,19.2-13.5c7.1,3.7,10.8,13,11.5,20.6c0.6,8.1-1.4,16.2-5.6,23.2
	c-4.3,7.3-10.3,15.7-18.5,18.8c-2.9,1.1-1.7,5.9,1.4,4.8c7.8-3,13.3-9.3,18.1-16s8.4-14.4,9.4-22.7c1-7.8-0.5-15.7-4.1-22.7
	c-3.7-6.6-10-12.8-18.1-11.9c-9.7,0.9-15.1,9.7-18.1,18.1C771.6,636.5,776.4,637.8,777.5,634.8L777.5,634.8z"/>
<path d="M797.5,631.3c-5.9-0.5-9.4,5.6-11.6,10.1c-2.4,5.1-4,10.5-4.5,16.1c0,1.4,1.1,2.5,2.5,2.5s2.5-1.1,2.5-2.5
	c0.4-4.4,1.6-8.7,3.4-12.8c0.9-2,2-4,3.3-5.8c1-1.5,2.5-2.8,4.4-2.6c1.4,0,2.5-1.1,2.5-2.5S798.9,631.3,797.5,631.3L797.5,631.3z"/>
<path d="M787.1,649.5c0.5,0,0-0.1,0.2,0s0.6,0.2,0.2,0l0.4,0.3c0.6,0.3-0.1-0.2,0.2,0.1c0.3,0.2,0.6,0.5,0.8,0.8v0.2l0.3,0.5
	l0.3,0.6c0.2,0.3-0.1-0.3,0,0s0.3,0.8,0.4,1.1s0.1,0.7,0.2,1.1s0-0.2,0,0.1s0.1,0.4,0.1,0.6v1.1c-0.1,0.2-0.1,0.4-0.1,0.6l0,0
	c-0.1,0.7-0.3,1.5-0.5,2.2c-0.1,0.1-0.2,0.5-0.1,0.2s-0.1,0.3-0.2,0.5l-0.6,0.9l-0.3,0.5c-0.2,0.3,0.4-0.4-0.1,0.1l-0.8,0.9
	c-1,1-1,2.5,0,3.5c0.9,1,2.4,1,3.4,0.1c0,0,0.1-0.1,0.1-0.1c3-2.9,4.5-7,4.1-11.2c-0.5-4.4-3.1-9.5-8.1-9.7c-1.4,0-2.5,1.1-2.5,2.5
	C784.6,648.4,785.6,649.4,787.1,649.5L787.1,649.5z"/>
<path d="M567.4,639.4c-7.5-4.5-10.1-15.3-11.4-23.3c-2.3-13.5-0.8-27.7,2.9-40.9c4.7-15.8,12.7-30.5,23.7-42.8
	c5.3-6,11.1-11.4,18.9-13.4c1.8-0.5,3.7-0.9,5.1-2.2c1.1-1,1.9-2.3,2.6-3.6c2.2-3.5,4.7-6.7,7.6-9.7c9.1-9.5,20.7-16.1,33.5-19.2
	c12.2-3.1,24.5-3,37-2c14.5,1.1,28.7,3.9,42.6,8.1c8.7,2.6,16.9,6.4,24.4,11.4c2.5,1.5,4.8,3.4,6.7,5.6c2,2.5,5.5-1,3.5-3.5
	c-1.8-2-3.8-3.8-6.1-5.3c-6.4-4.5-13.4-8.1-20.7-10.8c-12.7-4.8-26.1-7.5-39.5-9.3s-28-2.8-42-0.5c-13.1,2-25.5,7.3-36,15.5
	c-5.9,4.8-10.9,10.4-15,16.8c-0.5,0.7-0.9,1.6-1.4,2.3h-0.1c-0.5,0.6-0.4,0.4-0.6,0.5s-0.8,0.4-2,0.7c-7.3,2-13,5.7-18.4,11.1
	c-11.9,12-21,26.6-26.6,42.5c-5,13.9-7,28.7-5.8,43.4c1,10.1,3.3,21.4,10.2,29.2c1.3,1.4,2.8,2.6,4.4,3.6
	C567.6,645.2,570.1,640.9,567.4,639.4L567.4,639.4z"/>
<path d="M648.3,575.5c-7.3-2.1-13.7-7.2-21.6-4.6s-11.6,8.4-15.2,14.3c-8.7,14.5-13.2,31-13.2,47.9c0,3.2,5,3.2,5,0
	c0-14.9,3.7-29.6,10.9-42.7c3.1-5.4,6.9-11.7,12.8-14.3s13.5,2.4,19.9,4.2C650,581.3,651.3,576.4,648.3,575.5L648.3,575.5z"/>
<path d="M656.3,572.7c1.8-5.7,4.7-10.9,8.6-15.4c1.8-2.1,4-3.7,6.5-1.6c1.4,1.4,2.6,3.1,3.5,4.9c5.2,8.2,12.4,14.9,21,19.4
	c20.3,11,43.8,10.6,66.2,9.9c3.2-0.1,3.2-5.1,0-5c-19.5,0.6-40.1,1.3-58.4-6.6c-7.8-3.3-14.8-8.3-20.4-14.6
	c-4.1-4.7-7.6-15.2-15.5-14c-4.2,0.7-7.1,4.6-9.4,7.8c-3,4.2-5.3,8.9-6.9,13.9C650.5,574.4,655.3,575.7,656.3,572.7L656.3,572.7z"/>
<path d="M668.3,576.5c0-0.2,0-0.4,0.1-0.5c-0.2,0.6,0-0.1,0-0.2l0.3-1.2l0.3-1.1c0.1,0,0.1-0.1,0.1-0.2s0.1-0.1-0.1,0.2
	c0-0.2,0.1-0.4,0.3-0.6c0.3-0.7,0.7-1.4,1.1-2l0.4-0.4c0.1-0.2,0-0.1-0.1,0.1s0.1-0.2,0.2-0.3l0.7-0.8c0.5-0.6,1.1-1.1,1.7-1.5
	c-0.5,0.3,0.1-0.1,0.2-0.2l0.4-0.3l1.1-0.6l1-0.5c-0.6,0.2,0,0,0.1,0l0.5-0.2c0.8-0.2,1.6-0.4,2.4-0.6c1.3-0.1,2.1-1.8,1.7-3
	c-0.4-1.3-1.8-2.1-3.1-1.8c-7.7,1.2-13.6,8.1-14.3,15.7c0,1.4,1.1,2.5,2.5,2.5S668.3,577.9,668.3,576.5L668.3,576.5z"/>
<path d="M747.7,593.4v-0.2l-0.7,1.7l-1.2,0.4l0.5,0.3l1.4,0.7l2.4,1.4l4.7,2.6c3.2,1.9,6.3,4,9.2,6.1c5.9,4.4,11.3,9.5,16.1,15.2
	c2.1,2.4,5.7-1.1,3.6-3.6c-5.8-6.7-12.4-12.6-19.7-17.7c-3.6-2.5-7.3-4.7-11.1-6.8c-1.8-1.2-3.8-2.2-5.8-3c-1.7-0.6-3.6,0.3-4.2,2
	c-0.1,0.3-0.2,0.6-0.2,0.9C742.4,596.6,747.4,596.6,747.7,593.4z"/>
<path d="M679.8,769.2c3.6,11.2,8.5,21.9,12.3,33s7.6,24.5,5.4,36.8c-0.6,3.1,4.2,4.5,4.8,1.3c2.3-12.6-0.9-25.6-4.8-37.6
	s-9.1-23-12.8-34.8C683.7,764.9,678.9,766.2,679.8,769.2z"/>
<path d="M782.7,705.2c2.8,20.4,9,40.3,16.7,59.3c2.7,6.6,5.4,13.5,8.8,19.7s8.2,9.9,12.8,13.9s11.2,9.8,17.8,12.5
	c3,1.3,4.2-3.6,1.3-4.8c-5.4-2.2-10.3-6.6-14.7-10.4s-9.6-8.1-12.6-13.3s-5.8-12.4-8.4-18.5c-3.4-8.4-6.5-16.9-9.2-25.6
	c-3.5-11.1-6-22.5-7.7-34.1C787,700.7,782.2,702.1,782.7,705.2L782.7,705.2z"/>
<path d="M614.3,639.5c2.9-7.6-5.6-12.6-12.1-10.5s-11.7,11.4-14.4,18.2c-3.5,8.7-5.7,18.1-7.5,27.3c-1.9,9.5-2.5,19.3-1.5,29
	c0.4,3.1,5.4,3.2,5,0c-1.8-14.7,1.2-29.4,5-43.6c1.8-6.4,4-12.9,7.5-18.6c1.6-2.8,3.6-5.8,6.7-7.2s8.1-0.2,6.5,4.1
	S613.2,642.5,614.3,639.5z"/>
<path d="M592,639.2c-14-7.1-21.8,13.7-24.6,23.6c-4.3,15.1-5.6,31.2-6,46.8c0,3.2,4.9,3.2,5,0c0.2-13.1,1.6-26.1,4.2-38.9
	c1.1-6,3-11.9,5.6-17.4c2.2-4.6,6.9-13,13.3-9.8C592.4,644.9,594.9,640.6,592,639.2L592,639.2z"/>
<path d="M569.9,662.5c-7.3-3.9-13.7,3.7-16.3,9.7c-3.3,8-3.3,17.3-3.7,25.8c-0.4,10.4-0.4,20.8,0.1,31.2s0.7,18,4.1,26.5
	s9.1,17,15,24.5c2,2.5,5.5-1,3.6-3.5c-5.8-7.3-11.3-15.4-14.5-24.2s-3.2-20.6-3.5-30.7s-0.1-22,0.7-33c0.2-4.4,0.9-8.8,2.2-13.1
	c1.1-3.3,5.1-11.4,9.7-8.9C570.2,668.4,572.7,664.1,569.9,662.5L569.9,662.5z"/>
<path d="M582.1,783.6c9.7,1.5,18.9,5.6,26.4,11.9c1,0.9,2.5,0.9,3.5,0c0.9-0.9,1.1-2.7,0-3.5c-8.1-6.9-18-11.5-28.5-13.2
	c-1.3-0.3-2.7,0.4-3.1,1.7C580.1,781.7,580.8,783.4,582.1,783.6L582.1,783.6z"/>
<path class="st4" d="M999.5,706.7l56.2-53.9c0,0-108.1,21.8-143.1,28.4c-12.8,2.4-32.9,3.1-48.2,4.8c-26.5,2.9-51.3,7.2-61-2.6
	c-15.1-15.3-8.7-43.1-9.7-49.4s1.7-39.5,1.7-39.5L783,577c0,0-22.6,15.3-32.8,15.3s-20.2-4.1-14.4-11.4s55.2-22.1,55.2-22.1
	l-5.8-22.6c0,0-51.7,4.1-43.7-9.7s43-2.7,43-2.7s18.2-5.1,27,0s16,1.4,19.6,3.6s23.4,29.9,27.7,39.4s8.1,24.8,5.1,33.5
	s-4.3,25.5-4.3,25.5s128.3-36.4,154.5-46.6c26.2-10.2,128.3-28.5,151.7-24.1s37.1,16.8,40.1,37.9s-4.4,40.1-19.7,70.7
	S1081.9,792,1081.9,792S1022.1,720.6,999.5,706.7z"/>
<path d="M782.6,575.2c-7.2,6.3-16.5,9.9-25.8,11.6c-4.6,0.8-9.2,1.2-13.9,0.9c-2.2-0.2-6.1-0.6-6.6-3.4s3.3-3.8,5.2-4.6
	c11.3-4.7,22.7-9.3,34.1-13.7c2.5-1,4.9-1.9,7.4-2.7s6.1-2.2,8.8-2s4.3,3.6,5.8,5.2l6.2,6.8c2.1,2.4,5.6-1.1,3.5-3.5
	s-6.8-8.7-10.9-11.9s-9.9-0.9-14.2,0.4c-11.6,3.6-22.8,8.8-34,13.3c-6,2.5-22.2,6.7-15.7,16.5c2.6,3.8,7.5,4.5,11.7,4.6
	c4.5,0.2,9.1-0.2,13.5-1c10.3-1.9,20.5-6,28.4-13C788.5,576.6,785,573.1,782.6,575.2L782.6,575.2z"/>
<path d="M796.4,558.3l-6.8-18.3c-0.8-2-1.4-4.1-3.4-5.2s-4.8-0.6-7.2-0.4c-6.1,0.8-12.3,0.9-18.5,0.3c-2.9-0.2-5.8-0.6-8.6-1.1
	c-2.6-0.5-6.4-0.8-8.6-2.6s-0.8-4.6,1.2-6s5.9-1.4,8.7-1.4c6.3-0.1,12.5,0.1,18.7,0.5s13.2,1.1,19.8,2s11,2.5,13.9,8
	s3.6,10.6,5.1,15.6c1.4,4.2,2.6,8.5,3.5,12.9c0.5,3.1,5.3,1.8,4.8-1.3c-0.9-4.5-2.1-8.9-3.6-13.3c-1.5-5-2.8-10.4-4.9-15.2
	c-5.5-12.5-20.9-12.2-32.5-13.2c-7.3-0.6-14.5-1-21.8-1c-5.4,0-12.1-0.5-16.2,3.8s-4,8.7-0.3,12.1s11.9,4.2,17.3,4.9
	c7.7,0.9,15.4,0.9,23.1-0.1l2-0.3c1.7,0.1,2,1,2.7,2.3c0.8,1.9,1.5,3.8,2.1,5.7l4.7,12.6C792.7,562.6,797.5,561.3,796.4,558.3
	L796.4,558.3z"/>
<path d="M774.5,522.7c6.8-0.9,13.8-0.8,20.6,0.1c6.2,0.9,13.4,2.2,19,5.3s8.2,9.9,10.8,15c3.3,6.1,6,12.4,8.2,18.9
	c1.1,3,5.9,1.7,4.9-1.4c-2.4-6.9-5.3-13.6-8.8-20c-3-5.7-6.2-12.7-11.8-16.3s-13.3-5.1-19.9-6.1c-7.6-1.2-15.3-1.4-23-0.5
	C771.4,518,771.3,523,774.5,522.7z"/>
<path d="M815.4,527.9c6.1,0.6,12.8,1.4,17.9,5.1s6.5,7.2,9.2,11.2c6.2,9,12.3,18.6,16.2,28.8c8.2,22,0.9,46-3,68.1
	c-0.6,3.5-1.3,7.1-1.8,10.7s4.3,4.5,4.8,1.3c2.2-14.6,5.9-29,7.8-43.6c1.6-12.3,1.4-26-3-37.8s-10.3-20.8-16.9-30.3
	c-3.3-4.8-6.4-9.9-11.4-13.1s-13-4.7-19.8-5.4C812.2,522.5,812.3,527.5,815.4,527.9z"/>
<path d="M863.8,628.6c30.3-11,61-21.1,91.9-30.3c20.7-6.2,41.5-12.7,62.6-17.2c32.6-7,65.3-13.9,98.1-20c14.9-2.8,29.8-5.7,45.1-3.8
	c17.1,2,33.9,10.5,39.5,27.9c3.7,11.7,2.5,24.6,0.3,36.5c-2.2,11.8-5.8,23.3-10.7,34.2c-3.2,7.1-6.9,14-11.2,20.5l-2.9,4
	c-0.1,0.2-0.5,0.7,0.2-0.2l-1.6,2.1l-4.2,5.7c-13.8,18.1-28.7,35.3-43.9,52.3c-13.5,15.1-27.3,30.1-41.5,44.7l-6.7,6.8
	c-2.3,2.2,1.2,5.7,3.5,3.5c13-12.8,25.4-26.3,37.7-39.8c16.2-17.8,32-35.8,47-54.5c8.4-10.5,16.7-21.1,23.1-32.9
	c11.2-20.8,19-45.4,18.1-69.3c-0.3-9.9-2.9-19.7-9-27.7c-5.4-6.8-12.5-11.9-20.6-14.8c-15.6-6-32.6-5.2-48.8-2.6
	c-34.9,5.7-69.5,13.4-104,20.7c-15.5,3.3-30.7,7.4-45.9,11.7c-31.8,8.9-63.3,18.8-94.6,29.6c-7.6,2.6-15.3,5.3-22.9,8.1
	C859.4,624.8,860.7,629.6,863.8,628.6L863.8,628.6z"/>
<path d="M1056.6,648.7c-41.6,11.4-84.3,19.7-126.9,26.8c-23,3.9-46,7.3-69.2,9.6c-9.8,1-19.7,1.9-29.6,2.3s-24.8,2.5-29.9-7.9
	c-1.9-3.9-2.7-8.7-3.6-12.9c-0.9-4.4-1.3-8.9-1.3-13.4c0-9.1,0.2-18.2,0.6-27.3c0.5-9.1,1.5-18.1,2.2-27.1c0.3-4.2-1.2-6.8-3.6-10.2
	l-8.2-11.9c-1.9-2.7-6.2-0.2-4.3,2.5l6.8,9.9c1.1,1.6,2.4,3.2,3.4,4.9s0.9,4.5,0.6,7.1c-0.8,8.2-1.5,16.5-1.9,24.8
	c-0.7,16.1-1.8,32.6,2.4,48.3c1.7,6.3,3.7,11.4,9.5,14.8s11.5,3.8,17.6,3.7c9.5-0.1,19-0.8,28.4-1.6c47.5-4,94.8-12.4,141.5-22
	c22.4-4.6,44.8-9.6,66.9-15.6C1061.1,652.7,1059.8,647.8,1056.6,648.7L1056.6,648.7z"/>
<path d="M575.2,778.6c-46.8-9.4-93.6-19-141.5-20c-13.3-0.3-26.6,0.1-39.9,1.2c-9.6,0.8-19,2.3-28.4,3.7c-8.5,1.1-16.8,3.6-24.6,7.2
	c-14.3,6.7-26,17.9-33.2,32c-8.8,17.9-10.8,38.9-2.9,57.4c12.6,29.2,42.7,46.8,69.8,60.5c15.9,8,32.1,15.2,48.7,21.8
	c13.7,5.5,27.9,10.9,42.5,13.7c2.5,0.5,5,0.8,7.5,1c3.2,0.2,3.2-4.8,0-5c-12.4-0.8-24.8-5.6-36.4-9.8c-16.1-5.9-32-12.7-47.5-20
	c-26.6-12.7-55.5-27-73-51.8c-11.2-15.5-14.4-35.3-8.9-53.6c4.6-16.1,15.2-29.9,29.6-38.5c8.3-5,17.6-8.3,27.2-9.8
	c16.4-2.5,36.2-4.8,54-5.1c49.6-0.8,98.3,8.1,146.6,18l9.1,1.9C577,784,578.4,779.2,575.2,778.6L575.2,778.6z"/>
<path d="M693.3,602.6c10.2,4.1,21.2,5.9,32.2,5.2c3.2-0.2,3.2-5.2,0-5c-10.5,0.7-21.1-1-30.9-5c-1.3-0.3-2.7,0.4-3.1,1.7
	C691.1,600.8,691.9,602.2,693.3,602.6C693.3,602.6,693.3,602.6,693.3,602.6z"/>
<path d="M649.4,614.6c-3.1,10.3-9.4,19.3-18.1,25.6c-1.1,0.7-1.5,2.2-0.9,3.4c0.7,1.2,2.2,1.6,3.4,0.9c9.8-7,17-17.1,20.4-28.6
	C655.1,612.8,650.3,611.5,649.4,614.6L649.4,614.6z"/>
<path d="M678.5,650.9c1.2,3.8,1.4,7.9,0.6,11.8c-0.8,3.7-2.2,7.5-2.1,11.3c0.4,7.3,6.3,11.6,12.1,14.9c2.8,1.6,5.3-2.7,2.5-4.3
	c-2.7-1.4-5.1-3.1-7.2-5.2c-2.2-2.4-2.7-5.3-2.1-8.5s1.7-6.7,2.1-10.1c0.4-3.8,0-7.6-1.1-11.3C682.4,646.5,677.6,647.8,678.5,650.9
	L678.5,650.9z"/>
<path d="M546.2,987.1c27.8,43.1,52.3,88.2,73.3,135c10.5,23.6,20.2,47.5,28.9,71.8c4.3,12.1,8.4,24.2,12.2,36.4
	c0.6,1.4,0.9,2.8,1,4.3c0,1.9,0.1,3.8,0.1,5.7c0.4,14.9,0.9,29.9,1.6,44.8c0.4,8,0.9,15.9,1.6,23.9c0.4,4.6,0.3,10.1,2.4,14.3
	c3.9,7.8,13.4,12.6,20.9,16.1c13.8,6.4,28.6,10.5,43.5,13.5c44.2,9,90.3,9,134.9,2.9c26-3.7,51.7-9.1,76.9-16.4
	c18.8-5,37.3-11.4,55.3-18.9c12.1-5.1,24-11,34.8-18.5c6.6-4.7,13.2-10,17.8-16.8c2.8-4,5-9.1,4.1-14c-1.4-7.8-5.7-15.7-9.3-22.6
	c-1.8-3.6-3.6-7.1-5.6-10.6c-1.4-2.5-2.4-5.3-2.8-8.2c-12.5-53.8-24.8-107.7-35.2-161.9s-19-109-23.6-164.1c-1.1-13.3-2-26.7-2.6-40
	c-0.2-3.2-5.1-3.2-5,0c2.6,54,9.3,107.8,18.4,161.1c9.1,53.3,20.5,106.9,32.5,159.9l9.3,40.4c0.9,4.1,1.3,9.3,3.3,13
	s2.8,4.8,4.1,7.2c4.5,8.4,8.8,17,11.5,26.2c0.3,1.5,0.2,3-0.2,4.4c-1.2,5.1-5.3,9.9-9.4,13.8c-7.4,7-16.3,12.5-25.3,17.3
	c-34.4,18.4-73.4,28.5-111.3,36.9c-47.4,10.5-96.6,14-145,8.3c-17.6-1.9-34.9-5.6-51.8-10.8c-10.6-3.4-22.1-7.5-30.8-14.7
	c-2.4-2-4.9-4.6-5.6-7.2c-1.4-5.4-1.3-11.6-1.7-17.1c-1.2-16.2-1.8-32.4-2.3-48.6c-0.2-5.7-0.3-11.4-0.5-17c0-1.2,0.1-2.5,0-3.7
	c-0.3-3.5-2.1-7.3-3.2-10.7c-7.8-24-16.5-47.7-26-71.1c-19.1-46.8-41.7-92.1-67.5-135.6c-6.3-10.5-12.8-20.9-19.4-31.2
	C548.8,981.9,544.4,984.4,546.2,987.1L546.2,987.1z"/>
<path d="M712.2,1172.5c52.5-39.5,102.4-82.5,149.2-128.7c13.1-13,25.9-26.2,38.6-39.7c2.2-2.3-1.3-5.9-3.5-3.5
	c-44.4,47.5-92,91.9-142.5,132.9c-14.6,11.8-29.3,23.4-44.3,34.7C707.2,1170.1,709.7,1174.4,712.2,1172.5z"/>
<path d="M682.2,843.5c17.1,18.7,45.2,23.8,69.5,25.1s53-4.2,72-22.9c9.4-8.9,15.6-20.6,17.9-33.4c0.5-3.1-4.3-4.5-4.8-1.3
	c-3.5,22-21,39.2-41.4,46.9c-23.8,8.9-51.6,7.3-75.8,0.8c-12.8-3.3-24.9-8.9-33.9-18.8C683.5,837.6,680,841.1,682.2,843.5
	L682.2,843.5z"/>
<path d="M729.9,905.9c27.6-2.9,53.6-14.4,74.3-32.9c2.4-2.1-1.2-5.6-3.5-3.5c-19.8,17.6-44.5,28.6-70.8,31.4
	C726.7,901.3,726.7,906.3,729.9,905.9z"/>
<path d="M462.2,853.9c7.9,20,10.4,41.4,11,62.7c0.3,11,0.2,21.9,0.2,32.9s-0.6,20.5,0.8,30.5c0.6,4.2,2.3,13.7,7.6,14l8.9,0.6
	c11.7,0.7,23.3,1.7,34.9,3.1c6.6,0.8,13.3,1.8,19.9,3.2c4.3,0.9,9.1,1.8,12.8,4.2s5.2-2.5,2.5-4.3s-8.4-3.5-12.6-4.4
	c-6.5-1.5-13.1-2.4-19.6-3.3c-13-1.7-26-2.8-39-3.6l-8.5-0.5l2.1,1.3c-3.2-4.6-4.2-9.9-4.5-15.4s-0.3-11.7-0.3-17.5
	c-0.1-11.9,0.1-23.8-0.1-35.7c-0.4-23.4-2.6-47.1-11.3-69.1C465.8,849.7,461,850.9,462.2,853.9L462.2,853.9z"/>
<path d="M403.8,857.7c48.2-0.9,96.4-4.1,144.3-9.8c14.2-1.7,28.4-3.6,42.6-4.8c7-0.6,14-1.3,21-2.2s11.7-1.5,17.3-3.5
	c12.3-4.3,22.1-13.9,26.6-26.2c2.9-7.3,4.1-15.1,3.7-22.9c-0.3-2-0.8-4-1.4-6c-1.3-4.8-2.6-9.7-4-14.6c-2.6-9.3-5.9-18.4-10-27.2
	c-4.5-9.4-10.6-17.3-16.3-25.8c-3.2-4.3-5.1-9.5-5.5-14.9c-0.3-5.8,0.7-11.7,1.5-17.5c1.6-11.4,3.3-23,2.2-34.5
	c-0.4-4-0.5-10.1-4-12.8s-7-0.3-9.2,2c-5.7,6.3-7.7,15.1-9.8,23.1s-4.3,17.9-4.8,27.4c-0.4,5.2-0.6,10.4-0.9,15.7
	c-0.2,3.2,4.8,3.2,5,0c0.6-9.3,0.5-18.8,2.1-28c0.8-4.5,2.2-8.9,3.3-13.3s2.1-8.4,3.6-12.5s3.1-8.2,6.2-9.9s2.4,1.3,2.7,3
	c0.6,3.1,1,6.2,1.1,9.4c0.5,11.1-1.4,22.1-2.9,33s-2.2,19.7,3,28.9s11.1,15.4,15.6,23.8c4.4,8.3,8,17.1,10.7,26.1
	c1.4,4.4,2.6,8.9,3.8,13.3s2.4,7.3,3,10.9c0.9,5.8-0.6,12.8-2.3,18.3c-3.5,11.7-11.4,21.4-22.8,25.9c-5.3,1.8-10.9,3.1-16.5,3.6
	c-6.5,0.9-13.1,1.6-19.7,2.2l-13.7,1.1c-7.8,0.6-15.5,2-23.3,3c-44.8,5.5-89.8,9-135,10.3l-17.2,0.4
	C400.6,852.8,400.6,857.7,403.8,857.7z"/>
<path d="M1000.1,708.4c12-13.2,25.1-25.3,38.2-37.3c15.2-13.8,30.7-27.3,46.7-40.3c7.2-5.9,14.5-11.7,22.1-17.2
	c2.6-1.9,0.1-6.2-2.5-4.3c-14.6,10.5-28.5,22.1-42.1,33.8c-15.8,13.6-31.4,27.5-46.3,41.9c-6.7,6.4-13.3,13-19.6,19.9
	C994.5,707.2,998,710.8,1000.1,708.4L1000.1,708.4z"/>
<path d="M905.6,758.1c9.8-3,20-5.1,30.2-6.2c1.3-0.1,2.4-1.2,2.5-2.5c-0.1-1.4-1.1-2.4-2.5-2.5c-10.7,1.2-21.3,3.3-31.6,6.3
	C901.2,754.2,902.5,759,905.6,758.1L905.6,758.1z"/>
<path d="M657.5,799.2c11.5-1.2,23.1-0.6,34.4,1.7c3.1,0.6,4.4-4.2,1.3-4.8c-11.7-2.4-23.8-3.1-35.7-1.8
	C654.4,794.6,654.3,799.6,657.5,799.2L657.5,799.2z"/>
<path d="M470.9,876c0,0,2.3,41.9-3.2,54.3s-13.1,17.6-13.1,18.6s20.8,5.4,21.8,2.6S477.3,883.6,470.9,876z"/>
<path d="M651.1,660.3c0.8,0.6,1.5,1.3,2,2.2c1.2,1.9,2.1,4,2.4,6.2c0.2,1,0.3,2,0.1,3c-0.3,0.9-0.9,1.7-1.8,2.2
	c-1.4,0.4-2.9,0-3.8-1.1c-1.3-1.2-2.1-2.8-2.5-4.5c-0.4-1.7-0.5-3.5-0.3-5.3c0-0.6,0.1-1.2,0.4-1.8
	C648.3,660,649.9,659.6,651.1,660.3L651.1,660.3z"/>
<path d="M650.1,661.9h0.2c0.2,0.2,0.4,0.3,0.5,0.5c0.3,0.3,0.5,0.6,0.7,0.9c0.5,0.8,1,1.7,1.4,2.6c0.3,1,0.6,2.1,0.8,3.1
	c0.1,0.5,0.1,0.9,0.1,1.4v0.4c0,0.1,0,0.3-0.1,0.4c0,0-0.1,0.4,0,0.1l-0.3,0.6c0.1-0.3-0.3,0.1,0,0l-0.4,0.2h-0.5
	c0.3,0-0.3-0.2-0.3-0.1l-0.4-0.3c-0.4-0.2-0.7-0.5-1-0.8c-1.2-1.5-1.8-3.3-1.8-5.2v-2c0-0.5,0-1,0.1-1.5h0.1
	c0.1-0.1,0.2-0.2,0.2-0.3s0,0.1,0.1,0L650.1,661.9c0.9,0.5,2,0.2,2.6-0.7c0.5-0.9,0.2-2-0.7-2.5c-0.7-0.4-1.6-0.6-2.4-0.6
	c-0.8,0.1-1.6,0.3-2.3,0.8c-1.3,1-2,2.6-2,4.2c-0.2,3.1,0.1,6.4,1.8,9.1s5,4.9,8,3.1s2.7-5.6,1.9-8.5c-0.4-1.6-1-3.2-1.9-4.6
	c-0.7-1.4-1.7-2.7-3.1-3.5c-0.9-0.5-2-0.2-2.6,0.7C648.9,660.3,649.2,661.4,650.1,661.9z"/>
<path d="M715.1,634.6c0.9,0.5,1.6,1.3,2.1,2.2c1.2,1.9,2,4,2.4,6.2c0.2,1,0.2,1.9,0,2.9c-0.2,1-0.9,1.8-1.8,2.2
	c-1.2,0.6-2.7-0.1-3.7-1c-1.3-1.2-2.2-2.8-2.6-4.6c-0.4-1.7-0.5-3.5-0.3-5.3c0-0.6,0.1-1.2,0.5-1.7c0.4-0.6,1-1.1,1.7-1.2
	C714,634.1,714.6,634.2,715.1,634.6z"/>
<path d="M714.2,636.2h0.2c0.2,0.1,0.3,0.3,0.5,0.5c0.3,0.2,0.5,0.5,0.6,0.8c0.6,0.8,1.1,1.7,1.4,2.7c0.4,1,0.7,2,0.9,3.1
	c0.1,0.4,0.1,0.9,0.1,1.3v0.5c-0.1,0.1-0.1,0.2-0.1,0.3c0,0.1-0.2,0.4-0.1,0.2l-0.3,0.5l0,0c-0.2,0.2-0.3,0.2-0.4,0.2s0,0.1,0,0.1
	h-0.7l-0.5-0.2l-1-0.9c-1.1-1.5-1.8-3.4-1.8-5.3v-2c0-0.5,0.1-0.9,0.2-1.4c0-0.1,0.3-0.4,0.1-0.2l0.2-0.2L714.2,636.2
	c0.9,0.5,2,0.2,2.5-0.6c0,0,0,0,0-0.1c0.5-0.8,0.3-2-0.6-2.5c0,0,0,0,0,0c-0.8-0.4-1.6-0.7-2.5-0.7c-0.8,0.1-1.6,0.4-2.3,0.9
	c-1.3,1-2,2.6-2,4.2c-0.2,3.1,0.1,6.4,1.8,9s5,5,8,3.2s2.8-5.6,2-8.5c-0.4-1.6-1.1-3.2-1.9-4.7c-0.8-1.3-1.8-2.8-3.1-3.4
	c-0.9-0.5-2-0.3-2.6,0.6C713,634.5,713.3,635.7,714.2,636.2C714.2,636.2,714.2,636.2,714.2,636.2z"/>
<path class="st1" d="M734.7,698.4c-14.3-8.9-35.8-3.8-46.6,8.7c-3.9,4.5-7.1,17.3-1.4,22.3s17.5-3.1,24.6-4.9s23.8-1.9,26.5-6.9
	S740.9,702.3,734.7,698.4z"/>
<path d="M735.9,696.2c-19.1-11.6-54-1.1-54.8,24.1c-0.1,4.8,1.5,10.4,6.4,12.4s11-0.5,15.8-2.5s9.1-3.6,14.2-4.3s10.8-1,16-2.7
	c2.1-0.7,4.4-1.7,5.8-3.5s2.2-4.8,2.5-7.2C742.7,706.4,741.3,699.8,735.9,696.2c-2.6-1.8-5.1,2.6-2.5,4.3s4.2,7.8,3.5,11.9
	c-0.3,1.3-0.6,3.2-1.5,4.2s-2.9,1.7-4.3,2.1c-8.2,2.3-16.9,1.7-24.8,4.9c-4.3,1.7-8.6,4.1-13.2,4.8s-6.8-2.2-7-6.6
	c-0.2-4.3,0.9-8.6,3.2-12.2c2.6-3.8,6.9-6.8,11-8.9c10.1-5.2,23.1-6.2,33.1-0.2C736.2,702.2,738.7,697.9,735.9,696.2z"/>
<path d="M1041.9,748.2c1.6,0.6,47.2,35.2,47.7,36.7s-9.8,8.7-9.8,8.7L1041.9,748.2z"/>
<path d="M739.6,508.5c6.3,1.6,12.6,3.2,18.7,5.3c6.1,2.2,12,5.1,17.4,8.7c2.7,1.8,5.2-2.5,2.5-4.3c-11.4-7.5-24.2-11.1-37.3-14.5
	C737.8,502.9,736.5,507.7,739.6,508.5L739.6,508.5z"/>
<path d="M569.4,601.2c-2.4,10.8-2.9,21.9-1.6,32.8c0.3,3.8,1.1,7.6,2.4,11.2c0.8,2.1,1.9,4.8,4.1,5.8s5.4-3.1,2.5-4.3
	c-0.5-0.2-0.6-0.3-1-1.1c-0.5-1-1-2-1.3-3c-1-3.5-1.7-7-2-10.6c-0.9-9.9-0.4-19.8,1.7-29.5C574.9,599.4,570.1,598.1,569.4,601.2
	L569.4,601.2z"/>
<path d="M684.7,769.6l6.7,19.1c0,0,24.8,4,47-7.9s24-27.6,24-27.6s-6.4,16.7-31.3,22.5S684.7,769.6,684.7,769.6z"/>
<path d="M1022,660.2c0,0,59.4-37.7,76.1-44.3c5.8-2.3-45.1,36.6-45.1,36.6L1022,660.2z"/>
<path d="M692,1309.6c41.2,7.9,83.7,2.4,124.8-3.7c21.3-3.1,42.4-6.9,63.4-11.2c18.8-3.9,37.7-7.8,56-13.6s37.8-14.4,53.5-27.3
	c2.5-2.1-1-5.6-3.5-3.6c-28.3,23.3-65.7,30.9-100.7,38.3c-40.4,8.5-81.4,15.6-122.5,18.9c-23.3,1.8-46.8,1.8-69.7-2.6
	C690.2,1304.2,688.8,1309,692,1309.6L692,1309.6z"/>
<path d="M703.9,1297.2c51.3-11.7,101.3-28.4,149.3-49.8c13.7-6.1,27.2-12.6,40.6-19.4c2.8-1.5,0.3-5.8-2.5-4.3
	c-46.6,23.9-95.4,43.2-145.7,57.6c-14.2,4.1-28.6,7.8-43,11.1C699.4,1293.1,700.8,1297.9,703.9,1297.2L703.9,1297.2z"/>
<path d="M861.2,626.1l-3.3,20.1c0.3-0.1,2.4-8.6,7.2-14.2s13.5-9.4,13.5-9.4L861.2,626.1z"/>
<path d="M632.5,833.3c-0.8,0.3,14.7-2.1,27.7-12.6c7.8-6.3,13.9-14.4,17.8-23.6l-21.7-0.2C656.3,796.9,654.2,826.5,632.5,833.3z"/>
<path d="M819,790.5c12.5-11.1,27-19.7,42.8-25.2c7.8-2.7,15.8-4.7,23.9-6c8.3-1.2,16.4-0.8,23.9-5.3c16.6-10.1,32.6-21.3,48.8-31.9
	c7.6-4.9,15.3-11.2,23.9-14s15.7,0.8,22.5,6c12.2,9.4,22.5,21.1,32.9,32.4s21,20.7,29.3,32.9c3.5,4.9,6.5,10.1,9.1,15.5
	c2.2,5.2,0.3,9.7-3.3,13.7s-9.7,8.6-14.5,12.8s-10.3,11.1-15.3,16.7c-13.5,14.8-27.8,29-40.9,44.1c-10,11.6-19.3,23.6-26.2,37.2
	c-1.5,2.9,2.8,5.4,4.3,2.5c14.9-29.3,40.1-52,62.1-75.8c5.8-6.2,11.1-13.1,17.2-19s10.5-8.5,15.3-13.3s7.5-8.9,7.3-14.7
	s-3.2-9.8-5.7-14.1c-3.8-6.5-8-12.6-12.8-18.4c-4.7-5.6-10.2-10.6-15.2-15.9c-11.2-11.9-21.9-24.3-34.2-35.2
	c-5.5-4.8-11.5-10.1-18.6-12.4s-16.7,0.3-23.9,4.5s-16.8,10.8-25,16.2L921,740.6c-4.7,3.1-9.2,6.2-13.9,9.1s-9.5,3.4-14.9,3.9
	c-9.4,0.9-18.8,2.7-27.8,5.6c-18.1,5.7-34.8,15.2-49,27.8C813,789.1,816.6,792.6,819,790.5L819,790.5z"/>
<path d="M974.2,884.2c1.1-3.4,2.8,11.9,9.6,8.8s26.6-16.4,26.6-16.4c-6.4,6.1-12.3,12.6-17.8,19.5c-8.3,10.7-14.6,22.4-15.2,20.4
	C976.2,912.5,974.2,884.2,974.2,884.2z"/>
</svg>
