<?xml version="1.0" encoding="utf-8"?>
<!-- Generator: Adobe Illustrator 23.1.1, SVG Export Plug-In . SVG Version: 6.00 Build 0)  -->
<svg version="1.1" id="Layer_1" xmlns="http://www.w3.org/2000/svg" xmlns:xlink="http://www.w3.org/1999/xlink" x="0px" y="0px"
	 viewBox="0 0 921.1 1203.3" style="enable-background:new 0 0 921.1 1203.3;" xml:space="preserve">
<style type="text/css">
	.st0{fill:#734C4C;}
	.st1{fill:#A096CF;}
	.st2{fill:#FEC3AA;}
	.st3{fill:#FFFFFF;}
</style>
<title>mental health problems</title>
<path class="st0" d="M419.7,388.9c2.9-9.5,7.1-18.6,12.3-27c9-14.7,35.2-23.7,37.7-36c4.2-20.6,0-42.1-11.5-59.7
	c-15.5-23.7-26.2-50.8-21.3-72c3.2-13.4,8.2-26.4,14.8-38.5c0,0,10.6-31.1,18-43.4s42.5-62.2,117.8-70.4c0,0,55.7-8.7,84.3,16.7
	c0,0,32.6-7.6,72.7,22.6c13.9,10.5,24,28.4,33.9,47.8c21.4,42.4,30.4,89.9,26,137.2c0,0,1.7,55,18.8,99.8
	c19.6,51.4,35.2,90.1,16.4,106.4s-191.5,52.4-306.1,19.7S419.7,388.9,419.7,388.9z"/>
<path class="st1" d="M528.9,418c0,0-28.3,3.8-67.2-13.9s-92-10.2-125.8,9.3c0,0-53.2,41.3-88.6,83.6s-55.8,86.9-110.6,141
	s-90.4,95.4-98.8,134.2s-21.1,84.4,27,110.6s81,26.2,115.7,15.2s66.7-25.3,66.7-25.3s6.7,35.4,0,55.7s-45.6,94.6-45.6,94.6
	s-16.1,34.6-3.4,51.5s69.2,32.1,69.2,32.1s165.5,20.2,233.1,34.6s156.2,27,177.3,23.6s24.5-11,24.5-11s8.4-18.5,5-38.8
	s-6.7-82.7-6.7-82.7s60.8,33.7,116.5,13.5s62.5-40.6,71.8-82.8s0.8-341.9,0.8-341.9s5.9-58.3-5.1-98.8s-46.4-72.6-89.5-71.8
	s-82.7,12.7-101.3,6.8S558.1,416.8,528.9,418z"/>
<path class="st2" d="M560.7,154.5c0,0-23.1-16-45.7-0.4s-35.2,54.3-35.2,54.3s-3,50.8-9.1,62.9s-3.4,45.4-1,54.6s26.2,66.5,42.7,83
	c16.5,16.5,16.5,9.1,16.5,9.1s-8.7,5.7-28.2-2.1c0,0-9.6,21.2-9.1,42.5s11,43.7,71.8,62.8s114.8-26.6,125.7-36.6
	s19.9-26.2,19.9-26.2s-12.1,3.9-23.9-7.4s-11.2-16-13-27.8s-4.3-59.9-4.3-59.9s19.9,5.7,39.9-11.7s23-28.2,24.8-42.1
	s-4.4-27.8-17-27.3s-19.9,0.4-21.2,0.4s-46.9-2.2-59.1-47.3s-12.6-72.9-18.6-84.6S591,134.2,560.7,154.5z"/>
<path class="st2" d="M302.5,713l83.9-28c0,0-6.8-18.3-4.6-26.8s9.2-11.4,10.3-9.7s-6.8-13.7-1.1-18.3s16.5,2.9,16.5,2.9
	s-2.8-6.9,4-8.6s17.7,3.4,17.7,3.4s-4-7.4,5.7-8s20.6,8,22.8,20c0,0,16.6-9.7,46.8-18.2s52-4.6,56.5-4s3.5,7.4,3.5,7.4
	c5-0.8,10,1.2,13.1,5.1c5.7,6.9-1.7,14.9-1.7,14.9c2.7,3.3,3.6,7.8,2.3,11.9c-2.3,6.9-6.9,11.5-13.2,14.9s-26.2,7.4-31.9,12
	s-24.6,20.5-24.6,20.5s44-13.1,56-13.1s21.7,4.6,15.9,11.4s-37,17.7-37,17.7l-11.5,4c0,0,26.9,40.5,32,51.9s28.5,36.6,28.5,36.6
	S581,844.2,561,868.8s-15.9,17.1-15.9,17.1s-40.6-51.4-46.8-56.5s-34.3-20-45.7-30.2s-20-25.7-20-25.7l-27.9-1.7l-78.2,41.1
	C326.5,812.9,337.9,753.5,302.5,713z"/>
<path d="M645.4,379.7c-3.1,3.5-6.7,6.5-10.5,9.2c-11.2,8.3-23.2,15.2-36,20.7c-13.7,6.2-28.6,11.7-43.8,12.3
	c-11.2,0.4-22.2-2.4-31.9-8c-8.2-4.7-14.3-12.7-19.6-20.4c-6-8.9-11.5-18.2-16.5-27.8c-3-5.8-6.2-11.6-8.7-17.6
	c-1.9-5.2-3.6-10.6-5-16c-2.6-8.4-4.1-17.2-4.4-26c-0.2-19.6,6.7-38.7,9.3-58.1c1.8-13.7,1.9-27.7,4-41.4c0.5-3.2-4.3-4.5-4.8-1.3
	c-1.9,12.4-2.1,25.1-3.6,37.6c-2,17.7-7.4,34.9-9.3,52.6c-2.5,23.6,5.1,47,15.7,67.8c4.9,9.7,10.2,19.2,16.1,28.4
	c5.6,8.6,11.8,17.5,20.1,23.7c20.8,15.8,48.2,12.7,71.2,4.2c16.6-6,32.3-14.2,46.8-24.2c5.1-3.6,10.3-7.5,14.4-12.2
	C651,380.8,647.5,377.3,645.4,379.7L645.4,379.7z"/>
<path d="M691.4,295.7c6.7-6.5,15.6-12.9,25.5-10.5s12.9,13.3,13.1,22.3c0.5,18.7-11.4,34.8-26.9,44.3c-9.8,6.1-21.5,11.9-33.4,10.7
	c-3.2-0.3-3.2,4.7,0,5c12,1.2,23.9-4.4,34.1-10.3s17.7-12.7,23.4-22.1s8.4-19.2,7.7-29.5s-4.6-21-14.8-24.6
	c-12.1-4.4-23.9,3-32.3,11.2C685.5,294.4,689.1,298,691.4,295.7L691.4,295.7z"/>
<path d="M719,305.1c-7.1-4.2-15,1.6-20.6,6c-5.7,4.5-10.5,10-14.3,16.2c-1.7,2.8,2.6,5.3,4.3,2.6c3.2-5.3,7.3-10,12-14
	c2.3-2,4.7-3.7,7.3-5.3c2.6-1.5,5.9-2.9,8.8-1.1S721.8,306.8,719,305.1L719,305.1z"/>
<path d="M695.5,319.5c3.2,1.8,2.4,7.2,1.2,10.1c-1.5,3.6-4.5,6.3-8.1,7.6c-3,1-1.7,5.8,1.3,4.8c5.4-1.8,9.8-6,11.7-11.4
	c1.9-5,1.7-12.5-3.6-15.4C695.2,313.7,692.7,318,695.5,319.5L695.5,319.5z"/>
<path d="M535,264.6c-6.5,8.9-13.5,17.6-19.5,26.8s-0.4,18.7,4.7,25.7c1.9,2.5,6.3,0,4.3-2.6c-2.5-3.3-4.4-7.1-5.6-11.1
	c-0.6-2.1-1.1-4.5-0.5-6.6s2.2-4.1,3.5-5.9l17.4-23.7C541.2,264.6,536.9,262.1,535,264.6L535,264.6z"/>
<path d="M515.1,251c0.7,1.2,1.1,2.6,1.3,4c0.3,3.1,0,6.3-0.9,9.3c-0.3,1.3-0.9,2.5-1.8,3.6c-0.8,1.1-2.1,1.8-3.5,1.7
	c-1.9-0.1-3.4-1.8-4.1-3.6c-0.8-2.3-1-4.9-0.4-7.3c0.6-2.4,1.6-4.7,2.9-6.8c0.4-0.8,0.9-1.4,1.6-1.9c0.9-0.5,1.9-0.7,2.9-0.5
	C513.9,249.8,514.6,250.3,515.1,251z"/>
<path d="M513.5,251.9c1.4,1.9,1.2,5,1.1,7.2c-0.1,1.6-0.4,3.2-0.9,4.7c-0.2,1.3-0.9,2.5-1.8,3.4c-2.3,1.8-4-1.1-4.4-3s0.1-6,1.3-8.7
	l1.1-2.2c0.3-0.6,0.8-1.2,1.3-1.7c0.4-0.2,0.8-0.3,1.2-0.3c0.6,0.1,1.1,0.5,1.4,1c0.7,0.7,1.9,0.7,2.6,0s0.7-1.9,0-2.6l0,0
	c-1.2-1.6-3.3-2.4-5.3-2c-1.8,0.4-3.3,1.6-4.1,3.3c-2.1,3.6-3.8,7.7-3.5,11.9s2.4,8.4,6.7,8.6c4.3,0.2,6.8-4.7,7.6-8.5
	c0.5-2.5,0.7-5.1,0.5-7.6c-0.2-1.8-0.5-3.9-1.6-5.3c-0.5-0.9-1.6-1.2-2.4-0.7c0,0,0,0-0.1,0C513.3,249.9,513,251,513.5,251.9
	C513.5,251.9,513.5,251.9,513.5,251.9z"/>
<path d="M604.8,262.9c0.7,1.2,1.1,2.6,1.2,4c0.3,3.1,0,6.3-0.8,9.3c-0.3,1.3-0.9,2.5-1.8,3.6c-0.8,1.1-2.2,1.8-3.6,1.7
	c-1.9-0.1-3.3-1.8-4-3.6c-0.9-2.3-1.1-4.9-0.4-7.3c0.6-2.4,1.5-4.7,2.8-6.8c0.4-0.7,1-1.4,1.7-1.9c0.9-0.5,1.9-0.7,2.9-0.4
	C603.7,261.6,604.2,262.3,604.8,262.9z"/>
<path d="M603.1,263.9c1.5,1.8,1.3,5,1.1,7.2c-0.1,1.6-0.4,3.1-0.8,4.6c-0.3,1.3-1,2.5-1.9,3.4c-2.2,1.8-3.9-1.1-4.4-3s0.1-6,1.3-8.7
	l1.2-2.1c0.2-0.7,0.7-1.3,1.2-1.8c0.4-0.2,0.9-0.3,1.3-0.2c0.6,0,0.9,0.5,1.3,0.9c0.7,0.7,1.9,0.8,2.7,0c0,0,0,0,0,0
	c0.6-0.7,0.6-1.9,0-2.6c-1.2-1.7-3.4-2.5-5.4-2c-1.8,0.5-3.3,1.7-4.1,3.3c-2.1,3.6-3.8,7.7-3.4,11.9s2.3,8.4,6.6,8.6
	s6.8-4.7,7.6-8.5c0.5-2.5,0.7-5.1,0.5-7.6c0-1.9-0.5-3.7-1.5-5.3c-0.5-0.9-1.7-1.2-2.6-0.7c0,0,0,0,0,0
	C602.9,261.9,602.6,263,603.1,263.9z"/>
<path d="M543.9,422.4L543.9,422.4l1.1,2.8l0,0l-0.6,1.1l-0.3,0.2l-1.3,0.4h0.1l-2.1-1.2l0,0l-0.3-1.3c0.2,7-0.4,13.9-1.9,20.7
	c-0.3,1.3,0.5,2.7,1.8,3.1c1.3,0.4,2.6-0.4,3-1.7c0,0,0-0.1,0-0.1c0.9-3.8,1.5-7.8,1.8-11.7c0.2-1.9,0.3-3.8,0.3-5.7
	c0-1.9,0.3-4.3-0.4-6c-0.5-0.8-1.3-1.2-2.2-1.2c-1.3,0-2.4,0.9-2.7,2.1c-0.3,1.1,0.2,2.2,1.1,2.8h0.1c1.1,0.8,2.7,0.6,3.5-0.6
	c0.8-1.1,0.6-2.7-0.6-3.5C544.2,422.6,544.1,422.5,543.9,422.4L543.9,422.4z"/>
<path d="M633.6,392.8c10-7.4-24.7,21.8-33.7,30.4s-21.4,11.6-33.3,14.8c-9.8,2.7-24.1-2.7-24.1-2.7l2.9-10.5
	C545.4,424.8,585,429,633.6,392.8z"/>
<path d="M500.4,222.6c6.7,0.8,13.6,1.1,20.3-0.4s12.6-4.8,18.2-8.6c2.7-1.8,0.2-6.1-2.5-4.3c-5.3,3.6-10.8,6.7-17.1,8.1
	s-12.7,1-18.9,0.2c-1.3-0.1-2.4,1-2.5,2.3c0,0.1,0,0.1,0,0.2C497.9,221.5,499,222.6,500.4,222.6L500.4,222.6z"/>
<path d="M672.9,364.4c-3.5,9.9-4.5,21.1-5.3,31.5c-1,12-0.8,24.5,2.3,36.3s10.8,23.7,23,28.2c4.1,1.4,7,1,11.2,0.5s8.4-1.2,12.7-2.1
	c31.1-6.3,63.8-10.8,95-2.6c13.1,3.3,25.5,9,36.5,16.9c6.5,4.8,11.7,10.5,17,16.5s10,14.6,13.2,22.8c8,20.1,10.5,42.1,10.4,63.6
	c0,11.1-0.9,22.2-1.3,33.4s-0.6,21-0.7,31.6c-0.3,23.6-0.1,47.3,0.1,71c0.5,43.7,1.8,87.4,1.5,131c0,19.5-0.9,39-0.6,58.4
	c0.4,26,1.5,52.7-5.3,78.1c-5.7,21.5-18.2,39.6-37.2,51.5c-19,11.9-40,17.2-61.4,18.1c-26,1.1-51.9-4.4-75.3-16
	c-13.6-6.7-25.6-15.5-37.8-24.4s-26.5-19.3-39.8-28.9c-22.3-16-44.7-31.8-66.4-48.5c-7-5.4-14-10.9-20.5-16.9c-2.2-2-4.2-4.1-6-6.3
	c-0.5-0.6-0.9-1.3-1.3-2c-0.3-0.5-0.3-0.5-0.3-0.6s-0.2-0.3-0.2-0.5s0.9-2.8,1.8-4.4c1.4-2.5,3.1-4.9,4.9-7.1
	c5.1-6.8,10.6-13.3,15.9-19.9c12.5-15.5,25.4-31.6,33.3-50c3.3-7.5,5.7-15.6,5.6-23.9l-1.3,2.2c5.1-3.2,12.7-6.5,18.7-4.7
	c3.2,1,6.2,4.4,9.2,6c10,5.7,20.6,10.2,31,14.9c29.4,13.3,59.2,25.9,88.1,40.3c5.8,2.9,11.7,5.9,17.3,9.3c1.9,1.2,3.9,2.4,5.7,3.8
	l1.8,1.4l0.7,0.8c0.5,0.6-0.1-0.2,0.3,0.3c1.8,2.6,6.1,0.2,4.3-2.5s-7.7-6.6-11.7-9c-7.4-4.3-15.1-8.1-22.8-11.8
	c-20.1-9.8-40.6-18.8-61.1-27.9c-16.4-7.3-33-14.2-48.9-22.6c-1.9-1.1-3.8-2.1-5.6-3.3s-0.2-0.1-1-0.9c-2.1-2.2-5-3.6-8-4
	c-5.5-0.8-11.1,1-16.1,3.3c-1.5,0.6-2.9,1.3-4.2,2.2c-1.9,1.4-1.3,3.7-1.5,5.8c-0.8,11.3-6.3,22.1-12,31.7s-14.3,21.2-22.2,31.2
	c-6.7,8.4-13.7,16.6-20.1,25.2c-2.9,3.9-8.4,10-6.8,15.4c0.8,2.6,2.9,4.8,4.7,6.8c2.8,3,5.8,5.8,9,8.5c9.9,8.5,20.4,16.3,30.8,24.1
	c30.7,22.7,61.9,44.5,92.7,67.2c15.1,11.1,30.2,21.4,47.7,28.6c15,6.2,30.8,10.1,47,11.6c27.5,2.5,56.3-2.3,80.5-16
	c10.1-5.6,19.1-13.1,26.4-22.1c9.5-12,15.3-26.3,18.5-41.2c6.8-32.2,3.2-65.6,3.8-98.2c0.4-21.9,0.8-43.7,0.6-65.6
	c-0.3-28.9-0.9-57.8-1.2-86.7s-0.7-59.5-0.3-89.2c0.2-12.4,0.5-24.9,1.2-37.3c0.8-16.2,1.3-32.2-0.7-48.4
	c-2.3-19.4-7.4-39.6-18.4-56.1c-9.9-14.9-24.6-26.8-40.8-34.3c-35.2-16.1-74.5-12.8-111.5-5.8c-6.2,1.2-12.3,2.6-18.6,3.3
	c-1.7,0.3-3.4,0.5-5.1,0.6c-4.2-0.3-8.6-3.2-11.6-5.8c-13-11.2-14.8-30.7-14.3-46.8c0.4-12.6,1.4-26.3,5.6-38.3
	C678.8,362.7,674,361.4,672.9,364.4L672.9,364.4z"/>
<path d="M493.4,416.6c-4.4,12-5.1,25.3-3.7,37.9s4.8,26.2,11.8,37.3s17.8,17.8,29.6,23c34.8,15.7,76.1,18.3,111.8,4.1
	c28.6-11.5,51.5-32.5,69.2-57.4c1.8-2.6-2.5-5.1-4.3-2.5c-15.5,21.8-35.3,40.7-59.6,52.2c-18.9,8.7-39.5,12.8-60.3,11.9
	c-16.9-0.6-33.5-4.2-49.2-10.4c-9.6-3.8-20.3-8.7-27.4-16.1c-9.4-10-14-24.2-16.1-37.5s-1.8-28.2,3-41.1
	C499.3,415,494.5,413.7,493.4,416.6L493.4,416.6z"/>
<path d="M475.5,545.2c47.1,14.7,96.6,20.3,145.8,16.5c3.2-0.2,3.3-5.2,0-5c-48.8,3.7-97.8-1.8-144.5-16.3
	C473.7,539.4,472.4,544.2,475.5,545.2z"/>
<path d="M289,705.2c0.3-17.5,2.9-35,7.5-51.9c4.5-15.5,10.6-30.5,18.1-44.8c8-15.4,17.2-30.1,26.6-44.7
	c10.4-16.2,21.7-32.1,28.7-50.2c8.1-21.1,9.4-44.1,8.6-66.4c-0.1-3.2-5-3.2-4.9,0c0.6,20.2-0.3,40.8-6.8,60.2
	c-6.5,19.4-17.8,35.2-28.5,51.7c-18,28-35.7,56.7-45.4,88.8c-5.5,18.6-8.5,37.9-8.9,57.3C283.9,708.4,288.9,708.4,289,705.2
	L289,705.2z"/>
<path d="M486.8,653.2c13-6.4,26.9-11,41-14.8c6.9-1.9,13.8-3.6,20.8-5.1s14.3-1.4,18-6.6s0.1-10-5.1-12.1
	c-6.8-2.7-14.1-2.7-21.3-2.4c-13.8,0.6-27.4,2.8-40.6,6.8c-13,4-25.7,9.1-37.8,15.2c-12.9,6.3-25.5,13.3-37.6,21
	c-5.8,3.7-11.4,7.6-16.9,11.6s-11.3,9-17.3,12.9c-8.7,5.5-19.5,8.1-29.2,11.3c-20.6,7-41.1,14.3-62,20.2c-3.1,0.9-1.8,5.7,1.3,4.8
	c17.2-4.8,34.1-10.8,51-16.4l26.4-8.9c5.2-1.6,10.3-3.9,15-6.7c5.8-3.7,11-8.2,16.5-12.2c21.6-15.9,44.9-29.3,69.6-39.9
	c12-5.2,24.4-9.2,37.2-11.8c6.6-1.3,13.4-2.2,20.1-2.7c6.9-0.5,14.4-1,21.2,0.9c1.5,0.5,5.5,1.4,6.1,3.3s-1.9,3.5-3.3,4
	c-3.5,1.4-7.5,1.8-11.1,2.6c-7.3,1.6-14.6,3.3-21.8,5.3c-14.7,3.8-29.1,8.9-42.8,15.4C481.4,650.3,483.9,654.6,486.8,653.2
	L486.8,653.2z"/>
<path d="M561.2,630.9c4.8-0.9,11.2-2.1,15,2s0.8,7.8-3.4,9.3s-8.3,2.1-12.4,3.2s-9.3,2.6-13.8,4.1c-18.5,6.1-36.1,14.6-52.4,25.3
	c-2.7,1.8-0.2,6.1,2.5,4.3c20-13.1,41.9-22.8,65-28.9c7.3-1.9,21.2-3,21.3-13.2c0.1-4.5-3.2-8.6-7.1-10.4s-10.8-1.4-16.1-0.5
	C556.7,626.6,558,631.4,561.2,630.9L561.2,630.9z"/>
<path d="M572.8,648.3c5.5,1.7,3.7,8.5,1.3,12c-2.4,3.4-5.6,6.3-9.2,8.4c-7.7,4.4-16.9,5.2-25,8.7c-14.7,6.5-27.5,17.3-39.8,27.6
	c-2.4,2,1.1,5.6,3.6,3.5c14.4-12.2,29.5-24.8,48-29.8c9.7-2.6,18.9-5.9,25.3-14c2.8-3.5,5-7.8,4.4-12.5c-0.5-4.1-3.3-7.5-7.3-8.7
	C571.1,642.6,569.7,647.4,572.8,648.3z"/>
<path d="M503.5,709.5c17.8-7.7,37.4-13.8,56.8-15.9c5-0.5,10.5-1.3,15.3,0.5c1.6,0.6,4,2.5,3.8,4.5s-2.7,4.3-4.2,5.6
	c-3.7,3.2-8.4,5.2-13,6.9l-13.7,4.9c-9.7,3.4-19.6,6.4-28.9,10.6c-8.3,3.8-16.3,8.4-23.8,13.7c-8,5.5-15.9,11.3-24.1,16.4
	c-5.7,3.5-12,6.1-18.6,7.7c-16.5,4.1-34.3,6.6-51.2,5.9c-3.2-0.2-3.2,4.8,0,5c16.4,0.6,33.5-1.8,49.5-5.4c6.9-1.5,13.8-3.4,19.9-7.1
	c9.2-5.6,17.8-11.9,26.6-17.9s17.2-11.2,26.7-15.1s21.4-7.6,32.1-11.5c9-3.2,19.4-6.2,25.4-14.3c2.7-3.6,3.1-7,0.3-10.7
	s-7.6-5-12.3-5.2c-11.6-0.6-24,2.5-35.1,5.4c-11.6,3-23,7-34,11.7C498,706.5,500.6,710.7,503.5,709.5L503.5,709.5z"/>
<path d="M389.7,681.7c-4.2-6.2-7.8-13.6-6.8-21.3c0.3-2.7,1.2-6.7,4-8c0.5-0.3,1-0.4,1.5-0.4h0.4c-0.7,0.1,0.2,0,0.3,0
	c1.4-0.1,2.7,0.5,3.6,1.5c2.2,2.4,5.7-1.1,3.5-3.5s-6.2-3.4-9.7-2.6s-7.2,5.7-8.1,10.1c-2.1,9.6,1.6,18.9,6.9,26.8
	C387.1,687,391.4,684.5,389.7,681.7L389.7,681.7z"/>
<path d="M407.6,667.3c-3.1-4.1-5.9-8.4-8.4-12.9c-2.8-4.9-5.9-10.1-7.3-15.6c-0.8-2.7,0.3-5.6,2.8-7c2.5-1.2,5.5-1,7.9,0.5
	c4.6,2.6,7.5,7.3,10.2,11.7s5.8,10.7,8.9,16c1.6,2.7,5.9,0.2,4.3-2.5c-3.2-5.4-6-11.1-9.2-16.5s-6.9-10.8-12.6-13.5
	c-3.1-1.4-6.8-2.1-10.1-0.9c-3.4,1.1-5.9,3.8-6.9,7.2c-1,3.4-0.1,6.6,1.1,9.7c1.3,3.3,2.8,6.5,4.4,9.6c3.3,6.2,7,12.1,11.3,17.7
	c1,1,2.5,1,3.5,0.1c0,0,0,0,0.1-0.1C408.5,669.8,408.5,668.3,407.6,667.3z"/>
<path d="M411.2,631.4c-1.5-2.7,2.1-6.1,4.6-6.3s6,1.5,8.4,3.5c6.3,5.3,10.8,12.8,14.3,20.1c1.4,2.9,5.7,0.4,4.3-2.5
	c-2.3-4.7-5-9.2-8.1-13.4c-2.9-4-6.3-7.9-10.6-10.4s-9.1-3.4-13.1-0.7s-6.6,7.7-4.1,12.2C408.5,636.7,412.8,634.2,411.2,631.4
	L411.2,631.4z"/>
<path d="M460.2,635.7c-3-3.5-5.1-7.7-8.1-11.3s-7.5-6.5-12-7.3s-9.8,0.5-12.1,4.7s-1.1,8.5,1,11.7s6,0.2,4.3-2.5
	c-0.5-1.1-1-2.4-1.2-3.6c-0.3-1.3-0.1-2.6,0.6-3.7c2.1-2.7,6.3-2.1,9.1-0.8c3.3,1.6,6.2,4,8.3,7c2.2,3.1,4.1,6.4,6.6,9.3
	S462.3,638.1,460.2,635.7L460.2,635.7z"/>
<path d="M432.2,775.9c-1.1,6.8,5.7,13.6,10.1,18.2c5.3,5.4,11.2,10.1,17.7,14c5.6,3.5,11.7,6.2,17.4,9.6c5.7,3.3,11.1,7,16.3,11.1
	c4.9,4.1,9.4,8.7,13.4,13.7c6,7.2,11.9,14.5,17.8,21.9s12.2,14.6,16.9,22.7c1.6,2.7,5.9,0.2,4.3-2.5c-4-6.8-9.2-13-14-19.2
	s-12.1-15.1-18.3-22.5c-3.3-4-6.4-8.3-10.1-11.9c-8.6-8.3-18.5-15.3-29.2-20.7c-7.5-3.7-14.8-7.7-21.4-13c-3.1-2.5-6-5.3-8.7-8.2
	c-1.4-1.6-2.7-3.2-3.9-4.9c-1.3-1.8-3.9-4.6-3.5-6.9S432.7,772.8,432.2,775.9L432.2,775.9z"/>
<path d="M531,729.7c11.9,14.9,22.5,30.8,31.4,47.7c2.7,5.1,4.7,10.6,8.6,14.9l11,12c3.3,3.5,6.5,7.5,10.3,10.6s6-1.5,3.5-3.5
	s-5.9-6-8.7-9s-7.7-8.2-11.4-12.3c-1.1-1.1-2.1-2.2-3.1-3.4c-1.9-2.9-3.3-6.8-4.9-10c-4.3-8.3-9-16.4-14.1-24.3
	c-5.9-9.1-12.3-17.8-19.1-26.2C532.5,723.7,529,727.3,531,729.7z"/>
<path d="M527.8,417.8c-12.8-0.7-25.9-3.9-38.1-7.3c-16.5-4.6-32.6-10.6-49.1-15.1c-6.8-1.8-13.7-3.5-20.8-4
	c-8.2-0.5-16.4-0.1-24.5,1.1c-17.7,2.5-34.8,8-50.7,16.1c-26.7,13.6-50.3,33.7-70.9,55.1c-6.3,6.6-12.4,13.3-18.4,20.2
	c-2.8,3-5.4,6.2-7.8,9.5c-2.4,3.2-4.6,6.5-7,9.7c-24.6,34.7-49.9,69.1-76.9,102.1c-12.3,15-24.8,30.4-39.4,43.2
	c-21.5,18.8-40.7,40.2-57.2,63.5c-18.3,26.1-33.2,55.8-38,87.6c-3.9,25.4-1.8,53.4,16.6,73c16,17,39.7,24.3,61.8,29.3
	c10.3,2.3,21,5.2,31.5,5.6c8.7,0.2,17.4-1.2,25.8-3.1c21.4-4.8,42-13.2,61.9-22.2s40.1-19.2,59.6-29.9c12-6.6,23.9-13.4,35.7-20.5
	c1.7-1.1,3.8-1.9,4.3-4c1.2-4.3,1.6-8.9,2.2-13.3c2.3-18.4,2.5-37.4-1.1-55.6c-2-10.7-5.9-21-11.5-30.4c-2.7-4.5-6-8.6-9.7-12.3
	c-3.8-3.8-8.7-8.2-13.7-10.3c-2-0.8-4.9,0.1-7.1,0.3l-16.2,1.7c-17.2,1.6-34.5,3-51.8,3.9c-30,1.5-60.3,3.4-89.5,10.6
	c-9.6,2.3-20.3,5.2-28,11.6c-2.5,2,1,5.5,3.5,3.5c7.8-6.4,19.4-8.9,29-11.1c14.1-3.1,28.4-5.3,42.8-6.7c14.8-1.6,29.6-2.2,44.5-3
	s32.5-2.2,48.7-3.8l16.6-1.6c1.8-0.2,4.4-1,6.2-0.7c-1.5-0.3,0.4,0.6,0.7,0.7l1.7,1.1l3.4,2.4c2.2,1.6,4.2,3.4,6.1,5.4
	c3.6,3.7,6.8,7.8,9.4,12.2c10.2,17.4,12.9,38.4,12.7,58.3c-0.2,12.1-1.1,24.5-3.8,36.4l1.2-1.5c-14.8,9.1-29.9,17.6-45.2,25.8
	c-29.2,15.8-59.2,30.8-90.7,41.5c-13.4,4.5-27.4,8.7-41.5,9.5c-6.1,0.2-12.2-0.3-18.2-1.6c-9.1-1.7-18.3-3.6-27.3-5.9
	c-16.3-4.3-32.9-10.2-45.8-21.3s-20.3-28.6-21.4-46.4c-2.9-47.2,22.3-92.9,50.9-128.7c12.9-16.2,27.2-31.3,42.8-45
	c10-9.1,19.3-18.8,28-29.1c22.7-26.3,43.6-54.1,64.2-82c8.1-11,16.1-22,24-33c3.3-4.7,6.4-9.5,9.9-14c7.8-10.2,16.9-19.6,25.7-28.8
	s15.9-15.7,24.4-22.9c17.7-15,37.3-28.5,59-37s47.8-13.5,71.6-8s48.7,16.2,74,21.1c6.9,1.5,13.9,2.5,20.9,3.1
	C531,422.9,531,418,527.8,417.8L527.8,417.8z"/>
<path d="M757.9,493c-13.8,23.6-25.2,48.5-34,74.4c-1.1,3,3.7,4.3,4.8,1.3c8.6-25.5,19.8-50,33.5-73.1
	C763.9,492.8,759.5,490.3,757.9,493z"/>
<path d="M715,840.8c5.6-43.8,8.4-87.9,8.4-132c0-3.2-5-3.3-5,0c0,44.1-2.8,88.2-8.4,132C709.6,844,714.6,844,715,840.8z"/>
<path d="M243.7,872.2c16.7,43.2-11.8,85.7-31.3,122.5c-9.5,18.1-19,38-20.9,58.6c-0.9,9.5,0.4,22.1,8.8,28.2s17.7,10.2,27,14
	c24.2,10,49.8,16.4,75.5,21.3c37,7,74.6,9.2,111.8,14.3c35.2,4.9,70.1,11.1,105,17.1c32.1,5.7,64.3,11.4,96.6,15.6
	c13,1.6,26,3,39,3.6c9.8,0.4,19.7,0.5,29.3-1.1c6.1-1,13-2.8,17.4-7.4c2.6-2.7,3.8-6.3,4.9-9.8c1.7-5,2.8-10.2,3.3-15.5
	c1-10.5-0.5-21-2-31.4c-2-14.8-3.9-29.5-4.6-44.4c-0.4-10.2-0.4-20.4,0-30.6c0.1-3.2-4.9-3.2-5,0c-0.7,18.4-0.1,36.8,2,55.1
	c1.4,11.9,3.6,23.7,4.6,35.6c0.8,10.1,0.2,20-3,29.6c-2.1,6.5-4.3,9.8-10.7,12s-16,3-23.9,3.1c-11.7,0.1-23.3-0.6-34.9-1.9
	c-30.6-3.2-61-8.5-91.3-13.7c-34.4-5.9-68.7-12.2-103.2-17.4c-16.6-2.6-33.2-4.9-49.9-6.8c-19.2-2.2-38.5-3.7-57.7-6.4
	c-29.8-4.3-59.5-10.4-87.9-20.4c-12.7-4.5-25.6-9.6-37-16.9l-2.7-1.8l-0.6-0.4l0.4,0.3c-1.3-1.3-2.4-2.8-3.3-4.5
	c-4.2-7.6-3.6-17.2-2-25.5c1.9-10.3,5.5-20.3,9.6-29.9c16.6-38.6,46.1-73.6,46.5-117.5c0.2-9.9-1.5-19.7-5-28.9
	C247.3,867.9,242.5,869.2,243.7,872.2L243.7,872.2z"/>
<path d="M234.1,1039.3c65.7,6.5,132,2.4,196.4-12c18.3-4.1,36.4-9.1,54.2-14.8c3.1-1,1.8-5.8-1.3-4.8
	c-62.8,20.2-128.4,30.2-194.3,29.6c-18.4-0.2-36.8-1.2-55-3C230.9,1034,230.9,1039,234.1,1039.3L234.1,1039.3z"/>
<path d="M329.3,815.2c24.7-14.1,49.5-28.2,75-40.9c2.8-1.5,0.3-5.8-2.6-4.4c-25.4,12.8-50.2,26.9-74.9,41
	C324,812.5,326.5,816.8,329.3,815.2L329.3,815.2z"/>
<path d="M579.8,945.2c0,0,31.8,40.6,64.2,69.2c32.4,28.6,57.1,40,57.6,41.7s-1.1-22.5-1.1-22.5L579.8,945.2z"/>
<path d="M581.9,219.8c5.5,8.9,14.4,15.1,24.7,17.1c1.3,0.3,2.7-0.5,3.1-1.8c0.3-1.3-0.5-2.7-1.8-3c-9-1.7-16.9-7.1-21.7-14.8
	C584.6,214.6,580.3,217.1,581.9,219.8z"/>
<path class="st3" d="M523.6,365.2c2.4,2.1,7.7,2,11,1.9s6.5-0.7,9.8-0.8c4.2-0.2,8.3,0.5,12.2,1.9c4.2,1.7,8.8,4.3,13.1,2.7
	s5.7-5.5,5.3-9.3s-2.9-7.3-6.1-9.6c-3.2-2.2-6.7-3.8-10.4-4.9c-6.9-2.3-14-4.2-21.2-3.6s-15.3,3.8-18,10.5
	C518.2,356.8,517.7,360.1,523.6,365.2z"/>
<path d="M522.3,367.3c3.5,2.7,8.6,2.5,12.8,2.3c6.5-0.2,12.4-1.6,18.8,0.4s10.4,5.2,16,3.5s7.1-5.4,7.6-9.8
	c1.1-11.7-11.8-17-20.8-19.8s-21.9-4.8-31.7,0.6c-4,2.2-7.5,5.9-8.6,10.5s2,8.9,5.4,11.9s5.9-1.3,3.5-3.5s-4.8-4.3-4-7.5
	s3.5-5.6,6.2-7.1c7.7-4.2,16.8-3.2,24.9-1s20.2,5.4,20.1,14.8c0,4.5-3.6,7-7.8,6s-8.4-3.5-13-4.3s-10-0.1-15.1,0.3
	s-8.7,0.8-11.8-1.6S519.8,365.4,522.3,367.3z"/>
<path d="M567.1,154.9c4.8-4.2,10.9-7,16.8-9.3s11.9-4.3,17.7-3.4c14.5,2.4,16.6,23.7,18.5,35c5.5,32.5,9.4,68.4,35,92.1
	c12.1,11.2,28,18.5,44.7,16.6c3.2-0.4,3.2-5.4,0-5c-15.8,1.8-30.5-5.1-41.8-15.8s-19.6-26.8-24.2-42.9c-5-18.1-7-36.8-10.5-55.2
	c-2.2-11.7-7.2-27.5-20.9-29.7c-6.9-1.1-14.3,1.4-20.6,3.8s-13,5.7-18.2,10.3C561.2,153.5,564.7,157,567.1,154.9L567.1,154.9z"/>
<path d="M558.2,150.7c-8-8.8-21.3-10-32-6c-12.8,4.8-21.7,16-29.5,26.7c-9.5,12.7-18.2,25.9-26.1,39.6
	c-7.2,12.8-13.3,26.5-14.8,41.2c-0.7,6.6-0.8,14.2,1.3,20.5s5.6,9.1,10.6,11.6c2.9,1.5,5.4-2.8,2.5-4.3s-7.3-4.7-8.5-9.2
	s-1.5-11.1-1.1-16.4c0.9-13.5,6.4-26.2,12.7-38c6.6-11.9,13.9-23.4,21.9-34.4c7.3-10.4,14.9-21.9,25.7-29
	c10.8-7.1,24.9-8.5,33.8,1.2C556.9,156.6,560.4,153,558.2,150.7z"/>
<path d="M588.7,164.8c3.7-4.3,8.6-8.8,14.6-9.4s9.9,1.7,11.2,6.4c0.9,3.1,5.8,1.8,4.8-1.3c-1.9-6.5-8.7-10.3-15.2-10.1
	s-14.1,5.3-18.9,10.9C583.1,163.7,586.6,167.2,588.7,164.8L588.7,164.8z"/>
<path d="M565.7,134c0.9-7.4,7.7-13.8,12.9-18.6c5.5-4.9,11.6-9,18.1-12.2c15-7.6,31.8-10.9,48.5-12.4c3.1-0.3,3.2-5.3,0-5
	c-18.2,1.7-36.5,5.3-52.8,14c-7.2,3.8-13.7,8.5-19.5,14.2c-5.6,5.5-11.2,11.9-12.2,20C560.3,137.1,565.3,137.1,565.7,134z"/>
<path d="M452.3,258.5c-9.4-15.5-14.1-33.3-13.5-51.4c0.7-18.2,8.6-35.5,18.7-50.3c6.1-8.8,13.1-16.9,20.8-24.3
	c2.3-2.2-1.3-5.7-3.6-3.5c-14,13.6-26.1,29.5-33.7,47.6c-7.3,17.3-9,36.5-4.8,54.9c2.3,10.4,6.2,20.4,11.8,29.5
	C449.6,263.7,454,261.2,452.3,258.5z"/>
<path d="M452.4,160.9c-0.7-10.6,3.9-21.2,8.6-30.4c5.4-10.3,11.6-20,18.7-29.2c14.5-19.1,33.4-34.3,55.1-44.5
	c22-10.3,45.9-15.8,70.2-16.1c13.2-0.2,26.9,0.7,39.4,5.2s22.4,14.2,36,15.2c7.1,0.6,14.3-0.6,21.4,0.7c6.4,1.2,12.5,3.4,18.2,6.5
	c9.7,5.3,18.5,11.9,26.3,19.7c11.6,11.6,20.6,25.5,28.1,39.9c18.8,36.5,27.9,78,29.1,118.8c1.3,47.1-8.7,94.7-31.4,136.1
	c-3,5.4-6.1,10.6-9.5,15.8c-1.7,2.7,2.6,5.2,4.3,2.5c26.8-41.3,40.4-90,41.6-139.1c1-43.2-7.1-87.3-25-126.7
	c-7.3-15.9-16.3-31.2-27.8-44.5c-5.9-6.6-12.5-12.7-19.6-18c-10.5-7.9-22.6-14.5-35.8-16.3c-7.6-0.9-15.3,0.6-22.8-0.7
	s-12.3-4.7-18-7.9c-5.9-3.6-12.3-6.5-19-8.4c-6.6-1.8-13.4-2.9-20.2-3.3c-25.1-1.9-50.2,1.7-73.8,10.3c-23,8.5-44.4,22-61.1,40.1
	c-7.8,8.7-14.9,18.1-21.1,28.1c-6.2,9.9-12.1,20.7-15.2,32.1c-1.3,4.6-1.9,9.3-1.7,14.1C447.6,164.1,452.6,164.1,452.4,160.9
	L452.4,160.9z"/>
<path d="M465.7,328.2c-3.9,6.3-11,9.4-16.8,13.6c-5.5,3.9-10.5,8.3-15,13.2c-8.9,9.8-15.6,21.7-17.5,35c-0.4,3.1,4.4,4.5,4.8,1.3
	c1.9-13.4,8.8-25.2,18.2-34.9c4.7-4.8,9.9-9,15.5-12.7c5.6-3.7,11.5-7.1,15.1-13C471.7,328,467.4,325.5,465.7,328.2L465.7,328.2z"/>
<path d="M805.5,255.2c-2.3,28.8-0.1,57.8,6.6,85.9c3.4,14,7.8,27.6,13.3,40.9c5.5,13.1,11.9,25.9,15.2,39.8s8.4,29.3-0.9,41.5
	c-1.9,2.6,2.4,5.1,4.3,2.5c8-10.4,6.4-22.9,3.8-34.9c-1.4-6.8-3.1-13.6-5.2-20.2c-2.3-6.7-5.1-13.2-7.9-19.7
	c-11.9-27.4-20.5-55.6-23.7-85.5c-1.7-16.7-1.9-33.6-0.5-50.3C810.7,252,805.8,252,805.5,255.2L805.5,255.2z"/>
<path d="M715.8,393.6c0,16.3,6.1,32,17.2,43.9c5,5.4,10.7,10.3,17.9,12.2c7,1.9,14.4,2.3,21.6,1.1c3.2-0.5,1.8-5.3-1.3-4.8
	c-6.4,1-13,0.5-19.3-1.2c-6.5-1.8-11.6-6.5-16-11.5c-9.8-10.9-15.1-25.1-15.1-39.7C720.8,390.3,715.8,390.3,715.8,393.6L715.8,393.6
	z"/>
<path class="st3" d="M612,285c-5.1-2-4.9,1.7-4.9,1.7c4.2,8.6,0.7,19.4,4.8,28.1c1.2,2.5,3.2,4.9,6,5.3c2,0.2,4.1-0.5,5.5-2
	c1.4-1.5,2.3-3.3,2.8-5.2c1-4,0.5-8.1-0.9-11.9C623,294.8,618.1,287.3,612,285z"/>
<path d="M605,288c4.5,9.7-0.6,21.8,6.4,30.7c3.4,4.4,9.1,5.2,13.4,1.5s4.9-10,4.1-15.2s-4.3-11.6-8.3-16.3c-2.1-2.4-5.6,1.1-3.5,3.5
	c3.5,4.2,6.6,9.3,7.1,14.8c0.2,2.7-0.1,5.8-1.6,8.1s-3.7,3.4-5.9,1.9c-4.3-2.9-4.4-10-4.6-14.6s-0.3-11.6-2.8-16.9
	C607.9,282.6,603.6,285.1,605,288L605,288z"/>
<path d="M536.9,874.2c9.1-3.3,17.3-8.6,23.9-15.6c11.5-11.8,24-27.8,24-27.8s-26,43.1-39.7,55.1L536.9,874.2z"/>
<path d="M251.5,892.3c0,0,19.2-19.1,33.5-32.7s37.4-28.5,37.4-28.5l-76.1,40.7L251.5,892.3z"/>
<path d="M268.2,684.7c-8.2,16.9-42.6,19.3-63.8,25.1s-30,5.8-27.6,7.3s60-3.9,76.4-5.4s32.9-4.3,32.9-4.3s0.2-25.2,1.9-33.4
	c3.7-17.7,25.2-67.7,25.2-67.7S276.4,667.7,268.2,684.7z"/>
<path d="M722.4,713.4c0,0-9,73.1-16.4,89s-33.6,19.4-33.6,19.4L714,840c0,0,5.2-43.3,6-76.3C720.7,738.5,721.9,713.9,722.4,713.4z"
	/>
<path d="M436.7,779.5c0,0,10.5-0.9,29.1-7.4s30.3-17.7,44.1-26.4c8.5-5.3,17.7-9.6,27.3-12.7l-9-7.6c0,0-34.7,18.6-41.4,24.3
	S471,764,463.1,765.1s-30.5,8.4-30.5,8.4L436.7,779.5z"/>
<path d="M524.4,699.3c0,0,10.1-9.5,19.1-14.3s22-3.3,28.2-8.6c3.6-3.2,5.7-7.8,5.6-12.6c0,0-15.1,9.5-24.6,11.7
	c-6.4,1.6-12.7,3.8-18.7,6.5c0,0-30.2,22.1-29.4,22.1S524.4,699.3,524.4,699.3z"/>
<path d="M533.7,727.8l-1.7-4.7c0,0,33.3-9.8,40-14.6c3.6-2.4,6.9-5.2,9.8-8.4c0,0,0.5,5.4-5.1,10.7S533.7,727.8,533.7,727.8z"/>
<path d="M324.4,823.5c0,0,65.5-32.8,75.1-35.7s36.6-3.5,36.6-3.5l-3.5-10.8l-30.7-0.7l-75.4,40.1L324.4,823.5z"/>
<path d="M499.9,392.7c0,0-2.4,10.4-10.6,12.1s-55.5-8.4-55.5-8.4s74.6,23.1,83.1,23.1c8.5,0,4.2-5,3.8-4.2S499.9,392.7,499.9,392.7z
	"/>
<path d="M672.1,423.2c0,0,10.8,29.3,28.1,31.4s40.3-11.7,40.3-11.7l21.6,8.4c0,0-54.7,5.9-63.8,7.8S672.9,441.6,672.1,423.2z"/>
</svg>
