<svg id="Layer_1" data-name="Layer 1" xmlns="http://www.w3.org/2000/svg" viewBox="0 0 984.6 1340.8"><title>mental health problems</title><path d="M380.7,8.2s-22.2-9.2-57.6,20S284.3,82,276.8,93.3s-23.8,45.1-28.4,68,3.7,43.8,9.2,46.3c0,0-10.9,48,4.1,76s40.1,41.3,40.1,41.3,13.8,17.1,37.1,17.5,205.5-79.9,219.7-94.5,19.8-36.1,12.3-53.6-34.2-43.8-45.9-67.2S504.6,77.4,492.1,57C482.3,41.1,447-8.5,407.4,4.8,407.4,4.8,391.9,13.6,380.7,8.2Z" fill="#734c4c"/><path d="M344.7,330s-46.1,27-56.4,51-40.4,110.9-40.4,110.9l-20.6,60.9s.3,26,56.1,40.6,68.1,3.1,68.1,3.1l20.1-70.3s12,30.1,40.4,53.3,43.8,37.8,48.1,48.9,4.3,53.3,4.3,53.3,220.7-.9,274-17.2S803,601.3,803,601.3s-34.5-21.8-51.7-31.3-43.8-23.2-56.7-44.6-37.8-122.9-39.5-158.1c0,0,13.5-73.6-21.8-105.2,0,0-26.3-22.7-61.6-21s-43.8,4.4-43.8,4.4a129.6,129.6,0,0,1-6,30.7c-5.1,15.5-15.9,33.2-52.9,48.6S373.1,351.5,344.7,330Z" fill="#bfd7ff"/><path d="M697.8,1231.9c2.7-8.1,5.5-16.2,8-24.4s6-18.4,6.3-27.4c0,0,.5-12.4,9.3-21.2s23.5-5.6,35.2-5.1,22.4-4.2,35-13.8,13.4-30.4,18.9-27.6,36.8,45.4,40.1,53.7,3.1,18.8-17.7,42-31.7,41.7-41.8,56.4-49.9,57.4-74.6,67.3c-17.8,7.1-41.1,14.3-52.7-12.6s15.2-43.6,22.7-62.1C689.1,1250.7,695.9,1237.8,697.8,1231.9Z" fill="#fff"/><path d="M552.4,660.2s-121.1,24.1-185,67.2-51.4,90.5-50.6,88-30.7,3.3-44,54.7-21.6,88,42.3,117S497.7,1007,497.7,1007s98.3,58.6,111.5,71.9,58.6,57.6,65.2,56.8,91.3-64.8,90.4-73.1-82.1-97-82.1-97,128.6-4.2,131.9-7.5,12.3-29.2,12.3-29.2,18.1-50.7,19.3-74.5c1-20.9,2.4-20.8,2.4-20.8l-97.9-.8s66.4-20.7,86.3-45.6,33.2-55.6,27.4-99.6-53.1-83.8-61.4-86.3-33.2,36.5-122,44.8C681,646.1,571.5,651.1,552.4,660.2Z" fill="#7070b8"/><path d="M245.9,575.5,188.7,706.1s-46.4,126.3-54,138.6-28.8,22.8-30.3,22.3-49.7,12-61.2,15.9C27,888.5,15,900.6,14,906.3c0,0-11.3,11.8-10.4,18a10.6,10.6,0,0,0,6.7,8s-8.5,10.2.5,9.8S42,924.7,47.6,923.3s45.5-7.6,45.5-7.6-18.5,12.8-23.7,14.7-20.3,3.3-18,10.4,11.9,8.5,20.9,8.5c4.3,0,16.5-5.6,30.3-9.6s31.2-7.1,36.9-9.8c10.8-5.2,14.2-1.9,30.7-30.7s50.7-72,51.6-73.4,63-112.6,86.1-158.1,29.5-67.1,29.5-67.1-34.4-2.3-48.7-6Z" fill="#fec3aa"/><path d="M696.2,1123c-.5,1.5,28.5,33.1,28.5,33.1s12.5-3,32-3.5,27.5-8.6,37-14.1,10-21,10-21-40-31-47.5-44.5Z" fill="#fec3aa"/><path d="M823.2,939.9l27.1.5s13.5-14,20-24.5,9.5-27,5-38.5a188.5,188.5,0,0,0-9.5-20.5l-20.5,4s-1.9,21.8-7.1,39.5A349,349,0,0,1,823.2,939.9Z" fill="#fec3aa"/><path d="M889.4,1018.3c-4.7-7.1-9.2-14.4-14.1-21.4s-10.6-16.2-17.5-22.1c0,0-9.4-8.2-10.6-20.5s10.2-21.8,17.9-30.8,10.7-20,11.2-35.8-15.4-29.5-9.8-32,58.5-.4,67,2.2,16.6,9.4,21.7,40.1,12.8,50.8,17.9,67.9,13.6,74.8,5.9,100.3c-5.6,18.4-14.6,41-42.8,33.3s-24.5-39.2-34.3-56.6C898.6,1036.9,892.7,1023.5,889.4,1018.3Z" fill="#fff"/><path d="M318.2,177.4s9.2,40.1,13.8,49.1,36.2,35.5,48.3,38.7a39.3,39.3,0,0,1,3.8,5.2c.5,1.5,6,27.2,5.2,30.7s-19.4,18.2-28.7,22.2-13,4.9-13,4.9,5.2,17.6,46,13.9,84.1-17.9,99.1-27.5,29.5-29.7,32.9-46.5,2.3-22.6,2.3-22.6-16.4,5.3-25.9,4.7-18.3-2.9-22.3-9.3S469,213.2,469,213.2l-1.7-12s17.3-11.1,22.2-21.2,4.7-30.1-1.7-37.6-17.1-5.8-22,.6c0,0-19.3,10.7-35.2-1.8s-24.6-22.5-35-38.4S368.2,58,341.9,96.7c0,0-7,34.7-12.2,44.8S318.2,177.4,318.2,177.4Z" fill="#fec3aa"/><path d="M582.5,875.2s99.3,65.3,109.6,74.4a146.3,146.3,0,0,0,22.6,16.1l-35.6,3.4a485.5,485.5,0,0,0-39.3-43.5C613.4,899.9,581.5,873.9,582.5,875.2Z"/><path d="M550.4,845.7s91,8.3,132,9c66.8,1.2,88.3-24.8,88.3-24.8l-35.9,7.5s-32.3,6.7-81.6,11-101.6-5.5-101.6-5.5Z"/><path d="M486.3,570.2s32.2,8.3,47.7,4.1,38.6-11,48-25.8l21.7-34.9s13.5.3,14.2-1.4,1.7-9,1.7-9l-19.9-5.5s-17.7,38.7-39.2,54.6S506.7,579.5,486.3,570.2Z"/><path d="M634.8,463.1S647.4,430.7,652,424s9.2-14.7,9.2-14.7l-6.1-42Z"/><path d="M365.2,492.7s-3.9,34.3-4.2,46.6.9,26.2.9,26.2l9.7-39.3S367,514.5,365.2,492.7Z"/><path d="M265.4,586.7c1.1-.4,45.5,22.5,67.4,22.5l3.5-9.1s-21.8,0-39.1-5.7C272.7,586.4,265.4,586.7,265.4,586.7Z"/><path d="M387,270s5.3,26,3.9,29,7.9,10.6,12.6,15.7,8.4,12.2,11.1,30.9c1.4,10.2,15.1,60.1,15.1,60.1L417,322.5s-10.9-16-15.7-25.5-10.6-28.3-10.6-28.3Z"/><path d="M382.7,270.8c2.1,9.5,4,19.2,5.8,28.8l.2-1.9c-8.7,13.8-23.9,20.6-38.4,26.6-7.3,3.1-14.8,6-21.8,9.7s-13.5,9.3-19.2,15.1c-12.9,13.1-24.2,28.8-31.2,45.8-7.8,18.7-12,38.9-18.2,58.1s-13.6,39.6-21.5,59c-4,9.4-8.5,18.6-12.2,28.1-3.1,7.8-4.8,16.9.9,24,2.5,3.2,6.1,5.5,9.4,7.9s6.6,4.5,10.1,6.5a174.4,174.4,0,0,0,22.9,11.4c15.9,6.6,33,11.1,50.3,12.1a113.7,113.7,0,0,0,21.8-.9c4.5-.5,10-1.2,13.3-4.7a8.5,8.5,0,0,0,1.8-3.7l2.4-7.8c1.4-4.8,3-9.6,4.4-14.4a191.8,191.8,0,0,0,6.8-29.8,122.9,122.9,0,0,0,.9-14.9c0-3.2-5-3.2-5,0,.2,21.6-7.2,41.9-13.3,62.2-.5,1.7-.7,4-1.9,5.2s-2.7,1.5-3.9,1.9a37.8,37.8,0,0,1-5.7,1,120.5,120.5,0,0,1-24,.8c-18.2-1.5-36.3-6.9-52.8-14.6a166.5,166.5,0,0,1-23-12.8c-3.6-2.4-7.6-4.9-10.4-8.2s-3.4-9.1-2.2-13.9,3.6-9.7,5.7-14.4,4.2-9.6,6.3-14.5c4.2-9.9,8.1-19.9,11.9-30,7.6-20.3,14.2-40.8,20.1-61.7,2.8-9.8,5.5-19.6,9.3-29.1a125.5,125.5,0,0,1,14.6-26c10.7-15,23.3-28.6,40.2-36.4,14.8-6.7,30.9-11.6,43.9-21.8a62,62,0,0,0,8.6-8.4c1.6-2.1,4-4.4,3.6-7.2-.8-5.9-2.2-11.7-3.4-17.5-.7-3.7-1.5-7.3-2.3-10.9s-5.6-1.9-4.8,1.3Z"/><path d="M314.4,389.4c.9-.5,6.7,8.3,7.3,9.3,2.4,3.4,4.6,7,6.7,10.6A158.9,158.9,0,0,1,339.5,432c1.2,2.9,6,1.6,4.8-1.4a186.6,186.6,0,0,0-13.6-27.2c-2.6-4.2-5.4-8.4-8.3-12.4s-5.9-8.6-10.5-5.9c-2.7,1.7-.2,6,2.5,4.3Z"/><path d="M353.7,441.1c9,21.7,8.1,45.6,11.8,68.4a103.9,103.9,0,0,0,9.5,30.8A127.2,127.2,0,0,0,392.9,566a168.1,168.1,0,0,0,25.4,23c2.7,2,5.3,4,7.9,6.2,11.1,9.2,23.2,19.8,29.7,33,1.9,4,2.5,8.3,3.2,12.7,1,6,1.7,12.1,2.3,18.2s1.1,13,1.4,19.6c.1,3.2,5.1,3.2,5,0-.6-15.4-1.7-31.4-5.2-46.4-1.6-6.9-5.9-12.9-10.2-18.3a147.5,147.5,0,0,0-16.5-17c-9.6-8.6-20.4-15.8-29.8-24.6C390,557.3,377,538.9,372,517.2c-5.8-25.6-3.3-52.8-13.5-77.4-1.2-2.9-6.1-1.6-4.8,1.3Z"/><path d="M467,215.3c2.3,9.1,4.7,18.7,10.7,26.1s17.9,11.5,28.5,11c4.3-.2,8.7-1.9,12.9-2.7a272.2,272.2,0,0,1,29.6-4.8c23.6-2.6,47.9-2.6,68.9,9.8,11.6,6.8,21.6,16.4,28,28.2,5.1,9.3,7.2,19.6,8.3,30,2.2,21.5.2,43.4-2.8,64.8A652.1,652.1,0,0,1,638,442.5c-3.9,15.6-8.2,31-13,46.3l-2.1,6.4c-.2.8-.5,1.5-.7,2.2l-.5,1.2c.1-.1.2,0-.2,0a5.2,5.2,0,0,1-1.9.1,28.3,28.3,0,0,1-6.7-1.6c-15.8-5.4-30.6-15-44.6-24.1s-28.9-19.4-40.9-31.7a52.7,52.7,0,0,1-4.8-5.8c-1.8-2.7-6.1-.2-4.3,2.5,3.5,5.3,8.4,9.8,13.2,13.9,7,6,14.3,11.6,21.8,16.9,15.3,10.8,31.3,21.1,48.3,29,5.5,2.5,11.4,5.3,17.4,5.9,4.1.3,6.6-1.1,8-5,4-11.6,7.4-23.5,10.7-35.4q8.5-30.9,14.6-62.5c4.1-22.4,7.3-45.3,7.4-68.2s-2.4-44.2-16.2-62a85.1,85.1,0,0,0-31.4-24.4c-10.8-4.9-22.3-7.1-34.2-7.6-21.2-.8-42.8,2.4-63.5,7l-6.9,1.6c-3.6.7-7.8.2-11.4-.5-10.2-2.1-16.6-9.1-20.2-18.7a127.6,127.6,0,0,1-4.1-14.1c-.7-3.1-5.6-1.8-4.8,1.4Z"/><path d="M572.1,296.2c-17.8,34.1-33.3,69.6-44.6,106.3q-4.8,15.8-8.4,31.8c-.7,3.1,4.1,4.4,4.8,1.3,10.7-47.8,29.9-93.6,52.5-136.9,1.5-2.8-2.8-5.3-4.3-2.5Z"/><path d="M483.7,322c16.4-7.4,30-19.4,37.8-35.7a91.2,91.2,0,0,0,7.6-22.6c1-5.9,1.7-13-1.7-18.4-1.7-2.7-6.1-.2-4.3,2.5,3,4.8,1.8,11.7.7,16.9a87.9,87.9,0,0,1-7.3,20.5c-7.5,14.9-20.2,25.7-35.4,32.5-2.9,1.3-.4,5.6,2.6,4.3Z"/><path d="M242.8,576.5q-39.7,86.3-74.7,174.6c-5.9,14.9-11.6,29.7-17.3,44.6l-8.1,21.5c-2.8,7.5-5.1,15.4-8.4,22.7C124.5,861.7,97,867.8,76,872.6c-12.4,2.9-24.9,5.5-36.7,10.4a72.8,72.8,0,0,0-16,8.7c-5.2,3.7-10.8,8.1-12.7,14.4-.9,3.1,3.9,4.4,4.8,1.3,1.7-5.6,8-10,12.8-13.1A81.1,81.1,0,0,1,42.6,887c10.6-4.2,21.9-6.6,33-9.2,20.6-4.7,45.7-10.1,58.9-28.3,4-5.6,6.1-12.1,8.4-18.5s5.6-15.1,8.5-22.7q8.3-22,16.8-44,17.4-44.2,35.9-87.9,20.7-49,43-97.4c1.4-2.9-2.9-5.4-4.3-2.5Z"/><path d="M336.3,598.3c-17,37-34,74-52.2,110.3S246.7,780.4,225,814.5c-10.8,17.1-22.3,33.9-34.4,50.1-8.2,10.9-16.7,21.2-22.9,33.5a133.2,133.2,0,0,0-5.5,12.8,18.1,18.1,0,0,1-4.5,6.5c-4.5,4.4-10.6,7.1-16.5,9.3-12.2,4.4-25.1,6.3-37.6,9.7-8,2.3-15.8,5.1-23.8,7.5-6.5,1.9-14.3,4.4-21.2,3-2.3-.5-6.9-2.7-6.5-5.6s6.5-5.5,9-6.4c4.4-1.7,9.1-2.7,13.5-4.5s8.2-3.9,12.3-5.9a66.5,66.5,0,0,1,12-5.1c3.1-.8,1.8-5.6-1.3-4.8-9.1,2.6-17.1,8-25.8,11.6S53.5,930,48.5,937.3s1.9,12.3,7.7,14.1,14.4.1,20.9-1.6c8.6-2.3,16.9-5.3,25.3-7.8,6.3-1.9,12.7-3.2,19.1-4.6,13.2-3,28.1-6.4,38.6-15.4,5.9-5.1,7.4-11.9,10.6-18.6a129.6,129.6,0,0,1,11.8-20c1.4-2,1.4-2,2.9-3.9,3.2-4.1,6.4-8.2,9.5-12.4,6.4-8.5,12.5-17.1,18.5-25.8,24-35.2,45.2-72.3,64.7-110.1s38-77,55.9-116l6.7-14.4c1.3-2.8-3-5.4-4.4-2.5Z"/><path d="M99.7,914c-9.7,3.8-20.8,2.6-31,3.8s-22.5,2-32.4,8.6c-4.6,3-8.7,6.7-13.2,9.8a43.8,43.8,0,0,1-7,4c-1.9.9-6,3.1-7.7,1s.4-4.3,1.5-6a81.1,81.1,0,0,1,5.1-6.5,61.1,61.1,0,0,1,11.3-9.6,58.6,58.6,0,0,1,31.9-9.9c3.2,0,3.2-4.9,0-4.9a62.1,62.1,0,0,0-32,9,65.4,65.4,0,0,0-13.4,10.5c-3.5,3.6-7.9,8.3-9.5,13a7.8,7.8,0,0,0,5.1,10.1c5.2,1.4,12.2-3.1,16.3-5.8s10.1-7.9,15.4-11.3,13-5.3,20.2-6,14.2-1.6,21.3-2,13.3-.6,19.4-3c3-1.2,1.7-6-1.3-4.8Z"/><path d="M9.1,929.7c-2.7-.5-4.8-1.9-4.1-4.9s2.5-5.2,4.1-7.3a46,46,0,0,1,11.8-10.6c10.1-6.5,21.8-9.7,33.3-12.6,3.1-.8,1.8-5.6-1.3-4.8-14,3.5-28.2,7.6-39.6,16.8-5,3.9-9.7,9.1-12.3,15s.1,12.1,6.7,13.2c3.2.5,4.5-4.3,1.4-4.8Z"/><path d="M485.2,654.1c9.5.8,17.9-4.7,25.5-9.8s15.6-11.1,23.1-17.1a588.9,588.9,0,0,0,44-39.6c8-8,15.9-16,23.8-24.1,2.3-2.3-1.2-5.8-3.5-3.5-26.5,27-53.3,54.3-84.4,76.2-8.2,5.8-17.9,13.8-28.5,12.9-3.2-.3-3.2,4.7,0,5Z"/><path d="M654.6,371.6a636.7,636.7,0,0,0,21.7,110.3c4.6,15.8,9.3,32.1,17.9,46.3s20,23.1,33.7,30.7,30.9,14.5,44.4,25c2.6,1.9,5-2.4,2.5-4.3-23.4-18.1-55.9-24.2-73.5-49.6-9.3-13.4-14.2-29.3-18.8-44.8-5.1-17.1-9.5-34.5-13.2-52-4.3-20.3-7.5-40.9-9.8-61.6-.3-3.2-5.3-3.2-4.9,0Z"/><path d="M696.2,647.9a590.1,590.1,0,0,0-130.1,6.3A578.1,578.1,0,0,0,502.4,668c-11.4,3.2-22.6,7.1-34,10.3a388,388,0,0,0-61.9,23.4,280.7,280.7,0,0,0-41.3,23.6c-13.2,9.3-26.1,20-35.4,33.3-17.7,25.7-19.9,58.4-12.5,88A150.6,150.6,0,0,0,333.4,886c4.7,8,10.1,15.7,16.9,22,12.9,12,27.8,22.1,42.2,32,20.8,14.4,42.1,28.1,63.4,41.7s45.3,28.7,68,43c18.8,11.8,37.5,23.6,56,35.9,6.1,4.1,12.2,8.2,18.1,12.6,10.2,7.6,19.9,17.1,29.2,26.1,11.7,11.2,23,23.4,35.9,33.3,3.3,2.6,7.4,5.9,11.7,6.1,2.5.2,4.6-1.1,6.7-2.3a213,213,0,0,0,21.5-15.1q14.8-11.1,29.1-23.1c8.6-7.1,17.1-14.4,25.1-22.1,2.7-2.7,5.4-5.3,7.8-8.2s3.2-3.7,3.3-5.9-2.1-5.4-3.5-7.4c-3.1-4.4-6.5-8.5-9.9-12.7-11.2-13.3-23.1-26.1-35.1-38.7-16.4-17.3-33.1-34.2-50.1-50.9q-28.1-27.7-57.2-54.6c-18.5-16.9-37.3-33.6-56.7-49.6-15.5-12.9-31.5-25.5-48.5-36.4a154.3,154.3,0,0,0-18.1-10.4c-2.9-1.3-5.5,2.9-2.6,4.3,14.7,6.9,28,16.6,40.8,26.3,18.1,13.6,35.3,28.2,52.3,43.1,19.3,16.9,38.3,34.4,56.9,52.1s36,34.9,53.6,52.7c14.8,15,29.5,30.2,43.7,45.8,8.8,9.8,18.2,19.9,25.7,30.3,1,1.4,2,2.8,2.8,4.2s1,2,.6,1.1a1.4,1.4,0,0,1,.2.6c.2.7,0,0,.1,0s.5-.2,0-.3.1,0-.2.5a31.5,31.5,0,0,1-1.9,2.7c-2.4,2.8-5,5.4-7.7,8-16.6,16-34.8,30.6-53.2,44.5-6.9,5.2-13.8,10.5-21.2,14.8l-1.6.9-1,.5a2.7,2.7,0,0,1-2.3.2c-4.5-1.2-8.6-5.2-12-8.1-21.6-18.3-39.8-40.6-62.7-57.4-14.1-10.3-29-19.7-43.7-29.1-20.8-13.3-41.8-26.4-62.8-39.6s-44.5-28.2-66.6-42.7c-18.4-12-36.7-24.1-54.3-37.3a216.9,216.9,0,0,1-17.5-14.2,91.9,91.9,0,0,1-16-20.2c-14.9-24.5-23-54.5-19.6-83.1a89.3,89.3,0,0,1,16.4-42.6c9.5-12.9,22.7-23.2,35.9-32.1,23.8-16,50.3-28,77.3-37.4,7.2-2.5,14.6-4.9,22-7,12.3-3.4,24.3-7.6,36.5-10.9a585.6,585.6,0,0,1,189.1-19c3.2.2,3.2-4.8,0-5Z"/><path d="M547,844.1c41.6,6.5,83.9,9.2,126,5.7,39.2-3.2,78.5-11.7,114.6-27.6,24.9-10.9,47.1-27.1,62-50.2a124,124,0,0,0,18.3-48.4c2.3-17.1,0-34.5-5.4-50.8a147.4,147.4,0,0,0-24-44.9c-9.2-11.9-20.4-22.8-33.6-30.2a69,69,0,0,0-8.7-4.1c-3-1.2-4.3,3.6-1.3,4.8,12.9,5.2,24,14.5,33.2,24.8A143.4,143.4,0,0,1,854.4,665c6.3,15.4,10,32,9.4,48.7s-6.2,33.9-14.4,48.7c-13.1,24-34.3,41.4-58.8,53-32.9,15.6-69.4,24.2-105.4,28.3-40.3,4.5-81.3,3.1-121.5-2.2-5.1-.7-10.2-1.4-15.3-2.3-3.2-.4-4.5,4.4-1.4,4.9Z"/><path d="M676.1,651.7a337.8,337.8,0,0,0,128.3-48.9c2.6-1.8.1-6.1-2.6-4.3a332.7,332.7,0,0,1-127,48.4c-3.2.5-1.9,5.4,1.3,4.8Z"/><path d="M313.7,812.3c-23.4,9.1-37.1,34.5-44.7,57.1a144.7,144.7,0,0,0-7.4,40.8c-.4,12.5,1,25.4,6.4,36.8,11.5,24.2,37.2,39.1,61.3,48.2a183.1,183.1,0,0,0,40,10c11.4,1.6,22.9,2.3,34.3,3.3a597.9,597.9,0,0,0,76.9.9l14.6-.8c3.2-.1,3.2-5.1,0-4.9-27.1,1.5-54.3,2.4-81.4.6-22.5-1.6-45.6-2.8-67.4-8.9-24.9-6.8-51.6-19-67.5-40.2s-14.2-47.9-8.6-71.6c3.4-14.4,8.8-28.5,16.8-40.9,6.8-10.7,16-20.9,28-25.6,3-1.1,1.7-6-1.3-4.8Z"/><path d="M688.5,970q63.4-3,126.8-9.6a2.8,2.8,0,0,0,2.4-1.9c2.4-6.9,4.6-13.9,7.2-20.7s5.7-12.9,8.4-19.4c3.5-8.7,6.7-17.4,9.4-26.4a181.6,181.6,0,0,0,8.5-52.2c0-3.4-.4-6.8-3.8-8.4s-9.4-2-13.7-2.7a225,225,0,0,0-27.3-2.2,213.1,213.1,0,0,0-62.5,8.3c-3.1.9-1.8,5.7,1.3,4.8a207.6,207.6,0,0,1,53.1-8.1,216.8,216.8,0,0,1,26.7,1.1c4.4.5,8.7,1.1,13.1,1.9a57.2,57.2,0,0,1,5.7,1.1c2.9.7,2.4,2.6,2.4,5.3-.2,17.3-3.5,34.4-8.6,50.9-2.4,7.8-5.2,15.5-8.3,23.1s-6.3,14-9.1,21.1-4.9,14.1-7.3,21.2l2.4-1.8Q752,962,688.5,965c-3.2.1-3.2,5.1,0,5Z"/><path d="M700.2,1232.6c2.7-8.1,5.5-16.2,8-24.4s4.4-13.9,5.6-21.1c.6-3.6.6-7.3,1.3-10.8,1.3-5.8,3.8-11.5,8.1-15.6,9.2-8.8,24-4.3,35.3-4.4,13.1-.2,25.5-6.8,35.5-15,7.8-6.4,10.1-15.9,14.4-24.6a8.3,8.3,0,0,1,1.5-2.2c-.7.5-.8-.3-.4.2s.2.1.7.6a48.2,48.2,0,0,1,5.7,6.2,317,317,0,0,1,30.1,41.2c2.5,4.2,4.2,8.1,3.6,13.3-1.2,9.4-8.1,18.1-13.9,25.1-9.4,11.3-19.1,22.2-27.7,34.1-6.4,8.9-12.3,18.2-18.5,27.2a184.8,184.8,0,0,1-14.9,18.2c-7.5,8.2-15.4,16.2-23.6,23.7s-16.3,14.2-25.4,19.9a83.6,83.6,0,0,1-24.9,10.3c-9.1,2.1-19.2,2.2-26.5-4.3s-12.7-20.5-9.7-31.6,9.5-17.9,15.4-25.9a72.4,72.4,0,0,0,8-12.6c2.2-4.5,4.1-9.2,6.3-13.7a128,128,0,0,0,6-13.8c1.1-3.1-3.8-4.4-4.8-1.3-1.8,5.4-4.5,10.5-7,15.7s-3.9,9.3-6.4,13.6c-5.3,9.3-12.9,17.1-18.1,26.5s-7.2,21.4-2.7,32.4,11.8,18.8,23,20.8,19.7-1.1,28.8-4.5a96.4,96.4,0,0,0,25.5-14.6,297.7,297.7,0,0,0,48.2-47c5.8-7,10.7-14.6,15.7-22.2,7.7-11.4,15.7-22.6,24.5-33.2s19.1-20.2,24.8-32.8c2.7-6.1,4-12.8,1.8-19.3s-6.2-11.3-9.7-16.4c-5.5-8.1-11.3-16-17.3-23.7-4.1-5.2-8.3-11.3-13.5-15.5s-10,5.6-11.8,10.2-4.3,9.8-7.9,13.7c-4.8,5.4-12,9.6-18.5,12.5a41.7,41.7,0,0,1-19,3.7c-6.7-.3-13.4-1.3-20.1-.6s-11.6,2.3-16,6.6a34,34,0,0,0-8.9,15.9c-.9,3.4-1,6.7-1.4,10.1-.9,8.1-3.7,15.9-6,23.7s-5.3,16.2-8,24.4C694.4,1234.3,699.2,1235.6,700.2,1232.6Z"/><path d="M685.2,1326.8c19-5,35.8-15.8,50.6-28.3a222.6,222.6,0,0,0,22.4-22.1c6.1-6.8,12.4-14,17.4-21.6s10.5-18.8,17.7-26.5,14.3-14.3,21.1-21.8,11.2-12.9,16.3-19.8,8.6-12.2,11.2-19.1c1.1-3-3.8-4.3-4.9-1.3-2.1,5.8-5.7,11.1-9.3,16.1s-9.3,12-14.3,17.7c-7.2,8.2-14.6,16.1-22.5,23.6-3.4,3.2-6,7.3-8.5,11.2s-6.5,9.9-9.6,15a135.9,135.9,0,0,1-11.8,15.6,258.9,258.9,0,0,1-20.8,22.4c-16,15.1-34.8,28.4-56.3,34.1-3.1.8-1.8,5.6,1.3,4.8Z"/><path d="M891.5,1017.1c-8.5-13.1-16.5-27.2-26.8-39-2.4-2.7-5.3-5-7.7-7.8a31.6,31.6,0,0,1-7.2-14.8c-2.2-13.4,11.1-22.5,18.4-31.8s9.9-21.8,10.5-33.8a37.2,37.2,0,0,0-3.4-17.1c-1.9-4.5-4.7-8.5-6.7-12.9-.3-.6-.7-3-1.2-1.9s0-.1.6-.2l1.2-.2a56.2,56.2,0,0,1,9.2-.5c9.1-.2,18.3.1,27.5.5a228.4,228.4,0,0,1,23.4,2,18.8,18.8,0,0,1,12.7,6.9c6.5,8.1,8.6,19.9,10.4,29.8a396.9,396.9,0,0,0,9.5,41.9c2.9,10,6.5,19.9,9.2,29.9,5.3,19.1,7.4,39.5,8.2,59.2s-.2,39.9-10.5,57.3c-5,8.7-12.9,14.3-23.2,13.9s-21.1-5.6-26.8-15.1c-4.8-8-6.6-17.5-9-26.4s-7-17.6-11.2-26.4a108.3,108.3,0,0,0-7.1-13.5c-1.7-2.7-6-.2-4.3,2.5a126.9,126.9,0,0,1,7.8,15.1c2.3,4.6,5,9,6.8,13.7,3.7,9.2,5,19.1,8.5,28.4s9.1,17.9,18.3,22.4,22.6,6.3,32.4.7,13.6-14.3,17.1-23.3a95.1,95.1,0,0,0,6.2-28.8c1.3-22.9-1.4-46.3-5.6-68.8a230.5,230.5,0,0,0-6.9-25.6c-4-12.4-7.7-24.9-10.6-37.7s-4.3-29.2-9.9-42.7c-2.8-6.6-6.9-13.1-13.6-16.2s-12.1-2.8-18.1-3.3c-9.7-.7-19.4-1.2-29.1-1.4-7.5-.1-15.4-.6-22.8.7-9.1,1.6-2.6,11.2,0,15.8s5.7,10.9,6,16.9a63.7,63.7,0,0,1-2.3,20.8,41.2,41.2,0,0,1-8.6,16.1c-4.3,5-9.2,9.6-12.9,15.1s-5.9,11.3-5.1,17.7a35.1,35.1,0,0,0,6.8,16.3c2.2,3,4.9,5.2,7.4,7.8,5.4,5.5,9.5,12.1,13.9,18.4s9.6,14.6,14.3,21.9C889,1022.3,893.3,1019.8,891.5,1017.1Z"/><path d="M955.4,1087.7c8.1-18.4,10.4-38.8,9.6-58.8a238.8,238.8,0,0,0-3.4-31.5c-1.5-8.5-3-17.5-5.8-25.7l-5.1-14.5c-1.7-5.2-3.9-10.8-4.6-16.2-1.2-10-2.1-20-3.8-30-1.4-8.4-3-16.8-5.2-25s-4.1-14-7.8-20.1c-1.6-2.7-6-.2-4.3,2.5,6.8,11.3,9.2,25.6,11.5,38.3,2,10.9,3.6,21.9,4.5,32.9s5.4,20.5,8.8,30.2c5.5,15.5,8.1,32.5,9.6,48.9,1.9,22.3.8,45.8-8.3,66.5-1.3,2.9,3,5.5,4.3,2.5Z"/><path d="M823.1,942.3c8.2-1.9,16.8-1.5,25.1-.8a2.5,2.5,0,0,0,2.5-2.5,2.7,2.7,0,0,0-2.5-2.5c-8.8-.7-17.8-1-26.4,1-3.2.7-1.8,5.5,1.3,4.8Z"/><path d="M851.4,861.7l1.8-.3h1.4l3.4-.3h6.7a2.5,2.5,0,0,0,3-1.7c.3-1.2-.3-2.9-1.7-3.1a47.1,47.1,0,0,0-15.9.5,2.6,2.6,0,0,0-1.8,3.1,2.5,2.5,0,0,0,3.1,1.7Z"/><path d="M694.8,1126.5c9.7,8.9,19.8,17.3,27.7,27.9a2.5,2.5,0,0,0,4.3-2.5,115.5,115.5,0,0,0-13.5-15.3c-4.8-4.7-10-9.1-15-13.6-2.4-2.2-5.9,1.3-3.5,3.5Z"/><path d="M756,1076.2a143.1,143.1,0,0,0,46.4,41.5c2.8,1.6,5.3-2.7,2.5-4.3a136.7,136.7,0,0,1-44.5-39.7c-1.9-2.6-6.2-.1-4.4,2.5Z"/><path d="M453.6,215.7l-.7,1.5a49.7,49.7,0,0,1-2.7,5.1,115.3,115.3,0,0,1-14,18.5c-11.1,12.1-25.1,25.2-42.5,25.4-13,.1-23.4-7.6-33.1-15.4-7.3-5.9-14.6-11.9-20.5-19.2-7.6-9.3-13.1-18.9-15.6-30.7a166.5,166.5,0,0,1-3.8-28.1c-.1-3.2-5.1-3.2-5,0,.3,8.6,1.8,17.1,3.3,25.5a70.7,70.7,0,0,0,12.1,29.8,94.3,94.3,0,0,0,11.1,13.3c4,3.7,8.1,7.4,12.4,10.9,10,8.3,21.4,17.5,34.8,18.7,17.3,1.5,31.8-8.3,43.7-19.8a133.9,133.9,0,0,0,20.1-24.3,51.9,51.9,0,0,0,5.2-9.9c1.1-3-3.8-4.4-4.8-1.3Z"/><path d="M463.2,153c3-6.7,10-16.3,18.4-11.4,6.3,3.6,9,12.4,9.2,19.1a36.1,36.1,0,0,1-6.7,21.3c-4.5,6.6-10.9,14-18.8,16.2-3.1.9-1.8,5.7,1.3,4.8,9.6-2.7,17.2-11.3,22.5-19.4a39.3,39.3,0,0,0,6.2-27.3c-1.2-8.1-6-18.3-14.7-20.5-10.3-2.6-17.9,6.3-21.7,14.6-1.3,2.9,3,5.5,4.3,2.6Z"/><path d="M482.4,150.7c-5.8-1-9.5,4.1-12.2,8.5a45.3,45.3,0,0,0-5.2,14.1,2.5,2.5,0,0,0,1.7,3.1,2.6,2.6,0,0,0,3.1-1.7,36.9,36.9,0,0,1,4-11.7,33.2,33.2,0,0,1,3.3-5c.9-1.1,2.4-2.7,4-2.5a2.5,2.5,0,1,0,1.3-4.8Z"/><path d="M471.2,167c-.4-.1-.1,0,.1.1s-.4-.3.1,0h0l.4.4c.1.1.4.5.2.2l.2.3.6,1.1c-.2-.5.1.3.1.5l.3,1h0v.5a2,2,0,0,1,0,1.1v.4s-.1.7,0,.3-.1.3-.1.3a.9.9,0,0,1-.1.5l-.3,1c0,.2-.1.3-.1.4s0,0-.1.1a5.4,5.4,0,0,1-1.1,1.8h-.1l-.3.4-.8.7a2.5,2.5,0,0,0,0,3.6,2.7,2.7,0,0,0,3.5,0,13.2,13.2,0,0,0,4.5-10.3,12.6,12.6,0,0,0-1.4-5.7,7.3,7.3,0,0,0-5.6-3.9,2.5,2.5,0,0,0-2.5,2.5,2.5,2.5,0,0,0,2.5,2.5Z"/><path d="M353.7,161.8a4.9,4.9,0,0,1,1.8,2.2,13.4,13.4,0,0,1,1.7,5.9,6.2,6.2,0,0,1-.2,2.7,2.9,2.9,0,0,1-1.8,1.9,3.5,3.5,0,0,1-3.4-1.2,8.8,8.8,0,0,1-2-4.5,20.2,20.2,0,0,1,.1-4.9,3.5,3.5,0,0,1,.6-1.6,2.7,2.7,0,0,1,1.7-1A2.1,2.1,0,0,1,353.7,161.8Z"/><path d="M352.8,163.4c.2.1-.1-.2.1.1l.3.3c0-.1-.1-.2,0,0l.6,1a10.2,10.2,0,0,1,1.1,2.6c.2.9.4,1.8.5,2.6v1.4a4.3,4.3,0,0,0-.1.5v.2c.1-.2-.1.1-.1.2s-.2.4-.5.4-.2.1,0,0-.3,0-.1.1h-.2l-.7-.3a3,3,0,0,1-.8-.9,8.8,8.8,0,0,1-1.3-5.1,8.4,8.4,0,0,1,.5-2.9c-.2.2.1-.1.1-.2s0,.1,0,.1l.3-.2c-.3.1.2-.1-.1,0s.3.1.5.2a2,2,0,0,0,2.6-.7,1.8,1.8,0,0,0-.7-2.5,4.3,4.3,0,0,0-4.5-.1,4.7,4.7,0,0,0-2.1,3.6c-.5,3-.5,6.1.9,8.8s4.4,4.9,7.3,3.6,3.1-5.1,2.6-7.9a19.8,19.8,0,0,0-1.5-4.7,7.9,7.9,0,0,0-2.7-3.3,1.9,1.9,0,0,0-2.6.6A1.9,1.9,0,0,0,352.8,163.4Z"/><path d="M418,147.2a6.2,6.2,0,0,1,1.7,2.2,14.3,14.3,0,0,1,1.7,6,6.2,6.2,0,0,1-.2,2.7,3.1,3.1,0,0,1-1.8,1.9,3.4,3.4,0,0,1-3.4-1.3,8.9,8.9,0,0,1-2-4.4,20.1,20.1,0,0,1,.1-4.9,2.8,2.8,0,0,1,.6-1.6,2.7,2.7,0,0,1,1.7-1A2.9,2.9,0,0,1,418,147.2Z"/><path d="M417,148.8c.3.2-.1-.1.1.2l.3.2h0l.6,1a14.5,14.5,0,0,1,1.1,2.6,25.6,25.6,0,0,1,.5,2.7v1.4a1.3,1.3,0,0,1-.1.5c0-.1-.1.3-.1.1s0,.2-.1.2-.2.5-.5.5-.2.1,0,0h-.3l-.7-.4a1.7,1.7,0,0,1-.8-.9,8.1,8.1,0,0,1-1.2-5.1,6.8,6.8,0,0,1,.4-2.9c-.1.2.1-.1.2-.1s-.1,0-.1,0h.3c-.3.1.2-.2-.1-.1l.5.2a1.9,1.9,0,1,0,1.9-3.2,4.3,4.3,0,0,0-4.5,0,4.7,4.7,0,0,0-2.1,3.5c-.4,3.1-.4,6.1,1,8.9s4.3,4.9,7.3,3.5,3-5.1,2.5-7.9a19,19,0,0,0-1.5-4.6,8.2,8.2,0,0,0-2.7-3.4,1.9,1.9,0,0,0-2.6.7A1.8,1.8,0,0,0,417,148.8Z"/><path d="M402.3,266h-.1l1.8,1.7h-.1V269h.1l-.7,1.1h.1l-1.1.7h.1l-2.5-.7-.2-.3a4.3,4.3,0,0,1,.1.5l.3.7a11.1,11.1,0,0,1,.7,1.6c.3,1.1.7,2.2,1,3.3a57.3,57.3,0,0,1,1.6,6.9,2.4,2.4,0,0,0,3,1.7,2.5,2.5,0,0,0,1.8-3,61.1,61.1,0,0,0-1.7-7.4l-1.2-3.5-.6-1.7a8.4,8.4,0,0,0-1.2-2.3,2.5,2.5,0,0,0-2.5-.6,2.7,2.7,0,0,0-1.8,3.3,2.3,2.3,0,0,0,1.7,1.7h.1a2.4,2.4,0,0,0,3-1.7,2.6,2.6,0,0,0-1.7-3.1Z"/><path d="M450.3,226.6c4.4-7-10,19.6-13.5,27.1s-10.4,12.4-17.1,17.3-15.5,4.1-15.5,4.1l-.8-7.2S429,260.9,450.3,226.6Z"/><path d="M393.1,126.9a25.9,25.9,0,0,0,20.2,4.5,2.6,2.6,0,0,0,1.7-3.1,2.5,2.5,0,0,0-3.1-1.7,20.5,20.5,0,0,1-16.3-4,2.5,2.5,0,0,0-3.4.9,2.6,2.6,0,0,0,.9,3.4Z"/><path d="M342.4,100.2c4.7-8.7,11.7-15.8,21.2-18.9,2.8-1,6.4-2.1,9.4-1.5,5.6,1.1,9.6,6.8,12.4,11.3,12.6,19.8,23,43.5,45.7,53.5,11.2,4.9,23.9,6,35,.2,2.8-1.5.3-5.8-2.6-4.3-10.5,5.6-23.1,3.5-33.3-1.9s-19.2-15.8-26-26.2c-3.4-5.3-6.6-10.8-9.8-16.2s-6-10.5-10.1-14.9-8-6.8-13.2-6.7a32.8,32.8,0,0,0-9.4,2c-10.4,3.7-18.4,11.4-23.6,21.1-1.5,2.8,2.8,5.3,4.3,2.5Z"/><path d="M367.9,96.1c1.2-3.4,3.1-7,6.4-8.7h.2l.7-.2a3.5,3.5,0,0,1,1.1-.3c.7-.2-.4,0,.4-.1h1.9c-.4,0,0,0,.2.1h.5l.7.2c-.4-.1.2.2.3.2l.5.3c.1.1.4.3.1.1a4.7,4.7,0,0,1,1,1,2.5,2.5,0,0,0,3.5-3.5c-3.1-4-8.9-4.3-13.2-2.3s-7.4,7.2-9.1,11.9a2.5,2.5,0,0,0,4.8,1.3Z"/><path d="M346.1,82.5c-1.2-4.9,1.6-10.7,3.8-15a57.8,57.8,0,0,1,9-12.4c7.3-7.6,16.4-13.3,25.8-18,2.9-1.5.4-5.8-2.5-4.3-10.5,5.2-20.6,11.7-28.4,20.6a54.9,54.9,0,0,0-9.2,13.7c-2.4,5.2-4.7,11-3.3,16.7.8,3.2,5.6,1.8,4.8-1.3Z"/><path d="M307.2,323.7c-15.1-5.5-28.7-14.8-37.3-28.6-7.6-12.1-11-26.4-11.7-40.6-1.6-27.4,5.3-54.4,12.9-80.5,1.4-5,2.9-9.9,4.2-14.9.7-2.8,1.7-6,1.5-9s-5.3-3.2-5,0-.5,4.5-1.3,7.4c-1.1,4.4-2.4,8.7-3.6,13-3.6,12.5-7.1,24.9-9.6,37.6-5.7,28.4-8.1,60.9,6.8,87,9.2,16.2,24.5,27.1,41.7,33.4,3.1,1.1,4.4-3.7,1.4-4.8Z"/><path d="M258.7,205c-11-16.8-8.9-37.8-3.7-56.2s13.6-35.2,22.4-51.8c2.7-5.2,5.7-10.4,8-15.9s3-8.8,5.1-13a95.9,95.9,0,0,1,9.4-15.7c14.8-20.2,37.8-35.6,62.3-41.3,8-1.9,15.2-1.2,23.3-.2a30.7,30.7,0,0,0,10.9,0c3.8-.7,7.1-2.8,10.8-3.9,12-3.8,23.3-1.5,34.3,3.8,3.7,1.7,7.4,3,10.7,5.2A112.2,112.2,0,0,1,463,24.5c14.5,13.1,26,29.3,34.7,46.7,6.3,12.5,10.2,25.8,15.6,38.6a198.9,198.9,0,0,0,17.4,32.5c5.6,8.4,11.7,16.3,18,24.1,5.1,6.3,10.3,12.5,14.6,19.3s6.1,11.1,6.6,17.5c.8,10.3-.7,21.3-5.8,30.4a29,29,0,0,1-1.9,2.9l-.4.6c-2.1,2.5,1.4,6,3.5,3.6,3.8-4.4,6.1-10.2,7.6-15.7,2.6-9.5,3.5-20.7.3-30.2-2.2-6.9-6.3-13.1-10.7-18.9-5.5-7.3-11.4-14.3-17-21.6a237.2,237.2,0,0,1-19.1-28.6c-3.3-6.1-6.3-12.3-9-18.7s-5.1-14.2-7.8-21.2c-8.4-21.2-20.1-41.3-35.9-57.8a124.4,124.4,0,0,0-14.8-13.3,39.1,39.1,0,0,0-6.5-4.4c-8.1-4.1-17.1-8.6-26.2-9.9A47.4,47.4,0,0,0,406.4,2c-3.5,1.1-6.7,3-10.2,3.9s-9.1.3-13.6-.4a58.4,58.4,0,0,0-22.8,1,118.2,118.2,0,0,0-51,28.4,104.8,104.8,0,0,0-22.6,30.7c-3.3,6.8-5.2,13.7-8.6,20.3-8.4,16.2-17.1,32.1-23.4,49.3s-11.9,39.8-5.9,59.2a50.4,50.4,0,0,0,6.1,13.1c1.8,2.6,6.1.1,4.3-2.5Z"/><path d="M269.2,432.7c3.2,0,3.2-5,0-5s-3.3,5,0,5Z"/><path d="M338,149.3a47.9,47.9,0,0,0,14.2-11.1,2.5,2.5,0,0,0,0-3.5,2.4,2.4,0,0,0-3.5,0,44,44,0,0,1-6.3,5.9c.2-.1.1-.1,0,.1l-.5.3-.8.6-1.8,1.2c-1.2.8-2.5,1.5-3.8,2.2a2.5,2.5,0,0,0-.9,3.4,2.5,2.5,0,0,0,3.4.9Z"/><path d="M394.6,236.2c4-.6,7.6-3.1,11.1-5.3s7.2-4.5,11.3-5.2,6.6-.5,8.8-2.8,1.5-7.6-1.3-10-6.7-2.9-10.3-2.9a45.5,45.5,0,0,0-20.1,5.2,27.7,27.7,0,0,0-6.2,4.6,16,16,0,0,0-3.9,6.7S382.3,238.1,394.6,236.2Z" fill="#fff"/><path d="M395.2,238.6c5.1-.9,9.3-4.1,13.7-6.8a28.5,28.5,0,0,1,7.3-3.4c2.2-.6,4.6-.6,6.8-1.2a8.6,8.6,0,0,0,6.7-9.2,11.3,11.3,0,0,0-7.8-9.4c-4.7-1.7-10.2-1.2-15-.3a45.5,45.5,0,0,0-15.2,5.5c-5.3,3-10.7,8.6-10.2,15.2a11.1,11.1,0,0,0,3,7.1c2.8,2.9,7,3,10.7,2.5a2.5,2.5,0,0,0,1.8-3,2.6,2.6,0,0,0-3.1-1.8c-2,.3-4.5.3-6-1.3a4,4,0,0,1-.9-1.5,4.9,4.9,0,0,1-.4-1.1,2.4,2.4,0,0,0-.1-.7,12.2,12.2,0,0,1,0-2.7c-.2,1.5.4-.8.6-1.2a17.1,17.1,0,0,1,1.3-2.3,15.4,15.4,0,0,1,4.6-4.2c6.9-4.4,15.9-7,24.1-6.2,3.3.4,7.1,1.9,7.6,5.6s-3.1,4.3-5.9,4.7a32.1,32.1,0,0,0-12.4,4.6c-4,2.5-7.8,5.5-12.5,6.3C390.7,234.4,392.1,239.2,395.2,238.6Z"/><path d="M428.9,164.7l3.6-3.7a2.2,2.2,0,0,0,.7-1.7,2.4,2.4,0,0,0-.7-1.8,2.8,2.8,0,0,0-1.7-.7,2.4,2.4,0,0,0-1.8.7l-3.7,3.7a2.9,2.9,0,0,0-.7,1.8,2.6,2.6,0,0,0,.7,1.7,2.5,2.5,0,0,0,1.8.8,3,3,0,0,0,1.8-.8Z"/><path d="M345.3,180.9a16.7,16.7,0,0,0,2.3,1.2l1.9.5h1l.9-.3a3,3,0,0,0,1.2-1.5,2.6,2.6,0,0,0-.3-1.9l-.4-.5a2.4,2.4,0,0,0-1.1-.6,6,6,0,0,1-1.9-.6l.6.3-1.7-.9-.9-.3a1.7,1.7,0,0,0-1,0,2.6,2.6,0,0,0-1.5,1.2,2.4,2.4,0,0,0-.2,1.9l.2.6a2,2,0,0,0,.9.9Z"/><path d="M376.3,169.8a18.4,18.4,0,0,1,1.7,9.8c-.2,3.6-1.3,6.8-2.2,10.2s2.7,6.1,6.1,7.5a52,52,0,0,0,11,3.4c3.1.7,4.4-4.1,1.3-4.8a50,50,0,0,1-10-3l-2.1-.9c-.2-.1-1.7-.6-1.7-.9s.4-.6.4-.7.3-.8.4-1.2.5-1.6.7-2.4c1.6-6.5,1.8-13.4-1.3-19.5-1.4-2.9-5.7-.3-4.3,2.5Z"/><path d="M335.2,96.9c.5,20.6-7,39.6-14,58.6-3.4,9.1-6.7,18.4-8.6,28s-3.8,21.6-1.5,31.8,8.3,17.5,18,18.3c3.2.2,3.2-4.8,0-5-8.9-.7-13.1-10.8-13.8-18.5-1-10,.9-20.7,3.3-30.5C323,162,331.1,145.5,336,128a105.6,105.6,0,0,0,4.2-31.1c-.1-3.2-5-3.2-5,0Z"/><path d="M345.3,332.1c9.6,9.2,24.7,11.4,37.4,12.4a132.5,132.5,0,0,0,20.9-.2c5.1-.5,10.4-1.1,15.2-2.9,3-1.1,1.7-5.9-1.3-4.8-10.2,3.8-22.5,3.6-33.3,3s-26.4-2.5-35.4-11c-2.3-2.3-5.8,1.3-3.5,3.5Z"/><path d="M287,281.7c2.4,14.2,6.2,28.8,13.2,41.5,3,5.4,7.1,10.3,12.8,12.9s10.8,2.6,16.4,2.9c3.2.1,3.2-4.9,0-5-5.1-.2-10.4-.2-14.9-2.7s-8.6-7.7-11.2-12.9c-6-11.9-9.3-25-11.5-38.1-.5-3.1-5.3-1.8-4.8,1.4Z"/><path d="M515.5,180.7c6,9.5,13.5,18.1,18.8,28s8.9,22.4,3.7,33.2c-1.3,2.9,3,5.4,4.3,2.5,11.9-24.6-10.5-47-22.5-66.2-1.7-2.8-6-.3-4.3,2.5Z"/><path d="M845.5,880s-10.5,43.3-12.2,49.9-4,8.7-4,8.7l-6.1,1.3Z"/><path d="M706.5,1130.6c1.4-.6,33.5-31.9,40.8-47.3L696.2,1123Z"/><path d="M416.3,319.6s-20.8-29.2-23.8-38.3-6.8-31.5-3.4-41.5,6.4-13.5,13.4-10.8a28,28,0,0,1,11.1-5c6-1,9,1.3,9,1.3s.4-3.7,7.8-4.3,8.7,1.3,8.7,1.3a18.6,18.6,0,0,1,7-1.7c4.7-.3,5.4,2.7,5.4,2.7s-.7-18.8,3.7-23.1,10-4.1,12.1,1,4,30.5,5,40.2-1,34.2,1.3,44.6,36.6,120.5,37.6,121.8,13.4,43.6,13.4,43.6l2-4.4s28.5,27.9,47,36.3,26.1,14.4,26.1,14.4-22.1,39.9-32.8,49-44.6,32.2-73.1,24.1-42.6-43.9-45.7-53-11.4-51-14.1-79.8S416.3,319.6,416.3,319.6Z" fill="#fec3aa"/><path d="M419.1,324c-3.8-8.9-9.3-16.8-14.4-25a91,91,0,0,1-10.3-24.5,119.8,119.8,0,0,1-3.4-23.9c-.1-5.4-.6-12.8,2.7-17.5,1.7-2.5,6.4-6.5,9.4-3.6s2.9,6.9,3.9,9.7,6,1.7,4.8-1.3c-2.1-5.6-3.5-14.9-11.4-14.4s-13,8.8-13.9,16.1-.4,15.8.7,23.5a100.7,100.7,0,0,0,7.9,28.5c5.3,11.8,14.1,21.7,19.2,33.8,1.2,2.9,6,1.6,4.8-1.4Z"/><path d="M409.9,230.5a5.8,5.8,0,0,1,.4-3.2l.2-.3c0-.1.4-.6.2-.4s.3-.4.4-.4l.2-.3c.1,0,.4-.3.2-.1l.4-.3.7-.4.6-.2c-.4.1.2-.1.3-.2l1.5-.4h3.4l.8.2h.2l.3.2s-.3-.2-.1-.1l1,1c.4.4-.3-.5.1.1a2.1,2.1,0,0,0,.4.6l.9,1.9.3.7.3.6c-.1-.1.1.4.2.6a3.6,3.6,0,0,0,.4.9c.6,1.6,1.2,3.2,1.9,4.8a2.5,2.5,0,1,0,4.8-1.3c-1.1-2.9-2.2-5.8-3.5-8.6a15.4,15.4,0,0,0-2.3-3.9,8.9,8.9,0,0,0-7.9-2.8,15.8,15.8,0,0,0-7.3,2.4,10.1,10.1,0,0,0-4,9,2.5,2.5,0,0,0,5,0Z"/><path d="M426,226.4a5.2,5.2,0,0,1,.7-1.5,4.1,4.1,0,0,1,.5-.9l.2-.2a4.9,4.9,0,0,1,1.8-1.1l.8-.2h1.9c.7.1-.4-.1.3.1h1l.6.4h.1l.6.6.4.5c.4.3-.1-.3.2.2a16.9,16.9,0,0,1,1.7,2.9,55.5,55.5,0,0,1,2.5,7.2,2.7,2.7,0,0,0,3.1,1.8,2.5,2.5,0,0,0,1.7-3.1,58.1,58.1,0,0,0-3.3-9.1c-1.2-2.2-2.8-4.6-5.2-5.7a10.4,10.4,0,0,0-8.3-.3,9.1,9.1,0,0,0-3.7,2.4,14.4,14.4,0,0,0-2.4,4.6,2.5,2.5,0,1,0,4.8,1.3Z"/><path d="M440.3,223.9a7.8,7.8,0,0,1,5.4-.7l.9.3h.4a5.4,5.4,0,0,1,1.5.9l.3.3.6.5c-.3-.2.1.3.2.4l.4.7a64.5,64.5,0,0,1,7.7,15,2.5,2.5,0,1,0,4.8-1.4,73.5,73.5,0,0,0-8.8-17.2c-3.5-4.9-10.8-6.1-15.9-3.2-2.8,1.6-.3,5.9,2.5,4.3Z"/><path d="M453.5,222.9c.2-2.7.5-5.3.7-7.9.4-4.4.3-8.9,2.1-12.9,1-2.1,2.6-4.6,5.1-4.6s3.7,2.4,4.1,4.4c.8,4.1-.7,8.4-.6,12.5.3,14.3,5.3,28.2,6.8,42.3a102.1,102.1,0,0,1-1.2,31.2c-.6,3.2,4.2,4.5,4.8,1.4,4.2-20.2.6-39.5-3.3-59.3-.7-3.9-1.5-7.9-1.9-11.8s.1-8.1.4-12.3-.5-9.2-4.3-11.9-8.1-1.7-11.2,1.3-5,9.8-5.5,15.2-.7,8.3-1,12.4,4.8,3.2,5,0Z"/><path d="M596,496.8a244.4,244.4,0,0,1-15.7,27.1,120.4,120.4,0,0,1-14.9,19.2c-6,6.3-13.4,11.4-20.9,15.7-17,10-39.6,16.2-58.4,7-13.2-6.4-21.8-20.4-28.1-33.1a194,194,0,0,1-16.2-49.3c-2.3-11.7-3.1-23.6-4.5-35.4-3.3-27.5-7.4-54.9-11.4-82.3-1.9-12.3-3.7-24.5-5.6-36.8-1-6.5-1.7-13.1-3-19.5,0-.3-.1-.6-.1-.9-.5-3.2-5.3-1.8-4.8,1.3l7.5,49.4c4.2,28.5,8.5,57,12,85.7,1.5,11.7,2.2,23.5,4.2,35.1a201.7,201.7,0,0,0,15.3,50.3c6.2,13.8,14.6,28.2,27.4,37,16,11,38.1,9.3,55.2,2.3a103.2,103.2,0,0,0,42.5-31.8,232.4,232.4,0,0,0,22.6-36.1l1.2-2.4c1.5-2.9-2.8-5.4-4.3-2.5Z"/><path d="M468.5,289.5c9.1,26.1,17.9,52.4,26.5,78.7,9.7,29.6,19.1,59.2,27.5,89.2,3.4,11.9,6.7,24,9,36.2.6,3.2,5.4,1.8,4.8-1.3-4.7-24.9-12.5-49.3-20-73.5-9.3-30.3-19.2-60.5-29.3-90.6-4.5-13.4-9.1-26.7-13.7-40-1-3-5.9-1.7-4.8,1.3Z"/><path d="M525.9,453.2l37.6,21.2-41.6-37S523.9,451.3,525.9,453.2Z"/></svg>