<svg xmlns="http://www.w3.org/2000/svg" viewBox="0 0 64 64"><g id="Expanded"><path d="M59.71,31.29l-7.62-7.61V10.91a1,1,0,0,0-1-1H36.81a15.08,15.08,0,0,0-12.63,6.93,14.9,14.9,0,0,0-9.79,4.35L4.29,31.29a1,1,0,0,0,0,1.42l7.62,7.61V53.09a1,1,0,0,0,1,1H27.19a15.08,15.08,0,0,0,12.63-6.93,14.9,14.9,0,0,0,9.79-4.35l10.1-10.1A1,1,0,0,0,59.71,31.29ZM50.09,11.91v9.77l-.48-.49a14.92,14.92,0,0,0-10-4.36,16.66,16.66,0,0,0-11.8-1.29,13,13,0,0,1,9-3.63ZM32,47A15,15,0,1,1,47,32,15,15,0,0,1,32,47ZM15.81,22.61a12.77,12.77,0,0,1,4.51-2.93,16.93,16.93,0,0,0,0,24.64,13.05,13.05,0,0,1-4.51-2.93L13.62,39.2h0L6.41,32Zm-1.9,29.48V42.32l.48.49a14.92,14.92,0,0,0,10,4.36,16.66,16.66,0,0,0,11.8,1.29,13,13,0,0,1-9,3.63Zm34.28-10.7a12.77,12.77,0,0,1-4.51,2.93,16.93,16.93,0,0,0,0-24.64,13.05,13.05,0,0,1,4.51,2.93l2.19,2.19h0L57.59,32ZM32,20A12,12,0,1,0,44,32,12,12,0,0,0,32,20Zm0,22A10,10,0,1,1,42,32,10,10,0,0,1,32,42Zm2.63-14.26a3,3,0,0,0-5.26,0l-2.63,4.82A3,3,0,0,0,29.37,37h5.26a3,3,0,0,0,2.63-4.44Zm.86,6.77a1,1,0,0,1-.86.49H29.37a1,1,0,0,1-.88-1.48l2.63-4.82a1,1,0,0,1,1.76,0l2.63,4.82A1,1,0,0,1,35.49,34.51Z"/></g></svg>