<svg xmlns="http://www.w3.org/2000/svg" viewBox="0 0 64 64"><g id="Expanded"><path d="M59.45,36.87A3,3,0,0,0,60,35.13v-.78a3,3,0,0,0-5-2.28l-2,1.76V31a5,5,0,0,0-5-5H16a5,5,0,0,0-5,5v2.83L9,32.07A3,3,0,0,0,4,34.35v.78a3,3,0,0,0,.55,1.74l1.78,2.5a1,1,0,0,1,0,1.19L4.62,42.75A3,3,0,0,0,4,44.58v1.07a3,3,0,0,0,1.75,2.73A3.08,3.08,0,0,0,7,48.66,3,3,0,0,0,9,47.93L11,46.17V49a5,5,0,0,0,5,5H48a5,5,0,0,0,5-5V46.17l2,1.76a3,3,0,0,0,1.94.73,3.08,3.08,0,0,0,1.26-.28A3,3,0,0,0,60,45.65V44.58a3,3,0,0,0-.62-1.83l-1.69-2.19a1,1,0,0,1,0-1.19ZM19,28h5.07a8,8,0,0,0,15.86,0H45V38a3,3,0,0,1-3,3H22a3,3,0,0,1-3-3Zm7.09,0H37.91a6,6,0,0,1-11.82,0ZM7.65,46.41A1,1,0,0,1,6,45.65V44.58A1,1,0,0,1,6.21,44l1.68-2.19A3,3,0,0,0,8,38.22L6.18,35.71A1,1,0,0,1,6,35.13v-.78a1,1,0,0,1,.58-.91A1.11,1.11,0,0,1,7,33.35a.94.94,0,0,1,.64.24L11,36.46v7.08ZM51,49a3,3,0,0,1-3,3H16a3,3,0,0,1-3-3V31a3,3,0,0,1,3-3h1V38a5,5,0,0,0,5,5H42a5,5,0,0,0,5-5V28h1a3,3,0,0,1,3,3V49Zm5.11-7.22L57.79,44a1,1,0,0,1,.21.61v1.07a1,1,0,0,1-1.65.76L53,43.54V36.46l3.35-2.87a1,1,0,0,1,1.65.76v.78a1,1,0,0,1-.18.58L56,38.22A3,3,0,0,0,56.11,41.78ZM31,19V11a1,1,0,0,1,2,0v8a1,1,0,0,1-2,0ZM18.57,17A1,1,0,1,1,20,15.56l5.66,5.66a1,1,0,0,1,0,1.42,1,1,0,0,1-1.42,0Zm19.79,5.66a1,1,0,0,1,0-1.42L44,15.56A1,1,0,1,1,45.43,17l-5.65,5.66a1,1,0,0,1-1.42,0Z"/></g></svg>