<svg xmlns="http://www.w3.org/2000/svg" viewBox="0 0 64 64"><g id="Expanded"><path d="M22,22.86l.37,0,20-2.5a3,3,0,0,0,2.62-3V14.89a3,3,0,0,0-2.62-3l-1.79-.22,1-1a4,4,0,0,0,1.17-2.83,4,4,0,0,0-1.36-3,4.07,4.07,0,0,0-5.56.27l-5.31,5.31-8.17-1a3,3,0,0,0-3.37,3v7.46a3,3,0,0,0,3,3ZM21,12.39a1,1,0,0,1,.34-.75,1,1,0,0,1,.66-.25h.13l3.87.49v1.24a1,1,0,0,0,2,0v-1l2.29.28A2,2,0,0,0,32,11.84l5.31-5.31a2.11,2.11,0,0,1,2.83-.18,2,2,0,0,1,.09,2.92l-1,1a2,2,0,0,0,1.16,3.4l1.78.22a1,1,0,0,1,.88,1v2.46a1,1,0,0,1-.87,1L39,18.74V17.12a1,1,0,0,0-2,0V19L26,20.37V18.62a1,1,0,0,0-2,0v2l-1.87.23a1,1,0,0,1-.79-.24,1,1,0,0,1-.34-.76ZM51,52.12H41.64A9,9,0,0,0,44.1,49l4-1.48A3,3,0,0,0,50,44.73V42.12a3,3,0,0,0-3-3H45a3,3,0,0,0-3-3H22a3,3,0,0,0-3,3v6a9,9,0,0,0,3.36,7H13a3,3,0,0,0-3,3v2a3,3,0,0,0,3,3H51a3,3,0,0,0,3-3v-2A3,3,0,0,0,51,52.12Zm-4-11a1,1,0,0,1,1,1v2.61a1,1,0,0,1-.65,1l-2.48.92A9,9,0,0,0,45,45.12v-4Zm-26,4v-2H32a1,1,0,0,0,0-2H21v-2a1,1,0,0,1,1-1H42a1,1,0,0,1,1,1v6a7,7,0,0,1-7,7H28A7,7,0,0,1,21,45.12Zm31,12a1,1,0,0,1-1,1H13a1,1,0,0,1-1-1v-2a1,1,0,0,1,1-1H51a1,1,0,0,1,1,1Zm-20-31a1,1,0,0,1,1,1v4a1,1,0,0,1-2,0v-4A1,1,0,0,1,32,26.12Zm-4,0a1,1,0,0,1,1,1v4a1,1,0,0,1-2,0v-4A1,1,0,0,1,28,26.12Zm8,0a1,1,0,0,1,1,1v4a1,1,0,1,1-2,0v-4A1,1,0,0,1,36,26.12Z"/></g></svg>