<svg xmlns="http://www.w3.org/2000/svg" viewBox="0 0 64 64"><g id="Expanded"><path d="M49,4H15a5,5,0,0,0-5,5V55a5,5,0,0,0,5,5H41a5,5,0,0,0,5-5V18h3a5,5,0,0,0,5-5V9A5,5,0,0,0,49,4ZM44,55a3,3,0,0,1-3,3H15a3,3,0,0,1-3-3V9a3,3,0,0,1,3-3H45a4.92,4.92,0,0,0-1,3V55Zm8-42a3,3,0,0,1-3,3H46V9a3,3,0,0,1,6,0ZM38,24H36a8.49,8.49,0,0,0-2.09.26,13.11,13.11,0,0,0-3.79-8.46l-1.41-1.41a1,1,0,0,0-1.42,0L25.88,15.8a13,13,0,0,0-3.79,8.45A9,9,0,0,0,20,24H18a1,1,0,0,0-1,1v6a5,5,0,0,0,5,5H34a5,5,0,0,0,5-5V25A1,1,0,0,0,38,24ZM27.3,17.22l.7-.71.7.71A11,11,0,0,1,31.92,25,9,9,0,0,0,28,28.9,9,9,0,0,0,24.08,25,11,11,0,0,1,27.3,17.22ZM19,31V26h1a7,7,0,0,1,7,7v1H22A3,3,0,0,1,19,31Zm18,0a3,3,0,0,1-3,3H29V33a7,7,0,0,1,7-7h1ZM21,42a1,1,0,0,1,0-2H35a1,1,0,0,1,0,2Zm18,3a1,1,0,0,1-1,1H18a1,1,0,0,1,0-2H38A1,1,0,0,1,39,45Zm-3,4a1,1,0,0,1-1,1H21a1,1,0,0,1,0-2H35A1,1,0,0,1,36,49Z"/></g></svg>