<svg xmlns="http://www.w3.org/2000/svg" viewBox="0 0 64 64"><g id="Expanded"><path d="M51,24H50a7,7,0,0,0-5,2.11V16a5,5,0,0,0-5-5,4.92,4.92,0,0,0-3,1V9A5,5,0,0,0,27,9v3a5,5,0,0,0-3-1,5,5,0,0,0-5,5V26.11A7,7,0,0,0,14,24H13a3,3,0,0,0-3,3h0V38a22,22,0,0,0,44,0V27h0A3,3,0,0,0,51,24Zm1,14a20,20,0,0,1-40,0V27a1,1,0,0,1,1-1h1a5,5,0,0,1,5,5v4a1,1,0,0,0,2,0V16a3,3,0,1,1,6,0V35a1,1,0,0,0,2,0V9a3,3,0,1,1,6,0V35a1,1,0,0,0,2,0V16a3,3,0,1,1,6,0V35a1,1,0,0,0,2,0V31a5,5,0,0,1,5-5h1a1,1,0,0,1,1,1ZM32,40c-7.41,0-13,2.58-13,6s5.59,6,13,6,13-2.58,13-6S39.41,40,32,40ZM21,46c0-1.19,1.86-2.46,4.8-3.24a7,7,0,0,0,0,6.48C22.86,48.46,21,47.19,21,46Zm7.78,3.81a5,5,0,0,1,0-7.62,27.38,27.38,0,0,1,6.44,0,5,5,0,0,1,0,7.62,27.38,27.38,0,0,1-6.44,0Zm9.42-.57a7,7,0,0,0,0-6.48c2.94.78,4.8,2.05,4.8,3.24S41.14,48.46,38.2,49.24Z"/></g></svg>