<svg xmlns="http://www.w3.org/2000/svg" viewBox="0 0 64 64"><g id="Expanded"><path d="M28,25h8a5,5,0,0,0,5-5V16a1,1,0,0,0-1-1H38c-.26,0-.51,0-.76,0a5,5,0,0,0-1.36-2.58L32.71,9.29a1,1,0,0,0-1.42,0l-3.17,3.17A5,5,0,0,0,26.76,15c-.25,0-.5,0-.76,0H24a1,1,0,0,0-1,1v4A5,5,0,0,0,28,25Zm11-8v3a3,3,0,0,1-3,3H33V22a5,5,0,0,1,5-5Zm-9.46-3.12L32,11.41l2.46,2.47a2.91,2.91,0,0,1,.84,1.66A7.1,7.1,0,0,0,32,18.41a7.1,7.1,0,0,0-3.3-2.87A2.91,2.91,0,0,1,29.54,13.88ZM25,17h1a5,5,0,0,1,5,5v1H28a3,3,0,0,1-3-3ZM56,58H51a4.92,4.92,0,0,0,1-3V36h.47A3,3,0,0,0,55,31.46l-3.6-6A3,3,0,0,0,48.87,24H44.63A13.87,13.87,0,0,0,46,18a14,14,0,0,0-28,0,13.87,13.87,0,0,0,1.37,6H15.13a3,3,0,0,0-2.57,1.46l-3.6,6A3,3,0,0,0,11.53,36H12V55a4.92,4.92,0,0,0,1,3H8a1,1,0,0,0,0,2H56a1,1,0,0,0,0-2ZM50,48H43a1,1,0,0,1-1-1V43a1,1,0,0,1,1-1h7ZM32,6A12,12,0,1,1,20,18,12,12,0,0,1,32,6ZM10.67,33.49a1,1,0,0,1,0-1l3.6-6a1,1,0,0,1,.85-.48h5.4a14,14,0,0,0,22.94,0h5.4a1,1,0,0,1,.85.48l3.6,6a1,1,0,0,1,0,1,1,1,0,0,1-.86.51H11.53A1,1,0,0,1,10.67,33.49ZM14,42h7a1,1,0,0,1,1,1v4a1,1,0,0,1-1,1H14ZM29,58V53a3,3,0,0,1,6,0v5Zm8,0V53a5,5,0,0,0-10,0v5H17a3,3,0,0,1-3-3V50h7a3,3,0,0,0,3-3V43a3,3,0,0,0-3-3H14V36H50v4H43a3,3,0,0,0-3,3v4a3,3,0,0,0,3,3h7v5a3,3,0,0,1-3,3Z"/></g></svg>