<svg xmlns="http://www.w3.org/2000/svg" viewBox="0 0 64 64"><g id="Expanded"><path d="M42,52h-.42a2.92,2.92,0,0,0-.14-2.33l-4.88-9.77a6,6,0,1,0-9.12,0L22.56,49.7A2.92,2.92,0,0,0,22.42,52H22a4,4,0,0,0,0,8H42a4,4,0,0,0,0-8ZM32,32a4,4,0,1,1-4,4A4,4,0,0,1,32,32ZM24.38,51.56a1,1,0,0,1,0-1L29,41.24a6,6,0,0,0,6,0l4.68,9.35a1,1,0,0,1,0,1,1,1,0,0,1-.86.47H37.68l-1.75-4.37a1,1,0,0,0-1.86.75L35.52,52h-7l1.45-3.62a1,1,0,0,0-1.86-.75L26.32,52H25.24A1,1,0,0,1,24.38,51.56ZM20,56a2,2,0,0,1,2-2H32a2,2,0,0,1,0,4H22A2,2,0,0,1,20,56Zm22,2H35.44A3.88,3.88,0,0,0,36,56a3.93,3.93,0,0,0-.56-2H42a2,2,0,0,1,0,4ZM54,32a21.87,21.87,0,0,1-6.44,15.56,1,1,0,0,1-1.42,0,1,1,0,0,1,0-1.41,20,20,0,0,0,0-28.29,1,1,0,0,1,0-1.41,1,1,0,0,1,1.42,0A21.86,21.86,0,0,1,54,32ZM17.86,47.59a1,1,0,0,1-1.42,0,22,22,0,0,1,0-31.11,1,1,0,0,1,1.42,0,1,1,0,0,1,0,1.41,20,20,0,0,0,0,28.29A1,1,0,0,1,17.86,47.59ZM26,20H38a5,5,0,0,0,5-5V9a1,1,0,0,0-1-1,10.86,10.86,0,0,0-5.59,1.55,8.82,8.82,0,0,0-2.29-3.91L32.71,4.26a1,1,0,0,0-1.42,0l-1.4,1.41a8.75,8.75,0,0,0-2.3,3.91A10.86,10.86,0,0,0,22,8a1,1,0,0,0-1,1v6A5,5,0,0,0,26,20Zm15-5a3,3,0,0,1-3,3H33.06A9,9,0,0,1,41,10.09ZM31.3,7.08l.7-.7.71.7a7,7,0,0,1,1.93,3.8A11.19,11.19,0,0,0,32,14.48a11.19,11.19,0,0,0-2.64-3.6A7,7,0,0,1,31.3,7.08Zm-8.3,3A9,9,0,0,1,30.94,18H26a3,3,0,0,1-3-3Z"/></g></svg>