<svg xmlns="http://www.w3.org/2000/svg" viewBox="0 0 64 64"><g id="Expanded"><path d="M50.85,16.34l-1.78-1.18A3,3,0,0,0,50,13V7a3,3,0,0,0-3-3H17a3,3,0,0,0-3,3v6a3,3,0,0,0,.93,2.16l-1.78,1.18A7,7,0,0,0,10,22.18V57a3,3,0,0,0,3,3H24.78a3,3,0,0,0,2.94-2.39l3.3-16a1,1,0,0,1,2,0l3.3,16A3,3,0,0,0,39.22,60H51a3,3,0,0,0,3-3V22.18A7,7,0,0,0,50.85,16.34ZM52,22.18V30A10,10,0,0,1,43.85,16H46.7l3,2A5,5,0,0,1,52,22.18ZM16,7a1,1,0,0,1,1-1H47a1,1,0,0,1,1,1v6a1,1,0,0,1-1,1H17a1,1,0,0,1-1-1ZM14.25,18l3.05-2h2.85A10,10,0,0,1,12,30V22.18A5,5,0,0,1,14.25,18ZM12,57V32a12,12,0,0,0,4-1.06V58H13A1,1,0,0,1,12,57Zm26.24.2-3.3-15.94a3,3,0,0,0-5.88,0L25.76,57.2a1,1,0,0,1-1,.8H18V29.73A12,12,0,0,0,22.31,16H31V28H29a1,1,0,0,0,0,2h6a1,1,0,0,0,0-2H33V16h8.69A12,12,0,0,0,46,29.73V58H39.22A1,1,0,0,1,38.24,57.2ZM51,58H48V30.89A12,12,0,0,0,52,32V57A1,1,0,0,1,51,58Z"/></g></svg>