<svg xmlns="http://www.w3.org/2000/svg" viewBox="0 0 64 64"><g id="Expanded"><path d="M59,52H46.17a6.92,6.92,0,0,0,1.38-1.87l6.9-13.79A3,3,0,0,0,51.76,32H45.65l5.13-5.12a4,4,0,1,0-5.66-5.66L34.35,32H12.24a3,3,0,0,0-2.69,4.34l6.9,13.79A6.92,6.92,0,0,0,17.83,52H5a1,1,0,0,0,0,2H59a1,1,0,0,0,0-2ZM46.54,22.64a2,2,0,1,1,2.82,2.82L42.83,32H37.17ZM22.71,52a5,5,0,0,1-4.47-2.76l-4.68-9.35H23a1,1,0,0,0,0-2H12.56l-1.22-2.44a1,1,0,0,1,.05-1,1,1,0,0,1,.85-.47H51.76a1,1,0,0,1,.85.47,1,1,0,0,1,0,1l-6.9,13.79A5,5,0,0,1,41.29,52ZM32,40a4,4,0,1,0,4,4A4,4,0,0,0,32,40Zm0,6a2,2,0,1,1,2-2A2,2,0,0,1,32,46ZM19,26a4,4,0,0,0,4-4V13a1,1,0,0,1,1-1h7a1,1,0,0,1,1,1v2.56A3.91,3.91,0,0,0,30,15a4,4,0,1,0,4,4V13a3,3,0,0,0-3-3H24a3,3,0,0,0-3,3v5.56A3.91,3.91,0,0,0,19,18a4,4,0,0,0,0,8Zm11-5a2,2,0,1,1,2-2A2,2,0,0,1,30,21ZM19,20a2,2,0,1,1-2,2A2,2,0,0,1,19,20Z"/></g></svg>