<svg xmlns="http://www.w3.org/2000/svg" viewBox="0 0 64 64"><g id="Expanded"><path d="M57,27H51.92l-1.09-3.49A5,5,0,0,0,46.06,20H46V17a5,5,0,0,0-5-5h-.18A3,3,0,0,0,38,10H26a3,3,0,0,0-2.82,2H23a5,5,0,0,0-5,5v3h-.06a5,5,0,0,0-4.77,3.51L12.08,27H7a3,3,0,0,0-3,3v8a3,3,0,0,0,3,3h.7l-2,6.51A5,5,0,0,0,10.44,54H53.56a5,5,0,0,0,4.77-6.49L56.3,41H57a3,3,0,0,0,3-3V30A3,3,0,0,0,57,27ZM26,12H38a1,1,0,0,1,0,2H26a1,1,0,0,1,0-2Zm-6,5a3,3,0,0,1,3-3h.18A3,3,0,0,0,26,16H38a3,3,0,0,0,2.82-2H41a3,3,0,0,1,3,3v3H20Zm3,5h2V35H23ZM22,38a1,1,0,0,1,1-1h2a1,1,0,0,1,1,1v2a1,1,0,0,1-1,1H23a1,1,0,0,1-1-1Zm5-2.22V22H37V35.78A3,3,0,0,0,36,38H28A3,3,0,0,0,27,35.78ZM38,38a1,1,0,0,1,1-1h2a1,1,0,0,1,1,1v2a1,1,0,0,1-1,1H39a1,1,0,0,1-1-1Zm3-3H39V22h2ZM7,39a1,1,0,0,1-1-1V30a1,1,0,0,1,1-1h4.45L8.33,39ZM8,50.78a3,3,0,0,1-.45-2.67l7.5-24A3,3,0,0,1,17.94,22H21V35.78A3,3,0,0,0,20,38v.08A7,7,0,0,0,14,45v7H10.44A3,3,0,0,1,8,50.78ZM16,52V45a5,5,0,0,1,4-4.9A3,3,0,0,0,23,43h2a3,3,0,0,0,3-3h8a3,3,0,0,0,3,3h2a3,3,0,0,0,3-2.9A5,5,0,0,1,48,45v7Zm40-1.22A3,3,0,0,1,53.56,52H50V45a7,7,0,0,0-6-6.92V38a3,3,0,0,0-1-2.22V22h3.06a3,3,0,0,1,2.87,2.11l7.49,24A3,3,0,0,1,56,50.78ZM58,38a1,1,0,0,1-1,1H55.67L52.55,29H57a1,1,0,0,1,1,1ZM43,46a1,1,0,0,1-1,1H30v1a1,1,0,0,1-2,0V47H22a1,1,0,0,1,0-2H42A1,1,0,0,1,43,46Z"/></g></svg>