<svg xmlns="http://www.w3.org/2000/svg" viewBox="0 0 64 64"><g id="Expanded"><path d="M49,34H34.82A3,3,0,0,0,35,33a3,3,0,0,0-3-3H18a3,3,0,0,0-3,3v1.31A7,7,0,0,0,12.05,46a6.82,6.82,0,0,0,1.36,1A7,7,0,0,0,17,60H49a5,5,0,0,0,5-5V51a5,5,0,0,0-2-4,5,5,0,0,0,2-4V39A5,5,0,0,0,49,34ZM17,33a1,1,0,0,1,1-1H32a1,1,0,0,1,0,2H30a3,3,0,0,0-3,3V49a1,1,0,0,1-1,1H18a1,1,0,0,1-1-1Zm-5,8a5,5,0,0,1,3-4.56v9.14A5,5,0,0,1,12,41ZM52,51v1H32a1,1,0,0,0,0,2H52v1a3,3,0,0,1-3,3H17a5,5,0,0,1-2-9.56V49a3,3,0,0,0,3,3h8a3,3,0,0,0,3-3V48H49A3,3,0,0,1,52,51Zm-3-5H29V37a1,1,0,0,1,1-1H49a3,3,0,0,1,3,3v1H32a1,1,0,0,0,0,2H52v1A3,3,0,0,1,49,46ZM28,25h8a7,7,0,0,0,7-7V14a1,1,0,0,0-1-1H38l-.51,0a6.94,6.94,0,0,0-2-6L32.71,4.26a1,1,0,0,0-1.42,0L28.46,7.09a6.94,6.94,0,0,0-1.95,6L26,13H22a1,1,0,0,0-1,1v4A7,7,0,0,0,28,25ZM41,15v3a5,5,0,0,1-5,5H33V20a5,5,0,0,1,5-5ZM29.88,8.5,32,6.38,34.12,8.5a5,5,0,0,1,1.2,5.07A7.06,7.06,0,0,0,32,16.45a7.06,7.06,0,0,0-3.32-2.88A5,5,0,0,1,29.88,8.5ZM23,15h3a5,5,0,0,1,5,5v3H28a5,5,0,0,1-5-5Z"/></g></svg>