<svg xmlns="http://www.w3.org/2000/svg" viewBox="0 0 64 64"><g id="Expanded"><path d="M55,20H52V17a1,1,0,0,0-1-1H49c-.26,0-.51,0-.76,0a5,5,0,0,0-1.36-2.58l-3.17-3.17a1,1,0,0,0-1.42,0l-3.17,3.17A5,5,0,0,0,37.76,16c-.25,0-.5,0-.76,0H35a1,1,0,0,0-1,1v3H9a5,5,0,0,0-5,5V49a5,5,0,0,0,5,5H55a5,5,0,0,0,5-5V25A5,5,0,0,0,55,20Zm-5-2v3a3,3,0,0,1-3,3H44V23a5,5,0,0,1,5-5Zm-9.46-3.12L43,12.41l2.46,2.47a2.91,2.91,0,0,1,.84,1.66A7.1,7.1,0,0,0,43,19.41a7.1,7.1,0,0,0-3.3-2.87A2.91,2.91,0,0,1,40.54,14.88ZM36,18h1a5,5,0,0,1,5,5v1H39a3,3,0,0,1-3-3ZM58,49a3,3,0,0,1-3,3H9a3,3,0,0,1-3-3V25a3,3,0,0,1,3-3H34.1A5,5,0,0,0,39,26h8a5,5,0,0,0,4.9-4H55a3,3,0,0,1,3,3ZM25,40H47a1,1,0,0,1,0,2H25v1.07a1,1,0,0,1-2,0V42H17a1,1,0,0,1,0-2h6V39a1,1,0,0,1,2,0ZM55,28V46a3,3,0,0,1-3,3H12a3,3,0,0,1-3-3V28a3,3,0,0,1,3-3H32a1,1,0,0,1,0,2H12a1,1,0,0,0-1,1V46a1,1,0,0,0,1,1H52a1,1,0,0,0,1-1V28a1,1,0,0,1,2,0ZM38,37a2,2,0,0,0,1,.27A2,2,0,0,0,40,37l4-2.27a2,2,0,0,0,0-3.48L40,29a2,2,0,0,0-3,1.73v4.56A2,2,0,0,0,38,37Zm1-6.29L43,33l-4,2.28Z"/></g></svg>