<svg xmlns="http://www.w3.org/2000/svg" viewBox="0 0 64 64"><g id="Expanded"><path d="M53,58H44.89A7,7,0,0,0,47,53V33a11,11,0,0,0-6-9.78A3,3,0,0,0,42,21a5,5,0,0,0,5-5V12a5,5,0,0,0-5-5H38a3,3,0,0,0-3-3H29a3,3,0,0,0-3,3V9a3,3,0,0,0,2,2.82V16H25a3,3,0,0,0-3,3v2a3,3,0,0,0,1,2.22A11,11,0,0,0,17.05,32h0c0,.33-.05.66-.05,1V53a7,7,0,0,0,2.11,5H11a1,1,0,0,0,0,2H53a1,1,0,0,0,0-2ZM42,9a3,3,0,0,1,3,3v4a3,3,0,0,1-3,3,3,3,0,0,0-3-3H36V11.82A3,3,0,0,0,38,9ZM28,7a1,1,0,0,1,1-1h6a1,1,0,0,1,1,1V9a1,1,0,0,1-1,1H29a1,1,0,0,1-1-1Zm2,5h4v4H30ZM25,22a1,1,0,0,1-1-1V19a1,1,0,0,1,1-1H39a1,1,0,0,1,1,1v2a1,1,0,0,1-1,1H25ZM19,33H34a3,3,0,0,1,3,3V48a3,3,0,0,1-3,3H19Zm5,25a5,5,0,0,1-5-5H34a5,5,0,0,0,5-5V36a5,5,0,0,0-5-5H19.23A9,9,0,0,1,28,24h8a9,9,0,0,1,9,9V53a5,5,0,0,1-5,5Zm4-21c-2.44,0-4,3.94-4,6a4,4,0,0,0,8,0C32,40.94,30.44,37,28,37Zm0,8a2,2,0,0,1-2-2c0-1.5,1.25-4,2-4s2,2.5,2,4A2,2,0,0,1,28,45Z"/></g></svg>