<svg xmlns="http://www.w3.org/2000/svg" viewBox="0 0 64 64"><g id="Expanded"><path d="M47.44,8.66l0,0A27.86,27.86,0,0,0,32,4a28.18,28.18,0,0,0-3.93.28h0A28,28,0,0,0,8.63,47.4l0,0A28.15,28.15,0,0,0,20,57.27l.11,0A27.71,27.71,0,0,0,32,60,28,28,0,0,0,47.44,8.66ZM46,13A33,33,0,0,1,13,46c-1,0-2-.06-3-.15a26,26,0,0,1-3.25-7.61A26.19,26.19,0,0,0,13,39,26,26,0,0,0,39,13a26.19,26.19,0,0,0-.76-6.24A26,26,0,0,1,45.85,10,29.2,29.2,0,0,1,46,13ZM36,6.32A24,24,0,0,1,6.32,36,25.52,25.52,0,0,1,6,32c0-.8,0-1.6.11-2.38A18,18,0,0,0,29.62,6.11C30.41,6,31.2,6,32,6A25.52,25.52,0,0,1,36,6.32ZM7.74,22.65A11,11,0,0,0,22.65,7.74a26,26,0,0,1,4.89-1.35A15.94,15.94,0,0,1,6.39,27.54,25.79,25.79,0,0,1,7.74,22.65ZM20.79,8.54A8.88,8.88,0,0,1,22,13a9,9,0,0,1-9,9,8.82,8.82,0,0,1-4.45-1.21A26.21,26.21,0,0,1,20.79,8.54ZM11.5,48c.49,0,1,0,1.5,0A35,35,0,0,0,48,13c0-.51,0-1,0-1.5a26.2,26.2,0,0,1,7.37,9A42.93,42.93,0,0,1,20.54,55.33,26.2,26.2,0,0,1,11.5,48ZM32,58a25.93,25.93,0,0,1-8.16-1.32A45,45,0,0,0,56.68,23.84,26,26,0,0,1,32,58Z"/></g></svg>