<?xml version="1.0" encoding="utf-8"?>
<!-- Generator: Adobe Illustrator 25.0.0, SVG Export Plug-In . SVG Version: 6.00 Build 0)  -->
<svg version="1.1" id="Tinny" xmlns="http://www.w3.org/2000/svg" xmlns:xlink="http://www.w3.org/1999/xlink" x="0px" y="0px"
	 viewBox="0 0 600 400" enable-background="new 0 0 600 400" xml:space="preserve">
<g>
	<g id="imagination">
		<path fill="#9D3B82" d="M131.673,14.954c0,0-42.535,30.062-5.757,76.435s97.862,30.702,99.141,52.769
			c1.279,22.067-28.463,39.976-8.315,49.89c20.148,9.914,58.205,10.874,57.886,24.945c-0.32,14.072-4.317,14.951-5.517,25.025
			c-1.199,10.074,5.042,17.2,5.042,17.2s6.797,2.642,17.145,1.09c10.348-1.552,16.881-21.564,16.881-21.564
			s-3.809-15.915,7.944-21.072c11.753-5.157,33.7-12.712,36.818-27.824c3.118-15.111-3.238-30.102,7.795-36.698
			c11.033-6.596,35.259-7.675,49.89-9.354c14.631-1.679,30.102-10.074,30.102-10.074s-12.952,8.395-27.224,12.233
			c-14.272,3.838-25.785,2.758-36.578,16.31c-10.793,13.552-4.317,26.864-14.391,37.418s-36.338,16.91-44.014,24.585
			c-7.675,7.675-7.675,16.19-7.675,16.19l4.813,2.996c0,0,2.623-14.869,20.612-16.548c17.989-1.679,41.255-0.48,44.613-18.949
			s-3.838-35.739,21.587-47.971c25.425-12.233,71.717-12.952,74.836-42.215c3.118-29.263-76.994-21.107-74.596-41.735
			c2.399-20.628,58.525-37.898,70.758-47.492c12.233-9.594,15.591-15.591,15.591-15.591H205.069c0,0-17.749,12.952-39.337,19.348
			c-21.587,6.396-32.781,23.186-33.9,33.9c-1.119,10.714,7.676,23.826,7.676,23.826s-14.871-10.074-13.752-33.26
			c1.119-23.186,35.179-39.017,39.497-40.296c4.318-1.279,7.036-3.518,7.036-3.518H131.673z"/>
	</g>
	<g id="line">
		<g>
			<g>
				
					<rect x="177.966" y="98.003" transform="matrix(0.5534 -0.8329 0.8329 0.5534 0.7867 197.9532)" width="14.015" height="0.479"/>
			</g>
			<g>
				<rect x="184.534" y="90.53" transform="matrix(0.4386 -0.8987 0.8987 0.4386 15.6556 221.0682)" width="0.48" height="14.946"/>
			</g>
		</g>
		<g>
			<g>
				<polygon points="209.917,187.937 209.584,187.591 221.76,175.853 222.092,176.199 				"/>
			</g>
			<g>
				<rect x="215.426" y="172.542" transform="matrix(0.622 -0.783 0.783 0.622 -60.6458 237.4883)" width="0.48" height="18.037"/>
			</g>
		</g>
		<g>
			<path d="M185.924,60.91c-0.407,0-0.825-0.074-1.25-0.239c-0.86-0.333-1.465-1.023-1.784-2.019
				c-1.213,0.853-2.569,1.292-3.874,0.906c-1.673-0.496-2.361-2.078-2.466-3.893c-1.129,0.789-2.314,1.064-3.441,0.778
				c-0.848-0.215-1.452-0.709-1.798-1.467c-1.29-2.834,1.522-8.469,1.643-8.707l0.428,0.216c-0.029,0.056-2.829,5.667-1.633,8.293
				c0.286,0.628,0.769,1.02,1.479,1.201c1.292,0.329,2.451-0.233,3.309-0.902c0.006-0.748,0.099-1.518,0.253-2.257
				c0.448-2.141,1.533-4.337,2.645-4.202c0.299,0.037,0.526,0.223,0.638,0.523c0.398,1.064-0.656,3.612-2.211,5.345
				c-0.273,0.304-0.552,0.575-0.836,0.814c0.038,1.749,0.604,3.348,2.127,3.799c1.21,0.359,2.478-0.088,3.612-0.927
				c-0.041-0.194-0.073-0.399-0.095-0.612c-0.256-2.451,0.866-5.752,2.264-6.664c0.448-0.292,0.899-0.322,1.306-0.091
				c0.829,0.474,0.898,1.754,0.185,3.424c-0.61,1.43-1.754,3.019-3.123,4.114c0.214,0.768,0.656,1.535,1.547,1.88
				c3.669,1.421,6.94-5.171,6.973-5.238l0.431,0.211C192.125,55.455,189.417,60.91,185.924,60.91z M185.676,51.131
				c-0.152,0-0.311,0.055-0.482,0.166c-1.137,0.741-2.305,3.753-2.049,6.212c0.011,0.105,0.025,0.214,0.044,0.324
				c1.216-1.034,2.235-2.486,2.793-3.793c0.599-1.404,0.606-2.484,0.019-2.819C185.896,51.162,185.788,51.131,185.676,51.131z
				 M179.331,49.09c-0.611,0-1.593,1.534-2.073,3.827c-0.116,0.555-0.196,1.144-0.224,1.729c0.178-0.168,0.335-0.332,0.469-0.482
				c1.538-1.715,2.416-4.059,2.118-4.857c-0.064-0.172-0.166-0.205-0.248-0.215C179.36,49.09,179.346,49.09,179.331,49.09z"/>
		</g>
		<g>
			<path d="M257.538,141.839c-3.141,0-5.697-2.905-5.697-6.476c0-3.571,2.555-6.476,5.697-6.476c3.141,0,5.697,2.905,5.697,6.476
				C263.234,138.934,260.679,141.839,257.538,141.839z M257.538,129.366c-2.876,0-5.217,2.69-5.217,5.997s2.34,5.996,5.217,5.996
				c2.876,0,5.217-2.69,5.217-5.996S260.414,129.366,257.538,129.366z"/>
		</g>
		<g>
			<g>
				<path d="M454.701,158.925c-0.012-0.026-1.197-2.626-4.874-3.758c-1.371-0.422-2.495-0.279-3.585-0.139
					c-1.967,0.25-3.817,0.487-6.768-2.281c-4.362-4.089-8.409-1.686-8.579-1.582l-0.251-0.408c0.044-0.027,4.523-2.705,9.158,1.641
					c2.787,2.614,4.531,2.391,6.38,2.155c1.139-0.146,2.317-0.297,3.786,0.156c3.899,1.2,5.122,3.909,5.173,4.024L454.701,158.925z"
					/>
			</g>
			<g>
				<path d="M453.454,162.752c-0.012-0.026-1.197-2.626-4.874-3.758c-1.37-0.422-2.496-0.278-3.584-0.139
					c-1.967,0.252-3.819,0.486-6.769-2.281c-4.36-4.09-8.407-1.686-8.578-1.582l-0.251-0.409c0.043-0.028,4.523-2.706,9.157,1.641
					c2.789,2.615,4.535,2.392,6.381,2.155c1.139-0.145,2.317-0.296,3.785,0.156c3.899,1.2,5.122,3.909,5.173,4.024L453.454,162.752z
					"/>
			</g>
			<g>
				<path d="M452.207,166.578c-0.012-0.026-1.197-2.626-4.874-3.759c-1.371-0.422-2.495-0.277-3.585-0.139
					c-1.958,0.251-3.816,0.489-6.768-2.281c-4.361-4.088-8.409-1.686-8.579-1.582l-0.251-0.408c0.043-0.027,4.523-2.706,9.158,1.641
					c2.787,2.613,4.532,2.393,6.38,2.155c1.139-0.145,2.318-0.296,3.786,0.157c3.899,1.2,5.122,3.909,5.173,4.024L452.207,166.578z"
					/>
			</g>
		</g>
	</g>
	<g id="tv">
		<path fill="#F05249" d="M307.291,201.995c0,0,3.578,6,4.418,6.08s1.799-0.52,2.039-1.519c0.24-0.999-0.409-7.947-0.409-7.947
			L307.291,201.995z"/>
		<path fill="#F05249" d="M340.016,176.168c0,0,4.482,5.358,4.281,6.177c-0.202,0.819-1.084,1.527-2.107,1.423
			c-1.022-0.104-7.366-3.009-7.366-3.009L340.016,176.168z"/>
		<path fill="#5C244A" d="M296.314,209.356c0,0,3.578,6,4.418,6.08c0.84,0.08,1.799-0.52,2.039-1.519
			c0.24-0.999-0.409-7.947-0.409-7.947L296.314,209.356z"/>
		<path fill="#5C244A" d="M329.006,185.956c0,0,3.832,5.841,3.537,6.631c-0.295,0.79-1.254,1.391-2.257,1.17
			c-1.004-0.221-6.969-3.842-6.969-3.842L329.006,185.956z"/>
		<path fill="#F05249" d="M280.153,168.409c0,0-11.522,8.21-13.201,13.327c-1.679,5.117-0.08,9.594,4.157,14.471
			c4.238,4.877,10.794,14.391,16.79,15.271c5.996,0.88,17.554-7.591,17.554-7.591L280.153,168.409z"/>
		<path fill="#FFCF2E" d="M315.963,144.398c0,0-34.859,21.507-36.938,25.265c-2.079,3.758-0.4,7.116,1.919,10.714
			c2.319,3.598,14.152,22.147,17.75,23.586c3.598,1.439,4.797,1.359,10.474-2.239c5.677-3.598,31.741-23.106,32.94-28.063
			c1.199-4.957-18.813-26.179-20.388-27.904C320.88,144.837,318.801,142.678,315.963,144.398z"/>
		<path fill="#5C244A" d="M307.648,151.353c0,0-25.825,15.431-26.704,19.508c-0.879,4.078,1.839,9.115,4.158,12.393
			c2.319,3.278,12.153,18.549,15.271,19.348c3.118,0.8,8.475-2.878,15.351-7.915c6.876-5.037,15.642-10.394,16.136-13.832
			c0.494-3.438-18.937-27.023-20.453-28.703C310.12,150.729,308.609,150.773,307.648,151.353z"/>
		<path fill="#23A2AA" d="M322.767,151.767c0,2.489-1.647,4.507-3.678,4.507s-3.678-2.018-3.678-4.507
			c0-2.489,1.647-4.507,3.678-4.507S322.767,149.278,322.767,151.767z"/>
		<ellipse fill="#F9E9CD" cx="323.222" cy="160.294" rx="1.196" ry="1.465"/>
		<path fill="#F9E9CD" d="M328.903,157.52c0,0.809-0.535,1.465-1.196,1.465s-1.196-0.656-1.196-1.465
			c0-0.809,0.535-1.465,1.196-1.465S328.903,156.71,328.903,157.52z"/>
		<path fill="#F9E9CD" d="M327.965,165.557c0,0.809-0.535,1.465-1.196,1.465c-0.66,0-1.196-0.656-1.196-1.465
			s0.535-1.465,1.196-1.465C327.429,164.092,327.965,164.748,327.965,165.557z"/>
		<path fill="#F9E9CD" d="M332.45,162.782c0,0.809-0.535,1.465-1.196,1.465c-0.66,0-1.196-0.656-1.196-1.465
			c0-0.809,0.535-1.465,1.196-1.465C331.914,161.317,332.45,161.973,332.45,162.782z"/>
		<rect x="318.055" y="147.615" fill="#F05249" width="2.069" height="8.305"/>
		<path fill="#5C244A" d="M329.16,171.589L329.16,171.589c-0.162-0.209-0.124-0.511,0.085-0.673l5.323-4.128
			c0.209-0.162,0.511-0.124,0.673,0.085l0,0c0.163,0.209,0.124,0.511-0.085,0.673l-5.323,4.128
			C329.624,171.836,329.323,171.798,329.16,171.589z"/>
		<path fill="#5C244A" d="M269.272,191.915L269.272,191.915c-0.163-0.209-0.124-0.511,0.085-0.673l5.323-4.128
			c0.209-0.162,0.511-0.124,0.673,0.085l0,0c0.162,0.209,0.124,0.511-0.085,0.673L269.945,192
			C269.736,192.162,269.434,192.124,269.272,191.915z"/>
		<path fill="#5C244A" d="M270.979,194.115L270.979,194.115c-0.162-0.209-0.124-0.511,0.085-0.673l5.323-4.128
			c0.209-0.162,0.511-0.124,0.673,0.085l0,0c0.162,0.209,0.124,0.511-0.085,0.673l-5.323,4.128
			C271.442,194.363,271.141,194.324,270.979,194.115z"/>
		<path fill="#5C244A" d="M272.685,196.315L272.685,196.315c-0.162-0.209-0.124-0.511,0.085-0.673l5.323-4.128
			c0.209-0.162,0.511-0.124,0.673,0.085l0,0c0.162,0.209,0.124,0.511-0.085,0.673l-5.323,4.128
			C273.149,196.563,272.848,196.525,272.685,196.315z"/>
		<path fill="#5C244A" d="M281.128,204.468L281.128,204.468c-0.162-0.209-0.124-0.511,0.085-0.673l5.323-4.128
			c0.209-0.162,0.511-0.124,0.673,0.085l0,0c0.162,0.209,0.124,0.511-0.085,0.673l-5.323,4.128
			C281.591,204.716,281.29,204.678,281.128,204.468z"/>
		<path fill="#5C244A" d="M282.834,206.669L282.834,206.669c-0.162-0.209-0.124-0.511,0.085-0.673l5.322-4.128
			c0.209-0.162,0.511-0.124,0.673,0.085l0,0c0.163,0.209,0.124,0.511-0.085,0.673l-5.323,4.128
			C283.298,206.916,282.997,206.878,282.834,206.669z"/>
		<path fill="#5C244A" d="M284.541,208.869L284.541,208.869c-0.162-0.209-0.124-0.511,0.085-0.673l5.322-4.128
			c0.209-0.162,0.511-0.124,0.673,0.085l0,0c0.162,0.209,0.124,0.511-0.085,0.673l-5.323,4.129
			C285.005,209.116,284.703,209.078,284.541,208.869z"/>
		<path fill="#5C244A" d="M330.607,173.453L330.607,173.453c-0.162-0.209-0.124-0.511,0.085-0.673l5.323-4.129
			c0.209-0.162,0.511-0.124,0.673,0.085l0,0c0.162,0.209,0.124,0.511-0.085,0.673l-5.323,4.128
			C331.07,173.701,330.769,173.663,330.607,173.453z"/>
		<path fill="#5C244A" d="M332.053,175.318L332.053,175.318c-0.163-0.209-0.124-0.511,0.085-0.673l5.323-4.128
			c0.209-0.162,0.511-0.124,0.673,0.085l0,0c0.162,0.209,0.124,0.511-0.085,0.673l-5.322,4.128
			C332.516,175.565,332.215,175.527,332.053,175.318z"/>
		<g>
			<polygon points="293.67,159.124 278.037,156.155 278.127,155.684 293.132,158.534 291.838,144.8 292.316,144.755 			"/>
		</g>
	</g>
	<g id="ball">
		<path fill="#FFCF2E" d="M338.532,34.672c0,5.836-4.731,10.567-10.567,10.567c-5.836,0-10.567-4.731-10.567-10.567
			c0-5.836,4.731-10.567,10.567-10.567C333.801,24.104,338.532,28.836,338.532,34.672z"/>
		<path fill="#F05249" d="M330.563,25.264c0,0.64-1.163,1.159-2.598,1.159c-1.435,0-2.599-0.519-2.599-1.159
			c0-0.64,1.163-1.159,2.599-1.159C329.4,24.104,330.563,24.624,330.563,25.264z"/>
		<path fill="#F05249" d="M325.411,25.061c0,0-4.415,2.554-4.815,8.35c-0.4,5.796,3.57,11.122,3.57,11.122l0.947,0.314l1.325,0.28
			c0,0-2.284-5.76-1.884-10.957c0.4-5.197,1.884-7.97,1.884-7.97L325.411,25.061z"/>
		<path fill="#F05249" d="M329.705,26.122c0,0,2.644,3.132,3.044,8.369c0.4,5.237-1.522,10.233-1.522,10.233l1.301-0.52l1.264-0.715
			c0,0,3.235-3.359,2.676-8.817c-0.56-5.458-5.903-9.408-5.903-9.408L329.705,26.122z"/>
	</g>
	<g id="radio">
		<path fill="#F05249" d="M353.05,71.898c0,0-8.132,4.299-9.596,6.323c-1.464,2.025-0.683,3.303,0.501,6.056
			c1.185,2.753,3.915,6.513,6.441,7.748c2.526,1.235,8.829-0.878,8.829-0.878L353.05,71.898z"/>
		<path fill="#23A2AA" d="M372.264,66.34c0,0-18.441,4.586-19.89,5.953c-1.449,1.367-1.181,3.088-0.664,5.006
			c0.517,1.917,3.129,11.785,4.516,12.928c1.387,1.144,1.928,1.278,4.945,0.489c3.016-0.789,17.288-5.733,18.518-7.754
			c1.229-2.021-4.62-14.224-5.073-15.209C374.375,67.228,373.761,65.981,372.264,66.34z"/>
		<path fill="#E5D1B3" d="M367.608,68.241c0,0-13.59,3.175-14.555,4.853c-0.964,1.678-0.473,4.288,0.089,6.063
			c0.562,1.776,2.753,9.913,4.019,10.706c1.265,0.793,4.152-0.076,7.901-1.332c3.749-1.256,8.379-2.386,9.083-3.836
			c0.704-1.45-4.556-14.615-4.989-15.571C368.789,68.313,368.115,68.12,367.608,68.241z"/>
		<path fill="#9D3B82" d="M356.273,74.875l10.456-3.324c0.43-0.137,0.891,0.093,1.04,0.52l0.008,0.021
			c0.156,0.445-0.087,0.93-0.537,1.072l-10.464,3.302c-0.421,0.133-0.872-0.085-1.03-0.496l0,0
			C355.574,75.522,355.815,75.021,356.273,74.875z"/>
		<path fill="#F05249" d="M374.037,70.383c0,0.837-0.617,1.516-1.379,1.516c-0.762,0-1.379-0.678-1.379-1.516
			c0-0.837,0.617-1.516,1.379-1.516C373.419,68.867,374.037,69.546,374.037,70.383z"/>
		<path fill="#F05249" d="M374.838,74.367c0,0.486-0.359,0.881-0.801,0.881c-0.442,0-0.801-0.394-0.801-0.881
			c0-0.486,0.359-0.881,0.801-0.881C374.479,73.486,374.838,73.88,374.838,74.367z"/>
		<path fill="#F05249" d="M376.44,78.746c0,0.486-0.359,0.88-0.801,0.88s-0.801-0.394-0.801-0.88c0-0.486,0.359-0.881,0.801-0.881
			S376.44,78.259,376.44,78.746z"/>
		<path fill="#5C2449" d="M355.061,92.177c0,0,1.322,2.235,1.802,2.16c0.48-0.075,0.696-2.703,0.696-2.703L355.061,92.177z"/>
		<path fill="#5C2449" d="M372.991,86.55c0,0,1.248,1.925,1.847,1.705c0.599-0.22,0.22-2.581,0.22-2.581L372.991,86.55z"/>
		<path fill="#5C2449" d="M377.184,84.674c0,0,1.111,1.502,1.65,1.502c0.54,0,0-2.446,0-2.446L377.184,84.674z"/>
		<g>
			<rect x="353.405" y="78.473" transform="matrix(0.9722 -0.2342 0.2342 0.9722 -8.3437 87.1615)" width="18.855" height="0.48"/>
		</g>
	</g>
	<g id="phone">
		<polygon fill="#23A2AA" points="393.257,22.999 381.744,44.026 403.571,44.026 412.766,22.999 		"/>
		<polygon fill="#5C2449" points="382.863,46.345 381.744,44.026 403.571,44.026 412.766,22.999 415.164,22.999 405.09,46.345 		"/>
		<path fill="#F05249" d="M395.2,41.628c-0.563,0.975-1.709,1.367-2.56,0.876c-0.851-0.491-1.084-1.68-0.521-2.655
			c0.563-0.975,1.709-1.368,2.56-0.876C395.529,39.464,395.763,40.653,395.2,41.628z"/>
		<polygon fill="#5C2449" points="394.217,22.999 386.181,38.229 405.07,38.229 411.846,22.999 		"/>
	</g>
	<g id="book">
		<polygon fill="#FFCF2E" points="302.164,118.01 302.164,119.929 305.082,119.929 305.282,118.01 325.15,117.511 330.307,97.723 
			327.495,96.51 286.301,94.132 284.194,94.604 282.336,117.87 		"/>
		<polygon fill="#D8C1A3" points="303.383,117.511 283.895,117.211 283.895,116.252 286.301,94.132 327.495,96.51 324.191,116.252 
			323.711,116.971 		"/>
		<path fill="#F9E9CD" d="M306.621,95.264c0,0-2.339-4.018-8.875-5.217c-6.536-1.199-9.534,1.139-9.534,1.139l-2.818,24.525
			c0,0,4.752-3.418,9.842-2.159c5.09,1.259,8.148,3.958,8.148,3.958L306.621,95.264z"/>
		<path fill="#F9E9CD" d="M327.669,95.804c0,0-3.358-5.157-10.674-5.697c-7.316-0.54-10.374,5.157-10.374,5.157l-3.238,22.247
			c0,0,2.219-2.519,8.215-2.938c5.996-0.42,11.093,1.439,11.093,1.439L327.669,95.804z"/>
		<polygon fill="#E5D1B3" points="288.054,92.561 286.413,93.105 283.895,116.252 285.443,115.284 		"/>
		<polygon fill="#E5D1B3" points="327.387,96.948 328.628,98.502 324.191,116.252 322.765,115.715 		"/>
		<g>
			<path fill="#5C2449" d="M303.384,117.751c-0.012,0-0.023-0.001-0.035-0.002c-0.131-0.019-0.221-0.141-0.203-0.272l3.238-22.247
				c0.019-0.132,0.141-0.222,0.272-0.203c0.131,0.019,0.221,0.141,0.203,0.272l-3.238,22.247
				C303.603,117.665,303.501,117.751,303.384,117.751z"/>
		</g>
		<g>
			<path fill="#5C2449" d="M323.171,97.723c-0.044,0-0.088-0.012-0.128-0.037c-0.044-0.028-4.457-2.782-8.614-2.782
				c-0.043,0-0.085,0.001-0.128,0.001c-4.161,0.058-6.41,2.194-6.433,2.215c-0.094,0.092-0.245,0.091-0.339-0.005
				c-0.092-0.095-0.09-0.246,0.004-0.339c0.096-0.094,2.398-2.291,6.76-2.352c4.335-0.067,8.819,2.737,9.007,2.855
				c0.112,0.071,0.145,0.219,0.074,0.331C323.329,97.683,323.251,97.723,323.171,97.723z"/>
		</g>
		<g>
			<path fill="#5C2449" d="M321.972,100.661c-0.047,0-0.094-0.014-0.136-0.042c-0.019-0.013-1.942-1.297-6.434-1.939
				c-4.457-0.637-7.53,1.553-7.56,1.575c-0.108,0.078-0.258,0.053-0.335-0.052c-0.078-0.107-0.055-0.257,0.052-0.335
				c0.13-0.096,3.25-2.33,7.911-1.663c4.62,0.66,6.558,1.963,6.638,2.019c0.109,0.075,0.137,0.224,0.062,0.333
				C322.123,100.624,322.048,100.661,321.972,100.661z"/>
		</g>
		<g>
			<path fill="#5C2449" d="M320.713,107.557c-0.051,0-0.1-0.016-0.144-0.048c-0.028-0.021-2.865-2.119-6.229-2.351
				c-3.382-0.24-7.224,1.432-7.262,1.45c-0.121,0.052-0.263-0.001-0.316-0.124c-0.053-0.121,0.002-0.262,0.123-0.316
				c0.162-0.071,3.98-1.732,7.489-1.489c3.508,0.242,6.364,2.356,6.484,2.446c0.106,0.08,0.127,0.23,0.048,0.336
				C320.858,107.523,320.786,107.557,320.713,107.557z"/>
		</g>
		<g>
			<path fill="#5C2449" d="M304.522,97.187c-0.073,0-0.144-0.033-0.192-0.095c-0.014-0.019-1.469-1.885-6.054-3.278
				c-4.577-1.389-7.41-0.028-7.439-0.015c-0.118,0.061-0.262,0.011-0.321-0.108c-0.059-0.118-0.011-0.262,0.107-0.321
				c0.12-0.061,3.017-1.466,7.793-0.015c4.758,1.445,6.238,3.367,6.299,3.448c0.079,0.106,0.058,0.256-0.048,0.335
				C304.623,97.172,304.573,97.187,304.522,97.187z"/>
		</g>
		<g>
			<path fill="#5C2449" d="M303.623,100.301c-0.039,0-0.078-0.009-0.114-0.029c-0.021-0.011-2.129-1.151-5.379-2.569
				c-3.201-1.396-7.687-0.886-7.731-0.881c-0.132,0.021-0.251-0.078-0.266-0.21c-0.016-0.132,0.078-0.251,0.21-0.266
				c0.189-0.023,4.66-0.532,7.98,0.918c3.27,1.426,5.394,2.576,5.415,2.587c0.117,0.063,0.16,0.209,0.096,0.325
				C303.79,100.256,303.708,100.301,303.623,100.301z"/>
		</g>
		<g>
			<path fill="#5C2449" d="M302.124,104.319c-0.037,0-0.075-0.008-0.11-0.027c-0.022-0.011-2.249-1.145-6.077-2.323
				c-3.769-1.159-6.463-0.021-6.49-0.009c-0.119,0.052-0.263-0.003-0.316-0.125c-0.052-0.121,0.003-0.263,0.125-0.316
				c0.117-0.05,2.885-1.221,6.822-0.009c3.873,1.191,6.133,2.343,6.155,2.355c0.118,0.06,0.164,0.205,0.104,0.323
				C302.295,104.271,302.21,104.319,302.124,104.319z"/>
		</g>
	</g>
	<g id="home">
		
			<rect x="225.234" y="87.389" transform="matrix(0.819 -0.5737 0.5737 0.819 -8.7512 151.5715)" fill="#E5D1B3" width="21.347" height="4.539"/>
		
			<rect x="239.859" y="66.077" transform="matrix(0.819 -0.5737 0.5737 0.819 8.9825 165.1711)" fill="#F9E9CD" width="52.949" height="4.539"/>
		
			<rect x="221.058" y="64.556" transform="matrix(0.819 -0.5737 0.5737 0.819 -0.5586 148.2196)" fill="#23A2AA" width="27.264" height="20.878"/>
		
			<rect x="242.356" y="45.64" transform="matrix(0.819 -0.5737 0.5737 0.819 15.1806 160.2894)" fill="#208B8E" width="38.677" height="20.879"/>
		<polygon fill="#23A2AA" points="217.535,74.266 216.323,48.775 239.866,58.624 		"/>
		<polygon fill="#F05249" points="274.491,34.37 239.866,58.624 216.323,48.775 250.194,25.048 		"/>
		
			<rect x="231.826" y="71.13" transform="matrix(0.819 -0.5737 0.5737 0.819 -2.1856 149.5108)" fill="#5C2449" width="8.195" height="14.18"/>
		
			<rect x="232.372" y="72.862" transform="matrix(0.8191 -0.5737 0.5737 0.8191 -3.6272 148.4032)" fill="#F05249" width="2.159" height="14.18"/>
		
			<rect x="251.736" y="52.641" transform="matrix(0.819 -0.5737 0.5737 0.819 13.6557 156.1025)" fill="#5C2449" width="5.117" height="7.525"/>
		
			<rect x="263.327" y="44.521" transform="matrix(0.8191 -0.5737 0.5737 0.8191 20.4095 161.2794)" fill="#5C2449" width="5.117" height="7.525"/>
		<path fill="#5C2449" d="M225.718,57.17c0.992,1.417,0.741,3.304-0.561,4.216c-1.302,0.912-3.162,0.503-4.154-0.914
			c-0.992-1.417-0.741-3.304,0.561-4.216C222.865,55.344,224.725,55.753,225.718,57.17z"/>
		<path fill="#F05249" d="M222.433,59.471c-0.792-1.131-0.78-2.555-0.084-3.551c-0.296,0.079-0.584,0.195-0.846,0.379
			c-1.302,0.912-1.553,2.8-0.561,4.216c0.992,1.417,2.852,1.826,4.154,0.914c0.262-0.184,0.47-0.415,0.645-0.666
			C224.568,61.076,223.226,60.602,222.433,59.471z"/>
		
			<rect x="234.53" y="27.096" transform="matrix(0.819 -0.5737 0.5737 0.819 27.0552 142.9077)" fill="#F05249" width="11.093" height="2.936"/>
		
			<rect x="238.998" y="29.199" transform="matrix(0.819 -0.5737 0.5737 0.819 25.371 145.1031)" fill="#23A2AA" width="7.436" height="6.264"/>
		<g>
			<path fill="#5C2449" d="M251.844,75.964c-0.076,0-0.15-0.036-0.196-0.102l-11.842-16.904l-22.133,15.504
				c-0.109,0.076-0.258,0.05-0.334-0.059c-0.076-0.109-0.05-0.258,0.059-0.334l22.33-15.642c0.108-0.077,0.258-0.05,0.334,0.058
				l11.979,17.1c0.076,0.109,0.05,0.258-0.059,0.334C251.94,75.95,251.892,75.964,251.844,75.964z"/>
		</g>
	</g>
	<g id="car">
		<path d="M422.852,123.25c0,2.075-1.682,3.758-3.758,3.758c-2.075,0-3.758-1.682-3.758-3.758c0-2.075,1.682-3.758,3.758-3.758
			C421.169,119.492,422.852,121.175,422.852,123.25z"/>
		<path d="M403.154,123.25c0,2.075-1.682,3.758-3.758,3.758s-3.758-1.682-3.758-3.758c0-2.075,1.682-3.758,3.758-3.758
			S403.154,121.175,403.154,123.25z"/>
		<rect x="429.52" y="112.666" fill="#5C2449" width="3.234" height="7.825"/>
		<polygon fill="#F05249" points="390.119,118.453 390.119,123.25 420.821,123.25 420.821,114.315 418.482,106.64 399.953,106.64 
			395.936,114.945 		"/>
		<polygon fill="#FFCF2E" points="400.013,118.453 400.013,123.25 430.715,123.25 430.715,114.315 428.376,106.64 409.847,106.64 
			405.83,114.945 		"/>
		<rect x="390.119" y="118.453" fill="#5C2449" width="9.894" height="4.797"/>
		<path d="M413.003,123.25c0,2.075-1.682,3.758-3.758,3.758c-2.075,0-3.758-1.682-3.758-3.758c0-2.075,1.683-3.758,3.758-3.758
			C411.321,119.492,413.003,121.175,413.003,123.25z"/>
		<circle fill="#F05249" cx="409.245" cy="123.25" r="1.719"/>
		<path d="M429.52,123.25c0,2.075-1.682,3.758-3.758,3.758c-2.075,0-3.758-1.682-3.758-3.758c0-2.075,1.682-3.758,3.758-3.758
			C427.837,119.492,429.52,121.175,429.52,123.25z"/>
		<path fill="#F05249" d="M427.481,123.25c0,0.949-0.77,1.719-1.719,1.719c-0.949,0-1.719-0.77-1.719-1.719
			c0-0.949,0.77-1.719,1.719-1.719C426.711,121.531,427.481,122.301,427.481,123.25z"/>
		<polygon fill="#F05249" points="395.936,114.945 405.83,114.945 409.847,106.64 399.953,106.64 		"/>
		<polygon fill="#5C244A" points="408.068,114.146 418.485,114.146 418.485,107.859 411.035,107.859 		"/>
		<polygon fill="#5C244A" points="429.249,114.146 419.941,114.146 419.941,107.859 427.392,107.859 		"/>
		<polygon fill="#F9E9CD" points="391.498,118.453 390.958,119.852 390.119,120.112 390.119,118.453 		"/>
		<polygon fill="#F9E9CD" points="398.454,118.453 398.769,119.545 400.013,120.112 400.013,118.453 		"/>
		<polygon fill="#5C244A" points="400.373,107.02 396.835,114.415 405.21,114.415 408.788,107.259 		"/>
		<g>
			<path fill="#5C2449" d="M419.094,123.49c-0.132,0-0.24-0.107-0.24-0.24v-16.61c0-0.132,0.108-0.24,0.24-0.24
				c0.132,0,0.24,0.107,0.24,0.24v16.61C419.334,123.383,419.226,123.49,419.094,123.49z"/>
		</g>
		<g>
			<path fill="#5C2449" d="M417.542,115.854h-2.598c-0.132,0-0.24-0.107-0.24-0.24c0-0.132,0.108-0.24,0.24-0.24h2.598
				c0.132,0,0.24,0.107,0.24,0.24C417.782,115.747,417.674,115.854,417.542,115.854z"/>
		</g>
		<g>
			<path fill="#5C2449" d="M405.83,115.185h-9.894c-0.132,0-0.24-0.107-0.24-0.24s0.108-0.24,0.24-0.24h9.894
				c0.132,0,0.24,0.107,0.24,0.24S405.962,115.185,405.83,115.185z"/>
		</g>
	</g>
	<g id="girl">
		<path fill="#5C2448" d="M307,374.006c0,0,25.013-3.523,26.512-2.024c1.499,1.499-6.536,2.578-4.917,4.018
			c1.619,1.439,27.984,1.539,27.504,4.617c-0.48,3.078-46.452,3.798-47.812,2.678c-1.359-1.119,11.673-3.278,10.154-4.397
			c-1.519-1.119-24.226,1.679-31.501,2.878c-7.276,1.199-30.902,5.312-32.94,2.016c-2.039-3.296,20.568-3.475,20.088-6.594
			c-0.48-3.118-3.238-0.96-3.898-3.298c-0.66-2.339,7.445-1.104,7.445-1.104L307,374.006z"/>
		<path fill="#5C2448" d="M347.664,371.742c0,0-8.725,0.48-9.204,2.009c-0.48,1.529,20.808-0.3,21.048-1.529
			C359.747,370.993,347.817,371.733,347.664,371.742z"/>
		<polygon fill="#F9E9CD" points="272.026,355.102 282.293,352.512 282.543,377.199 287.674,377.199 289.043,379.765 
			279.844,379.765 		"/>
		<polygon fill="#FFCF2E" points="276.018,354.031 282.543,377.199 287.674,377.199 295.495,349.316 		"/>
		<path fill="#5C2448" d="M269.71,281.376c0,0-5.517-13.072,0.48-17.929c5.997-4.857,13.252-2.499,13.252-2.499
			s-0.3-4.997,2.878-5.686c3.178-0.69,5.217,1.274,5.217,1.274s-0.18-4.063,2.758-5.082c2.938-1.019,5.577,0,5.577,0
			s0.673-8.715,6.443-10.354c5.77-1.639,9.008,2.239,9.008,2.239l5.657,35.699L269.71,281.376z"/>
		<path fill="#F9B6B1" d="M315.323,243.339c0,0,2.199,2.678,2.878,3.678c0.68,0.999,4.038-0.12,4.198,0.68
			c0.16,0.8-1.759,2.039-1.679,2.559c0.08,0.52,3.118,6.596,1.159,8.835c-1.959,2.239-6.876,1.439-8.595,2.918
			c-1.719,1.479-3.238,7.116-3.238,7.116l-12.233-6.476l5.996-2.958c0,0-2.998-2.998-0.999-5.557c1.999-2.559,3.798,0,3.798,0
			s2.239-1.799,3.758-4.118c1.519-2.319,1.799-6.676,1.799-6.676S313.604,244.018,315.323,243.339z"/>
		<path fill="#23A2AA" d="M304.49,364.787l-8.995-15.471c0,0-9.354,4.437-19.668,1.199c-10.314-3.238-14.511-9.115-16.91-15.831
			c-2.399-6.716-2.384-16.142-2.384-16.142h54.954c0,0,22.625,1.75,26.823,7.867c4.198,6.116,1.01,18.349-6.451,23.506
			C324.398,355.072,304.49,364.787,304.49,364.787z"/>
		<path fill="#F05249" d="M254,318.014c0,0,5.517-30.582,18.709-42.935c13.192-12.353,21.482-14.276,29.995-11.873
			c8.513,2.403,19.895,12.832,25.052,20.987c5.157,8.155,6.476,10.674,6.476,10.674l-12.592,8.275l-11.464,17.39
			c0,0-14.08,2.399-26.673,1.799C270.91,321.732,254,318.014,254,318.014z"/>
		<path fill="#F9B6B1" d="M315.649,291.96l5.991,11.183l10.471-6.881c0,0,2.601,5.352,3.44,8.051s1.109,4.887,1.109,4.887
			s18.799,5.037,23.116,8.215c4.317,3.178,10.314,12.652,10.554,14.032c0.24,1.379-1.229,8.275-1.229,8.275h-1.019l-0.15,1.289
			c0,0-1.499-0.18-2.039-0.72c-0.54-0.54-0.18-4.527-0.6-5.187c-0.42-0.66-3.208-3.628-3.208-3.628s0.6,2.339-0.48,2.818
			c-1.079,0.48-2.698-1.979-4.018-3.238c-1.319-1.259-3.688-2.548-7.166-3.148c-3.478-0.6-8.935-1.139-8.935-1.139
			s0.12,3.778,0.06,6.296c-0.06,2.519-1.726,3.865-1.726,3.865s0.668-3.727,0.21-5.799c-0.458-2.072-1.722-4.722-1.722-4.722
			s-18.749-3.478-26.184-5.477c-7.436-1.999-16.892-16.562-16.892-16.562L315.649,291.96z"/>
		<polygon fill="#F9B6B1" points="295.495,349.316 293.206,350.183 299.333,360.889 302.224,360.889 		"/>
		<path fill="#FFCF2E" d="M307.908,377.559c0,0,0.48-2.878-2.519-5.277s-5.577-2.818-6.056-3.178s4.098-6.138,4.098-6.138
			l-1.208-2.077h-2.891l-6.127-10.706l-11.622,4.47l10.434,23.266L307.908,377.559z"/>
		<path fill="#F05249" d="M299.933,364.337c0,0-2.638-1.979-3.778-1.949c-1.139,0.03-2.548,3.928-2.368,5.936
			c0.18,2.009,5.547,0.78,5.547,0.78l1.846-3.172C301.179,365.932,300.833,364.965,299.933,364.337z"/>
		<path fill="#F9E9CD" d="M300.772,377.721c0,0,0.519-1.421,2.158-2.78c1.639-1.359,3.461-1.704,3.461-1.704s1.118,1.16,1.328,2.392
			c0.21,1.232,0.188,1.93,0.188,1.93L300.772,377.721z"/>
		<polygon fill="#F9E9CD" points="276.307,355.912 281.583,354.653 292.017,377.919 307.908,377.559 307.936,379.598 
			289.499,380.617 		"/>
		<g>
			<path fill="#5C2449" d="M318.701,254.602c-0.01,0-0.021-0.001-0.031-0.002c-0.131-0.017-0.224-0.138-0.207-0.269
				c0.041-0.315,0.277-0.898,0.94-0.868c0.764,0.038,0.872,0.472,0.883,0.522c0.026,0.129-0.058,0.256-0.188,0.282
				c-0.134,0.026-0.256-0.059-0.282-0.187c0,0.001,0,0.001,0,0.001c-0.005,0-0.081-0.12-0.437-0.138
				c-0.008-0.001-0.015-0.001-0.022-0.001c-0.354,0-0.415,0.433-0.417,0.452C318.923,254.514,318.82,254.602,318.701,254.602z"/>
		</g>
		<path fill="#5C2449" d="M311.985,242.779c0,0,0.78,2.568,0.21,5.297c-0.57,2.728-4.557,5.396-4.557,5.396s4.557-1.709,5.457-4.707
			S311.985,242.779,311.985,242.779z"/>
		<path fill="#ED8F91" d="M316.085,250.893c0.291,0.576-0.157,1.388-1.001,1.815c-0.844,0.427-1.764,0.306-2.055-0.269
			c-0.291-0.576,0.157-1.388,1.001-1.815C314.874,250.197,315.794,250.317,316.085,250.893z"/>
		<path fill="#5C2448" d="M317.185,246.535c0.078,0.155,0.07,0.317-0.018,0.362c-0.089,0.045-0.224-0.045-0.303-0.2
			c-0.079-0.155-0.07-0.317,0.018-0.362C316.971,246.29,317.107,246.38,317.185,246.535z"/>
		<path fill="#5C2448" d="M314.2,248.044c0.078,0.155,0.07,0.317-0.018,0.362c-0.089,0.045-0.224-0.044-0.303-0.2
			c-0.078-0.155-0.07-0.317,0.018-0.362C313.986,247.8,314.121,247.889,314.2,248.044z"/>
		<g>
			<path fill="#5C2449" d="M313.422,247.862c-0.099,0-0.192-0.062-0.226-0.161c-0.043-0.124,0.022-0.26,0.145-0.305
				c0.009-0.004,0.16-0.065,0.266-0.223c0.14-0.21,0.208-0.382,0.209-0.384c0.049-0.123,0.188-0.184,0.311-0.135
				c0.123,0.049,0.184,0.187,0.136,0.31c-0.003,0.008-0.086,0.219-0.257,0.475c-0.197,0.295-0.474,0.398-0.504,0.41
				C313.475,247.857,313.448,247.862,313.422,247.862z"/>
		</g>
		<g>
			<path fill="#5C2449" d="M316.587,246.245c-0.306,0-0.506-0.076-0.529-0.085c-0.123-0.049-0.183-0.188-0.134-0.312
				c0.049-0.122,0.185-0.179,0.31-0.135l0,0c0.001,0.001,0.157,0.045,0.388,0.051c0.211-0.006,0.293-0.041,0.294-0.041
				c0.112-0.067,0.256-0.026,0.322,0.09c0.066,0.114,0.022,0.264-0.093,0.331c-0.047,0.027-0.191,0.092-0.511,0.1
				C316.618,246.244,316.602,246.245,316.587,246.245z"/>
		</g>
		<g>
			<path fill="#5C2449" d="M319.992,250.436c-0.1,0-0.193-0.063-0.227-0.162c-0.046-0.132-0.176-0.584,0.051-0.828
				c0.186-0.199,0.604-0.295,0.727-0.32c0.142-0.024,0.257,0.059,0.283,0.187c0.026,0.13-0.058,0.257-0.187,0.283
				c-0.178,0.036-0.418,0.119-0.471,0.177c-0.015,0.038,0.008,0.214,0.052,0.346c0.043,0.125-0.024,0.262-0.15,0.304
				C320.043,250.431,320.017,250.436,319.992,250.436z"/>
		</g>
		<g>
			<path fill="#5C2449" d="M336.661,309.44c-0.02,0-0.041-0.003-0.061-0.008c-0.406-0.107-9.946-2.633-11.977-3.509
				c-2.085-0.899-3.143-2.581-3.188-2.652c-0.069-0.112-0.035-0.26,0.078-0.33c0.112-0.069,0.26-0.036,0.331,0.077
				c0.009,0.016,1.028,1.627,2.968,2.465c1.999,0.862,11.811,3.46,11.909,3.486c0.128,0.034,0.205,0.165,0.171,0.292
				C336.864,309.368,336.768,309.44,336.661,309.44z"/>
		</g>
		<g>
			<path fill="#5C2449" d="M295.495,349.556c-0.084,0-0.165-0.044-0.209-0.123c-0.065-0.115-0.023-0.262,0.092-0.326l22.866-12.792
				c0.114-0.067,0.261-0.025,0.326,0.092c0.065,0.115,0.023,0.261-0.092,0.326l-22.866,12.792
				C295.575,349.546,295.535,349.556,295.495,349.556z"/>
		</g>
		<g>
			<path fill="#5C2449" d="M313.178,339.663c-0.117,0-0.219-0.085-0.237-0.204c-0.02-0.131,0.071-0.253,0.202-0.273l6.452-0.961
				c0.138-0.021,0.253,0.071,0.273,0.202c0.02,0.131-0.07,0.253-0.201,0.273l-6.453,0.961
				C313.202,339.663,313.189,339.663,313.178,339.663z"/>
		</g>
		<g>
			<path fill="#5C2449" d="M292.908,306.024c-0.081,0-0.159-0.04-0.204-0.114l-12.124-19.711c-0.069-0.112-0.034-0.26,0.079-0.33
				c0.111-0.07,0.26-0.035,0.33,0.079l11.999,19.508l23.823-14.482c-0.314-1.09-2.097-7.064-4.672-11.516
				c-2.83-4.893-9.786-11.873-9.856-11.943c-0.094-0.094-0.094-0.246,0-0.339s0.246-0.094,0.339,0
				c0.07,0.07,7.071,7.095,9.932,12.043c2.86,4.946,4.751,11.733,4.77,11.802c0.028,0.103-0.015,0.213-0.107,0.269l-24.183,14.702
				C292.994,306.013,292.951,306.024,292.908,306.024z"/>
		</g>
		<g>
			<path fill="#5C2449" d="M283.27,290.355c-0.036,0-0.073-0.008-0.107-0.025l-4.415-2.203c-0.118-0.059-0.166-0.203-0.107-0.321
				c0.059-0.119,0.202-0.166,0.322-0.108l4.415,2.203c0.119,0.059,0.166,0.203,0.107,0.321
				C283.443,290.306,283.358,290.355,283.27,290.355z"/>
		</g>
		<g>
			<path fill="#5C2449" d="M341.488,327.009c-0.008,0-0.018-0.001-0.027-0.002l-3.178-0.36c-0.131-0.015-0.226-0.133-0.211-0.265
				c0.014-0.132,0.12-0.227,0.265-0.211l3.178,0.36c0.131,0.015,0.226,0.133,0.211,0.265
				C341.713,326.919,341.609,327.009,341.488,327.009z"/>
		</g>
		<g>
			<path fill="#5C2449" d="M368.082,339.961c-0.003,0-0.007,0-0.01,0c-0.034-0.002-0.837-0.041-1.289-0.633
				c-0.27-0.352-0.259-1.64-0.212-3.564c0.02-0.806,0.04-1.639-0.01-1.828c-0.089-0.322-1.745-2.072-3.292-3.576
				c-0.096-0.093-0.098-0.245-0.006-0.339c0.095-0.095,0.246-0.097,0.339-0.006c0.765,0.743,3.268,3.211,3.424,3.799
				c0.064,0.243,0.052,0.871,0.025,1.962c-0.026,1.048-0.073,2.998,0.113,3.26c0.314,0.41,0.923,0.445,0.929,0.445
				c0.131,0.007,0.234,0.119,0.228,0.251C368.315,339.861,368.21,339.961,368.082,339.961z"/>
		</g>
		<g>
			<path fill="#5C2449" d="M362.086,331.716c-0.039,0-0.077-0.009-0.112-0.028c-0.019-0.009-1.86-0.986-3.557-1.511
				c-1.705-0.529-4.406-1.038-4.434-1.043c-0.13-0.024-0.217-0.15-0.192-0.28c0.024-0.129,0.145-0.218,0.28-0.192
				c0.027,0.006,2.756,0.519,4.488,1.056c1.741,0.541,3.562,1.506,3.639,1.547c0.117,0.062,0.161,0.207,0.099,0.324
				C362.254,331.67,362.171,331.716,362.086,331.716z"/>
		</g>
		<g>
			<path fill="#5C2449" d="M305.854,260.673c-0.004,0-0.009,0-0.014,0c-0.113-0.007-1.114-0.069-1.51-0.284
				c-0.39-0.211-0.684-0.524-0.696-0.537c-0.09-0.097-0.085-0.249,0.012-0.339c0.096-0.09,0.248-0.085,0.339,0.011
				c0.002,0.003,0.255,0.271,0.574,0.443c0.227,0.123,0.923,0.204,1.308,0.226c0.133,0.008,0.233,0.121,0.226,0.254
				C306.086,260.575,305.98,260.673,305.854,260.673z"/>
		</g>
		<g>
			<path fill="#5C2449" d="M306.544,257.241c-0.016,0-0.032-0.002-0.048-0.005c-0.129-0.027-0.213-0.154-0.187-0.283
				c0.01-0.052,0.239-1.257-0.805-1.63c-1.107-0.394-2.035,0.361-2.074,0.393c-0.102,0.085-0.252,0.073-0.338-0.03
				c-0.085-0.101-0.072-0.252,0.029-0.337c0.047-0.039,1.171-0.968,2.544-0.477c1.151,0.411,1.232,1.605,1.113,2.178
				C306.755,257.163,306.656,257.241,306.544,257.241z"/>
		</g>
		<g>
			<path fill="#5C2449" d="M304.595,257.585c-0.003,0-0.007,0-0.01,0c-0.132-0.006-0.235-0.117-0.23-0.249
				c0.001-0.035,0.039-0.85,0.487-1.414c0.46-0.579,1.256-0.691,1.29-0.696c0.127-0.013,0.252,0.074,0.269,0.205
				c0.018,0.131-0.074,0.252-0.205,0.271c-0.006,0.001-0.64,0.093-0.978,0.518c-0.35,0.44-0.383,1.128-0.383,1.135
				C304.829,257.484,304.723,257.585,304.595,257.585z"/>
		</g>
		<g>
			<path fill="#5C2449" d="M300.855,366.728c-0.064,0-0.127-0.025-0.174-0.075c-0.007-0.007-0.665-0.694-1.604-1.107
				c-0.951-0.417-1.975-0.519-1.985-0.52c-0.132-0.013-0.228-0.13-0.216-0.261c0.013-0.133,0.14-0.227,0.261-0.216
				c0.045,0.005,1.11,0.11,2.133,0.559c1.032,0.454,1.731,1.185,1.76,1.216c0.091,0.096,0.087,0.248-0.009,0.339
				C300.974,366.706,300.914,366.728,300.855,366.728z"/>
		</g>
		<g>
			<path fill="#5C2449" d="M300.314,367.657c-0.052,0-0.105-0.017-0.148-0.052c-0.007-0.006-0.685-0.533-1.601-0.643
				c-0.955-0.115-1.87-0.001-1.88,0c-0.134,0.013-0.251-0.076-0.268-0.208c-0.017-0.131,0.076-0.251,0.208-0.268
				c0.039-0.004,0.98-0.123,1.998,0c1.055,0.126,1.81,0.718,1.841,0.742c0.104,0.082,0.121,0.233,0.039,0.337
				C300.455,367.626,300.385,367.657,300.314,367.657z"/>
		</g>
		<g>
			<path fill="#5C2449" d="M299.66,368.781c-0.042,0-0.084-0.011-0.123-0.034c-0.008-0.005-0.79-0.469-1.502-0.524
				c-0.753-0.056-1.636,0-1.645,0c-0.141,0.018-0.246-0.092-0.255-0.223c-0.009-0.132,0.091-0.246,0.223-0.255
				c0.038-0.003,0.925-0.061,1.713,0c0.826,0.064,1.677,0.569,1.712,0.589c0.114,0.068,0.15,0.215,0.082,0.329
				C299.822,368.74,299.742,368.781,299.66,368.781z"/>
		</g>
		<g>
			<path fill="#5C2449" d="M297.474,370.762c-0.024,0-0.05-0.004-0.074-0.012c-0.125-0.041-0.193-0.172-0.155-0.297
				c0.015-0.047,0.159-0.466,0.798-0.976c0.643-0.514,1.23-0.605,1.254-0.609c0.133-0.02,0.252,0.07,0.272,0.202
				c0.02,0.13-0.07,0.252-0.201,0.273c-0.005,0.001-0.49,0.082-1.025,0.51c-0.522,0.417-0.639,0.745-0.641,0.748
				C297.668,370.698,297.575,370.762,297.474,370.762z"/>
		</g>
		<g>
			<path fill="#5C2449" d="M292.017,378.159c-0.094,0-0.18-0.055-0.219-0.141l-10.434-23.266c-0.054-0.121,0-0.263,0.12-0.318
				c0.121-0.054,0.263,0,0.317,0.121l10.369,23.121l8.452-0.191c0.266-0.516,1.292-2.362,2.7-3.141
				c1.564-0.864,2.936-1.316,2.994-1.335c0.126-0.043,0.261,0.027,0.303,0.153c0.041,0.126-0.028,0.261-0.154,0.303
				c-0.013,0.005-1.388,0.459-2.911,1.299c-1.479,0.817-2.556,3.038-2.567,3.061c-0.039,0.082-0.121,0.134-0.211,0.136l-8.755,0.199
				C292.021,378.159,292.019,378.159,292.017,378.159z"/>
		</g>
		<g>
			<path fill="#5C2449" d="M287.674,377.439h-5.131c-0.107,0-0.202-0.071-0.231-0.175l-6.525-23.168
				c-0.036-0.127,0.038-0.259,0.166-0.295c0.13-0.036,0.26,0.038,0.296,0.166l6.476,22.993h4.949c0.133,0,0.24,0.108,0.24,0.24
				C287.913,377.331,287.806,377.439,287.674,377.439z"/>
		</g>
		<g>
			<path fill="#5C2449" d="M299.483,361.129c-0.01,0-0.02-0.001-0.03-0.002l-1.465-0.18c-0.132-0.016-0.225-0.136-0.209-0.267
				c0.016-0.132,0.14-0.219,0.267-0.209l1.465,0.18c0.132,0.016,0.225,0.136,0.209,0.267
				C299.706,361.04,299.603,361.129,299.483,361.129z"/>
		</g>
	</g>
</g>
</svg>
