<?xml version="1.0" encoding="utf-8"?>
<!-- Generator: Adobe Illustrator 23.1.1, SVG Export Plug-In . SVG Version: 6.00 Build 0)  -->
<svg version="1.1" id="Layer_1" xmlns="http://www.w3.org/2000/svg" xmlns:xlink="http://www.w3.org/1999/xlink" x="0px" y="0px"
	 viewBox="0 0 802.2 2638.7" style="enable-background:new 0 0 802.2 2638.7;" xml:space="preserve">
<style type="text/css">
	.st0{fill:#6293F1;}
	.st1{fill:#FEC3AA;}
	.st2{fill:#FFFFFF;}
	.st3{fill:#A096CF;}
	.st4{fill:#734C4C;}
	.st5{fill:#BFD7FF;}
	.st6{fill:#7070B8;}
</style>
<title>mental health problems</title>
<path class="st0" d="M239,480.6c0,0,12.8,14.3,11.3,27.7c-0.9,8.8-6.4,8.6-10.2,7c-1.7-0.7-4.2-4-5-6c-0.8-2-1.2-4-1.4-6.1
	c-0.3-4.2-0.2-8.5,0.4-12.7C234.4,488.2,236.7,478,239,480.6z"/>
<path d="M237.2,482.4c2,2.4,3.8,4.9,5.4,7.6c2.9,4.9,5.4,10.6,5.3,16.4c0,2.2-0.3,5.4-2.1,6.7s-2.7,0.7-4.3,0.1s-3.7-3.6-4.4-5.7
	c-1.3-3.9-1.2-8.3-1-12.3c0.2-2.8,0.6-5.7,1.4-8.4c0.3-1.1,0.6-2.2,1-3.3c0.3-0.4,0.5-0.8,0.7-1.2c-0.1,0.2,0.1,0.1-0.1,0.1
	c-0.4,0.3-0.9,0.4-1.4,0.2C237,482.2,236.9,482.1,237.2,482.4c2.3,2.3,5.8-1.2,3.5-3.5s-5.1-0.7-6.3,1.8c-1.2,2.5-2.1,5.2-2.5,7.9
	c-0.8,4.4-1.1,8.9-0.8,13.3c0.3,4.7,1.4,8.9,4.4,12.6c1.9,2.5,4.8,4,7.9,4.1c2.9,0.2,5.7-1.1,7.3-3.5c2.1-3.1,2.5-7.4,2.1-11.1
	c-0.4-4-1.5-7.8-3.2-11.4c-2.3-5-5.3-9.6-8.9-13.7C238.6,476.5,235.1,480,237.2,482.4z"/>
<path class="st0" d="M126.7,447.1c0,0,12.8,14.3,11.3,27.7c-0.9,8.8-6.4,8.6-10.2,7c-1.7-0.7-4.1-4-5-6c-0.8-2-1.2-4-1.4-6.1
	c-0.3-4.2-0.2-8.5,0.4-12.7C122.1,454.7,124.4,444.5,126.7,447.1z"/>
<path d="M124.9,448.9c2.1,2.3,3.9,4.9,5.4,7.6c3,4.9,5.4,10.6,5.4,16.4c-0.1,2.2-0.4,5.4-2.2,6.7s-2.7,0.6-4.3,0.1s-3.7-3.6-4.4-5.7
	c-1.3-3.9-1.2-8.3-0.9-12.3c0.1-2.8,0.5-5.7,1.3-8.4c0.3-1.2,0.6-2.3,1.1-3.4c0.1-0.3,0.5-0.7,0.6-1.1s0.1,0.1,0,0.1
	c-0.4,0.3-1,0.4-1.5,0.2C124.7,448.6,124.6,448.6,124.9,448.9c2.3,2.3,5.8-1.3,3.5-3.5s-5.1-0.7-6.3,1.8c-1.2,2.5-2,5.2-2.5,7.9
	c-0.8,4.4-1,8.9-0.8,13.3c0.4,4.7,1.4,8.9,4.4,12.6c1.9,2.4,4.8,3.9,7.9,4.1c2.9,0.2,5.7-1.1,7.3-3.5c2.1-3.1,2.5-7.4,2.1-11.1
	c-0.4-4-1.5-7.8-3.2-11.4c-2.2-5-5.2-9.6-8.9-13.7C126.3,443,122.8,446.5,124.9,448.9z"/>
<path class="st0" d="M310.4,579c0,0,12.8,14.3,11.4,27.7c-1,8.8-6.5,8.6-10.3,7c-1.7-0.7-4.1-4-5-6c-0.7-2-1.2-4-1.3-6.1
	c-0.4-4.2-0.2-8.5,0.4-12.7C305.9,586.6,308.1,576.4,310.4,579z"/>
<path d="M308.6,580.8c2.1,2.3,3.9,4.8,5.4,7.6c3,4.9,5.5,10.6,5.4,16.4c0,2.2-0.3,5.4-2.2,6.7s-2.7,0.6-4.2,0.1s-3.8-3.6-4.5-5.7
	c-1.3-3.9-1.2-8.3-0.9-12.3c0.1-2.8,0.6-5.7,1.3-8.4c0.3-1.2,0.6-2.3,1.1-3.4l0.7-1.1c-0.1,0.2,0,0.1-0.1,0.1
	c-0.4,0.3-1,0.4-1.5,0.2C308.5,580.5,308.3,580.5,308.6,580.8c2.3,2.3,5.8-1.3,3.6-3.5s-5.1-0.7-6.4,1.8c-1.2,2.5-2,5.2-2.4,7.9
	c-0.9,4.4-1.1,8.9-0.8,13.3c0.3,4.7,1.3,8.9,4.3,12.6c1.9,2.4,4.8,3.9,7.9,4.1c2.9,0.2,5.7-1.1,7.3-3.5c2.2-3.1,2.5-7.4,2.2-11.1
	c-0.5-3.9-1.5-7.8-3.2-11.4c-2.3-5-5.3-9.6-8.9-13.7C310,574.9,306.5,578.4,308.6,580.8z"/>
<path class="st0" d="M207.4,600c0,0,12.8,14.3,11.4,27.7c-1,8.8-6.5,8.6-10.3,7c-1.7-0.7-4.1-4-5-6c-0.7-2-1.2-4-1.3-6.1
	c-0.3-4.2-0.2-8.5,0.3-12.7C202.8,607.6,205.1,597.4,207.4,600z"/>
<path d="M205.6,601.8c2.1,2.3,3.9,4.9,5.4,7.6c3,4.9,5.4,10.6,5.4,16.4c0,2.2-0.3,5.4-2.2,6.7s-2.7,0.6-4.3,0.1s-3.7-3.6-4.4-5.7
	c-1.3-3.9-1.2-8.3-0.9-12.3c0.1-2.8,0.6-5.7,1.3-8.4c0.3-1.2,0.6-2.3,1.1-3.4c0.3-0.3,0.5-0.7,0.6-1.1c0,0.2,0.1,0.1,0,0.1
	c-0.4,0.3-1,0.4-1.5,0.2C205.5,601.5,205.3,601.5,205.6,601.8c2.3,2.3,5.8-1.3,3.6-3.5s-5.2-0.7-6.4,1.8c-1.2,2.5-2,5.2-2.4,7.9
	c-0.9,4.4-1.1,8.9-0.8,13.3c0.3,4.7,1.3,8.9,4.3,12.6c1.9,2.4,4.8,3.9,7.9,4.1c2.9,0.2,5.7-1.1,7.3-3.5c2.2-3.1,2.5-7.4,2.2-11.1
	c-0.5-4-1.6-7.8-3.3-11.4c-2.2-5-5.2-9.6-8.8-13.7C207,595.9,203.5,599.4,205.6,601.8z"/>
<path class="st0" d="M276.3,694c0,0,12.8,14.3,11.4,27.7c-1,8.8-6.5,8.5-10.3,6.9c-1.7-0.7-4.1-4-4.9-5.9c-0.8-1.9-1.3-4-1.4-6.1
	c-0.4-4.2-0.2-8.5,0.4-12.7C271.8,701.5,274,691.3,276.3,694z"/>
<path d="M274.6,695.7c2,2.4,3.8,4.9,5.4,7.6c2.9,5,5.4,10.6,5.3,16.5c0,2.1-0.3,5.4-2.2,6.7s-2.7,0.6-4.2,0s-3.8-3.6-4.5-5.7
	c-1.3-3.8-1.2-8.2-0.9-12.3c0.2-2.8,0.6-5.6,1.3-8.4c0.3-1.1,0.6-2.2,1.1-3.3c0.3-0.4,0.5-0.8,0.7-1.2c-0.1,0.2,0,0.1-0.1,0.1
	c-0.4,0.3-0.9,0.5-1.4,0.3L274.6,695.7c2.2,2.3,5.7-1.2,3.5-3.5s-5.1-0.6-6.4,1.8c-1.1,2.5-2,5.2-2.4,7.9c-0.8,4.4-1.1,8.9-0.8,13.3
	c0.3,4.8,1.3,9,4.4,12.7c1.9,2.4,4.7,3.9,7.8,4.1c2.9,0.2,5.6-1.2,7.3-3.5c2.2-3.1,2.5-7.5,2.2-11.1c-0.5-3.9-1.5-7.8-3.2-11.4
	c-2.2-5-5.3-9.7-8.9-13.8C275.9,689.8,272.4,693.3,274.6,695.7z"/>
<path class="st0" d="M382.1,699.4c0,0,12.8,14.4,11.3,27.8c-0.9,8.7-6.4,8.5-10.2,6.9c-1.7-0.7-4.2-4-5-5.9c-0.8-2-1.2-4.1-1.4-6.2
	c-0.3-4.2-0.2-8.4,0.4-12.6C377.5,707,379.8,696.8,382.1,699.4z"/>
<path d="M380.3,701.2c2,2.4,3.8,4.9,5.4,7.6c3,4.9,5.4,10.6,5.4,16.4c-0.1,2.2-0.4,5.5-2.2,6.8s-2.7,0.6-4.3,0s-3.7-3.6-4.4-5.7
	c-1.3-3.8-1.2-8.3-0.9-12.3c0.1-2.8,0.5-5.7,1.3-8.4c0.3-1.1,0.6-2.2,1.1-3.3c0.1-0.4,0.5-0.8,0.6-1.2s0.1,0.1-0.1,0.1
	c-0.4,0.3-0.9,0.4-1.4,0.2C380.1,701,380,700.9,380.3,701.2c2.3,2.3,5.8-1.2,3.5-3.5s-5.1-0.7-6.3,1.8c-1.2,2.5-2.1,5.2-2.5,7.9
	c-0.8,4.4-1,8.9-0.8,13.3c0.3,4.7,1.4,8.9,4.4,12.6c1.9,2.4,4.8,3.9,7.9,4.1c2.9,0.2,5.6-1.1,7.3-3.4c2.1-3.1,2.5-7.5,2.1-11.2
	c-0.4-3.9-1.5-7.8-3.2-11.3c-2.2-5-5.2-9.7-8.9-13.8C381.7,695.3,378.2,698.8,380.3,701.2z"/>
<path class="st0" d="M625.7,804.2c0,0,12.8,14.3,11.4,27.7c-1,8.8-6.5,8.5-10.3,7c-1.7-0.8-4.1-4.1-4.9-6c-0.8-1.9-1.3-4-1.4-6.1
	c-0.4-4.2-0.2-8.5,0.4-12.7C621.2,811.7,623.4,801.6,625.7,804.2z"/>
<path d="M624,806c2.1,2.3,3.9,4.9,5.4,7.6c2.9,4.9,5.4,10.5,5.3,16.4c0,2.1-0.3,5.4-2.2,6.7s-2.7,0.6-4.2,0.1s-3.8-3.6-4.5-5.7
	c-1.3-3.9-1.2-8.3-0.9-12.3c0.2-2.9,0.6-5.7,1.3-8.5c0.3-1.1,0.6-2.2,1.1-3.3c0.3-0.4,0.5-0.8,0.7-1.2c-0.1,0.3,0,0.2-0.1,0.1
	c-0.3,0.4-0.9,0.5-1.4,0.3C623.8,805.7,623.6,805.6,624,806c2.2,2.3,5.7-1.3,3.5-3.6s-5.1-0.6-6.4,1.8c-1.1,2.6-2,5.2-2.4,8
	c-0.8,4.4-1.1,8.9-0.8,13.3c0.3,4.7,1.3,8.9,4.4,12.6c1.9,2.4,4.7,3.9,7.8,4.1c2.9,0.2,5.7-1.1,7.3-3.5c2.2-3.1,2.5-7.5,2.2-11.1
	c-0.5-3.9-1.5-7.8-3.2-11.4c-2.3-5-5.3-9.7-8.9-13.8C625.3,800,621.8,803.6,624,806z"/>
<path class="st0" d="M421.7,809.5c0,0,12.8,14.3,11.3,27.7c-0.9,8.8-6.4,8.6-10.2,7c-1.7-0.7-4.1-4-5-6c-0.7-2-1.2-4-1.3-6.1
	c-0.3-4.2-0.2-8.5,0.3-12.7C417.1,817.1,419.4,806.9,421.7,809.5z"/>
<path d="M419.9,811.3c2,2.4,3.8,4.9,5.4,7.6c3,4.9,5.4,10.6,5.4,16.4c-0.1,2.2-0.3,5.4-2.2,6.7s-2.7,0.7-4.3,0.1s-3.7-3.6-4.4-5.7
	c-1.3-3.9-1.2-8.3-0.9-12.3c0.1-2.8,0.6-5.7,1.3-8.4c0.3-1.1,0.6-2.2,1.1-3.3c0.1-0.4,0.5-0.8,0.6-1.2s0.1,0.1,0,0.1
	c-0.4,0.3-1,0.4-1.5,0.2C419.8,811.1,419.6,811,419.9,811.3c2.3,2.3,5.8-1.2,3.5-3.5s-5.1-0.7-6.3,1.8c-1.1,2.5-2,5.2-2.5,7.9
	c-0.8,4.4-1,8.9-0.7,13.3c0.3,4.7,1.3,8.9,4.3,12.6c1.9,2.4,4.8,3.9,7.9,4.1c2.9,0.2,5.7-1.1,7.3-3.5c2.2-3.1,2.5-7.4,2.2-11.1
	c-0.5-4-1.6-7.8-3.3-11.4c-2.2-5-5.2-9.6-8.9-13.7C421.3,805.4,417.8,808.9,419.9,811.3z"/>
<path class="st0" d="M358.9,465.9c0,0,12.9,14.3,11.4,27.7c-0.9,8.8-6.5,8.5-10.2,6.9c-1.8-0.7-4.2-4-5-5.9c-0.8-1.9-1.3-4-1.4-6.1
	c-0.4-4.2-0.2-8.5,0.4-12.7C354.4,473.4,356.6,463.3,358.9,465.9z"/>
<path d="M357.2,467.6c2,2.4,3.8,4.9,5.4,7.6c2.9,5,5.4,10.6,5.3,16.5c0,2.1-0.3,5.4-2.2,6.7s-2.7,0.6-4.2,0s-3.8-3.6-4.5-5.7
	c-1.3-3.8-1.1-8.2-0.9-12.3c0.2-2.8,0.6-5.6,1.3-8.4c0.3-1.1,0.6-2.2,1.1-3.3c0.3-0.4,0.5-0.8,0.7-1.2c-0.1,0.2,0,0.1-0.1,0.1
	s-0.8,0.4-1.4,0.3L357.2,467.6c2.2,2.3,5.8-1.2,3.5-3.5s-5.1-0.6-6.3,1.8c-1.2,2.5-2,5.2-2.5,7.9c-0.8,4.4-1.1,8.9-0.8,13.3
	c0.3,4.8,1.3,9,4.4,12.7c1.9,2.4,4.7,3.9,7.8,4.1c2.9,0.2,5.6-1.1,7.3-3.5c2.2-3.1,2.6-7.5,2.2-11.1c-0.5-3.9-1.5-7.8-3.2-11.4
	c-2.2-5-5.3-9.7-8.9-13.8C358.6,461.7,355.1,465.2,357.2,467.6z"/>
<path class="st0" d="M424.8,508.8c0,0,12.8,14.3,11.3,27.7c-0.9,8.8-6.4,8.6-10.2,7c-1.7-0.8-4.2-4.1-5-6c-0.8-2-1.2-4-1.4-6.1
	c-0.3-4.2-0.2-8.5,0.4-12.7C420.2,516.4,422.4,506.2,424.8,508.8z"/>
<path d="M423,510.6c2.1,2.3,3.9,4.9,5.4,7.6c2.9,4.9,5.4,10.6,5.3,16.4c0,2.2-0.3,5.4-2.1,6.7s-2.8,0.6-4.3,0.1s-3.8-3.6-4.4-5.7
	c-1.3-3.9-1.2-8.3-1-12.3c0.2-2.9,0.6-5.7,1.4-8.5c0.3-1.1,0.6-2.2,1-3.3c0.3-0.4,0.5-0.8,0.7-1.2c-0.1,0.3,0,0.2-0.1,0.2
	c-0.4,0.3-0.9,0.4-1.4,0.2C422.8,510.3,422.7,510.3,423,510.6c2.3,2.3,5.8-1.3,3.5-3.6s-5.1-0.6-6.3,1.8c-1.2,2.5-2.1,5.2-2.5,8
	c-0.8,4.4-1.1,8.9-0.8,13.3c0.3,4.7,1.4,8.9,4.4,12.6c1.9,2.4,4.7,3.9,7.8,4.1c2.9,0.2,5.7-1.1,7.4-3.5c2.1-3.1,2.5-7.5,2.1-11.1
	c-0.5-3.9-1.5-7.8-3.2-11.4c-2.3-5-5.3-9.7-8.9-13.8C424.4,504.6,420.9,508.2,423,510.6z"/>
<path class="st0" d="M489.7,433.7c0,0,12.8,14.3,11.4,27.7c-1,8.8-6.5,8.5-10.3,6.9c-1.7-0.7-4.1-4-5-5.9c-0.7-2-1.2-4-1.3-6.1
	c-0.4-4.2-0.3-8.5,0.3-12.7C485.2,441.2,487.4,431,489.7,433.7z"/>
<path d="M487.9,435.4c2,2.3,3.9,4.9,5.4,7.6c3,5,5.4,10.6,5.4,16.5c0,2.1-0.3,5.4-2.2,6.7s-2.7,0.6-4.3,0s-3.7-3.6-4.4-5.7
	c-1.3-3.8-1.2-8.2-0.9-12.3c0.1-2.8,0.6-5.7,1.3-8.4c0.3-1.1,0.6-2.2,1.1-3.3c0.2-0.4,0.4-0.8,0.6-1.2c0,0.2,0.1,0.1,0,0.1
	c-0.4,0.3-1,0.5-1.5,0.3C487.8,435.2,487.6,435.1,487.9,435.4c2.3,2.3,5.8-1.2,3.6-3.5s-5.2-0.6-6.4,1.8c-1.1,2.5-2,5.2-2.4,7.9
	c-0.9,4.4-1.1,8.9-0.8,13.3c0.3,4.8,1.3,8.9,4.3,12.7c2,2.4,4.8,3.9,7.9,4.1c2.9,0.2,5.6-1.2,7.3-3.5c2.2-3.1,2.5-7.5,2.2-11.1
	c-0.4-4-1.6-7.8-3.3-11.4c-2.2-5-5.2-9.7-8.8-13.8C489.3,429.5,485.8,433,487.9,435.4z"/>
<path class="st0" d="M594.2,476.5c0,0,12.8,14.4,11.4,27.8c-1,8.7-6.5,8.5-10.3,6.9c-1.7-0.7-4.1-4-4.9-5.9c-0.8-2-1.3-4.1-1.4-6.2
	c-0.4-4.2-0.2-8.4,0.4-12.6C589.7,484.1,591.9,473.9,594.2,476.5z"/>
<path d="M592.5,478.3c2,2.4,3.8,4.9,5.4,7.6c2.9,4.9,5.4,10.6,5.3,16.4c0,2.2-0.3,5.4-2.2,6.8s-2.7,0.6-4.2,0s-3.8-3.6-4.5-5.7
	c-1.3-3.8-1.2-8.3-0.9-12.3c0.2-2.8,0.6-5.6,1.3-8.4c0.3-1.1,0.6-2.2,1.1-3.3c0.3-0.4,0.5-0.8,0.7-1.2c-0.1,0.2,0,0.1-0.1,0.1
	c-0.4,0.3-0.9,0.4-1.4,0.2C592.3,478.1,592.1,478,592.5,478.3c2.2,2.3,5.7-1.2,3.5-3.5s-5.1-0.7-6.4,1.8c-1.2,2.5-2,5.2-2.4,7.9
	c-0.8,4.4-1.1,8.9-0.8,13.3c0.3,4.7,1.3,8.9,4.4,12.6c1.9,2.4,4.7,3.9,7.8,4.1c2.9,0.2,5.7-1.1,7.3-3.5c2.2-3,2.5-7.4,2.2-11.1
	c-0.5-3.9-1.5-7.7-3.2-11.3c-2.2-5-5.2-9.7-8.9-13.8C593.8,472.4,590.3,475.9,592.5,478.3z"/>
<path class="st0" d="M235.1,786c0,0,12.8,14.3,11.3,27.7c-0.9,8.8-6.4,8.5-10.2,6.9c-1.7-0.7-4.2-4-5-5.9c-0.8-2-1.2-4-1.4-6.1
	c-0.3-4.2-0.2-8.5,0.4-12.7C230.5,793.5,232.7,783.4,235.1,786z"/>
<path d="M233.3,787.7c2,2.4,3.8,4.9,5.4,7.6c2.9,5,5.4,10.6,5.3,16.5c0,2.1-0.3,5.4-2.1,6.7c-1.3,0.7-3,0.7-4.3,0
	c-2-0.7-3.8-3.6-4.4-5.6c-1.3-3.9-1.2-8.3-1-12.3c0.2-2.9,0.6-5.7,1.4-8.5c0.3-1.1,0.6-2.2,1-3.3c0.3-0.4,0.5-0.8,0.7-1.2
	c-0.1,0.2,0,0.1-0.1,0.1s-0.8,0.4-1.4,0.3S233,787.4,233.3,787.7c2.3,2.3,5.8-1.2,3.5-3.5s-5.1-0.6-6.3,1.8c-1.2,2.5-2,5.2-2.5,7.9
	c-0.8,4.4-1.1,8.9-0.8,13.3c0.3,4.8,1.4,9,4.4,12.7c1.9,2.4,4.7,3.9,7.8,4.1c2.9,0.2,5.7-1.1,7.4-3.5c2.1-3.1,2.5-7.5,2.1-11.1
	c-0.5-3.9-1.5-7.8-3.2-11.4c-2.2-5-5.3-9.7-8.9-13.8C234.7,781.8,231.2,785.3,233.3,787.7z"/>
<path class="st0" d="M630.6,594.5c0,0,12.9,14.3,11.4,27.7c-0.9,8.8-6.5,8.5-10.2,6.9c-1.8-0.7-4.2-4-5-5.9c-0.8-1.9-1.3-4-1.4-6.1
	c-0.4-4.2-0.2-8.5,0.4-12.7C626.1,602,628.3,591.8,630.6,594.5z"/>
<path d="M628.9,596.2c2,2.4,3.8,4.9,5.4,7.6c2.9,5,5.4,10.6,5.3,16.5c0,2.1-0.3,5.4-2.2,6.7s-2.7,0.6-4.2,0s-3.8-3.6-4.5-5.7
	c-1.3-3.8-1.1-8.2-0.9-12.3c0.2-2.8,0.6-5.6,1.3-8.4c0.3-1.1,0.6-2.2,1.1-3.3c0.3-0.4,0.5-0.8,0.7-1.2c-0.1,0.2,0,0.1-0.1,0.1
	c-0.4,0.3-0.9,0.5-1.4,0.3L628.9,596.2c2.2,2.3,5.8-1.2,3.5-3.5s-5.1-0.6-6.3,1.8c-1.2,2.5-2.1,5.2-2.5,7.9
	c-0.8,4.4-1.1,8.9-0.8,13.3c0.3,4.8,1.3,8.9,4.4,12.7c1.9,2.4,4.7,3.9,7.8,4.1c2.9,0.2,5.6-1.1,7.3-3.5c2.2-3.1,2.6-7.5,2.2-11.1
	c-0.5-3.9-1.5-7.8-3.2-11.4c-2.2-5-5.3-9.7-8.9-13.8C630.3,590.3,626.7,593.8,628.9,596.2z"/>
<path class="st1" d="M419.2,2382.4l1.3,65.4c0,0,13,11.7,25.1,12.6s26.9-1.8,37.3-10.4s29-20.8,29-20.8l-0.5-43.3
	C511.4,2385.9,431.4,2391.1,419.2,2382.4z"/>
<path class="st2" d="M425.3,2449.6c0,0-7.8-6.5-9.5,5.6s1.7,63.6,1.7,63.6s9.1,19.5,34.2,22.1s50.7,10.4,58.5,13
	s52.3,14.7,84.4,15.6s60.6-5.6,70.5-19.1s1.8-37.2-3.4-41.5s-8.7-8.7-24.3-13.4s-48.5-17.8-64-28.6s-45.9-33.8-45.9-33.8
	s-8.7-9.1-25.6,3.5s-24.2,20.3-39.8,22.9s-36.4-7.3-36.4-7.3L425.3,2449.6z"/>
<path d="M502.6,2388.6l0.8-0.7L502.6,2388.6z"/>
<path d="M421.9,2396.7c0,0,69.1,1.2,80.7-8.1l-82.9-3.2L421.9,2396.7z"/>
<path d="M503.4,2387.9l0.3-0.3L503.4,2387.9z"/>
<path d="M503.7,2387.6l0.7-0.5L503.7,2387.6z"/>
<path d="M504.4,2387.1l1.7-1.4L504.4,2387.1z"/>
<path d="M585.4,2471.1c-7.6-5-15.4-9.9-22.9-15.1s-13.7-9.1-19.5-14.9s-14.6-13-24.9-14c-13.8-1.3-23.6,10.6-32.9,18.7
	c-4.8,4.2-10.5,7.2-16.7,8.8c-7.1,2-14.4,2.9-21.8,2.4c-6.4-0.5-12.3-3.5-17.8-6.6c-3.1-1.8-7.1-4.8-10.8-4.7
	c-6.3,0.2-5.4,10.5-5.5,14.6c-0.2,10.1,0.1,20.2,0.6,30.3c0.4,8.5,0.8,17.2,2.2,25.6c2.9,17.9,22.8,23.3,38.2,26.3
	s31.1,5.9,46.4,10.4c10.7,3.1,21.1,7,31.9,9.9c21.3,5.5,44,7.9,65.9,8.6c11,0.3,22.3,0.2,33-2.3s19.7-5.8,27.7-11.5
	s13.8-15.3,13.5-26.1s-5.4-23-14.9-30s-18.6-8.6-28.4-11.2c-4.6-1.1-9.2-2.5-13.7-4.1c-4.9-2.1-9.6-4.9-14.5-7.3
	C595.3,2476.6,590.3,2474,585.4,2471.1c-2.7-1.7-5.2,2.6-2.5,4.3c4.9,2.9,9.9,5.5,15.1,7.8c4.5,2.2,8.9,4.8,13.4,6.8
	c8.7,3.9,18.1,5.4,27.2,8.2s18.5,7.3,23.6,16.1s7.1,22.7,0.7,32.1s-15.1,12-23.9,15c-9.1,3.1-18.7,4.8-28.3,5
	c-22.6,0.7-45.6-1.9-67.7-6.2c-8.4-1.9-16.8-4.2-25-6.9c-12.4-4-24.8-7.7-37.4-10.6c-14.2-3.3-29.1-4.5-42.8-9.6
	c-6.4-2.4-13-6-16-12.4s-2.3-11.5-2.8-17c-0.8-9.7-1.2-19.4-1.4-29.2c-0.1-7.2-0.6-15.2,0.5-22.3l0.3-1.2c0.1-0.7-0.1-0.5,0.2-0.6
	s-0.5,0.2-0.2,0.3l2.4,0.9c4.8,2.3,9.1,5.2,14,7.3c11.7,4.9,25.7,3.7,37.5-0.2c5.5-1.8,10.7-4.6,15.2-8.3c4.9-4,9.2-8.8,14.3-12.6
	s11.5-6.8,18.5-5.3c5.4,1.2,10.4,3.7,14.5,7.3c3.1,2.7,5.7,6,8.9,8.7c5.8,4.7,11.8,9,18.1,13c6.9,4.8,14.1,9.3,21.1,13.9
	C585.6,2477.2,588.1,2472.8,585.4,2471.1z"/>
<path d="M653.2,2537.1c-18.8,8.3-39.9,10.1-60.2,9.1c-11-0.6-21.9-1.9-32.7-4c-7.8-1.4-16.1-2.8-23.5-5.5l-15.7-5.5
	c-5.3-1.7-10.9-3.8-16.5-4.5c-9.9-1.1-19.8-2.1-29.7-3.8c-8.6-1.3-17-3.1-25.4-5.3c-6.9-1.8-14-3.9-20.2-7.6
	c-2.8-1.7-5.3,2.6-2.5,4.3c12,7.3,27.2,9.9,40.8,12.4c11.6,2.1,23.4,3.9,35.1,4.9c4.4,0.3,8.9,1.8,13.1,3.2c6.1,1.9,12.1,4,18,6.1
	c6.8,2.3,13.8,4,20.9,5.3c10.7,2.2,21.5,3.8,32.4,4.6c23.2,1.8,47.2,0.1,68.6-9.4C658.6,2540.1,656.1,2535.8,653.2,2537.1
	L653.2,2537.1z"/>
<path d="M507.2,2389.8c0,10.7,0.3,21.4,0.7,32.1c0.1,3.2,5.1,3.2,5,0c-0.5-10.7-0.7-21.4-0.7-32.1
	C512.2,2386.6,507.3,2386.6,507.2,2389.8z"/>
<path class="st3" d="M172.8,1686.4c0,0-6.5,377-5.8,379.2s2.2,285,5.8,297.4s6.6,12.4,12.5,13.2s57,12.4,95.7,10.9s46.7-8,49.7-15.3
	s34.3-450.1,34.3-450.1l30.7-238.9l-4.4,260.1l-11.7,398.9c0,0-3.6,30.7,6.6,37.3s62.1,7.3,62.1,7.3s81.1,1.4,95-1.5
	s13.1-25.5,13.1-25.5s11-135.2,13.9-263.8s5.9-390.2,5.9-390.2l2.9-81.1c0,0-7.3-38.7-4.4-62.8c2.2-18,6.7-35.7,13.2-52.6
	c2.9-7.4,5.8-32.9,5.8-32.9s-8-10.3-8.8-16.8s-9.5,6.5-70.8,20.4s-146.9,20.5-217.8,3.7s-73-21.2-73-21.2s0.7,15.3-4.4,20.5
	s-35.1,16-35.1,16s0,41.7,5.8,73.8s17.6,57.7,11,73.1s-8,11.7-13.1,2.9s-8.1-31.4-12.5-35.8s-8.7,48.2-5.8,58.5
	C170.7,1676.1,171.9,1681.2,172.8,1686.4z"/>
<path class="st1" d="M102.7,1496.8l-14.6,59.5c0,0-6.6,33.7-3.7,49s11,64.3,16.8,71.6s5.9,9.5,9.5,7.3s3.1-11.3,3.1-11.3
	s9.8,21.5,15.6,22.9c5.8,1.4,8,1,8,1s3.4,7.1,10,2s3.5-10.2,3.5-10.2s4.9,17.2,14.5,13.2c5.6-2.3,6.9-6.3,4.6-17.6
	c-1.4-7.1-1.5-26.3-3-38.7s8-32.9,8-32.9s7.3,13.9,8.8,22.7s1.5,19,8.8,19.7s13.1-10.2,9.5-32.2s-13.9-58.4-15.4-67.9
	s-2.9-56.3-2.9-56.3S123,1510.2,102.7,1496.8z"/>
<path class="st4" d="M421.7,673.5c0,0-15.5-25.5-5.5-60.2s14.6-48.8,29.2-60.7s32.9-15.9,32.9-15.9s28.2-16,50.1-21.5
	c21.9-5.5,47.5-5,76.6,11s57.5,40.1,64.8,67.9s9.1,56.6-12.3,72.6s-31,20-31,20s-186.1,9.1-193.8,1.4S421.7,673.5,421.7,673.5z"/>
<path class="st5" d="M79.3,1481.1c0,0,5.1,14.6,30,18.3s46.7,5.1,74.5-0.8s35.1-16,35.1-16l4.4-20.5c0,0,39.4,24.1,147.6,32.1
	s200.2-29.9,200.2-29.9l13.8-9.5c0,0,0.8,18.3,8.8,21.2s23.6,15.7,60.2,15.7s42.1-13.5,42.8-20.8s-9.5-144-10.2-157.9
	s5.1-224.3,5.1-224.3s5.9-92.8-11.7-149.8s-57.7-64.3-76-76.7S517,811.8,517,811.8s16.1,16.1,3.6,29.2s-59.9,9.5-84,5.9
	s-53.3-14.6-60.6-24.1c-4.8-6.2-9.9-12-15.4-17.6l-105.9,41.7c0,0-52.6,25.5-73.8,61.3s-29.2,76.8-33.6,101.6
	s-43.1,295.9-43.1,295.9L79.3,1481.1z"/>
<path class="st1" d="M593.4,1473.9c0,0-0.7,26.9-3.4,34.4s-13.7,35.3-14.4,54.7s-1.8,45.4,3.2,56.3s5.7,14,10.5,11.2
	s5.5-32.4,5.5-32.4s-0.9-18.4,4.8-24.4c0,0,2.7,25.4,2.7,30.8s-8.4,45.4-3.2,54.3s7.1,10.7,11.7,6.8c2.9,2.4,7.1,2.5,10.2,0.3
	c5.7-3.7,10.1-13,10.1-13s-5.3,12.3,1.5,13.7s7.8-4.8,14.8-14.4s21.3-61.4,23.6-88.3s-0.7-55.8-0.7-61.1c0.1-3.7,0.7-7.4,1.8-10.9
	c0,0-18.5-3.1-32.8-2.1C619.4,1491.2,593.4,1473.9,593.4,1473.9z"/>
<path class="st1" d="M196.3,2379.4l3.4,78c0,0,15.6,11.6,35.5,8.6s36-22.1,42.5-26c4.6-2.7,9.3-5.1,14.2-7.3l3.1-48.1
	C295,2384.6,218.3,2389.4,196.3,2379.4z"/>
<path class="st2" d="M196.3,2457.8c0,0-3.9-8.7-8.7,6s2.2,67.2,2.2,67.2s-0.9,10.3,23.8,17.3s52.8,10.8,65.8,15.6s68.8,17.3,99.6,19
	s59.3-6.1,72.3-19.9s5.6-36.4,1.7-42s-13-13-29.9-18.2s-36.3-9.1-67.9-30.3s-45.9-41.1-63.3-39.8s-18.6,18.6-37.6,26.4
	S213.6,2469.9,196.3,2457.8z"/>
<path class="st1" d="M360.6,805.2c0.2-0.8,30.1-10.4,40.1-20.4s28.8-31.5,33.3-40.6s11.4-28.3,11.4-28.3S429,705.4,429,685.8
	s5-26.4,11.4-28.7s15.5-0.9,18.7,5c0,0,32.4-12.8,38.3-16.9s25.1-22.8,29.7-29.6s16.4-30.1,16.4-30.1s7.7-6.4,10.9,2.3
	s21,23.7,30.6,30.1s47,35.1,47.9,44.2s-11.9,40.1-15.1,50.6s-6.4,33.8-18.7,50.2s-39.7,35.1-52.9,38.3s-29.6,1.8-29.6,1.8l0.4,8.8
	c0,0,21.9,11.3,19.6,18.6s-13.2,12.3-21.9,15.5s-79.8,7.3-112.1-5.9S359.7,808.8,360.6,805.2z"/>
<path d="M211.7,2383.6c-13-0.6-12.4-8.1-13-6.9s-0.7,10-0.7,10s64.5,17.4,77.6,17.7s16.2-1.2,16.2-1.2l0.9-18.1
	C292.7,2385.1,224.8,2384.2,211.7,2383.6z"/>
<path d="M461.9,743.4c1.1,3.7,2.7,7.2,4.5,10.6c5,9.6,11.1,18.5,18.2,26.6c13,15.4,29.2,28.5,50.4,27.1c7.4-0.5,14.3-3.9,20.7-7.4
	c7.3-4.1,14.2-8.7,20.9-13.7c12.5-9.2,24.4-20,31.5-34s8.5-27.9,12.6-41.7c4.4-15.1,9.8-29.9,16.2-44.2c1.3-2.9-3-5.5-4.3-2.5
	c-5.2,11.7-9.9,23.7-13.8,35.9c-3.9,12.1-6.6,24.4-10,36.5c-1.6,6-4,11.8-7.1,17.2c-3.3,5.2-7.1,10.1-11.4,14.5
	c-3.4,3.6-7.1,7-11,10c-5.7,4.5-11.5,8.6-17.6,12.5c-6.4,4.2-13.2,8.3-20.5,10.7c-17.4,5.5-34.3-4.6-46.1-16.7
	c-8.9-9.1-16.6-19.3-22.9-30.4c-2.1-3.9-4.3-8-5.4-12.3S461.1,740.3,461.9,743.4L461.9,743.4z"/>
<path d="M467.1,671.6c-2.6-7.4-6.8-14.7-14.7-17.4s-15.3,1.9-19.9,8.4c-9.5,13.4-7.2,31.6,1.1,44.9c5,8.1,11.5,16.3,20.7,19.8
	c3,1.1,4.3-3.7,1.3-4.8c-8.2-3.2-14.3-11.6-18.6-19c-4.3-7.1-6.3-15.5-5.5-23.8c0.7-7.6,4.5-17.1,11.9-20.5
	c9.5-4.4,16.3,6.4,18.9,13.8C463.4,676,468.2,674.7,467.1,671.6L467.1,671.6z"/>
<path d="M442.2,674.5c1.9-0.2,3.3,1,4.3,2.4c1.3,1.9,2.5,3.9,3.4,6c1.9,4.1,3,8.5,3.5,13c0,1.3,1.1,2.4,2.4,2.5
	c1.3,0,2.7-1.2,2.5-2.5c-0.5-5.6-2-11.1-4.4-16.2c-2.3-4.6-5.8-10.7-11.7-10.2c-1.4,0-2.5,1.1-2.5,2.5S440.8,674.5,442.2,674.5
	L442.2,674.5z"/>
<path d="M452.6,682.8c-5,0.1-7.6,5.3-8.1,9.7c-0.4,4.2,1.1,8.3,4.1,11.3c1.1,0.8,2.7,0.6,3.5-0.5c0.7-0.9,0.7-2.1,0-3l-0.8-0.9l0,0
	l-0.4-0.5l-0.5-0.9l-0.3-0.6c-0.1-0.2,0.1,0.3,0-0.1c-0.3-0.7-0.5-1.4-0.6-2.2c-0.1-0.4,0,0.6,0-0.2v-0.5c-0.1-0.4-0.1-0.7-0.1-1.1
	c0.1-0.2,0.1-0.3,0.1-0.5c0-0.8-0.1,0.2,0-0.2c0-0.3,0.1-0.7,0.2-1c0.1-0.4,0.2-0.8,0.4-1.2c0-0.1,0.1-0.3,0,0
	c0.1-0.2,0.2-0.4,0.2-0.6l0.3-0.5c0.1,0,0.4-0.5,0.3-0.3l0.3-0.4l0.3-0.3l0.2-0.2l0,0l0.5-0.3c-0.2,0.1,0,0,0.1,0h0.3
	c1.4,0,2.5-1.1,2.5-2.5c0-1.3-1.1-2.4-2.4-2.4C452.7,682.9,452.6,682.9,452.6,682.8L452.6,682.8z"/>
<path d="M570.4,703.5l3.7,21c0.2,1.5,0.7,3.1,0.3,4.6c-0.5,1.3-1.2,2.4-2.2,3.3c-2,2.2-4.4,4-7,5.4c-2.9,1.5-0.4,5.8,2.5,4.3
	c5.7-3,12.5-8.5,11.7-15.7s-2.8-16.2-4.2-24.2C574.6,699,569.8,700.3,570.4,703.5L570.4,703.5z"/>
<path d="M591.9,700.2c-0.9,0.5-1.6,1.3-2.1,2.2c-1.2,1.9-2.1,4.1-2.4,6.3c-0.2,0.9-0.3,1.9-0.1,2.9c0.2,1,0.9,1.8,1.8,2.2
	c1.3,0.6,2.8-0.1,3.8-1c1.3-1.2,2.2-2.8,2.6-4.6c0.3-1.7,0.4-3.5,0.3-5.3c0-0.6-0.1-1.2-0.4-1.8c-0.4-0.6-1.1-1.1-1.8-1.2
	C593,699.7,592.4,699.8,591.9,700.2z"/>
<path d="M590.9,698.6c-1.1,0.7-2,1.7-2.7,2.8c-0.8,1.3-1.5,2.8-2,4.3c-1,2.8-1.6,6.5,0.7,8.9s6.3,1,8.3-1.5c1.9-2.6,2.8-5.7,2.5-8.9
	c0-1.8-0.1-3.6-1.4-4.9c-0.6-0.6-1.4-1.1-2.3-1.3C592.9,697.8,591.8,698.1,590.9,698.6c-0.9,0.5-1.1,1.6-0.6,2.5c0,0,0,0,0,0
	c0.5,0.9,1.6,1.2,2.4,0.7c0,0,0,0,0.1,0c0.2-0.1,0.4-0.2,0.5-0.1l0.3,0.2c-0.2-0.2,0.1,0,0.1,0.1s-0.1-0.3,0,0
	c0.3,0.9,0.4,1.8,0.3,2.7c0.1,2-0.4,4.1-1.5,5.8c-0.5,0.7-1.1,1.2-1.8,1.5l-0.7,0.2l-0.3-0.2h-0.2l-0.3-0.5c0.1,0.2,0-0.2-0.1-0.3
	c-0.1-0.5-0.1-0.9,0-1.4c0.1-1,0.4-2,0.7-3c0.3-1.1,0.8-2.1,1.4-3.1c0.2-0.4,0.4-0.7,0.7-1l0.6-0.6h0.3c0.9-0.5,1.2-1.7,0.7-2.6
	c0,0,0,0,0,0C593.1,698.5,591.9,698.1,590.9,698.6C591,698.6,590.9,698.6,590.9,698.6z"/>
<path d="M529.8,679.3c-0.9,0.5-1.6,1.3-2.1,2.2c-1.2,1.9-2,4.1-2.4,6.3c-0.2,1-0.2,1.9,0,2.9c0.2,1,0.9,1.8,1.8,2.2
	c1.2,0.5,2.7-0.1,3.8-1c1.3-1.3,2.1-2.9,2.5-4.6c0.4-1.8,0.5-3.6,0.3-5.4c0-0.6-0.1-1.2-0.4-1.7c-0.4-0.6-1-1.1-1.7-1.3
	C531,678.8,530.3,679,529.8,679.3z"/>
<path d="M528.9,677.6c-1.2,0.7-2.1,1.7-2.8,2.9c-0.9,1.3-1.5,2.8-2,4.3c-0.9,2.8-1.6,6.5,0.7,8.8s6.3,1.1,8.3-1.4s2.6-5.7,2.6-8.9
	s-0.1-3.6-1.5-4.9c-0.6-0.6-1.4-1.1-2.3-1.3C530.9,676.9,529.8,677.1,528.9,677.6c-0.8,0.6-1,1.8-0.4,2.7c0.5,0.7,1.4,0.9,2.2,0.6
	c0.3-0.1,0.4-0.2,0.6-0.1s0.4,0.3,0.2,0.1s0.1,0.1,0.1,0.2s-0.1-0.3,0-0.1s0.3,1.9,0.3,2.8c0.1,2-0.4,4.1-1.5,5.8
	c-0.4,0.7-1.1,1.2-1.8,1.5h-1.2c-0.1-0.2-0.2-0.3-0.2-0.5v-0.3c-0.1-0.5-0.1-1-0.1-1.5c0.1-1,0.4-2,0.7-2.9c0.4-1.1,0.8-2.1,1.4-3.1
	l0.7-1l0.6-0.6h0.3c0.9-0.5,1.2-1.7,0.7-2.6c0,0,0,0,0,0c-0.4-1-1.5-1.4-2.5-1.1C529,677.6,528.9,677.6,528.9,677.6z"/>
<path d="M559.7,762.9c-13.2-11.7-30.9-16.9-48.3-14.2c-3.2,0.5-1.8,5.3,1.3,4.8c15.7-2.3,31.6,2.4,43.5,12.9
	C558.6,768.5,562.1,765,559.7,762.9z"/>
<path d="M587.8,655c3.3,10.4,12.2,18.1,23,19.8c1.3,0.4,2.7-0.4,3.1-1.7c0,0,0,0,0-0.1c0.3-1.3-0.4-2.6-1.7-3
	c-9.1-1.2-16.8-7.5-19.6-16.3C591.6,650.6,586.8,651.9,587.8,655z"/>
<path d="M659.1,668.7c4.9-2.4,8.1-7.6,10.3-12.4c3.1-7.1,5-14.7,5.7-22.4c2.2-20.2-1.9-40.5-11.6-58.3c-9-16.1-23.3-28.8-38.1-39.5
	s-32.8-20.8-51.3-24.9c-9.2-2.1-18.2-1.6-27.6-0.7c-10.1,0.9-20.2,2.6-30.1,5.1c-11.5,3-23.2,7.2-33,14.2c-2,1.4-3.7,3.1-5.6,4.7
	c-0.1,0.1-0.2,0.3-0.4,0.4s1-0.1-0.7-0.1s-4.5,1.1-6.3,1.8c-2.2,0.7-4.5,1.6-6.6,2.6c-15.4,7-27.5,19.9-36.2,34.2
	c-17.1,27.7-22.5,63.5-10.8,94.4c2,5.2,4.5,10.1,7.4,14.8c1.7,2.7,6,0.2,4.3-2.6c-17.7-27.9-16.2-65.7-1.8-94.7
	c6.9-13.9,16.5-27.1,29.5-36c3.4-2.4,7.1-4.5,10.9-6.2c1.9-0.8,3.8-1.5,5.8-2.1c2.2-0.7,4.7-0.9,6.8-1.7s2.1-1.8,3.1-2.7
	c5.8-5.2,13.9-9.1,21.6-12c17.3-6.5,36.6-9.6,55.1-10.1c16.8-0.3,33.7,7.6,47.9,15.9s30.5,20.4,42.3,34.2s19.5,33.5,20.8,52.6
	c0.6,8.6-0.1,17.3-1.9,25.7c-1.4,6.1-3.4,12.5-7.3,17.4c-1.2,1.7-2.8,3.1-4.7,4.1C653.7,665.8,656.3,670.1,659.1,668.7L659.1,668.7z
	"/>
<path d="M582.8,1454.2c1.1,3.9,2,7.9,2.6,11.9c0.3,2.3,1.3,4.5,2.9,6.3c4.3,5.2,10.6,8.9,16.6,11.8c19.7,9.4,41.7,12.5,63.2,9
	c12.4-2.1,28.7-7.8,30.2-22.2c0.4-5.7,0.5-11.5,0.1-17.2c-0.3-8.7-0.9-17.4-1.5-26.1c-1.5-21.3-3.5-42.6-5.3-63.9
	c-0.8-10.2-1.7-20.2-1.9-30.4c-0.6-22.3-0.4-44.7-0.1-67c0.3-29.5,0.8-58.9,1.5-88.4s1.3-56.5,2.1-84.7c0.5-18.6,1-37.1,1.6-55.7
	c0.9-23.2-0.7-46.3-4.5-69.2c-2.3-13.7-6.1-27.2-11.3-40.1c-7.8-18.8-21.1-33.7-37.1-46c-18.6-14.2-39.9-24.6-60.5-35.5
	c-18-9.6-35.6-20-52.7-31.2c-2.9-1.7-5.6-3.7-8.2-5.8c-2.7-2.3-0.5-2.9,0.5-5.2s-0.6-2.7-1.8-3.1H519c-1.1-0.3-2.2,0.2-2.8,1.1
	c-1.3,2.2,0.9,0.2-0.8,1.1l-0.9,0.4c-1.3,0.8-1.6,2.5-2,3.8c-0.8,3.1,4,4.5,4.8,1.4s-0.5,0-1-0.7s1.1-0.2,1.4-0.3s2.1-1.9,2.8-3.2
	l-2.8,1.2h0.2l-1.7-3.1v0.2l1.1-1.5c-2.7,1.7-3.9,5.1-2.8,8.2c0.9,2.1,3,3.5,4.8,4.9c6.5,4.9,13.5,9,20.4,13.3
	c18.9,11.6,38.2,22,57.8,32.4s39.8,21.9,55.8,37.9c12,12.1,20,26.3,25.2,42.4c5.1,15.8,8.3,32.2,9.8,48.7c1.5,13.3,2.1,26.6,1.8,40
	l-1.2,40.6c-0.7,25.5-1.3,51-2,76.5c-0.7,29.5-1.3,59-1.8,88.5c-0.4,25.6-0.7,51.3-0.6,76.9c0.1,22,1.6,43.5,3.4,65.4
	c1.8,20.4,3.6,40.8,4.9,61.3c0.5,7.6,0.9,15.2,0.9,22.9c0.1,4.2,0.5,9.3-1.4,13.2c-3,6.2-10.5,9.4-16.7,11.3
	c-10.3,3.1-21.4,3.5-32.1,2.8c-11.1-0.7-22-3.3-32.3-7.6c-6.6-2.8-13.5-6.4-18.5-11.8c-1.3-1.4-2.1-3.1-2.4-5c-0.6-4-1.5-8-2.5-11.9
	c-0.9-3.1-5.7-1.8-4.9,1.3L582.8,1454.2z"/>
<path d="M469.5,754.4c-4.1-8,7.5,25.4,12.2,33.1c8.3,13.7,8.3,13.1,15,19s18.4,4.7,18.4,4.7l1.6-7.8
	C516.7,803.4,489.6,793.5,469.5,754.4z"/>
<path d="M537,589.6c-6.5,15.5-14.4,30.8-26.7,42.4s-27.7,18.5-43,24.6c-3,1.1-1.7,5.9,1.3,4.8c16.2-6.5,32.4-13.9,45.2-25.9
	c12.8-12,21.2-28.3,28-44.6C543,588,538.2,586.7,537,589.6z"/>
<path d="M552.4,579.6c-0.4,14.8,12.8,26.6,23.7,34.7s24.3,15.8,32.3,27.8c1.8,2.6,6.1,0.1,4.3-2.5c-7.6-11.3-19-18.8-29.9-26.6
	s-25.9-18.8-25.5-33.4C557.4,576.4,552.4,576.4,552.4,579.6L552.4,579.6z"/>
<path d="M654.6,646.6c-0.6,4.2-1.2,8.5-2.9,12.4c-1.4,3.2-3.4,6.2-5.7,8.8c-4.8,5.5-10.7,9.8-16.7,13.9c-2.6,1.8-0.1,6.2,2.6,4.3
	c6.4-4.5,12.9-9.1,18-15.1c2.5-2.8,4.5-6,6.1-9.4c1.9-4.3,2.7-8.9,3.4-13.6c0.2-1.4-0.7-2.6-2.1-2.9
	C656.2,644.8,655,645.5,654.6,646.6L654.6,646.6z"/>
<path d="M602.8,615.4c1.8,0,4.3,3.2,5.5,4.5s3,3.1,4.4,4.7c3.1,3.5,5.8,7.2,8.2,11.2c4.7,7.8,8.1,16.3,10.2,25.1
	c0.7,3.1,5.5,1.8,4.8-1.3c-2.4-10-6.4-19.5-11.9-28.2c-2.8-4.3-5.9-8.3-9.3-12c-1.7-1.9-3.5-3.7-5.3-5.4s-3.8-3.6-6.6-3.6
	S599.6,615.3,602.8,615.4L602.8,615.4z"/>
<path d="M265.2,1076.2c-2.3,21.4-5,42.7-7.8,63.9c-4.2,31.1-9.7,61.9-13.9,93c-6.5,49-10.7,98.3-15.4,147.5
	c-2.1,22.1-4.1,44.2-6.5,66.2c-0.8,7.6-1.6,15.1-2.6,22.6c-0.5,3.9-0.8,8.1-2,11.8c-0.4,1,0.1,0.1-0.2,0.5c-1.1,1.3-2.5,2.5-4,3.3
	c-5.2,3.2-10.7,5.9-16.5,7.9c-16.1,6.1-33.5,9.8-50.8,9.7s-34.2-2.2-48.8-9.6c-7.9-3.9-14.2-9.7-13.5-19c1-11.3,2.7-22.6,4.3-33.9
	c2.8-20.7,5.7-41.3,8.6-62c6.8-48.7,13.8-97.3,20.5-145.9c5.7-41.2,10.4-82.6,17.1-123.6s14.5-84.2,22.4-126.1
	c5.4-28.4,15.2-55.4,32.5-78.8c8.3-11.2,18.1-21.3,29-30c11.9-9.4,25.2-16.4,38.6-23.3c17.3-8.8,34.9-16.9,52.8-24.4
	c16.4-7,33-14.1,49.9-19.8l16.5-5.2c4.7-1.5,9.2-3.7,13.3-6.4c13.5-8.5,25.3-19.4,34.9-32.1c9.4-12.6,16.5-26.8,20.8-41.9
	c0.9-3-3.9-4.4-4.8-1.3c-4.7,16.4-12.8,31.7-23.7,44.9c-5.3,6.4-11.2,12.3-17.7,17.5c-5.9,4.8-12.8,10.1-19.8,13.1
	c-4.2,1.8-8.9,2.8-13.1,4.1c-6.2,2-12.3,4.1-18.4,6.5c-18,6.9-35.8,14.1-53.4,21.9s-35.5,16.4-52.7,25.6c-12,6.3-23.2,14-33.4,22.9
	c-22.8,20.3-39.2,46.8-48.7,75.7c-5.3,16-8,32.7-11.1,49.3c-4.6,24.4-9,48.9-13.2,73.4c-4.7,27.3-9.2,54.6-12.8,82.1
	c-2.2,17.1-4.3,34.3-6.6,51.5c-6.6,48.5-13.5,96.9-20.4,145.3c-5.3,37.9-11.1,75.7-15.6,113.7c-0.4,3.8-1.2,7.9-0.8,11.7
	c1.4,11.7,13,18.2,22.9,21.8c15.8,5.9,34.1,7.9,50.9,7.1c16.9-0.9,33.5-4.6,49.1-11c5.2-2.2,10.6-4.5,15.3-7.8
	c2-1.4,4.2-3.1,5.2-5.5s1.5-7.4,2-10.9c2.5-17.5,4.1-35,5.8-52.6c4.9-50.9,9.3-101.9,15-152.7c2.6-23,5.9-45.8,9.5-68.7
	c5.5-34.7,10.2-69.6,14.3-104.5c0.7-5.8,1.4-11.6,2-17.5C270.6,1073.1,265.6,1073.1,265.2,1076.2L265.2,1076.2z"/>
<path d="M229.5,886.8c16.1,27.3,24.6,58.5,24.4,90.2c0,3.2,5,3.2,5,0c0.1-32.6-8.5-64.6-25-92.7C232.2,881.5,227.9,884,229.5,886.8z
	"/>
<path d="M356.8,803.4c4.9,13.7,17.1,23.2,29.5,29.9c12.7,7,26.4,11.9,40.6,14.5c13.2,2.3,26.7,3.5,40.1,3.4
	c14.6,0.2,29.6-0.6,43.9-3.9c11.4-2.7,25.1-7.5,29.9-19.3c1.2-3-3.6-4.3-4.8-1.3c-3.7,9.1-15.4,12.9-24.1,15.2
	c-13.3,3.4-27.3,4.3-41,4.4c-26,0.1-51.9-2.8-75.6-14c-13.4-6.3-28.5-15.6-33.7-30.2C360.6,799.1,355.8,800.4,356.8,803.4
	L356.8,803.4z"/>
<path d="M419.1,871.3c16.5,3,33.3,3.6,50,1.6c3.2-0.4,3.2-5.4,0-5c-16.2,1.9-32.6,1.5-48.7-1.4C417.3,866,415.9,870.8,419.1,871.3
	L419.1,871.3z"/>
<path d="M620.2,1010.9c-10.6,73.4-15.2,147.4-23.1,221.1c-2.1,18.9-4.3,37.8-6.9,56.6c-2.1,14.6-5.4,29-6,43.8
	c-0.2,3.8-0.2,7.7,0.1,11.5c0.3,4.1,1.3,8,1.7,12.1s-0.3,10.6-3.6,15.1c-4.6,6.2-12,10.7-11.7,19.2s4,19.7,6.7,29.1
	s6.5,19.6,6.1,29.5c0,0.7,0,1.4-0.1,2.1c-0.1,0.4-0.6,2.1-0.4,1.7c-0.4,0.7-0.8,1.3-1.4,1.8c-2,1.7-4.2,3.1-6.6,4.2
	c-7.9,4.1-16.7,6.9-25.2,9.4c-27.5,8.2-55.9,13.4-84.2,17.3c-33.5,4.6-67.7,7.5-101.5,6c-30.4-1.4-60.5-6.2-89.8-14.1
	c-15.5-4-30.7-9-45.6-15c-0.4-0.1-0.8-0.3-1.1-0.5l-0.6-0.2c-2.9-1.3-5.4,3-2.5,4.3c10.5,4.5,21.3,8.3,32.2,11.6
	c26.5,8.1,53.7,13.8,81.3,16.9c34.5,3.8,69.2,2.5,103.7-1.1c31-3,61.7-8.3,91.9-15.6c11-2.6,21.9-5.9,32.5-9.8
	c6.4-2.3,13.5-4.9,18.6-9.5s4-12.3,3-18.5c-1.8-11-5.5-21.6-8.5-32.4c-1.4-4.6-2.5-9.3-3.3-14c-0.5-3.5-0.5-6.2,1.5-9
	s5.9-6.5,8.5-9.9c3.1-3.9,4.9-8.6,5.2-13.6c0.2-3.6-0.2-7.1-1-10.6c-0.7-4.2-1-8.4-1-12.7c0-8.1,0.7-16.2,2-24.2
	c2.5-16,5.1-31.9,7.1-48c9.3-75,13.7-150.6,23.1-225.6c1.2-9.3,2.4-18.5,3.7-27.7C625.5,1009.1,620.7,1007.7,620.2,1010.9
	L620.2,1010.9z"/>
<path d="M350.2,1441.1c56-4,112.6-11.4,165.1-32.1c14.7-5.7,29-12.5,42.6-20.5c2.7-1.6,0.2-5.9-2.5-4.3
	c-48.3,28-103.4,41-158.3,47.5c-15.6,1.9-31.2,3.3-46.9,4.4C347,1436.3,347,1441.3,350.2,1441.1L350.2,1441.1z"/>
<path d="M638.8,916c-9,18.3-15.3,37.9-18.6,58.1c-0.5,3.1,4.4,4.5,4.9,1.3c3.1-19.8,9.2-39,18.1-56.9
	C644.6,915.6,640.3,913.1,638.8,916L638.8,916z"/>
<path d="M591.3,1427.6c19.8,20.5,48.3,30.3,76.5,26.3c3.2-0.5,1.8-5.3-1.3-4.8c-26.5,3.6-53.2-5.8-71.7-25.1
	C592.6,1421.7,589,1425.2,591.3,1427.6z"/>
<path d="M109.5,1463.8c30.7-2.8,60.2-13.3,85.8-30.5c2.6-1.8,0.1-6.1-2.6-4.3c-24.8,16.8-53.4,27-83.2,29.8
	C106.4,1459.1,106.3,1464,109.5,1463.8z"/>
<path d="M590.6,1474.6c4,17.2-5.3,34.2-10,50.3c-4.7,16.1-7.3,32.8-7.7,49.6c-0.5,16.4,0.7,33.5,4.9,49.4c1.2,4.7,5.3,11.7,11.2,8.9
	c2.8-1.3,3.9-4.3,4.9-7.1c1.2-3.8,2-7.7,2.4-11.7c1-9.2,0.3-18.4,1.3-27.5s2.2-17.1,4.9-24.9c1.1-3.1-3.7-4.4-4.8-1.3
	c-2.2,6.3-2.9,12.9-4,19.4c-1.1,7.1-1.7,14.4-1.7,21.6c-0.2,7.6-0.4,15.3-2.8,22.6c-0.4,1.3-0.9,3.8-2.4,4.3s-2.3-1-3-2.2
	c-1.8-3.2-2.2-7.6-2.9-11.2c-5.6-30.5-3.7-61.8,5.4-91.4c5-16.2,13.2-32.7,9.1-50.1C594.7,1470.2,589.9,1471.5,590.6,1474.6
	L590.6,1474.6z"/>
<path d="M596.3,1564.9c1.2,13.5,4.8,26.9,4.4,40.5c-0.1,6.8-1.4,13.6-2,20.4s-1.1,12.1-1.6,18.1s-3.4,27,8.3,26.7
	c5.4-0.1,8.6-5.1,10.1-9.7s3.2-12.4,4.6-18.5c3.2-14.5,6-29,7.8-43.7c0.4-3.2-4.6-3.2-4.9,0c-1.5,11.5-3.6,22.9-6,34.3
	c-1.1,5.6-2.4,11.2-3.7,16.8s-1.8,12.5-6.1,15.2s-5.7-7.7-5.7-10.7c0-5.3,0.6-10.7,1.1-16s0.9-10.7,1.5-16s1.6-11.9,1.6-18
	c0.2-13.2-3.3-26.2-4.4-39.4C601,1561.8,596,1561.7,596.3,1564.9L596.3,1564.9z"/>
<path d="M610.4,1666.7c3.2,5.1,9.9,3.8,13.4-0.3s8.2-13.1,11.3-19.7c6.4-14,10.6-28.9,12.6-44.1c0.4-3.2-4.6-3.2-5,0
	c-1.6,12-4.7,23.8-9.2,35.1c-2.2,5.6-4.8,11.1-7.7,16.4c-1.1,2-7.8,15.2-11.1,10C613,1661.4,608.7,1663.9,610.4,1666.7z"/>
<path d="M668.4,1490.8c-2.1,7.4-1.9,15-1.2,22.6s1.6,15.2,1.7,22.9c0.3,14.9-0.7,29.9-3,44.6c-3.7,24.6-10.1,50-21.6,72.2
	c-1.7,3.4-3.5,7.2-6.4,9.7s-4.2,2.5-5.9,0.3c-0.5-0.9-0.8-1.8-1.1-2.7c0-0.3-0.3-1.7-0.2-0.9c-0.3-3.2-5.3-3.2-5,0s1.7,6.9,4.6,8.8
	c4.6,2.8,9.8-0.2,12.8-3.7s4.4-6.7,6.1-10.2c2.6-5.2,5-10.6,7.1-16.1c10.7-28.4,16.6-58.4,17.5-88.7c0.4-9.3,0.2-18.7-0.7-28
	c-1-9.9-2.6-19.8,0.1-29.5C674.1,1489,669.3,1487.7,668.4,1490.8L668.4,1490.8z"/>
<path d="M99.7,1496.2c-4.2,20.4-8.4,40.9-12.5,61.3c-2,9.9-4.2,19.9-4.6,30s1,19.8,2.5,29.6c2.9,19.3,5.5,39.3,12.6,57.6
	c2,5.2,7.5,15.4,14.6,12.7s4-11.9,2.8-17.3c-4-18-7.6-36-10.4-54.2c-0.5-3.2-5.3-1.8-4.8,1.3c2.2,14.6,5.1,29.1,8.1,43.6
	c0.7,3.4,1.4,6.8,2.2,10.2s2.8,8.1,1.5,10.6s-6.1-2.2-7.1-3.9c-1.9-3.4-3.3-7-4.3-10.8c-5.3-17-7.9-34.7-10.6-52.3
	c-1.3-9.2-2.6-18.4-2.1-27.7s2.4-18.4,4.3-27.5c4.1-20.6,8.3-41.2,12.6-61.8C105.2,1494.4,100.3,1493.1,99.7,1496.2L99.7,1496.2z"/>
<path d="M104.1,1634.7c2.1,14.4,5.7,28.6,10.9,42.2c3.5,9.3,9.3,27.3,22.8,23.1c1.3-0.4,2.1-1.8,1.8-3.1
	c-4.3-12.6-7.7-25.5-10.3-38.6c-2.8-13.4-5.4-27.2-5.3-40.9c0-3.2-4.9-3.2-5,0c-0.1,13.9,2.5,27.8,5.3,41.3
	c2.6,13.4,6.1,26.7,10.5,39.6l1.7-3.1c-6.1,1.9-10-4.2-12.2-8.9c-2.6-5.6-4.9-11.3-6.9-17.2c-3.9-11.7-6.7-23.6-8.5-35.8
	C108.4,1630.2,103.6,1631.5,104.1,1634.7z"/>
<path d="M131.8,1689.2c2.1,6.2,7,17.4,15.5,14.4s3.5-19.3,2.1-25.6c-2-8.9-2.6-18.1-3.1-27.1c-0.6-11-0.7-21.9-0.2-32.9
	c0.1-3.2-4.9-3.2-5,0c-0.8,16.9-0.3,33.8,1.7,50.6c1,7.9,3.6,15.6,4.3,23.5c0.2,1.9,0.6,4.5-0.8,6.1s-2.6,0.9-3.9-0.1
	c-3.1-2.5-4.5-6.6-5.8-10.2S130.7,1686.2,131.8,1689.2L131.8,1689.2z"/>
<path d="M141.5,1656.4c0.8,9.4,3.6,18.2,6.8,27c2.4,6.6,5.2,15.9,11.7,19.6s13.5-4.1,13.9-11.1c0.3-4.8-0.9-9.6-1.8-14.2
	c-1.3-6.6-2-13.2-2.2-19.9c-0.5-14.7,1.6-29.4,6-43.5l-3.7,1.4c5,3.6,6.6,10,7.9,15.6s2.3,11.9,4.7,17.4s4.9,9.4,9.9,9.4
	s6-3.5,7-6.8c2.8-8.6,1.9-19.1,0.5-28c-2.8-18.7-6.8-37.2-10.1-55.8c-3.9-21.8-7-43.8-7.2-65.9c0-3.3-5-3.3-5,0
	c0.3,36.3,8.4,71.9,14.8,107.4c2,11,4.1,21.9,3.5,33.2c-0.2,2.4-0.2,9.1-2.8,10.6s-6.1-6.1-6.8-8c-4-11.1-3.3-25.8-13.8-33.4
	c-1.3-0.7-2.8-0.2-3.5,1.1c-0.1,0.1-0.1,0.3-0.2,0.4c-6.6,21.2-8,43.7-3.9,65.5c0.8,4.3,2,8.7,1.8,13.1c-0.2,2.8-1.3,8.2-5.1,7.7
	s-4.5-3.4-5.7-5.4c-1.9-3.4-3.4-6.9-4.7-10.6c-3.2-8.7-6.2-17.5-7-26.8C146.2,1653.2,141.3,1653.2,141.5,1656.4L141.5,1656.4z"/>
<path d="M109,1501.2c0,0,11.7,11,39.5,11.7s32.7-2.1,32.7-2.1l0.4-11C181.6,1499.8,147.4,1513.3,109,1501.2z"/>
<path d="M595.1,1480c0,0,21.6,14.8,42.2,20.4s32.3-2.7,32.3-2.7l2.3-8.3c0,0-12.8,8.1-38,0.9s-39.5-13.9-39.5-13.9L595.1,1480z"/>
<path d="M547.3,1212.8c-25.1,36.7-52.5,72-84.1,103.3s-65.3,56.6-104.1,75.4c-21.7,10.6-44.5,18.4-68.1,23.4
	c-3.2,0.7-1.8,5.5,1.3,4.9c42.3-8.9,81.9-27.6,117.2-52.2s68.4-57.1,96.6-91.4c16.2-19.5,31.2-40,45.5-60.8
	C553.5,1212.7,549.1,1210.2,547.3,1212.8L547.3,1212.8z"/>
<path d="M173.4,1702.4c-4.7,33.6-6.1,67.6-7,101.5c-1.1,39.4-1.1,78.8-0.9,118.2c0.1,33.1,0.6,66.2,0.5,99.3
	c0,12.8-0.4,25.5-0.6,38.3l-0.6,51.3c-0.2,26.6-0.3,53.1-0.3,79.7c0.1,28.4,0.2,56.8,0.8,85.2c0.4,22.7,0.9,45.4,2.6,68
	c0.4,7,1.2,14,2.3,21c0.6,3.2,1.2,7.7,4.2,9.5s9.2,3.9,13.7,5.2c7,1.8,14.1,3.3,21.3,4.3c22.9,3.4,46,5,69.2,5
	c14.7,0,31.9,0.2,45.5-6.1c4.7-2.1,7.8-5.2,8.4-10.3c1.7-13.5,2.6-27.3,3.7-40.9c2-26.1,4-52.2,5.9-78.2c2.5-32.5,4.8-65,7.2-97.4
	l7.2-98.2c2-27,3.9-53.9,6-80.8s4.2-50.9,6.9-76.3c3.8-35.8,8.1-71.5,12.6-107.2c3.8-30.3,7.7-60.5,12-90.7
	c1.2-8.6,2.4-17.1,3.9-25.7c0.2-1.6,1.2-3.9,1-5.5c0-0.1,0.2-0.3,0.1-0.4s-5.1,0.3-4.7-0.5c0,0.3,0,0.7,0,1
	c-0.4,10.4-0.3,20.8-0.5,31.2l-1.2,65.2c-0.6,29-1.1,57.9-1.7,86.8c-0.7,31.8-1.3,63.7-2,95.5l-2.1,92.6c-0.7,25.7-1.3,51.4-2.1,77
	c-0.5,19.1-1.2,38.1-2.1,57.2c-2,41.8-4.4,83.6-5.4,125.5c-0.3,16.5-0.6,33,0.2,49.5c0.2,5.5,0.7,10.9,1.5,16.3
	c0.5,3.1,1,6.7,2.8,9.3c3.5,5.2,13.5,5.9,18.9,6.8c13,2.1,26,3.5,39.1,4.2c29.4,1.9,59.6,2.9,88.9-0.4c5-0.5,9.9-1.3,14.8-2.5
	c2.8-0.7,6.3-1.5,8.5-3.5s3.5-6.2,4.4-9.4c4-14.5,5.1-29.9,6.5-44.8c2.2-24.3,3.6-48.7,4.7-73.1c1.5-30.5,2.5-60.9,3.4-91.4
	c0.9-33,1.7-66.1,2.2-99.2c0.6-32.1,1-64.3,1.4-96.5c0.3-27.7,0.6-55.5,0.8-83.2c0.2-20.4,0.3-40.8,0.6-61.2
	c0.5-48.1,1.9-96.2,3.9-144.3c0.8-18.7,1.7-37.4,2.9-56c0.2-3.2-4.8-3.2-5,0c-1.3,19.6-2.1,39.3-3,58.9c-2,47.8-3.3,95.6-3.8,143.5
	c-0.3,20-0.4,40.1-0.6,60.1c-0.2,27.8-0.5,55.6-0.8,83.4c-0.4,31.9-0.8,63.9-1.4,95.8s-1.3,65.8-2.2,98.7
	c-0.8,30.2-1.9,60.4-3.3,90.6c-1.2,24.4-2.5,48.8-4.7,73.1c-1.4,14.7-2.5,29.9-6.4,44.2c-0.2,1-0.5,2-0.9,3c-0.2,0.7-0.5,1.4-0.8,2
	c-0.3,0.6-0.6,1.2-1,1.8c0.2-0.2-0.6,0.5-0.2,0.3c-7.2,4.3-17.6,4.6-25.7,5.3c-29.8,2.6-60.2,1.6-90-0.7c-12-0.9-24.1-2-36-4.4
	c-3.3-0.5-6.5-1.4-9.5-2.7l-1.1-0.6l-0.4-0.5c-0.6-1.1-1.1-2.3-1.3-3.5c-2.9-11-2.5-23.1-2.7-34.3c-0.2-18.2,0.3-36.5,0.9-54.7
	c1.4-39.7,3.7-79.4,5.4-119c0.8-18,1.3-36,1.8-54c0.8-26.4,1.4-52.9,2.1-79.4l2.1-93.5c0.6-31.5,1.3-63,1.9-94.5
	c0.6-28,1.1-55.9,1.7-83.9c0.3-20.4,0.7-40.9,1.1-61.3l0.3-18.2c0-2.6,0.4-5.4,0.1-8s-3.8-4-5.1-1c-0.4,1.4-0.7,2.9-0.9,4.4
	c-1.3,7.8-2.4,15.6-3.5,23.5c-4.2,29.1-8,58.2-11.8,87.4c-4.5,35.6-8.8,71.3-12.7,107c-2.8,26.3-5.3,52.6-7.3,78.9
	s-3.9,51.9-5.9,77.9c-2.3,32.1-4.7,64.2-7,96.4l-7.2,97.5c-2,27-4,54-6.1,81.1c-1.2,15.3-2.3,30.8-4,46.1l-0.3,2.5
	c0.1-0.4,0,0.4-0.1,1c-0.6,1.6-1.8,2.9-3.4,3.7c-4.4,2.8-9.9,3.9-15,4.7c-9,1.5-18.2,2.1-27.3,2c-23.5,0.2-46.9-1.3-70.1-4.7
	c-7.1-1-14.2-2.4-21.2-4.2c-4.7-1.4-9.2-3.1-13.7-5c0.2,0.1,0.3,0.7,0-0.1s0,0.1-0.2-0.4s-0.3-0.8-0.4-1.1c-0.6-2.1-1-4.3-1.3-6.5
	c-1.1-7-1.7-14.3-2.1-21.5c-1.6-23.1-2.1-46.4-2.5-69.5c-0.5-28.3-0.7-56.5-0.7-84.8c0-26.1,0.1-52.3,0.3-78.4l0.6-49.3
	c0.2-13.4,0.6-26.8,0.6-40.1c0.1-33.3-0.4-66.5-0.6-99.8c-0.2-39.2-0.1-78.5,1.1-117.7c0.9-32.4,2.2-64.9,6.7-97.1
	C178.6,1700.6,173.8,1699.3,173.4,1702.4L173.4,1702.4z"/>
<path d="M396.7,1678.7c8.1-33.1,17.4-66.5,30.7-97.8c3.2-7.9,7-15.5,11.4-22.8c1.7-2.8-2.6-5.3-4.3-2.5c-8.4,13.7-14.3,29-19.7,44.1
	c-6.2,17.2-11.5,34.7-16.3,52.4c-2.3,8.4-4.5,16.8-6.6,25.2C391.1,1680.5,396,1681.8,396.7,1678.7L396.7,1678.7z"/>
<path d="M368.5,2478.4c-8-5.3-16.2-10.4-24.1-15.8s-14.5-9.6-20.6-15.7c-2.8-2.8-5.2-5.6-8.4-7.9c-5.2-4-11.3-6.5-17.8-7.4
	c-15-1.9-25.7,10.9-35.9,19.8s-26.9,13-41,12c-6.7-0.5-12.9-3.6-18.6-6.8c-3.5-1.9-7.8-5.3-12-5.3c-6.7,0.1-5.6,11.1-5.8,15.4
	c-0.2,10.5,0.1,21,0.6,31.5c0.3,9.2,1,18.4,2.3,27.6c3,19.2,23.5,25,39.9,28.3c9.1,1.8,18.3,3.2,27.4,5.3c9.1,2.1,15.3,3.7,22.9,5.9
	c11.3,3.3,22.3,7.4,33.7,10.5c10,2.4,20,4.4,30.2,5.7c13.2,1.9,26.4,3,39.7,3.5c11.8,0.4,24,0.3,35.5-2.3s21.1-6.1,29.6-12.1
	s15-16.2,14.7-27.7s-5.6-24.4-15.5-31.9s-19.6-9.2-30-11.9c-5.1-1.2-10.1-2.7-15-4.6c-5.2-2-10-5-15.1-7.5
	C379.5,2484.4,373.9,2481.6,368.5,2478.4c-2.7-1.8-5.2,2.5-2.5,4.3c5,3.2,10.6,5.7,15.9,8.3s9.8,5.2,14.8,7.4
	c9.3,4.1,19.5,5.7,29.1,8.8s19.8,8,25.1,17.5s7.2,23.9,0.6,33.7s-16.3,13.2-25.8,16.4c-10,3.4-20.4,5.1-30.9,5.3
	c-24.1,0.7-48.6-2.1-72.2-6.8c-9-1.8-17.7-4.6-26.5-7.4c-13.1-4.2-26.3-8.2-39.8-11.2c-15.3-3.5-31.3-4.8-46-10.5
	c-6.8-2.5-13.6-6.5-16.6-13.4s-2.4-12.2-2.9-18.1c-0.8-10.4-1.3-20.8-1.5-31.3c-0.1-7.6-0.6-16.1,0.6-23.6l0.3-1.2
	c0.1-0.6,0-0.5,0.1-0.5s0.2,0.3,0.2,0.2s1.9,0.7,2.8,1.2c4.9,2.4,9.4,5.3,14.4,7.5c12.4,5.3,27.4,4,40.1-0.2
	c5.9-1.9,11.4-4.9,16.1-8.8c5.5-4.5,10.3-9.8,16.1-14s12.4-6.7,19.8-5c5.7,1.4,10.9,4.2,15.2,8.1c3.5,3,6.3,6.5,9.9,9.5
	c6,4.9,12.5,9.2,18.9,13.6s14.8,9.6,22.2,14.5C368.7,2484.4,371.2,2480.1,368.5,2478.4z"/>
<path d="M441,2548.8c-20.2,8.9-42.8,10.8-64.5,9.7c-11.8-0.6-23.5-2.1-35.1-4.3c-8.3-1.5-17-3-24.9-5.9l-16.8-5.8
	c-5.6-1.8-11.5-4.1-17.4-4.7c-10.7-1.2-21.3-2.4-31.9-4.1c-9.1-1.4-18.1-3.3-27-5.7c-7.4-1.9-15-4.2-21.5-8.2
	c-2.8-1.6-5.3,2.7-2.5,4.3c12.7,7.8,28.8,10.6,43.3,13.3c12.4,2.2,25,4.1,37.6,5.2c4.9,0.4,9.6,2,14.2,3.5c6.3,2,12.6,4.1,18.9,6.4
	s14.4,4,21.8,5.6c11.5,2.4,23.1,4,34.8,5c24.8,1.9,50.5,0.1,73.5-10C446.4,2551.8,443.9,2547.5,441,2548.8z"/>
<path d="M197.6,2376.2c-2.8-0.2-3.7,2.6-3.8,4.8s-0.1,6.7,0,10.1c0,7.6,0.3,15.2,0.7,22.8c0.7,15.2,1.8,30.5,2.7,45.7
	c0.1,3.2,5.1,3.2,4.9,0c-0.7-13.5-1.7-26.9-2.4-40.4c-0.3-6.8-0.6-13.5-0.8-20.3c-0.1-3.2-0.1-6.5-0.1-9.7c-0.1-1.4-0.1-2.8,0-4.2
	c0-0.6-0.4-4.2,0.1-4.6l-1.8,0.8h0.5C200.8,2381.5,200.7,2376.5,197.6,2376.2L197.6,2376.2z"/>
<path d="M293,2385c-2.4,3.2-2.2,7.3-2.3,11.1s-0.4,8-0.7,11.9c-0.7,8.1-1.5,16.3-1.4,24.4c0,3.2,5,3.2,5,0
	c-0.1-7.6,0.6-15.3,1.2-22.9c0.3-3.8,0.6-7.6,0.8-11.4s-0.5-7.6,1.7-10.6S294.9,2382.4,293,2385L293,2385z"/>
<path d="M417.2,2388.4c0.7,19.6,0.8,39.1,0.5,58.7c-0.1,3.2,4.9,3.2,5,0c0.3-19.6,0.2-39.1-0.5-58.7
	C422.1,2385.2,417.1,2385.2,417.2,2388.4z"/>
<path d="M559.2,634.4c-2.6,4.3-8.7,5.5-13.1,6.7c-6,1.7-12.2,2.8-18.4,3.5c-1.4,0-2.5,1.1-2.5,2.5s1.1,2.5,2.5,2.5
	c7.1-0.8,14.1-2.1,20.9-4c5.5-1.6,11.8-3.4,14.9-8.7C565.1,634.1,560.8,631.6,559.2,634.4L559.2,634.4z"/>
<path d="M370.9,1494.2c0,0,80.7,2.1,143.7-6.2s74.7-16.8,74.7-16.8l-4.1-17.6c0,0-5.7,13.2-76.5,28.9S370.9,1494.2,370.9,1494.2z"/>
<path d="M612.4,1108.9c0,0-3.4,170.8-6.3,185.8s-17.3,52.5-17.3,52.5s-1.8-27.7,1.7-46.1s6.9-55.4,6.9-55.4L612.4,1108.9z"/>
<path d="M259.3,1151.6c0,0-18.5,159.3-15.6,204.3c1,16.1-6.6,58.5-6.4,77.9s15.3,30.8,13.3,33.4c-4,5.2-27.3-5.1-27.3-5.1
	s6.5-94.7,7.7-105.7S259.3,1151.6,259.3,1151.6z"/>
<path d="M425.2,2347.5c28.1-61.8,52.6-125.2,73.4-189.9c5.9-18.4,11.5-37,16.8-55.6c0.9-3.1-3.9-4.4-4.8-1.3
	c-18.5,65.1-40.8,129-66.7,191.5c-7.4,17.7-15,35.3-23,52.8C419.6,2347.9,423.9,2350.4,425.2,2347.5z"/>
<path d="M205.3,2353c7.9,1.2,13.7-4.1,17.8-10.3c5.4-8.3,9-18,13.1-27c9-19.6,17.6-39.3,25.7-59.3c16.3-39.8,30.8-80.3,43.5-121.4
	c7.2-23.3,13.9-46.9,19.9-70.5c0.8-3.1-4-4.5-4.8-1.4c-10.2,40-22.1,79.5-35.6,118.5c-13.7,39.3-29,78.1-46,116.1
	c-4.6,10.5-9.5,21-14.4,31.4c-3.1,6.6-8.4,20.6-17.9,19C203.5,2347.6,202.1,2352.5,205.3,2353L205.3,2353z"/>
<path class="st6" d="M304,359.4c19.6,24.4,57.1,44.3,100.3,43.3c71-1.6,84.3-59.9,89.8-56.3c24.4,16.3,82.6,46,142.1-6.5
	c13.2-11.6,21.6-34.1,23-51.6c2.2-28.7,1-67.3-37-90c-18.8-11.3-55.5-18.2-80.5,3.5c27.8-12.3,24.7-60.2,1.3-85.6
	c-20.6-22.3-43.4-32.2-73.8-32.8s-56.9,13.5-75.4,38.6c14.1-33.3-6.8-74.5-35.5-96.5S284.4-4.6,249.9,6.1s-50.3,22.3-73,50.5
	c-15.8,19.7-30.8,65.3-15.9,85.8c-24.7-15.2-68.9-11.7-94.8,1.2s-41.5,27.3-54.5,53.2c-10.4,20.8-12.1,48.5-4.5,71.5
	s26.7,46.5,49.4,57.4s65.5,7.7,72.5,5.9c4.4-1.1,4.2,53,76.1,66C266.6,408.6,304,359.4,304,359.4z"/>
<path d="M365.6,395.9l1,0.4L365.6,395.9z"/>
<path d="M366.6,396.3l1.5,0.6L366.6,396.3z"/>
<path d="M368.1,396.9l0.3,0.2L368.1,396.9z"/>
<path d="M364.9,395.7c0.1,0,0.2,0,0.2,0.1L364.9,395.7z"/>
<path d="M365.1,395.8L365.1,395.8z"/>
<path d="M295.8,326.6l-0.2-1c-3.1,17.7,8.4,33.8,8.4,33.8c30.1,34.5,60.9,36.3,60.9,36.3C314.6,382.5,295.8,326.6,295.8,326.6z"/>
<path d="M368.4,397.1l5.2,2L368.4,397.1z"/>
<path d="M378.5,401l3.7,1.4L378.5,401z"/>
<path d="M373.6,399.1l3.3,1.3L373.6,399.1z"/>
<path d="M376.9,400.4l1.6,0.6L376.9,400.4z"/>
<path d="M146.4,178.2c9-28.4,35.8-49.9,65.5-52.4c3.1-0.3,3.2-5.3,0-5c-32,2.8-60.6,25.4-70.3,56
	C140.6,179.9,145.4,181.2,146.4,178.2L146.4,178.2z"/>
<path d="M81.7,137.6c0,0,52.4-11,69.5,22.3l13.2-14.8C164.4,145.1,128,126.3,81.7,137.6z"/>
<g>
	<g>
		<path d="M395,121.3c-0.3,0.3-0.3,0.4-0.3,0.4C394.8,121.6,394.9,121.4,395,121.3z"/>
		<path d="M456.5,84.4c1.2-0.5,1.9-0.7,1.9-0.7s11.5-3.1,6.8-3.5c-31-2.8-65,15.8-65.9,15.8l-0.3,19.3c1.1-1.2,2.4-2.4,3.9-3.7
			c-2.7,2.9-5.4,6.1-7.9,9.7c0.9-1,4.7-4.3,20.7-15.6c4.4-3.1,12.2-7,18.1-10.5c19.2-11.6,41.6-10.8,41.6-10.8
			S467.8,83.1,456.5,84.4z"/>
	</g>
	<path d="M559.4,181.2l-2.3,10c21.7-8,54.2-0.9,54.2-0.9C592.4,178.3,559.4,181.2,559.4,181.2z"/>
</g>
<path d="M302.3,361.1c15.6,19.4,38.5,32.6,62.3,39.2s52.2,7.4,76.1-1.9c15.6-6.1,29.3-16.4,39.5-29.7c3.5-4.4,6.6-9.2,9.7-14
	c1-1.6,1.9-3.2,3-4.7c0.3-0.4,0.6-0.8,0.9-1.1c0.6-0.6,0.3-0.2,0.1-0.2s-0.9,0.1-0.7,0s-0.9-0.7,0,0.1l0.8,0.5l4.6,2.8
	c3.6,2,7.3,3.8,11,5.5c8.8,3.9,18,7,27.4,9.1c21.8,5,45.2,4.8,66.3-3.2c11.9-4.7,22.8-11.6,32.2-20.3c8.8-8.2,14.9-19.1,19.5-30
	c8.4-20,9.3-43.4,5.2-64.7c-4.5-22.9-18.4-42.6-39.1-53.7s-44.8-13.2-65.5-4.5c-5.7,2.4-11,5.7-15.7,9.8c-2.3,1.9,0.7,5,3,3.9
	c14.1-6.4,20.4-21.5,21.1-36.2c0.6-17-4.4-33.7-14.4-47.5c-23.5-32-66.8-46.2-105-36.6c-21.7,5.4-39.7,19.2-52.9,37.1l4.5,1.9
	c11.1-27,0.5-57.4-16.5-79.3c-8.6-11.2-19.3-20.5-31.5-27.4c-12.7-6.8-26.4-11.4-40.6-13.8c-14.3-2.5-28.9-2.9-43.3-1.1
	c-13.8,1.8-27.1,6.2-39.7,11.9c-11.2,5.1-21.4,11.8-30.5,20.1c-9.6,8.7-19.1,18.9-26.3,29.8c-8,12.6-13.1,26.7-15.2,41.5
	c-1.9,13-1.7,28,6.2,39.2l3.4-3.4c-21.3-12.9-49.9-12.3-73.5-7s-46.7,18.6-62.6,37C7.9,191.3-2,218.3,0.3,246.3s17.1,54.5,39.4,71.8
	c9.5,7.5,20.6,12.7,32.4,15.1c11.6,2.2,23.5,3.2,35.3,2.7c4.6-0.1,9.3-0.3,13.9-0.7l5.1-0.6c0.5-0.1,3.1-0.1,3.4-0.6
	s-1.6-0.5-1.9-0.5s-0.2,0.1,0-0.1c0.2-0.2,0.7,1.5,0.5,1c0.6,1.5,1,3,1.5,4.5c4,12,9.6,23.3,18.2,32.7
	c14.8,16.2,36.1,24.9,57.4,28.5c36.9,6.3,75.1-9,99.1-37.5l1.6-2c1.9-2.5-2.4-5-4.3-2.5c0.8-1.1-0.8,1-1.1,1.3s-2.7,3-4.1,4.4
	c-4.7,4.9-9.9,9.4-15.5,13.4c-16.8,12-36.8,19.4-57.6,19.5s-46.8-6.9-64.3-21.3c-10.4-8.7-18.3-20-22.8-32.8
	c-1.3-3.3-2.2-6.7-3.5-10c-0.4-1.2-1.2-2.3-2.2-3.1c-1.6-0.9-3.7,0-5.4,0.2c-8.6,1.3-17.5,1.4-26.2,1.3c-11.4-0.3-23-1.3-33.9-4.6
	c-24.9-7.6-45-31-54.2-54.6c-10.3-26.8-7.3-56.9,7-81.6c12.1-21,30.9-36.5,53.1-46.1c11.5-4.9,23.7-7.8,36.1-8.7
	c12.4-1.1,25.1-0.6,37.1,2.7c5.4,1.4,10.5,3.6,15.3,6.4c2,1.2,4.9-1.3,3.4-3.4c-6.7-9.5-7.2-21.8-6-33c1.5-12.7,5.3-25.1,11.4-36.4
	c5.8-10.9,14.4-20.4,23-29.2c8-8.3,17.1-15.4,27.2-21c23.5-12.9,50.3-18.4,77-15.9c27.1,2.6,53.8,12.6,72.9,32.5
	c20.4,21.4,34.8,54.2,22.8,83.3c-1.1,2.8,3.1,4,4.6,1.9c11-14.8,25.7-26.9,43.2-32.9s37.2-5.8,55.1-1.4
	c33.1,8.2,62.3,36.3,64.6,71.4c1,15.3-3.4,32.4-18.5,39.3l3.1,3.9c18.2-15.6,44.4-16.4,66.2-8.5c21.2,7.9,37.4,25.3,43.8,47
	c2.7,9.6,3.9,19.5,3.8,29.5c0.1,10.4-0.5,20.8-3.6,30.8c-3.7,11.5-9.3,23.3-17.2,32.6s-18.7,16.5-29.7,21.6
	c-20.1,9.2-43.1,10.4-64.7,6.1c-9.3-1.8-18.4-4.6-27.2-8.2c-3.8-1.6-7.5-3.3-11.1-5.2s-5.6-3.6-8.5-5.1s-5,0.9-6.6,3.1
	s-4.5,7.1-6.8,10.6c-7.8,11.8-17.6,22.2-29.9,29.5c-19.5,11.7-43,14.5-65.4,12.1c-25.4-2.8-50.6-13.1-69.7-30.2
	c-4-3.6-7.7-7.5-11.1-11.7C303.8,355.1,300.3,358.6,302.3,361.1z"/>
<path class="st2" d="M640.5,575.9c0.8,3.5,1.8,6.9,2.9,10.2l1.8,5c0.4,1.4,1.2,2.7,2.2,3.7c2.9,2.6,6.5,0.4,7.7-2.7s0-6.6-1.3-9.6
	c-0.5-0.9-1.6-1.3-2.6-0.8c0,0-0.1,0-0.1,0.1c-0.9,0.6-1.2,1.8-0.7,2.7c0.8,1.9,1.8,4.3,0.9,6.3c-0.1,0.4-0.4,0.8-0.7,1
	c-0.1,0.1-0.5,0.2-0.3,0.2s-0.2-0.1-0.1,0s-0.3-0.3-0.3-0.3c-0.3-0.4-0.5-0.8-0.7-1.3c-2-5-3.7-10.2-4.8-15.5
	C643.8,572.4,640,573.4,640.5,575.9L640.5,575.9z"/>
<path class="st2" d="M234.9,880.3c11.4,1.4,23-0.7,33.1-6.1c9.7-5.3,16-14.2,24.5-20.9c10.3-8.2,23.5-5.5,35.2-10s20-11.7,28.8-19.1
	c3-2.4-1.3-6.7-4.2-4.2c-8.8,7.4-18.1,15.1-29.2,18.6s-22.4,1.5-32.2,8.4c-8.2,5.8-14,14.4-22.5,19.9c-9.9,6.4-21.8,9-33.5,7.4
	C231.1,873.8,231.1,879.8,234.9,880.3L234.9,880.3z"/>
<path class="st2" d="M537.7,857.9c6.9,3.8,13.3,9.1,21,11.3s18.7,0.5,27.8,3.7c13.6,4.7,28.2,21.9,43.4,11.1c3.1-2.2,0.2-7.4-3-5.1
	c-7,4.9-15.1,1.5-21.7-2.5s-12.8-8.4-20.5-10.4s-15.9-0.5-23.6-2.4s-13.7-7.2-20.4-10.9C537.4,850.9,534.3,856,537.7,857.9
	L537.7,857.9z"/>
<path class="st2" d="M205.1,902.1c-1.5,10.3-2.9,22.1-0.6,32.3c1.6,7.3,9.1,11.6,16,8.1s9.4-14,6.5-21.6c-2.1-5.5-6.5-10.1-9.4-15.1
	c-2-3.3-7.2-0.3-5.2,3c4.1,7,12.6,14.8,9.4,23.8c-1.2,3.1-4.8,6.2-8.3,4.8s-3.7-7.8-3.8-11.3c-0.3-7.5,0.1-15,1.2-22.4
	C211.5,899.9,205.7,898.3,205.1,902.1L205.1,902.1z"/>
<path class="st2" d="M440.6,574.6c2.9,2.1,6.8,2.3,10.2,1.3s6.7-3.6,9.3-6.3s4.7-5.7,7.5-8.2c2.8-2.4,6.3-3.8,10-3.8
	c3.9-0.1,7.9,0.4,11.8-0.6c3-0.8,5.8-2.1,8.3-3.9c5.3-3.7,9.6-8.6,14.7-12.5c2.8-2,5.8-3.8,8.9-5.2c3.4-1.7,6.4-3.8,7.8-7.4
	c0.3-1.1-0.3-2.2-1.3-2.5c0,0,0,0-0.1,0c-1-0.3-2.1,0.4-2.4,1.4c-1.1,2.6-3.9,4-6.3,5.2c-2.7,1.2-5.3,2.7-7.7,4.4
	c-5,3.6-9.1,8.2-13.9,11.9c-2.2,1.7-4.6,3.1-7.1,4.2c-3.4,1.2-6.9,1.1-10.4,1s-7.6,0.3-11,2.1c-3,1.7-5.6,4-7.8,6.7
	c-2.6,2.9-5.1,6.2-8.4,8.3s-7,2.6-10.1,0.5S438.5,573.1,440.6,574.6L440.6,574.6z"/>
<path class="st2" d="M436.7,604.5c-4.8,7.3-8.4,21.1-2.3,28.6c2.8,3.5,7.2,4.5,10.8,1.6s3.6-9,2.7-13.7c-0.5-2.9-4.8-1.7-4.3,1.2
	s0.9,4.6,0.3,6.6c-1.2,3.7-4.2,4-6.4,1s-1.6-5.2-1.5-7.7c0.2-5.4,1.7-10.8,4.6-15.4C442.2,604.3,438.3,602.1,436.7,604.5
	L436.7,604.5z"/>
</svg>
