<?xml version="1.0" encoding="utf-8"?>
<!-- Generator: Adobe Illustrator 23.1.1, SVG Export Plug-In . SVG Version: 6.00 Build 0)  -->
<svg version="1.1" id="Layer_1" xmlns="http://www.w3.org/2000/svg" xmlns:xlink="http://www.w3.org/1999/xlink" x="0px" y="0px"
	 viewBox="0 0 882.4 1162.5" style="enable-background:new 0 0 882.4 1162.5;" xml:space="preserve">
<style type="text/css">
	.st0{fill:#734C4C;}
	.st1{fill:#A096CF;}
	.st2{fill:#FEC3AA;}
	.st3{fill:#BFD7FF;}
	.st4{fill:#FFFFFF;}
</style>
<title>mental health problems</title>
<path class="st0" d="M307.1,129.8c0.3-2.1,10-61,58.3-85.8c0,0,24.2-11.4,44.3-10.7c1.3-2,52.3-29.5,109.3,0s80.4,89.8,87.8,116.6
	s5.4,68.4-5.4,132.1s0,95.9,36.9,122.7c0,0-72.4-15.4-107.9-20.7s-102,17.4-152.2-20.8S295,204.3,307.1,129.8z"/>
<path class="st1" d="M184.6,799.9c0.6-1.8,16.2,43.9,15.6,89s-10,136.7-10,136.7s-3.8,49.5,13.8,63.9s38.2,18.2,38.2,18.2
	s115.9,35,199.9,32.5s156.7-22.5,183-37.6s34.5-28.8,33.9-37.6s-35.1-122.8-37-123.4s-23.2-98.4-23.2-122.2s10-50.2,16.9-68.3
	s16.9-70.2,16.9-70.2l24.5,62.6c0,0-1.3,8.2,18.8,5.7s70.8-32.6,89-44.5s30.7-33.2,32.6-37.6s-79-174.2-79-174.2
	s-29.4-74.6-92.7-92.8s-82.1-11.3-116.6-22.6s-224.4,0-262,6.3S175.1,403.2,157,427s-43.3,86.5-57.1,132.9S54.8,687.8,47.3,699.7
	s-19.4,43.8-18.2,47.6s17.6,24.4,34.5,30.1S184.6,799.9,184.6,799.9z"/>
<path d="M454,887.1c0,0-97.2-39.9-148.5-68.3l-79.2-55.7c0,0,16.4,68.8,62.3,116.3s101.5,60.1,138.6,53.5s46-24.3,46-24.3L454,887.1
	z"/>
<path class="st2" d="M379.1,156.6c0,0,17.3-31.7,39.7-43.8s9.8,10.9,25.3,26.5s41.5,26.5,59.9,24.7c0,0,29.1,34.7,33.4,49.6
	c5.9,20.4,4,14.9,4,14.9s11.5-11.5,24.2-9.8s16.7,13.9,10.4,33.4s-12.8,20.4-22,25c-5.5,2.8-11.6,4.1-17.7,3.8
	c0,0-1.2,34.5-24.2,54.7s-29.4,26.5-29.4,26.5s5.3,39,11,53.5c2.6,6.8,0.6,26.5-28.2,36.8s-65.8,5.7-84.5-2.9
	c-40.6-18.5-25.8-38.6-21.2-63.3s-5.5-58.7-5.5-58.7s-15.5-19.5-15.5-39.7s-4-35.1-4-33.4s-11.5,6.4-21.3-8.6s-14.4-44.9-6.4-55.3
	s21.3-4.6,22.5-1.1l1.1,3.4C330.7,192.8,368.7,179,379.1,156.6z"/>
<path d="M332.3,252.9c-10.4,3.6-17.4-11.2-20.6-18.8c-3.6-8.9-5.3-18.4-4.9-28c0.3-6.7,1.9-21.8,11.9-20.4c5.2,0.7,8.9,5.2,10.4,10
	c1,3,5.8,1.7,4.9-1.4c-2-6-6.1-11-12.3-13s-12,1-15.4,6.1c-4.8,7.4-5,18.5-4.3,27.1c0.8,9.7,3.5,19.1,8.1,27.7
	c4.5,8.5,12.5,19.3,23.5,15.5C336.7,256.7,335.4,251.9,332.3,252.9L332.3,252.9z"/>
<path d="M540.1,283.5c10-1,19.4-2.6,26.4-10.3c6.5-7.3,11.1-16,13.5-25.5c2.2-8.5,2.2-19.3-3.9-26.2c-4.2-4.7-11.7-6.2-17.8-5.7
	c-7.4,0.7-13.9,4.9-17.6,11.3c-1.6,2.8,2.7,5.3,4.3,2.5c2.9-5.2,8.3-8.5,14.2-8.9c3.4-0.2,6.8,0.5,10,1.8c4.9,2.2,6.7,8.1,7.1,13
	c0.8,10.2-3.8,20.2-9.2,28.6c-2.7,4.3-6.1,8.4-10.7,10.8s-10.8,3.1-16.3,3.6C537,278.8,536.9,283.8,540.1,283.5z"/>
<path d="M332.5,242c0.1,8.7,0.3,17.5,1.2,26.1c0.5,4.9,1.5,9.7,2.2,14.6c0.9,6.9,2.2,13.7,4.1,20.4c3.2,11.7,8.3,22.7,15.1,32.7
	c7.6,10.6,18.1,18.7,27.7,27.5c7.9,7.3,16.2,14.6,26.5,18.5c12.1,4.5,25.2,2.6,37.1-1.4c15.1-5.2,29.5-12.3,42.8-21.1
	c10-6.4,19.1-14.2,26.9-23.1c6.3-7.1,11.1-15.4,14.3-24.3c6.3-17.4,11.3-35.3,16.1-53.1c0.8-3.1-4-4.4-4.8-1.3
	c-4.4,16-8.9,32.1-14.2,47.8c-2.8,8-5.8,15.4-10.8,22.3c-14.4,19.6-36.6,33.1-58.4,42.7c-12.7,5.6-27.1,11.1-41.1,8.5
	c-10.3-1.9-18.7-8.2-26.3-14.9c-4.5-3.9-8.7-8-13.1-12s-9.8-8.3-14-13.1c-7.8-9-13.3-19.9-17.1-31.1c-2.7-7.9-4.7-16.1-5.8-24.4
	c-0.5-4.7-1.6-9.4-2.1-14.1c-1-9-1.2-18.1-1.3-27.2C337.5,238.8,332.5,238.8,332.5,242L332.5,242z"/>
<path d="M390.9,213c0.7,1.1,1.2,2.4,1.4,3.7c0.5,3,0.4,6-0.2,8.9c-0.2,1.3-0.7,2.5-1.5,3.6c-0.8,1.1-2,1.7-3.3,1.8
	c-1.8,0-3.3-1.5-4.1-3.2c-1-2.2-1.2-4.6-0.8-6.9c0.5-2.3,1.2-4.5,2.3-6.6c0.3-0.8,0.8-1.5,1.5-2c0.8-0.5,1.8-0.7,2.7-0.6
	C389.7,211.9,390.4,212.4,390.9,213z"/>
<path d="M389.5,214.3c0.5,0.8,0.8,1.7,1,2.7c0.2,1.4,0.3,2.8,0.3,4.2c-0.1,1.4-0.3,2.8-0.6,4.2c-0.3,1.2-0.6,2.5-1.6,3.2
	s-3.6-1-4.1-2.7c-0.7-2.7-0.4-5.6,0.7-8.2c0.3-0.8,0.6-1.5,1-2.2c0.2-0.6,0.5-1.1,0.9-1.6c0.4-0.3,0.8-0.4,1.3-0.4
	C388.9,213.6,389.3,213.9,389.5,214.3c1.7,1.7,4.4-0.9,2.7-2.7c-1.3-1.4-3.3-2.1-5.2-1.7c-1.7,0.5-3.2,1.7-3.9,3.4
	c-1.9,3.8-3.2,7.9-2.5,12.1s3,7.7,7,7.5s6.1-5.1,6.7-8.8c0.3-2.4,0.3-4.8-0.1-7.2c-0.1-1.9-0.8-3.8-2-5.3
	C390.6,209.8,388,212.5,389.5,214.3z"/>
<path d="M486.4,219.9c0.7,1.2,1.2,2.4,1.4,3.8c0.5,3,0.4,6-0.2,8.9c-0.2,1.3-0.8,2.5-1.5,3.6c-0.8,1.1-2,1.7-3.3,1.8
	c-1.8,0-3.3-1.5-4.1-3.2c-1-2.2-1.2-4.6-0.8-6.9c0.4-2.3,1.2-4.6,2.3-6.7c0.3-0.7,0.8-1.4,1.4-1.9c0.8-0.6,1.8-0.8,2.8-0.6
	C485.2,218.7,485.8,219.4,486.4,219.9z"/>
<path d="M485,221.2c0.5,0.9,0.9,1.8,1,2.8c0.2,1.4,0.3,2.7,0.3,4.1c-0.1,1.4-0.3,2.9-0.6,4.3c-0.2,1.2-0.7,2.3-1.6,3.2
	c-2,1.6-3.6-1-4.1-2.7c-0.7-2.8-0.4-5.7,0.7-8.3c0.3-0.7,0.6-1.4,1-2.1c0.2-0.6,0.5-1.2,0.9-1.6c0.4-0.3,0.8-0.4,1.3-0.4
	C484.4,220.5,484.7,220.9,485,221.2c1.7,1.8,4.4-0.9,2.7-2.6c-1.3-1.5-3.3-2.1-5.2-1.7c-1.8,0.5-3.2,1.7-3.9,3.4
	c-1.9,3.7-3.2,7.9-2.6,12.1s3.1,7.7,7.1,7.4s6.1-5,6.6-8.7c0.4-2.4,0.4-4.8,0-7.2c-0.1-1.9-0.8-3.8-2-5.3
	C486.1,216.8,483.5,219.4,485,221.2z"/>
<path d="M457,314.5c-15.7-9.2-34.3-12-52.1-8c-3.1,0.7-1.8,5.5,1.3,4.8c16.5-3.7,33.7-1,48.3,7.5C457.3,320.4,459.8,316.1,457,314.5
	L457,314.5z"/>
<path d="M309.5,129.9c5.8-19.2,11.6-38.7,23.6-55.1s28.7-29.1,47.6-35.2c5.4-1.8,10.9-3,16.6-3.5l6-0.4c1.1,0,4.5-0.5,5.3,0.4
	c1,1,2.5,1,3.5,0c0.2-0.2,0.6-0.4-0.2,0.1l0.8-0.6l3.1-1.9c3.7-2.2,7.6-3.9,11.7-5.3c15.3-5.2,31.9-5.8,47.8-3.6
	c14.3,2.1,28.3,6,41.7,11.6c3,1.2,4.3-3.6,1.3-4.8c-31.9-12.9-72.3-20.4-104.1-2.8c-2,1.1-3.9,2.4-5.6,3.8h3.5c-2.2-2.5-7-2-10-1.8
	c-4.8,0.2-9.5,0.7-14.2,1.7c-10.5,2.3-20.5,6.4-29.5,12.2c-18.4,11.8-32.9,28.8-41.6,48.8c-5,11.3-8.5,23.2-12.1,35.1
	C303.8,131.7,308.6,133,309.5,129.9L309.5,129.9z"/>
<path d="M316.3,209.1h0.1L316,206v0.2l0.9-0.9h2.1l1.2,2.2v-0.3l-0.4,1.2c0.5-0.6,1.2-1,1.9-1.4c0.6-0.5,1.4-1.4,2.1-1.5l-2-0.2
	c-0.3-0.5-0.3-0.5,0.1,0.1l0.5,0.8l0.7,1.3c0.6,1,1.1,2,1.5,3c0.9,2.2,1.5,4.4,2,6.7l4.6-2c-1.3-2.9-4.7-4.3-7.6-3
	c-0.1,0.1-0.2,0.1-0.4,0.2c-2.8,1.5-4.2,4.9-5.1,7.8s-1.2,6.3,0.5,9s4.7,4,7.5,5s4.4-3.8,1.4-4.8c-1.5-0.4-3-1.2-4.2-2.2
	c-1-1.2-1.3-2.8-0.8-4.3c0.4-1.8,1.1-3.5,2.1-5c0.2-0.4,0.8-1.3,1.4-1.2s0.7,0.7,0.8,1.1c0.7,1,2,1.4,3.2,1c1.1-0.5,1.7-1.8,1.4-3
	c-0.6-2.9-1.5-5.7-2.7-8.4c-0.6-1.3-1.3-2.5-2-3.7s-1.5-2.6-2.9-3s-3.1,0.8-4.3,1.7s-2.4,1.7-3.4,2.7c-1.2,1.1-1.2,2.9-0.1,4.1
	c0.1,0.1,0.3,0.3,0.5,0.4c1.3,0.8,2.9,0.4,3.7-0.9c0-0.1,0.1-0.1,0.1-0.2c0.6-1,0.4-2.2-0.4-3h-0.1c-1-0.9-2.5-0.9-3.5,0
	C315.3,206.5,315.3,208,316.3,209.1C316.3,209.1,316.3,209.1,316.3,209.1L316.3,209.1z"/>
<path d="M567.8,236.8c0-2.4-1.9-4.4-4.3-4.6c-2-0.1-3.9,1.1-5.4,2.5c-3.3,3.4-5.1,8-5.1,12.7c0,1.4,1.2,2.5,2.5,2.5
	c0.7,0,1.3-0.3,1.8-0.8c0.5-0.5,0.6-0.3-0.5-0.7s-0.7-0.4-0.7,0.1s0.2,1,0.2,1.6c0,1.5-0.4,2.9-0.9,4.3c-0.8,2-2.4,4.5-4.9,4.3
	s-3.1,4.8,0,5c5.6,0.4,9.2-5.3,10.3-10.1c0.6-2.4,0.9-5.4-0.4-7.7c-0.5-1.1-1.5-1.8-2.7-2c-1.6-0.3-2.9,0.7-3.9,1.7l4.2,1.8
	c0.1-2.7,0.9-5.4,2.4-7.7c0.5-0.8,1.3-1.6,2.1-2.1l0.5-0.3h0.3c0-0.2,0,0.2-0.2,0l-0.3-0.4c0.1,1.4,1.1,2.4,2.5,2.5
	c1.4,0,2.5-1.1,2.5-2.5L567.8,236.8z"/>
<path d="M431.2,239.4c2.5,7.6,6.2,14.3,10.2,21.2c1.8,3.1,3.4,6.5,2.2,10s-3.8,5.8-6.3,8.1s1.2,5.6,3.6,3.5s5.4-5.3,7-8.8
	c1.5-3.7,1.4-7.9-0.3-11.5c-1.6-3.9-4.2-7.4-6.2-11.1c-2.1-4.1-3.9-8.3-5.4-12.7C435,235.1,430.2,236.4,431.2,239.4L431.2,239.4z"/>
<path d="M371.2,182c2.7-1.6,5.7-2,8.8-2.2s6.9-0.5,10.3-1c7.1-1,14.1-2.7,20.9-5.2c3-1,1.7-5.9-1.4-4.8c-7,2.6-14.2,4.4-21.6,5.3
	c-6.5,0.8-13.6,0.2-19.5,3.6C365.9,179.4,368.5,183.7,371.2,182L371.2,182z"/>
<path d="M465.6,184.1c9.8,8,21.8,12.9,34.4,14.1c3.2,0.3,3.2-4.7,0-5c-11.3-1.1-22.1-5.5-30.9-12.6c-1.1-0.8-2.7-0.6-3.5,0.5
	C464.9,182,464.9,183.2,465.6,184.1L465.6,184.1z"/>
<path d="M543.7,51.4c11.1,7.2,19.8,18.9,27.4,29.5c7.3,10.2,13.7,21,19,32.4c11,23,17.7,47.8,20,73.2c1,12.3,1,24.7-0.1,37
	c-1.3,14.6-4.4,28.9-7.6,43.2c-6,27.2-13.5,56.6-7.3,84.4c2.7,11.8,8.7,22.1,15.8,31.7c5.9,8,13.5,18,23.5,21c3.1,0.9,4.4-4,1.3-4.9
	s-7.5-4.1-10.5-7c-3.8-3.8-7.3-7.9-10.5-12.3c-6.1-8.5-11.6-17.5-14.2-27.6c-3.6-13.9-3-28.6-1.2-42.7s5.2-29.1,8.4-43.6
	c5.8-26.2,9.7-52.3,7.3-79.2c-2.2-24.8-8.5-49-18.7-71.7c-5.7-12.6-12.6-24.7-20.6-36c-8.2-11.5-17.5-23.9-29.5-31.7
	C543.6,45.3,541.1,49.7,543.7,51.4L543.7,51.4z"/>
<path d="M546.2,336.5c-3.5,9.9-0.8,21,3.4,30.3s9.2,16.7,16,22.8c2.4,2.1,5.9-1.4,3.5-3.5c-6.2-5.6-10.9-13.1-14.5-20.5
	s-6.8-18.7-3.6-27.8C552.1,334.8,547.3,333.5,546.2,336.5L546.2,336.5z"/>
<path d="M428.7,113.9c6.9,15.4,17.1,29.3,30.9,39.2s30.1,14.8,46.9,15.3c3.2,0,3.2-4.9,0-5c-16-0.5-31.4-5.2-44.4-14.6
	s-22.5-22.9-29.1-37.4C431.6,108.5,427.4,111,428.7,113.9z"/>
<path d="M484.8,142.2c17,29.4,55.5,51.8,54.3,89.5c-0.1,3.2,4.9,3.2,5,0c1.2-39.2-37.4-61.6-55-92.1
	C487.5,136.9,483.2,139.4,484.8,142.2L484.8,142.2z"/>
<path d="M424.7,106.3c-20.1,10.1-36.4,27.1-44.6,48.2c-1.2,3,3.7,4.2,4.8,1.3c7.7-19.9,23.5-35.7,42.4-45.2
	C430.1,109.2,427.6,104.9,424.7,106.3L424.7,106.3z"/>
<path d="M405.2,54.5c-1,12.8,1.8,25.5,8.3,36.6c1.7,2.8,6,0.3,4.4-2.5c-6.1-10.3-8.7-22.2-7.7-34.1
	C410.5,51.3,405.5,51.3,405.2,54.5L405.2,54.5z"/>
<path class="st3" d="M218.1,717.1c0,0-8.1-64.1,36-112s153.4,2.7,153.4,2.7s47.3,18.3,89.8,100.1s22.1,116.8,22.1,116.8
	s-15.1,73.7-93.6,85.5S213.2,806.9,218.1,717.1z"/>
<path class="st2" d="M558.1,861.8l-31.7-50.6l-7,13.5c0,0-19.4-31.8-34.5-40.4s-36.5-20.4-36.5-9.7s8.6,16.2,15,20.5
	s21,23.7,21,23.7l-49-18.3c0,0-29-6-34.9-0.6s2.1,12.4,2.1,12.4s-11.3-0.5-8.1,8.1s11.3,13.4,11.3,13.4s-13.9-1.6-12.9,8.6
	s10.3,15.6,16.7,17.8s34.4,16.7,37.7,19.4s30.6,38.7,58.6,55.4c28,16.7,91,7.5,91,7.5s94.7-4.8,147.9-10.8s97.4-26.3,106-56.4
	s-5.9-71.1-8.6-74.8s-48.9-124.9-48.9-124.9s-20.5,26.9-50.6,43.1s-46.8,23.6-46.8,23.6s29.6,68.9,45.2,82.9l-16.2,7
	c0,0-75.3,25.8-94.1,30.1S566.7,880.1,558.1,861.8z"/>
<path d="M407.6,215.9c0,0,13.6,54.4,15.8,83.8s-6.6,62-20.2,90.8S361.3,434,361.3,434s-4,4,19.4-9.6c8-4.6,19-19.3,24.8-29.8
	c2.7-5,8.4-3.8,9.3-9.9c1.7-11.7,1-5.2,2.4-9.9c4.7-14.8,10.3-34.6,12.1-50.1C434.2,283.9,407.6,215.9,407.6,215.9z"/>
<path d="M482.7,362.1c0,0-23.2,15.8-47,19.2s-31.5-4.9-31.5-4.9l-11,15.1c0,0,30.9,11.2,50.2-0.5s39.6-21.8,39.6-21.8L482.7,362.1z"
	/>
<path d="M254.4,537.1c0.2-0.4-8.3-0.3-8.3-0.3l-10.9,47.1c0,0-31.4,122.2-34.1,140.4S180,801.6,180,801.6s10.2,24,12.5,18.1
	c2.3-5.9,22.2-108.6,22.7-122.7s14.6-78.1,14.6-78.1l32.4-87.6L254.4,537.1z"/>
<path d="M648.2,713.5l-12.7-86.6c1.9,16.9,0.4,33.9-4.4,50.2L648.2,713.5z"/>
<path class="st4" d="M153.2,175.1c0,0,5.7-57,48.9-87.7s88.4-12.6,119.1,6.2s71.4,60.2,91.5,145.4s2.5,142.3-15.7,161.7
	s-40.7,47.7-86.5,31.4s-95.9-50.2-122.8-103.4S144.4,208.3,153.2,175.1z"/>
<path class="st2" d="M40.4,767.5c0.6-1.6,55.5-122.7,55.5-122.7S176,497.9,182,489.3s8.6-13.5,9.6-15.1s18.9-77.5,23.2-86.6
	s7-14,7-14l15,13.4c0,0,22.6-39.2,25.3-43.6s37.7-23.6,44.7-26.3s10.2,4.3,8.6,8.6S300.9,342.4,296,344s-16.7,11.8-17.7,13.4
	s-8.6,30.2-8.6,30.2s29.6-34.5,36-39.8s19.9-12.4,25.3-10.3s3.2,8.1,3.2,8.1l-18.8,21.5c0,0,10.8-10.2,17.2-10.7s6.5,11.3,4.9,14.5
	s-9.7,19.9-9.7,19.9s5.9-5.4,9.7,1.6s-2.2,19.9-2.2,19.9s-12.4,31.8-30.1,59.2s-36.6,57.6-44.7,61.4c-4.4,2.1-9.1,3.6-14,4.3
	l-50,208.7c0,0-17.2,95.3-59.2,116.8s-73.2,12.9-86.1-7S28.6,798.7,40.4,767.5z"/>
<path d="M221.1,374.7c-8.5,10.8-13,23.6-16.4,36.7c-2.7,10.8-5.1,21.7-7.7,32.5s-5.1,21.7-8.2,32.4c-0.6,1.8-1.4,3.6-2.5,5.2
	l-41.7,74.3c-16.7,29.7-33.4,59.3-49.9,89.1c-10.4,18.7-20.1,37.7-28.9,57.2c-9.6,21.2-18.7,42.8-25.4,65
	c-2.3,7.6-4.5,15.4-5.3,23.2c-0.4,5.7-0.5,11.3-0.1,17c0.8,14.5,3.4,29.2,9.7,42.3s18.5,25,34,28.2c20,4.2,42.8-2,59.8-12.8
	c29.7-18.9,43.1-52.9,52.1-85.4c6.4-23.7,11.9-47.7,17.7-71.6c8-33.7,16-67.5,23.9-101.2c5.2-22,10.4-44,15.5-66
	c0.2-1.1,0.5-2.2,0.8-3.3l-2.4,1.8c6.5-0.6,12.8-2.2,18.4-5.9s9.8-9.3,13.9-14.9s10.5-13.7,14.9-21.3s7.3-13.4,10.9-20.1
	s7.1-12.8,11.1-18.9s9-12.1,12.2-19s5.5-14,8-21.1s5.8-13.4,6.4-20.4c0.5-5-1.8-10.1-7.2-11.1s-12.6,7.4-15.5,12
	c-1.8,2.7,2.5,5.2,4.3,2.5s7.6-11.8,11.8-9s0.9,9.4-0.2,12.6c-2.3,6.2-4.5,12.3-6.6,18.5s-4.4,12.3-7.6,18s-7.7,10.9-11.3,16.6
	s-6.5,10.8-9.5,16.3c-6.8,12.7-13.3,25.5-22.2,36.9c-4.4,5.7-8.2,12-13.8,16.6s-11.5,6.1-18,6.7c-1.1,0-2.1,0.7-2.5,1.8
	c-3.5,15.5-7.1,30.9-10.8,46.3c-7.5,32.2-15,64.4-22.7,96.6c-6.8,28.4-13.5,56.9-20.7,85.2c-6.6,26.3-14,53.3-30.6,75.2
	c-12,16-29.2,27.4-48.6,32.1c-17.3,4.2-36.7,4.1-50.3-8.9c-10.7-10.2-15.6-25-18.1-39.2c-2-11.6-3.2-24.6-1.2-36.3
	c3.1-19.2,10.8-37.9,18.1-55.9c9.3-23,19.8-45.5,31.4-67.5c14.9-28.3,31-56,46.7-83.9l48-85.4c2.1-3.6,4.1-7.2,6.1-10.8
	c1-1.7,1.9-3.4,2.6-5.3c6-20.9,10.3-42.4,15.5-63.5c3.2-12.9,7.2-26,15.6-36.6C226.6,375.7,223.1,372.2,221.1,374.7L221.1,374.7z"/>
<path d="M234.5,400.8c7.3-14,12.5-29.1,20.7-42.7s20.5-23.7,35.2-30.4c3.6-1.7,7.2-3.1,10.9-4.4l5.8-1.9c1.4-0.4,3.8-1.3,5.2-0.8
	c3.1,1.3-0.3,6.7-1.7,8.6c-1.9,2.4-4.1,4.5-6.6,6.3c-9.3,7-21.9,11.8-27.9,22.3s-7.3,23.1-11.7,34.4c-1.2,3,3.7,4.3,4.8,1.4
	c4.2-11,5.2-23.3,11.3-33.6c3.3-5.5,9.1-9.1,14.4-12.5s11.6-7.1,16.5-11.8s9.3-11,6.3-16.7s-14.5-1.7-19.7,0.2
	c-15.7,5.7-30.8,14.3-41.3,27.7c-11.9,15.5-17.6,34.4-26.6,51.4C228.7,401.1,233,403.7,234.5,400.8L234.5,400.8z"/>
<path d="M285.6,418.5c6.3-13.5,15.2-25.9,24.1-37.8c4.8-6.4,9.8-12.7,14.9-19l7.5-9.1c2.1-2.5,4.9-5.1,5.7-8.4
	c1.2-5.4-4.2-11.4-9.6-11.1s-9.1,3.3-12.9,5.6c-10.9,6.9-20.7,15.4-29.1,25.2c-6.6,7.7-12.8,15.7-19,23.8c-1.9,2.5,2.4,5,4.3,2.5
	c11.5-15.1,23-30.1,38.2-41.5c4.6-3.4,9.3-6.8,14.4-9.2c1.3-0.6,3-1.5,4.4-1.4c2.9,0.1,5.4,3.7,3.8,6.4s-4.2,5.2-6.2,7.6
	s-4.9,5.9-7.2,8.9c-4.6,5.6-9.1,11.4-13.5,17.2c-8.9,11.9-17.8,24.3-24.1,37.8C280,418.9,284.3,421.5,285.6,418.5L285.6,418.5z"/>
<path d="M326,360.3c2.5-2.4,6.2-3.5,8.8-0.7s1.3,8,0.1,11.2c-3,7.8-7.9,15.1-11.9,22.4c-7.4,13.5-15.1,26.8-23.3,39.9
	c-1.7,2.7,2.6,5.2,4.3,2.5c10.2-16.3,19.5-33.1,28.8-50c4.2-7.6,11.2-17.5,7.5-26.5s-12.6-7.4-17.8-2.4
	C320.1,359,323.7,362.5,326,360.3z"/>
<path d="M524,814.7c9.9,12,17.3,25.2,23.7,39.3c3.4,7.7,9.7,13.8,17.5,17.1c4.5,1.8,9.3,1.7,14.1,1.6c8.3-0.3,16.6-1.1,24.8-2.4
	c29.4-4.3,57.4-13.5,85.3-23.8c23.1-8.6,46.8-16.6,71.2-20.7c11.8-2,24.2-2.7,35.7-0.7c3.1,0.6,4.5-4.2,1.3-4.8
	c-9.9-1.7-20.1-1.9-30.1-0.6c-21.4,2.7-42.3,9-62.7,16c-15.7,5.4-31.1,11.7-47,16.8c-13.7,4.4-27.7,8-41.9,10.8
	c-9.7,1.9-19.5,3.2-29.4,4c-5.2,0.5-10.5,0.6-15.7,0.2c-0.9,0,0,0.1-0.5,0l-2.6-0.7c-3.2-1.2-6.1-3.1-8.6-5.4
	c-2.9-2.7-5.2-6-6.9-9.6c-0.1-0.1-0.3-0.6,0,0s-0.6-1.3-0.6-1.4l-2.7-5.9c-1.9-4-3.9-7.8-6.1-11.5c-4.4-7.7-9.6-15-15.3-21.8
	C525.5,808.7,522,812.2,524,814.7L524,814.7z"/>
<path d="M529.5,838.9c-7-12.4-13.8-25.1-22.6-36.4s-18.6-20.1-30.8-27c-6.7-3.8-29.3-15.3-31.6-1c-0.9,6,3.2,12.3,7.6,15.9
	s12.3,7,17.6,11.6s9.1,11.6,13,17.4c3.7,5.9,7.7,11.6,12,17.1c2.1,2.5,5.6-1,3.5-3.5c-7.2-8.8-12.7-19-19.5-28.1
	c-3.4-4.7-7.8-8.7-12.8-11.6c-5.5-3.3-11.7-6.1-14.9-11.9c-1-1.8-2.4-5-1.3-7.1s5.6-1.5,7.9-1c5.9,1.5,11.6,3.8,16.8,7
	c11,6.3,20,14.6,27.9,24.4s15.8,24.2,22.9,36.8C526.7,844.3,531,841.8,529.5,838.9L529.5,838.9z"/>
<path d="M487.6,820.8c-9.1-7.1-19.8-11.8-30.6-15.5c-11.1-3.8-22.5-6.8-34.1-8.9c-5.9-1.1-12.3-2.7-18.2-1.1s-9.6,6-9.3,11.5
	s5.9,8.3,10.7,10l20.5,7.1l21.9,7.7c7.8,2.7,15.4,5.1,22.2,10c2.6,1.8,5.1-2.5,2.5-4.3c-9.7-7.1-21.9-10-33.1-13.9
	s-23.5-7.6-34.9-12.2c-2.3-1-5-2.3-4.8-5.2s3-5.2,5.6-5.9c5.3-1.5,11.5,0.3,16.7,1.3c10.3,1.9,20.4,4.5,30.3,7.8
	c10.8,3.6,22,8,31.1,15.1C486.6,826.2,490.1,822.7,487.6,820.8L487.6,820.8z"/>
<path d="M403.5,810.2c-3.6-1.4-7.8-0.4-10.3,2.6c-2.9,3.2-3,8-1.4,11.9c3.5,8.5,14.3,11.4,22.1,14.7s15.5,6.1,23.3,9.1
	s14.9,5.5,21,10.2c2.5,1.9,5-2.4,2.5-4.3c-4.7-3.6-10.4-5.9-15.8-8.1s-11.3-4.5-17-6.6c-7.9-3.1-15.9-6.2-23.5-9.9
	c-3.5-1.7-7.1-3.9-8.3-7.8s1.4-8.9,6-7C405.1,816.2,406.4,811.4,403.5,810.2L403.5,810.2z"/>
<path d="M409.9,832.6c-7.1-3.1-15.9-2.1-19.9,5.3s2,16.3,8,20.8c8.2,6,18.6,7.4,27.7,11.6c8.4,4.2,16.1,9.8,22.8,16.4
	c13.9,13.2,25.8,28.1,41,39.9s31.9,20.9,50.2,22.3c3.3,0.2,6.7-0.1,10-0.2l26-1c27.4-1.1,54.7-2.7,82-4.8
	c30.1-2.3,60.3-5.3,90.1-10.1s61.3-10.9,84.8-30.2c16.2-13.2,23.6-32.2,23.2-52.8c-0.4-18-6.2-34.9-12.1-51.7
	c-8.5-24.2-18-48.1-27.7-71.9c-6.6-16.2-13.3-32.3-20.2-48.4c-0.4-0.8-0.7-1.6-1.1-2.5c-1.3-2.9-5.6-0.4-4.3,2.6
	c4.7,10.8,9.2,21.7,13.8,32.6c9.3,22.4,18.4,45,26.9,67.8c4.1,10.8,8.1,21.6,11.7,32.6c2.5,7.9,5.1,15.8,6.6,24c3,16,2,34.5-6.8,49
	c-14.8,24.3-45.9,33.9-72,39.6s-54.7,9.1-82.2,11.7s-57.2,4.8-85.9,6.3c-18.6,0.9-37.2,1.7-55.9,2.3c-5.2,0.2-10.5-0.3-15.6-1.5
	c-18.1-4.4-34-15-47.7-27.4s-24.7-27.1-39-38.5c-6.9-5.7-14.7-10.1-23.1-13.2c-8.7-3.1-19.4-5.2-25.1-13.3c-2.6-3.9-3.7-8.4,0-11.9
	s7.7-2.7,11.3-1.1S412.9,833.9,409.9,832.6L409.9,832.6z"/>
<path d="M486.5,359.2c-4.4,19.3,0.5,38.3,6,56.8c0.9,3.1,5.7,1.8,4.8-1.3c-5.2-17.6-10.2-35.8-6-54.2
	C492,357.4,487.2,356.1,486.5,359.2z"/>
<path d="M213.4,389.2c-7.7,1.6-15.2,4.7-22.4,8.1c-6.8,3.1-13.3,6.9-19.3,11.3c-11.8,9.3-21.7,20.7-29.3,33.6
	c-8.1,13.7-14.2,28.8-20.1,43.5c-7.5,18.7-13.4,38.1-19.3,57.3c-4.9,16.5-9.7,33.1-15.4,49.3c-4.3,12.2-8.9,24.2-13.6,36.2
	c-10.6,27.2-21.6,54.1-33.1,80.9c-3.8,8.8-7.5,17.6-11.7,26.3c-1.7,3.7-3.3,6.6-2.2,10.8s5.7,10.6,9.5,14.9l2.7,2.9
	c2.3,2.3,5.8-1.2,3.5-3.5c-2.9-2.9-5.5-6.1-7.8-9.5c-1.4-2.2-3-4.7-3.3-7.4s0.5-2.7,1.2-4.1C36.6,732,40,724,43.5,716
	c11-25.6,21.6-51.4,31.9-77.4c10.2-25.8,19.6-51.7,27.6-78.2c10.8-35.8,21.7-71.3,38-105.1c6.1-12.6,14.2-24,24.1-33.9
	c5.1-5.3,10.9-10,17.2-13.8c7-4.2,14.5-7.8,22.2-10.6c3.4-1.2,6.8-2.2,10.3-3C217.9,393.3,216.6,388.5,213.4,389.2L213.4,389.2z"/>
<path d="M631.2,683.7l17.8,45.2l4.3,11c1.2,3.2,2.3,6.8,4.1,9.8c3.2,5.1,8.6,6,14.1,4.8s11.9-4,17.6-6.3s11.6-4.7,17.3-7.2
	c11.8-5.2,23.2-11.2,34.2-17.8c21.3-13,41-29,55.9-49.1c1.5-2.1,4.6-5,4-7.6s-1-2.6-1.5-3.8c-3.4-8.6-6.7-17.2-10.4-25.6
	c-6.8-15.9-15.4-31.1-23.1-46.6c-11.6-23.6-22.3-47.6-32.7-71.8s-19.9-45.8-34-66.3S667.2,416,645,405.6
	c-20.5-9.6-42.7-14.5-65-17.4c-9-1.1-18-1.8-27-2.7c-14.3-1.4-28.4-4.3-42-8.8c-6.8-2.3-13.5-5-20-8.1c-2.9-1.4-5.5,2.9-2.6,4.3
	c17.6,8.3,36.3,13.9,55.6,16.5c13.5,1.8,27.2,2.5,40.7,4.5c32,4.5,64.7,14.2,89,36.5s39.5,55.4,52.7,85.9
	c6.9,15.9,13.6,31.9,20.9,47.7s15.2,31.8,23.2,47.5c4.6,9.2,9.6,18.3,13.7,27.7c2.8,6.6,5.4,13.3,8.1,20c1,2.6,1.8,5.7,3.2,8.2
	l0.3,0.7l0.2-2c-15.9,23.6-38.6,41.7-63.1,55.8c-12.5,7.2-25.5,13.5-38.8,19c-6.4,2.6-12.8,5.1-19.3,7.4c-3.2,1.1-7.6,2.9-10.8,1.1
	s-4.4-7.1-5.7-10.3L636,682.4C634.9,679.4,630.1,680.7,631.2,683.7z"/>
<path d="M609.5,486.6c-2.9,13.3-4.6,26.8-3.3,40.4s5.1,28.8,9.4,42.6s9.1,26.2,12.1,39.7c2.4,11,3.8,22.2,4.2,33.4
	c0.8,22.9-2.2,45.7-7.5,67.9c-3.4,13.8-7.4,27.4-12.2,40.7c-4.2,11.9-9.7,23.4-12.3,35.8c-2.6,13.2-3.6,26.6-2.8,40
	c0.7,13.3,2.9,26.6,8.1,38.9c1.3,2.9,5.6,0.4,4.3-2.6c-4.7-11.1-6.7-23.4-7.4-35.4c-0.7-11.9-0.1-23.8,1.9-35.5
	c2-12.1,6.8-23,11-34.4c4.9-13.3,9.2-26.7,12.8-40.4c5.7-22.1,9.3-44.9,9.2-67.8c0-9.7-0.7-19.5-2.1-29.1c-2-13.7-6-26.9-10.4-40.1
	c-5.1-15.2-9.9-30.6-12.5-46.5s-1-30.9,2.3-46.3C615,484.8,610.2,483.4,609.5,486.6L609.5,486.6z"/>
<path d="M237.6,384.9c-1.9-0.4-3.4-2.1-4.8-3.4s-3.4-2.9-5-4.5c-3.2-3-6.3-6.1-9.3-9.3c-6.1-6.7-11.8-13.7-17.1-21.1
	c-11-15.4-20-32-26.8-49.6c-3.3-8.8-6.1-17.8-8.2-26.9c-0.5-2.6-1.1-5.1-1.9-7.6c-2-5.4-3.8-10.9-5.2-16.5
	c-5.9-22.6-8.2-46.4-5.3-69.7c3.9-32.1,19.1-62.1,44.1-83c12.5-10.5,27.7-17.9,44-19.8c14.7-1.7,29.4,0.7,43.2,5.7
	c27.4,9.9,51.4,28.8,71.7,49.3s31.6,42.9,41,67.9c11.8,31.1,18.8,63.8,20.6,97c1.6,32.3-1.5,67.2-17.4,96.1
	c-11.6,20.8-32.5,42.5-57.6,44.7c-4.2,0.4-8.4,0.1-12.5-1.1c-3-0.9-4.4,3.9-1.3,4.8c22.4,6.7,46.5-9.3,60.8-25
	c22.5-24.9,31-58.4,32.9-91.1c2-34.6-3.1-69.7-12.8-102.9c-8.2-28.3-19.8-57-38-80.4c-8.2-10.5-18.2-19.9-28.3-28.6
	c-11.7-10-24.2-19.2-37.8-26.5c-27.2-14.6-59-21.2-88.2-8.6c-31.5,13.6-54.6,44.5-64.3,76.8c-7.9,26.2-7.8,54.2-2.9,80.9
	c1.6,8.5,3.7,17,6.3,25.3l2.2,6.3c1.3,3.3,1.7,6.9,2.6,10.4c9.1,36.9,28.8,71.8,55.1,99.2c3,3.2,6.1,6.2,9.4,9.1s5.7,6.1,9.5,6.9
	S240.7,385.6,237.6,384.9L237.6,384.9z"/>
<path d="M692.2,743.9c13.7,28.7,26.9,57.8,46.3,83.2c1.9,2.5,6.3,0,4.3-2.5c-19.4-25.4-32.6-54.5-46.3-83.2
	C695.1,738.5,690.8,741,692.2,743.9z"/>
<path d="M388.6,475.9c26.7,2.2,54.1,4.2,80.1-3.6c3.1-0.9,1.8-5.7-1.3-4.8c-25.6,7.7-52.5,5.5-78.8,3.4
	C385.4,470.6,385.4,475.6,388.6,475.9L388.6,475.9z"/>
<path d="M460.5,895.9c-25.6,14.3-55.8,12.8-83,4c-32.5-10.5-61.9-30.3-87.2-52.8c-12.9-11.5-25.7-24-36.1-37.8
	c-9.2-12.5-16.7-26.2-22.1-40.7c-10.5-27.9-14.2-57.9-10.6-87.5c3-25,11.5-51.1,29-69.9s46.2-25.7,72.6-24.4
	c30.3,1.5,60.5,11.5,86.9,26.4c12.8,7.1,24.7,15.8,35.4,25.8c11.3,10.7,20.9,23,29.5,35.9c15.3,22.9,27.7,47.9,38,73.5
	c2.8,6.9,5.4,13.8,7.8,20.9c3.3,9.7,3.8,20.7,3.1,31c-0.4,8.8-2.5,17.5-6.3,25.5c-1.4,2.9,2.9,5.4,4.3,2.5c8-16.3,8.7-35.7,5.5-53.4
	c-0.9-5.1-2.8-9.8-4.5-14.7c-8.7-23.9-19.4-47-32-69.1c-15.6-27.1-34.6-52.4-60.2-70.7c-26-18.6-56-31-87.5-36.4
	c-27.5-4.6-58.5-3.7-82.5,12.2c-21.6,14.2-34,38.9-40.2,63.3c-7.3,29.1-6.8,60.2,0.4,89.3c3.7,15.3,9.4,30.1,16.9,44
	c8.2,14.8,18.7,27.7,30.3,39.8c25,25.9,54.4,48.9,87.3,63.9c27.3,12.5,59.1,20.1,88.7,11.6c6.6-1.9,13-4.6,19-7.9
	C465.8,898.6,463.3,894.3,460.5,895.9L460.5,895.9z"/>
<path d="M367.7,732.1c9.1,6.8,20.7,7,31.4,9.7c4.9,1.3,10.5,3.1,13.6,7.4s-0.1,10.6-3.8,14.8c-2.2,2.3,1.3,5.9,3.5,3.5
	c4.1-4.6,8.3-10.1,6.6-16.6s-7-9.7-12.3-11.9c-11.8-4.8-26-3.3-36.5-11.2C367.6,725.8,365.2,730.1,367.7,732.1L367.7,732.1z"/>
<path d="M620.5,943.8c4.9,16.9,9.7,33.8,14.6,50.7c6.2,21.7,12.6,43.4,18.3,65.3c0.4,1.4,0.8,2.8,1,4.2c0.2,0.8,0-0.4,0.1,0.3
	c0,0.3,0,0.7,0.1,1v2.1c0,0.8-0.1,1.6-0.2,2.4c0.1-0.7-0.1,0.5-0.1,0.7l-0.3,1.5c-0.5,2-1.2,3.9-2.2,5.7
	c-7.3,14.3-23.7,23.2-37.9,29.7s-29.8,11.2-45.2,15.2c-22.6,5.8-45.6,10.2-68.8,13c-44.9,5.5-90.5,4.2-135.2-2.6
	c-33.3-5-65.9-13.1-98.2-22.6c-9.9-2.9-19.8-6.1-29.8-8.7c-3.2-0.9-6.5-1.5-9.8-2c-7.6-1.1-14.9-3.6-20.5-9.1
	c-8.2-8-9.6-17.7-10.7-28.6c-2.7-26.2-1.2-52.6,1.1-78.7c4.4-48.5,11.6-98,0.9-146.2c-2.4-11.2-6-22.1-10.6-32.6
	c-1.2-3-5.5-0.4-4.3,2.5c20,45.8,16.6,97.3,12,145.8c-2.6,26.6-5.6,53.2-5.5,80c0,13,0.8,26,2.6,38.9c0.4,3.6,1.4,7.1,2.8,10.4
	c5.7,13.3,17.7,20.5,31.7,22.5l3.9,0.7l5.4,1.3l13.5,3.8c29.3,8.7,58.7,17.1,88.7,23c42.7,8.3,86.3,12.2,129.7,10
	c24.8-1.4,49.5-4.7,73.9-9.6c19.2-3.7,38.2-8.3,56.6-14.8s40.4-15.5,53.3-31.7c5.5-6.8,9.2-15.3,7.9-24.2c-0.7-4.8-2.4-9.6-3.7-14.2
	c-3.2-11.6-6.4-23.1-9.7-34.6c-6.4-22.6-12.9-45.1-19.4-67.7l-1.2-4.1C624.4,939.4,619.6,940.7,620.5,943.8L620.5,943.8z"/>
<path d="M242.8,951.6c40.5,17.9,81.7,33.9,123.6,47.8c41.4,13.8,83.6,25.5,126.2,35c23.9,5.4,48,10.1,72.1,14
	c3.1,0.6,4.5-4.2,1.3-4.8c-42.6-7-84.9-16.2-126.6-27.4s-83.5-24.9-124.3-40.3c-23.5-8.9-46.7-18.5-69.7-28.6
	C242.5,946.1,239.9,950.3,242.8,951.6L242.8,951.6z"/>
<path d="M295.6,1057.3c56.8,9.3,114.5,12.4,172,9.3c16.3-0.8,32.7-2.2,49-4.1c3.1-0.4,3.1-5.4,0-5c-56.8,6.6-114,7.1-170.9,1.4
	c-16.3-1.7-32.6-3.8-48.7-6.5C293.8,1051.9,292.5,1056.7,295.6,1057.3L295.6,1057.3z"/>
<path d="M698.2,751.4c0,0,37-7.9,51.8-36.2l-55.1,29.4L698.2,751.4z"/>
<path d="M83,670c-2.5,3.4-22.4,49.2-34.3,61.2S38,752.5,38,752.5s4.2,10.6,6.3,7C52.2,746.5,83,670,83,670z"/>
<path d="M486.6,923.6c0,0,22.7,35.4,51.2,38.3c28.5,2.9,34.4-5.2,54.7-7.5c31.6-3.6,35.8,4.2,35.8,4.2l-4.5-15.8
	c0,0-71.6,3.2-90.7,1.7C518.7,943.3,486.6,923.6,486.6,923.6z"/>
<path d="M367.6,566.2c44.1-9.7,87.6-21.9,130.3-36.6c12.1-4.1,24.1-8.4,36-13c3-1.1,1.7-5.9-1.3-4.8c-42.2,16-85.3,29.6-129,40.8
	c-12.4,3.1-24.8,6.1-37.3,8.8C363.2,562.1,364.5,566.9,367.6,566.2L367.6,566.2z"/>
<path d="M270.5,276.9c1.5,0.5,1.9,2.7,2,4c0.2,2.7,0.2,5.4-0.1,8.1c-0.3,2.7-0.8,5.4-1.5,8c-0.7,2.7-1.9,5.2-2.5,7.9
	c-1.2,5.2,2.1,8.8,7,9.8c5.5,1,11.2,1.3,16.8,0.7c3.2-0.2,3.2-5.2,0-5c-5.3,0.7-10.7,0.4-16-0.6c-2.6-0.7-3.6-1.8-2.8-4.5
	s1.9-5,2.5-7.7c1.4-5.2,1.9-10.6,1.7-16c-0.3-4-1.6-8.1-5.8-9.5S267.5,275.9,270.5,276.9L270.5,276.9z"/>
<path d="M194,236.6c9.6-10.7,23-17.3,37.3-18.5c3.1-0.2,3.2-5.2,0-5c-15.7,1.2-30.3,8.4-40.8,20C188.3,235.5,191.8,239,194,236.6z"
	/>
<path d="M288.8,205.5c12.6-7.3,27.9-8.5,41.5-3.3c3,1.1,4.3-3.7,1.3-4.8c-14.9-5.5-31.6-4.2-45.4,3.8
	C283.5,202.8,286,207.1,288.8,205.5z"/>
<path d="M400.7,681.7c1.3,0.2,3.2,1.8,4.1,2.7c2.6,2.6,4.7,5.7,6.1,9.1c0.7,1.4,1,3,1,4.6c0,1.6-0.7,3.1-2,4.1
	c-1.8,1.3-4.4,0.9-6.3-0.3c-2.5-1.5-4.5-3.7-5.7-6.3c-1.3-2.6-2.1-5.4-2.4-8.3c-0.3-1-0.3-1.9,0-2.9c0.4-1.1,1.2-2.1,2.3-2.6
	C398.7,681.4,399.8,681.4,400.7,681.7z"/>
<path d="M400.2,683.5c1.2,0.4,2.3,1.2,3.2,2.1c1.2,1.2,2.3,2.6,3.3,4c1,1.4,1.8,2.9,2.4,4.5c0.8,1.5,1.2,3.1,0.9,4.8
	c-0.9,3.4-4.6,2.2-6.6,0.7s-4.3-5.2-5.2-8.4c-0.3-1-0.5-2.1-0.7-3.1c-0.3-0.9-0.4-1.9-0.3-2.8c0.1-0.6,0.4-1.1,0.9-1.4
	C398.7,683.4,399.5,683.2,400.2,683.5c1,0.3,2-0.3,2.3-1.3c0.3-1-0.3-2-1.3-2.3c-1.2-0.4-2.4-0.4-3.6,0c-1.1,0.4-2,1-2.7,1.9
	c-1.6,1.9-1.6,4.1-1.2,6.4c0.8,4.7,2.4,9.6,5.9,13s8.3,5.4,12,2.1s1.8-9.4-0.3-13.3c-1.2-2.3-2.7-4.3-4.5-6.2
	c-1.5-1.6-3.4-3.4-5.6-3.9S397.9,682.9,400.2,683.5z"/>
<path d="M320.1,743.1c1.6,0.6,3,1.5,4.1,2.8c2.6,2.5,4.7,5.6,6.1,9c0.7,1.4,1,3,1.1,4.6c-0.1,1.6-0.8,3.2-2.1,4.2
	c-1.8,1.3-4.4,0.8-6.3-0.3c-2.5-1.5-4.5-3.7-5.7-6.3c-1.2-2.6-2-5.4-2.4-8.3c-0.2-1-0.2-2,0-3c0.4-1.1,1.2-2,2.3-2.5
	C318.1,742.8,319.1,742.8,320.1,743.1z"/>
<path d="M319.6,744.9c1.2,0.4,2.3,1.2,3.2,2.2c1.2,1.2,2.3,2.5,3.3,3.9c0.9,1.4,1.7,2.9,2.4,4.5c0.8,1.5,1.2,3.2,0.9,4.9
	c-0.9,3.3-4.6,2.2-6.6,0.7c-2.6-2.2-4.4-5.1-5.2-8.4c-0.3-1-0.5-2.1-0.7-3.1c-0.3-0.9-0.4-1.9-0.3-2.8c0.1-0.6,0.4-1.1,0.9-1.5
	C318.2,744.7,318.7,744.8,319.6,744.9c0.9,0.5,2.1,0.1,2.5-0.9c0.5-0.9,0.1-2.1-0.9-2.5c-0.2-0.1-0.4-0.2-0.7-0.2
	c-1.2-0.3-2.4-0.3-3.6,0c-1.1,0.4-2,1.1-2.7,2c-1.6,1.9-1.6,4-1.2,6.3c0.8,4.8,2.4,9.6,5.9,13.1s8.3,5.3,12,2s1.8-9.3-0.3-13.2
	c-1.2-2.3-2.7-4.4-4.5-6.2c-1.5-1.6-3.4-3.5-5.6-4S317.3,744.4,319.6,744.9z"/>
<path d="M267.2,706.4H267l1.3-0.4h-0.2l1.2,0.3c-1.8-0.9,1.2,1,0.7,1.2s0.4-0.7,0.6-0.9l1.6-2.2l3.2-3.9c2.3-2.6,4.7-5,7.3-7.2
	c5.3-4.4,11.1-8.1,17.3-11c1.2-0.6,1.6-2.1,1-3.2c0-0.1-0.1-0.1-0.1-0.2c-0.8-1.1-2.2-1.5-3.4-0.9c-8,3.7-15.3,8.8-21.6,15
	c-3.1,3.1-6,6.4-8.6,9.9c-1.2,1.6-2.5,3.2-2.2,5.4s2.6,3.7,4.6,2.4S269.9,704.6,267.2,706.4L267.2,706.4z"/>
<path d="M352.9,658.9c8-6.7,18.5-9.7,28.8-8.3c1.3,0.3,2.6-0.4,3-1.7c0.4-1.3-0.4-2.7-1.7-3.1c-12.1-1.8-24.3,1.7-33.6,9.6
	C346.9,657.4,350.5,660.9,352.9,658.9L352.9,658.9z"/>
<path d="M397.5,807.2c-1.3,0.9-5-1.1-6.3-1.9s-2.1-1.2-2.5-2.1s1-2.8,1.8-3.7c2.8-3.1,6.8-5.4,10-8.1s6.4-5.4,9.8-7.9
	s6.9-4.5,10.8-5.4c1.7-0.5,3.4-0.6,5.1-0.5c0.9,0,1.8,0.1,2.7,0.3c-1.1-0.2-0.8-0.1-0.5,0c1.8,0.2,3.3,1.2,4.3,2.7
	c4,5.4,0.8,13.9-1.3,19.3c-1.2,3,3.6,4.3,4.8,1.4c2.6-6.8,5.3-15.8,1.2-22.6c-1.6-2.9-4.5-4.9-7.7-5.6c-8.5-1.9-16.4,2-23,7
	c-4.3,3.1-8.2,6.6-12.3,9.9s-8.6,5.6-10.3,10.5s1.5,7.3,5,9.4s7.9,3.9,10.9,1.6S400.1,805.3,397.5,807.2L397.5,807.2z"/>
<path d="M359.7,435.8c7.8,8.8,18.1,14.9,29.3,18.6c13.1,4.3,26.5,4.7,40.1,5.2c6.2,0.3,12.4,0.6,18.5-0.9c4.5-1.1,9.2-1.8,13.7-3
	c11.4-2.8,21.9-8.3,29.2-17.6c5.6-7.1,10.4-17.5,6.1-26.4c-1.4-2.8-5.7-0.3-4.3,2.6c3.3,6.7-1.5,15.5-5.7,20.7
	c-6.8,8.6-16.6,13.5-27.1,16c-4.2,1.1-8.5,1.7-12.7,2.8s-10.7,1.1-16.1,0.9c-12.2-0.5-24.2-0.6-36.1-3.8s-23.1-9.2-31.4-18.6
	C361.1,429.9,357.5,433.4,359.7,435.8L359.7,435.8z"/>
<path d="M302,253.6l-0.6,0.8c-1.5,1.9,1.5,4.9,3.4,3.4c9.6-7.3,21.5-13.1,33.7-9.7c3.1,0.9,4.4-3.9,1.3-4.8
	c-13.5-3.8-26.9,2.1-37.5,10.2l3.4,3.4l0.6-0.8c0.7-1.1,0.4-2.6-0.7-3.3c0,0-0.1-0.1-0.2-0.1C304.2,252,302.7,252.4,302,253.6
	L302,253.6z"/>
<path d="M207.6,283.3c5.4-10.9,19.1-14.7,30.4-12.1c3.1,0.7,4.4-4.1,1.3-4.8c-13.3-3-29.6,1.4-36,14.4
	C201.9,283.7,206.2,286.2,207.6,283.3z"/>
</svg>
