<?xml version="1.0" encoding="utf-8"?>
<!-- Generator: Adobe Illustrator 23.1.1, SVG Export Plug-In . SVG Version: 6.00 Build 0)  -->
<svg version="1.1" id="Layer_1" xmlns="http://www.w3.org/2000/svg" xmlns:xlink="http://www.w3.org/1999/xlink" x="0px" y="0px"
	 viewBox="0 0 1202.1 1222.5" style="enable-background:new 0 0 1202.1 1222.5;" xml:space="preserve">
<style type="text/css">
	.st0{fill:#FEC3AA;}
	.st1{fill:#734C4C;}
	.st2{fill:#BFD7FF;}
	.st3{fill:#FFFFFF;}
	.st4{fill:#A096CF;}
</style>
<title>mental health problems</title>
<path class="st0" d="M859.6,1004.2c0,0,16.4,34.3,17.3,39.1s26.9,13.3,37.1,12.5s24-4.7,34.8-13.3s21.6-16.8,21.6-16.8
	s-32-36.6-34.3-58.4c0,0-45.1,25-58.4,28.1S859.6,1004.2,859.6,1004.2z"/>
<path class="st0" d="M796.2,1011.8c0,0,6.7,24.5,10.4,27.5c0,0-9.7-2.2-20.3,5.9s-21.3,20.4-36.4,25.1s-28.8,3.7-38.2,0.2
	s-8.6-5.7-8.6-5.7l-8.5-24.3c0,0,25.1-15.1,45.4-21.5C762.8,1011.8,795.3,1011.8,796.2,1011.8z"/>
<path class="st1" d="M421.5,426.3c0,0-15.4-28.9-8.5-57s11.9-46.8,34-67.2s42.5-32.3,70.6-39.9c10.2-2.8,25.2,0.8,38.9,2.5
	c24,2.9,47.2,8,58,20.4c0,0,34.9,2.6,49.4,34.9s2.3,37.7,2.3,37.7s7.9,42.3-25.3,63.5s-121.6,50.2-121.6,50.2s-24.8-8.7-47.6-19.4
	C447,440.4,424.1,426.8,421.5,426.3z"/>
<path class="st2" d="M505.7,697.8c0,0-39.8,29.8-57.1,45.1s-62.9,62.5-62.9,62.5l-255.9,269.3c0,0,11,27.9,30.7,43.2
	c0,0,42.3,45.6,134.9,30.8s153.7-75.4,155.1-75.9s55.7-59.5,86-103.7s59.5-110,59.5-110s18.7,62.4,26.4,80.2s39.1,95,39.1,95
	s3.7,16.6,12.8,15.9c13.4-1,27.3-13.9,27.3-13.9s28.8-13.9,46.6-18.2s36.5-6.8,48-6.3l7.2,22.6c0,0,10.6-7.7,12.5-16.3
	s-11.5-67.3-11.5-67.3s27.2,53,30.2,55.8s18.8,1.9,40.4-2.9s68.4-35.4,69.7-39.3s-54.4-154.2-54.4-154.2S850.5,705.5,824.1,682
	s-75.4-9.2-75.4-9.2S597,634.4,505.7,697.8z"/>
<path class="st3" d="M879,1046.8c0,0-4.9-8.8-8.5-3.1c-0.9,1.4,0.4,6.4-0.6,9.4c-4.9,15.5,2.3,70.4,2.3,70.4s-0.9,10.9,25,18.2
	s55.4,11.3,69,16.3s72.2,18.2,104.4,20s62.2-6.4,75.9-20.9s5.9-38.1,1.8-44s-13.7-13.6-31.4-19.1s-38.1-9.5-71.2-31.8
	s-48.2-43.1-66.3-41.7s-19.6,19.5-39.5,27.6S897.2,1059.5,879,1046.8z"/>
<path d="M1059.6,1068.5c-8.3-5.4-16.7-10.7-24.8-16.3s-14.8-9.8-21.2-15.9c-3.1-2.9-5.6-6-9-8.6c-5.4-4.3-11.8-7.1-18.6-8.2
	c-15.6-2.2-26.8,10.4-37.3,19.8s-27.7,14.1-43,13.5c-7.1-0.2-13.6-3.3-19.7-6.6c-3.8-2.1-8.5-5.9-13.1-6.1
	c-7.1-0.2-6.1,11.2-6.2,15.7c-0.3,10.9,0,21.8,0.5,32.6s1,19.7,2.4,29.4c0.8,6.2,3.7,12,8.3,16.3c8.9,8.1,21.9,11.2,33.3,13.5
	c9.5,1.9,19.1,3.4,28.5,5.5c7.9,1.8,15.8,3.8,23.6,6.1c12,3.5,23.8,7.8,35.8,11.1c10.3,2.6,20.8,4.6,31.4,6
	c13.8,2,27.7,3.2,41.7,3.8c12.4,0.4,25.2,0.3,37.4-2.3s22.1-6.4,31.1-12.6s15.8-16.8,15.6-28.8s-5.7-25.8-16.2-33.7
	s-20.8-9.7-31.7-12.6c-5.3-1.3-10.6-2.9-15.7-4.8c-5.5-2.2-10.7-5.4-16.1-8S1064.9,1071.9,1059.6,1068.5c-2.7-1.8-5.2,2.5-2.5,4.3
	c5.3,3.4,11.2,6,16.9,8.8s10.4,5.5,15.7,7.8c9.8,4.3,20.5,6,30.6,9.2s20.6,8.6,26.1,18.7s7.4,25.3,0,35.7
	c-6.2,8.8-17.2,13.4-27.1,16.7c-10.4,3.5-21.2,5.3-32.1,5.5c-25.2,0.7-50.9-2.2-75.6-7.2c-9.4-2.1-18.7-4.6-27.9-7.7
	c-13.8-4.4-27.6-8.5-41.6-11.8c-16.2-3.7-33.3-5-48.9-11.1c-6.9-2.8-13.9-6.9-17-14s-2.6-13.3-3.1-19.7c-0.8-10.9-1.3-21.8-1.5-32.7
	c-0.1-7.9-0.7-16.6,0.7-24.3l0.3-1.4c0-0.4-0.1-0.3,0.1-0.3s0.2,0.1,0.4,0.2c1,0.3,2,0.6,2.9,1.1c5.2,2.6,10,5.8,15.3,8
	c6.5,2.8,13.5,3.9,20.5,3.3c7.5-0.3,14.9-1.5,22-3.8c6.1-2.1,11.8-5.3,16.8-9.5c5.5-4.8,10.5-10.2,16.5-14.4s12.8-6.8,20.3-5.1
	c6,1.4,11.5,4.3,16.1,8.4c3.5,3.1,6.4,6.7,10,9.7c6.4,5.1,13,9.9,19.8,14.3c7.8,5.3,15.8,10.4,23.8,15.6
	C1059.7,1074.5,1062.3,1070.2,1059.6,1068.5z"/>
<path d="M1135.7,1142.3c-21,9.3-44.7,11.4-67.4,10.2c-12.5-0.6-24.9-2.2-37.2-4.5c-8.6-1.6-17.7-3.1-25.9-6.1l-17.9-6.2
	c-5.9-1.9-12.1-4.3-18.2-4.9c-11.3-1.2-22.4-2.5-33.6-4.3c-9.4-1.6-18.8-3.5-28-5.9s-15.7-4.4-22.6-8.6c-2.8-1.7-5.3,2.6-2.6,4.3
	c6.2,3.7,13.1,6,20,8c8.4,2.4,17,4.3,25.6,5.8c12.9,2.4,26.1,4.4,39.2,5.5c5.1,0.4,10.1,2.1,14.9,3.6c6.7,2.1,13.3,4.4,19.9,6.8
	c7.3,2.5,14.9,4.4,22.5,5.7c12.2,2.6,24.5,4.4,36.9,5.4c25.9,2,52.9,0.2,76.9-10.5C1141.2,1145.3,1138.6,1141.1,1135.7,1142.3
	L1135.7,1142.3z"/>
<path class="st3" d="M699.4,1064c0,0-8.5-8-9.5,1.5c-1.7,16.1,2.7,75.2,2.7,75.2s-0.9,10.9,25,18.2s55.4,11.3,69,16.3
	s72.2,18.2,104.4,20s62.2-6.3,75.8-20.9s5.9-38.1,1.8-44s-13.6-13.6-31.3-19.1s-38.1-9.5-71.3-31.8s-48.1-43.1-66.3-41.7
	s-19.5,19.5-39.5,27.7S717.6,1076.7,699.4,1064z"/>
<path d="M593.8,863c11.4,44.5,30.1,87.2,47.6,129.6c3.9,9.6,7.9,19.3,11.8,29c1.7,4.2,3.3,8.5,5,12.8s2.8,9.4,5.6,13.2
	c7.3,10.4,20.1,3.5,28.1-2.1c9.8-6.7,19.6-13,30.7-17.5s23.8-7.6,36.1-10.1c7.4-1.7,15-2.9,22.6-3.6c6.5-0.5,14.1-0.7,20.1,2.1
	c2.9,1.4,5.4-2.9,2.5-4.3c-10.5-5-24-3.2-35-1.3c-11.4,2-22.7,4.5-33.9,7.7c-10.4,3-20.5,7.2-29.9,12.5c-5.3,3-10.3,6.5-15.3,10
	s-9.8,7-15.4,7.1s-8.2-6.4-10.1-11.4s-3-8-4.6-12c-3.6-9.4-7.4-18.6-11.3-27.9c-8.7-21.3-17.6-42.6-25.9-64
	c-9.1-23.3-17.7-46.9-23.9-71.2C597.8,858.5,593,859.8,593.8,863L593.8,863z"/>
<path d="M690.5,696.5c4.1,1.8,7.5,6.1,10.4,10.1c5,7,9.5,14.4,13.4,22.1c11.8,21.9,21.7,44.8,31,67.9c11.3,27.7,21.7,55.8,31.5,84.1
	c9.1,26.5,17.7,53.2,25.2,80.2c3.1,10.9,6,21.9,8.4,32.9c1.1,4.5,2,9,2.8,13.6s2.1,9.7-0.6,14.6s-6.3,7.6-10.4,10.2
	s-0.2,6.1,2.5,4.3c7-4.5,14.1-11.2,14.7-20c0.3-4.3-1.1-9.2-1.9-13.4c-2-10.4-4.5-20.6-7.2-30.9c-7.1-26.9-15.5-53.5-24.3-79.9
	c-9.8-29.2-20.4-58.2-31.7-86.8c-9.8-24.6-20.1-49.1-32.2-72.7c-4.2-8.6-9-16.9-14.2-24.9c-3.5-5.1-7.3-10.6-12.4-14.3
	c-0.8-0.5-1.6-1-2.5-1.4C690.1,690.9,687.6,695.2,690.5,696.5L690.5,696.5z"/>
<path d="M795.7,1016.4c1.3,4.4,2.2,8.9,3.5,13.3s2.6,7.4,5.8,9.8c1.2,0.7,2.7,0.3,3.4-0.9c0.6-1.2,0.2-2.7-0.9-3.4
	c0.4,0.3-0.3-0.3-0.4-0.4l-0.4-0.4c0.2,0.2,0.1,0,0-0.1c-0.5-0.6-0.9-1.3-1.2-2c-0.7-1.6-1.3-3.2-1.8-4.8c-1.2-4.1-2-8.3-3.2-12.4
	S794.9,1013.3,795.7,1016.4L795.7,1016.4z"/>
<path d="M692.2,1041.8l5.7,16.3c0.7,1.7,1.2,3.5,1.7,5.3c0.8,3.1,5.6,1.8,4.8-1.4c-0.5-1.8-1-3.5-1.7-5.2l-5.7-16.3
	c-0.2-1.4-1.5-2.3-2.9-2.1c-1.4,0.2-2.3,1.5-2.1,2.9C692.1,1041.5,692.1,1041.6,692.2,1041.8L692.2,1041.8z"/>
<path d="M787,672.2c6.2-0.4,12.4-0.4,18.4,1.4c7.5,2.4,13.7,7.4,19,13.1c13.7,14.7,23.2,33.4,31.8,51.4
	c16.9,35,31.3,71.4,45.3,107.7c12.5,32.6,24.8,65.3,35.4,98.6c1.5,4.4,2.9,9,4.1,13.5c0.4,1.4,0.8,2.8,1.1,4.2
	c0.1,0.5,0.2,1,0.2,1.5c-0.1-1.1,0.1,0.2,0,0.4s0.3-1.1,0.3-0.9l0.3-0.5l-1.2,1.1l-1.3,1.2c-2.4,2.1-4.9,4.1-7.4,6.1
	c-5.3,4.1-10.8,7.9-16.5,11.4c-11.7,7.4-24.3,13.3-37.5,17.7c-11.9,3.8-24.5,6.2-37,5.1c-3.9-0.3-6.5-0.2-8.6-2.5
	c-2-2.4-3.7-5-5.2-7.7c-9.7-16.4-17.4-34.3-24.6-52c-1.3-3.1-2.6-6.2-3.7-9.3s-6-1.6-4.8,1.4c6.7,17.7,14.4,35.1,23.1,51.9
	c3.4,6.7,6.8,14.2,12.1,19.6c2.3,2.5,5,2.8,8.4,3.2c6.3,0.8,12.8,0.9,19.1,0.1c27.1-3.2,53.2-16.3,75-32.5c2.4-1.8,4.8-3.7,7.2-5.7
	c2.1-1.7,4.8-3.5,6.5-5.6c0.7-0.9,0.9-2,0.8-3.1c-0.5-3.1-1.2-6.2-2.2-9.2c-9.1-31.4-21-62.2-32.5-92.7
	c-14.6-38.7-29.7-77.3-47-114.9c-8.3-17.9-17.1-35.9-28.7-52c-10-13.8-22.6-26.1-40.5-27.1c-3.1-0.2-6.3-0.1-9.4,0.2
	C783.8,667.5,783.8,672.5,787,672.2L787,672.2z"/>
<path d="M859.2,1010.7c2.8,5.4,6,10.7,8.9,16.1c2.8,5.3,5.3,10.9,7.2,16.6c1.1,3,5.9,1.7,4.9-1.4c-2.1-6-4.7-11.8-7.6-17.4
	c-3-5.5-6.2-10.9-9.1-16.5C862,1005.3,857.7,1007.8,859.2,1010.7L859.2,1010.7z"/>
<path d="M935.4,972.5c6.3,19.5,16.7,37.4,30.6,52.5c2.2,2.3,5.7-1.2,3.5-3.6c-13.3-14.4-23.3-31.6-29.3-50.3
	C939.3,968.1,934.4,969.4,935.4,972.5L935.4,972.5z"/>
<path d="M861.6,1010.7c3.2-6.7,32.5-6.5,52.4-10.9s29.2-17.1,29.2-17.1l-6.2-11.4c-11.2,10.4-24.2,18.6-38.4,24.2
	c-22.7,8.7-38.7,11.2-38.7,11.2L861.6,1010.7z"/>
<path d="M753.4,1018.6c12.5-3.6-2.7-0.9-18.4,2.1s-39.6,17.2-39.6,17.2l4.1,13.1C699.5,1051,715.7,1029.6,753.4,1018.6z"/>
<path class="st0" d="M509.8,464.9v-8.7c0,0-13.6-10.8-15.5-27.9s-0.9-25.7,9.3-31c10.2-5.3,18.6-2.5,21.4,0.6s12.1,10.6,12.1,10.6
	s28.3,1.2,46.9-9c11.6-6.6,21.7-15.5,29.8-26.1l22-28.5c0,0,10.2,26,10.2,41.8s-0.3,29.8-4,43.8s-9.3,24.5-7.8,31s9,19.2,7.2,23
	s-16.2,10.2-19.9,13.3s-14,21.4-14,21.4l-21.2-8L509.8,464.9z"/>
<path class="st4" d="M462.8,447.8c0,0-21-15.2-34-18.8s-30.3,3.6-30.3,3.6s-20.3-9.4-47-3.6s-60,15.2-81,25.3s-70.8,34.7-116.3,88.2
	S79.7,666,79.7,666s-23.8,68.7-27.4,131.6s-5.8,107.7-0.7,136.6s15.1,36.1,20.9,48.4s18.8,28.9,20.2,38.3
	c2.5,16.4-9.3,31.1,7.3,41.2s36.8,18.1,36.8,18.1s67.3-32.5,113.5-67.2s96.9-109.2,96.9-109.2s29.6-53.5,36.8-70.1
	s15.9-48.4,15.9-48.4s26.8-46.3,37.6-56.4c5.2-4.8,14.5-16.3,23.8-24.2c6.2-5.2,13-9.7,20.3-13.4c0,0,83.1,8.7,133.7,8.7
	s118.5-9.4,127.2-11.5s46-13.4,61.4-35.5s10.9-91.7-2.9-100.4s-32.5-13-32.5-13l-88.2,6.5c0,0-59.2-16.7-83.8-31.8
	s-83.8-43.4-96.8-50.6S462.8,447.8,462.8,447.8z"/>
<path class="st0" d="M755.5,541.2c0,0,31.1-9.9,37.6-10.5s22.6,7.4,28.2,13.7s8.4,19.8,8.4,19.8s11.2,15.8,9.6,34.4
	s-11.5,43.5-17.7,48.8s-14.2,4.6-14.2,4.6s-6.6,6.2-14.9,2.2s-2.8-15.2-2.8-15.2s-13.2,7.7-15.2-1.6c-1.6-7.1,12.7-27,12.7-27
	s14.6-22.9,17.1-33.5s1.8-12.1,1.8-12.1s-17.4,13.7-31.3,20.8s-21.7,3.7-18.9-5.3s11.4-14.2,17.3-19.2s14.3-8.7,14.6-13l0.3-4.4
	C788.1,543.7,763,540.9,755.5,541.2z"/>
<path d="M480.9,689.4c-9.3,3.4-17.3,9.5-24.5,16.2c-8.5,8.1-16.3,16.9-23.2,26.4c-13.3,17.5-25,36.1-35.1,55.7
	c-4.9,9.6-8.1,19.5-11.9,29.6c-7.9,21.2-17.3,41.8-28.2,61.6c-15.5,28.9-34.1,56-55.6,80.8c-21.6,24.7-46.5,46.3-73.3,65.3
	c-20.3,14.3-41.7,27.2-63.8,38.6c-6.4,3.3-12.9,6.5-19.5,9.5l-5.2,2.3c-1,0.5,0,0.2-1,0.4h-1.2c-1.3,0-2.7-0.2-4-0.4
	c-5.6-1-11-2.8-16.2-5.1c-7.1-3.1-15-6.5-19.9-12.7c-3.5-4.4-4.7-9.7-4.7-15.2c0.2-8.9,3.9-17.5,0.7-26.2s-9.2-18.2-14.9-26.6
	c-4.5-6.6-9.7-12.8-14.3-19.5c-1.4-2.4-2.5-5-3.4-7.7c-1.7-4.5-3.1-9.2-4.2-13.9c-5.5-22.5-6.6-46-6.7-69c0-38.1,3.5-76.4,9.2-114.1
	c3.2-21.3,6.3-42.5,11.7-63.5c8.6-32.9,21.2-64.5,37.7-94.2c32.2-57.6,79.4-106.2,136.9-138.8c28.7-16.3,60.1-29,92.5-35.5
	c18.6-3.7,38-5.1,56.7-1c2.3,0.5,4.8,1.7,7.2,1.1s3.8-1,5.7-1.3c7.3-1.4,14.9-0.9,22,1.4c7.7,2.7,15,7.3,22.2,11l9.8,5.1
	c2.8,1.5,5.4-2.8,2.5-4.3l-10.5-5.5c-7.7-3.9-15.5-8.8-23.7-11.4c-6.9-2-14.2-2.6-21.4-1.5c-2.4,0.4-4.7,0.8-7.1,1.4s-3.4-0.4-6-0.9
	c-35.1-7.5-72.2,2.3-105,14.7c-61,23.2-114.9,64.1-154.8,115.7c-42.3,54.7-69,120.8-78.9,189.1c-4.5,31.3-8.5,62.7-10.4,94.3
	c-1.5,24.4-1.9,48.9,0.1,73.3c0.9,11.2,2.6,22.3,5,33.3c1.1,5,2.6,9.9,4.3,14.7c1.2,3.4,2.4,7.4,4.6,10.4
	c4.1,5.7,8.6,11.3,12.6,17.1c5.9,8.6,12.3,17.7,15.8,27.5c3.5,9.8-1,17.4-0.8,26.2c0,5.4,1.5,10.8,4.5,15.3
	c4.3,6.3,10.8,10,17.5,13.3c8.5,4,18.7,8.9,28.3,8.4c2.3,0,4.2-1.1,6.3-2c15.4-6.9,30.4-14.6,45-23.1c25.1-14.4,49-31,71.3-49.4
	c26.6-22.2,50.3-47.8,70.4-76.1c27.2-38.2,48.6-80.2,63.7-124.6c4.4-12.9,11.8-25.2,18.9-37.1c12.4-20.6,26.3-41.1,43.8-57.9
	c6.9-6.6,14.7-13.1,23.8-16.4C485.2,693.2,483.9,688.3,480.9,689.4z"/>
<path d="M376.5,803.8c-24.8,35.8-56,66.8-90.7,92.9c-36.6,27.4-77,49.3-119.1,66.9c-24.1,10-48.8,18.7-73.8,26.3
	c-3.1,0.9-1.8,5.8,1.3,4.8c45.1-13.7,89.3-30.9,130.8-53.4c39.3-21.3,76.2-47.4,108.2-78.7c17.6-17.2,33.6-36,47.6-56.3
	C382.6,803.7,378.3,801.2,376.5,803.8z"/>
<path d="M100.9,918.2c50.9,4.8,100.2-11.9,147.8-27.8c13.8-4.6,27.5-9.1,41.5-13.2c3-0.9,1.7-5.7-1.4-4.8
	c-48.2,14.1-95.4,34.8-145.8,40.3c-14,1.6-28.1,1.8-42.1,0.5C97.7,912.9,97.8,917.9,100.9,918.2L100.9,918.2z"/>
<path d="M413.9,441.9c38.3,2.7,74.4,16.8,108,34.4c17,8.8,33.5,18.6,49.8,28.6c3.8,2.3,7.4,4.9,11.4,6.8l6.6,2.9
	c18.9,8.2,37.8,16.3,57,23.8c8.6,3.3,17.2,6.6,26,9c6.5,1.7,12.6,1.1,19.2,0.6c26.1-2.2,52.6-5.8,78.8-3.9c2.6,0.2,5.2,0.5,7.8,0.9
	c3.1,0.5,4.5-4.3,1.3-4.8c-12.2-2.1-24.8-1.6-37.1-1.1c-13.9,0.7-27.8,1.9-41.6,3.1l-15.2,1.3c-2.6,0.1-5.8,0.4-7.8,0
	c-7.9-1.4-15.6-4.5-23.1-7.3c-19.9-7.4-39.5-15.8-58.9-24.3c-4.3-1.8-9-3.4-13-5.9c-16.3-10-32.6-19.9-49.4-29.1
	c-33.1-18.1-68.4-33.4-106.1-38.6c-4.5-0.6-9.1-1-13.7-1.4S410.8,441.7,413.9,441.9L413.9,441.9z"/>
<path d="M416.1,684.2c68.6,10.8,138,19.6,207.6,17.8c21.4-0.6,42.8-2.2,64.1-4.2c12.7-1.2,25.4-2.7,38-4.8s28.2-5.3,41.5-10.6
	c10.7-4.3,20.9-10.1,29.4-17.8c3.3-2.9,6.3-6.2,8.7-9.9c1.6-2.7-2.7-5.2-4.3-2.5c-6,10-18.8,17.8-29.4,22.9
	c-12.6,5.9-26.3,9.2-40,11.8s-26,4.1-39.1,5.5c-19.7,1.9-39.5,3.4-59.2,4.2c-34,1.3-68.1,0.3-102-2.7c-38.2-3.2-76.1-8.6-114-14.6
	C414.3,678.9,412.9,683.7,416.1,684.2L416.1,684.2z"/>
<path d="M398.5,800.5c23.5-30.4,52.4-56,81.9-80.3c9.7-8,19.5-15.9,29.4-23.7c2.5-2-1.1-5.5-3.6-3.5c-31.9,25.3-63.9,51-91.7,81
	c-6.8,7.3-13.4,15-19.5,22.9C393,799.4,396.5,803,398.5,800.5z"/>
<path d="M618.8,756.3c-20.4,32-28.9,70.1-24.2,107.7c0.4,3.1,5.4,3.2,5,0c-4.7-36.7,3.6-74,23.5-105.2
	C624.8,756.1,620.5,753.6,618.8,756.3z"/>
<path d="M132.5,1085c21.9,48.7,78.7,71.6,129.5,69.3c20.5-1,40.9-4.3,60.8-9.6c27.6-7.3,54-18.6,78.4-33.5
	c34.6-21,65-48.4,91.4-78.9c37.6-43.6,67.6-93.4,92.5-145.2c3.7-7.7,7.3-15.4,10.7-23.1c1.3-2.9-2.9-5.5-4.3-2.6
	c-24.2,54.1-53.4,106.6-90.6,153c-25.9,32.4-56,62-90.6,85.1c-24.4,16.4-51.1,29.1-79.2,37.7c-18.5,5.5-37.6,9.2-56.8,11.1
	c-46.8,5-100.1-9.2-128.3-49.5c-3.6-5.1-6.7-10.6-9.2-16.3C135.5,1079.6,131.2,1082.1,132.5,1085L132.5,1085z"/>
<path d="M678.7,550.7c14.7,5.4,28.6,13,41,22.6c2.5,1.9,6-1.6,3.5-3.5c-13.1-10.2-27.6-18.2-43.2-23.9
	C677,544.8,675.7,549.6,678.7,550.7z"/>
<path d="M785.2,542c0.3,3,0.2,5.8-2,8.1c-2.6,2.6-5.5,5-8.5,7.1c-3.7,2.9-7.9,5.1-11.5,8.1c-3.5,3-6.4,6.5-8.7,10.5
	c-2,3.7-3,8.3-0.4,11.9s7.2,4.5,11.2,4.1s8.6-2.9,12.5-5.1s7-3.9,10.3-6c6.5-4.1,13.5-8.5,18.7-14.1c2.2-2.3-1.4-5.9-3.5-3.5
	c-4.1,4.3-9.3,7.7-14.1,11c-2.9,1.9-5.8,3.7-8.8,5.4s-6.9,4.1-10.5,5.8s-8.9,2.9-11.6-0.4s1.7-8.9,3.9-11.4
	c5.3-6.3,12.8-10.2,19.2-15.4c2.4-2,5.2-3.8,7-6.5s2.1-6.4,1.8-9.6S784.9,538.8,785.2,542L785.2,542z"/>
<path d="M803.1,563.5c-2.1,11.6-6,22.7-11.6,33.1c-2.6,5-5.6,9.8-8.6,14.5s-7.4,10.4-9.6,16.2c-1.4,3.6-2.4,8.9-0.5,12.5
	s7,5.7,11.2,4.8s9.7-5.6,13.4-9.5c4.2-4.2,8-8.8,11.3-13.7c7.5-11.1,12.8-23.5,15.5-36.6c0.6-3.2-4.2-4.5-4.8-1.4
	c-4.2,20.1-14.9,40.6-31.1,53.5c-2.9,2.3-10.4,5.4-11.4-0.6s2-9.5,4.5-13.4c5.4-8.5,10.9-16.9,15.5-25.9c5.2-10.1,8.9-20.9,11-32.1
	C808.5,561.7,803.7,560.4,803.1,563.5L803.1,563.5z"/>
<path d="M787.5,638c-2.7,4.2-3.5,9.7-0.9,14s7.9,5.5,12.5,4.8c10.5-1.5,17.1-11.6,21.9-20.2c3.4-6,6.3-12.3,8.7-18.8
	c1.1-3-3.7-4.3-4.8-1.3c-2.2,5.8-4.9,11.5-7.9,17c-2.7,4.9-5.6,9.8-9.7,13.6s-8.5,6.1-13.4,4.5s-4.5-7.3-2.1-11
	S789.2,635.3,787.5,638z"/>
<path d="M755.3,542.5c11.2-2.6,22-7.1,33.5-9c6-0.9,11.2-0.8,16.8,1.7c6.7,3,12.4,7.8,16.6,13.8c4.1,6.3,4.1,13.7,7.6,20.2
	c4,7.5,6.2,15.9,6.4,24.4c0.5,13.6-1.6,26.9-7.6,39.1c-3.9,7.8-10.9,20.8-21.5,16.6c-3-1.2-4.2,3.6-1.3,4.8
	c10.3,4.1,19.2-4.8,24-13.1c6.8-11.6,10.6-24.7,11.3-38.1c0.5-9,0.1-18.3-2.8-26.9c-1.4-4.4-4-8-5.7-12.2s-1.6-8-3.2-11.8
	c-5.2-12.4-19.4-24-33.3-24.1s-28.2,6.6-42.2,9.8C750.8,538.5,752.1,543.3,755.3,542.5L755.3,542.5z"/>
<path d="M880,1085.7c-8.3-5.4-16.7-10.7-24.8-16.3s-14.8-9.8-21.3-15.9c-3-2.9-5.5-6-8.9-8.6c-5.4-4.3-11.9-7.1-18.7-8.2
	c-15.6-2.2-26.7,10.5-37.2,19.8s-27.7,14.1-43.1,13.5c-7-0.2-13.5-3.3-19.6-6.6c-3.9-2.1-8.5-5.9-13.1-6c-7.1-0.3-6.1,11.1-6.3,15.6
	c-0.3,10.9,0.1,21.8,0.6,32.6s0.9,19.7,2.4,29.4c0.7,6.3,3.7,12,8.3,16.3c8.9,8.1,21.9,11.2,33.3,13.5c9.5,2,19,3.4,28.5,5.5
	c7.9,1.8,15.8,3.9,23.5,6.1c12.1,3.5,23.8,7.8,35.9,11.1c10.3,2.6,20.8,4.6,31.4,6c13.8,2,27.7,3.2,41.6,3.8
	c12.5,0.4,25.3,0.3,37.5-2.3s22-6.4,31.1-12.6s15.8-16.7,15.6-28.8s-5.8-25.8-16.2-33.7s-20.8-9.7-31.8-12.6
	c-5.3-1.2-10.5-2.8-15.6-4.7c-5.5-2.3-10.8-5.5-16.2-8.1S885.3,1089.1,880,1085.7c-2.8-1.8-5.3,2.6-2.6,4.3c5.4,3.4,11.3,6,17,8.8
	s10.3,5.5,15.7,7.8c9.8,4.3,20.4,6,30.6,9.2s20.5,8.7,26,18.7s7.4,25.4,0.1,35.7s-17.2,13.4-27.1,16.8c-10.4,3.4-21.3,5.2-32.2,5.4
	c-25.2,0.7-50.8-2.2-75.5-7.1c-9.6-1.9-18.7-4.8-28-7.8c-13.7-4.4-27.5-8.5-41.6-11.7c-16.2-3.8-33.3-5-48.8-11.2
	c-7-2.7-13.9-6.9-17-14s-2.6-13.3-3.1-19.7c-0.8-10.9-1.3-21.8-1.5-32.6c-0.1-8-0.7-16.7,0.7-24.4c0.1-0.5,0.2-0.9,0.3-1.4
	c0-0.4-0.1-0.2,0.1-0.3s0.2,0.2,0.4,0.2c1,0.3,2,0.7,2.9,1.2c5.2,2.5,10,5.7,15.3,7.9c6.4,2.8,13.4,3.9,20.4,3.4
	c7.5-0.3,14.9-1.7,22.1-3.9c6.1-2.1,11.8-5.3,16.8-9.5c5.5-4.7,10.5-10.2,16.5-14.4s12.8-6.8,20.3-5.1c6,1.4,11.5,4.4,16.1,8.5
	c3.5,3,6.4,6.6,10,9.6c6.2,5.2,13,9.7,19.7,14.3s15.9,10.4,23.8,15.6C880.1,1091.7,882.6,1087.4,880,1085.7z"/>
<path d="M956.1,1159.6c-21.1,9.2-44.7,11.3-67.4,10.2c-12.5-0.7-25-2.2-37.3-4.6c-8.5-1.6-17.6-3.1-25.8-6.1l-17.9-6.2
	c-5.9-1.9-12.1-4.3-18.3-4.9c-11.2-1.2-22.3-2.5-33.5-4.3c-9.4-1.6-18.8-3.4-28-5.9s-15.8-4.4-22.7-8.6c-2.7-1.7-5.2,2.6-2.5,4.3
	c6.1,3.7,13.1,6,20,8c8.4,2.4,16.9,4.4,25.5,5.9c13,2.3,26.2,4.3,39.3,5.4c5.1,0.4,10,2.1,14.9,3.6c6.7,2.1,13.3,4.5,19.9,6.8
	s14.9,4.2,22.4,5.8c12.2,2.5,24.6,4.3,37,5.3c25.9,2,52.9,0.2,76.9-10.4C961.5,1162.6,959,1158.3,956.1,1159.6L956.1,1159.6z"/>
<path d="M602,809.9c0,0-19.9,43.1-25.4,92.2l19-42.1C595.6,860,593.4,824,602,809.9z"/>
<path d="M138.4,1091.2c15.1-1,70.8-37.9,95.5-66.5c0,0-76.6,51.3-103.8,55.8L138.4,1091.2z"/>
<path d="M421.3,683.8c0,0,20,6.1,23.9,13.9s-0.9,22.7-0.9,22.7l37.3-28.6L421.3,683.8z"/>
<path d="M625.1,336c6.3-0.2,9,10.6,10.6,15.2c2.3,6.5,4.2,13.2,5.5,20c2.8,14.3,3.3,28.9,1.6,43.4c-0.8,7.2-2.2,14.3-4.2,21.3
	c-2,6.9-5.3,13.5-6.2,20.6s2.1,12.2,4.7,18.2c1.2,2.6,3.4,7.1,1.8,9.9c-0.8,1.3-2.4,1.9-3.7,2.6l-6.4,3.6l-5.3,2.9
	c-2,1.1-4.6,2.1-6.4,3.6c-0.8,0.8-1.5,1.8-1.8,2.9c-3,6.5-6.4,12.7-10.1,18.8c-1.7,2.7,2.6,5.2,4.3,2.5c3.6-5.9,6.9-12,9.9-18.3
	c0.9-1.9,0.7-2.2,2.4-2.8c4-1.6,7.9-4.4,11.7-6.5s6.3-2.9,8.6-5.2s2.5-5.5,2-8.4c-1-7.1-6.4-12.9-6.9-20.1s4.1-15.6,6.2-23
	c2.1-7.6,3.6-15.3,4.5-23.1c2.7-23.9-0.7-48.1-9.7-70.4c-2.4-5.7-5.9-12.9-13.1-12.7C621.9,331,621.8,336,625.1,336L625.1,336z"/>
<path d="M539.5,412.5c-3.9-7.2-8.4-15.2-16.2-18.8s-16.3-1.9-22.7,3c-15.9,12.3-11.1,35.3-2,50c5,8,11.9,14.9,21.6,16
	c3.2,0.4,3.2-4.6,0-5c-9.4-1-15.5-9.9-19.6-17.6s-7.3-19-4.2-28.7s11.1-16,20.6-14.5s14.2,10.8,18.2,18.1
	C536.7,417.9,541,415.4,539.5,412.5L539.5,412.5z"/>
<path d="M510.5,412c6.6,4.8,10.8,12.3,11.4,20.4l4.9-0.7c-0.8-4-3-7.5-6.2-10c-1.5-1.4-3.6-2.1-5.6-1.7c-2,0.6-3.7,2-4.7,3.8
	c-4.6,7.7-0.6,17.2,6.4,21.7c2.8,1.8,5.3-2.6,2.6-4.3c-4.5-2.8-7.2-8.3-5.3-13.5c0.3-0.8,1-2.6,2-2.8s1.9,1,2.4,1.5
	c1.9,1.8,3.1,4.1,3.6,6.7c0.6,2.7,5.1,2.1,4.9-0.7c-0.7-9.9-5.8-19-13.9-24.7C510.4,405.8,507.9,410.1,510.5,412z"/>
<path d="M538.5,418.5c3.2,0,3.2-5,0-5S535.3,418.5,538.5,418.5z"/>
<path d="M633.7,342.4c-12.4,14.1-21.8,30.9-35.3,44c-4.2,4.1-9.6,7.1-14.8,9.7c-6.6,3.4-13.5,5.9-20.7,7.7
	c-7.5,1.9-15.6,2.9-23.1,0.6c-3.1-1-4.4,3.8-1.4,4.8c14,4.3,30.1-0.8,42.9-6.5c6.3-2.7,12.2-6.2,17.7-10.3
	c6.6-5.2,11.8-12.3,16.9-18.9c7-9.3,13.7-18.9,21.3-27.6C639.4,343.5,635.8,340,633.7,342.4z"/>
<path d="M612.2,426.3c0.6,0.9,0.9,2,1,3.1c0.2,2.4-0.1,4.7-0.8,7c-0.3,1-0.7,1.9-1.3,2.8c-0.7,0.8-1.7,1.2-2.7,1.2
	c-1.5-0.3-2.7-1.3-3.1-2.8c-0.7-1.8-0.7-3.7-0.2-5.5c0.4-1.8,1.2-3.5,2.2-5.1c0.3-0.6,0.7-1.1,1.3-1.5c0.7-0.4,1.5-0.5,2.2-0.3
	C611.4,425.4,611.9,425.8,612.2,426.3z"/>
<path d="M610.6,427.3l0.3,0.4c-0.1-0.2,0.1,0.3,0.1,0.4c0.2,0.4,0.3,0.9,0.3,1.3v0.3c0,0.3,0.1,0.6,0.1,1c0,0.6,0,1.2-0.1,1.8
	c-0.1,1.2-0.3,2.3-0.7,3.4c-0.2,0.9-0.6,1.7-1.2,2.3c-0.3,0.2-0.6,0.3-0.9,0.3l-0.5-0.2c-0.6-0.6-1.1-1.3-1.2-2.2
	c-0.4-2.1,0-4.3,1-6.2c0.4-1,1-1.9,1.7-2.7h0.7c0.3,0.1,0.3,0.1,0.2,0c0.2,0.2,0.4,0.4,0.5,0.7c0.7,0.7,2,0.7,2.7,0s0.7-2,0-2.7l0,0
	c-1.1-1.4-2.8-2-4.5-1.6c-1.5,0.3-2.7,1.3-3.4,2.6c-1.9,2.7-2.8,6-2.8,9.3c0.2,3,1.9,6.8,5.5,7s5.5-3.7,6.2-6.8
	c0.4-1.9,0.6-3.9,0.5-5.8c0-1.5-0.5-3-1.2-4.3c-0.6-0.8-1.7-1.1-2.6-0.7C610.5,425.4,610.2,426.4,610.6,427.3z"/>
<path d="M569.7,488.5c-1.1,0.9-1.6,0.2-1.3,0.4s0.5,0.3,0.3,0.2l1.3,1.1l2.6,2.2c1.6,1.5,3.2,3.1,4.8,4.8c3,3.2,5.7,6.7,8,10.5
	c1.8,2.7,6.1,0.2,4.3-2.5c-2.9-4.6-6.2-8.9-10-12.8c-1.8-1.8-3.7-3.6-5.7-5.3s-5-4.5-7.8-2.1c-1,0.9-1,2.4-0.1,3.4
	c0,0,0.1,0.1,0.1,0.1C567.2,489.5,568.7,489.5,569.7,488.5L569.7,488.5z"/>
<path d="M629.1,392.9c-2.5,3.8-6.9,5.8-10.9,7.7c-4.7,2.3-9.6,4-14.6,5.3c-3.1,0.8-1.8,5.7,1.3,4.8c5.6-1.5,11.1-3.5,16.3-6
	c4.6-2.2,9.3-4.9,12.2-9.3C635.2,392.7,630.9,390.2,629.1,392.9z"/>
<path d="M654.4,337.2c15.4,23.5,12.7,54.5-6.6,75c-2.2,2.3,1.3,5.8,3.6,3.5c20.8-22.1,23.8-55.5,7.3-81
	C657,332,652.7,334.5,654.4,337.2z"/>
<path d="M425.8,427.7c-3-7.2-6.4-14.2-9.1-21.6c-3.7-9.6-4.9-20-3.7-30.2c1.9-16.2,7.9-32.3,16-46.4c15-26.6,39.8-47,68-58.6
	c8.5-3.5,17.5-5.5,26.7-5.9c7.5-0.2,15-0.1,22.5,0.5c17,0.8,33.8,2.3,49.6,9.5c3.8,1.8,7.5,3.9,11.1,6.2c1.7,1.2,3.4,2.4,5,3.7
	s2.5,2.7,4.1,3.3s1.8,0.3,2.6,0.6c5.6,1.4,11,3.5,16.1,6.3c18.6,9.7,30.8,28.4,32.1,49.3c0.3,3.7,0.3,7.5,0.1,11.2
	c-0.2,3.2,4.8,3.2,5,0c0.7-13.4-1.4-27-7.9-38.9c-5-8.9-12-16.5-20.5-22.1c-6.1-4.2-12.9-7.4-20-9.6c-1.8-0.6-3.6-0.9-5.4-1.5
	l-0.6-0.2c-0.9-0.4-2.9-2.6-4.1-3.5s-3.7-2.7-5.6-4c-15-9.4-32.7-13.6-50.2-14.8s-33.4-2.6-49.4,1.1s-32.2,12.7-45.7,22.6
	c-25.5,18.6-43.7,45.4-51.5,75.9c-2.6,9.9-4.3,20.3-3.2,30.5s4.9,19,8.8,28c1.5,3.3,3,6.6,4.4,9.9S427,430.7,425.8,427.7
	L425.8,427.7z"/>
<path d="M735.7,690.2c0,0-20.5,8.1-16.8,21.2s16,52.6,16,52.6l-36.5-67.9L735.7,690.2z"/>
<path d="M252.4,272.7c27.8-15.8,61.6-18.4,88.2-36.7c24.7-17,42.1-46.9,45.3-76.6c3.6-33.1-13.5-63-36.3-85.7
	c-22.4-22.1-50.4-37.6-81.1-44.7C207.4,14.9,142,38.8,103.1,87.7s-46.9,124.1-5.2,175.4c16.6,20.5,38.9,32.7,65.1,35.9
	c22.7,2.8,44.4-3.8,64.9-13.4C236.3,281.7,244.4,277.3,252.4,272.7c2.1-1.2,0.2-4.5-1.9-3.3c-22.3,12.9-47.1,25.8-73.4,26.6
	c-22.1,0.6-44.3-6.2-61.4-20.2C65,234.2,62.5,158.7,95.1,105.4c31.3-50.9,91.6-81.6,151.1-76.2c30,2.8,58.7,13.8,83,31.8
	c25.1,18.7,48.8,46.7,52.9,78.7c4.3,34-13.5,70.6-40.5,91s-62.3,22.4-91.1,38.7C248.4,270.6,250.3,273.9,252.4,272.7z"/>
<path d="M336.7,310.4c-2.1-5.4-6.7-9.4-12.3-10.8c-6.1-1.6-12.6,0.2-16.9,4.8c-4.4,4.6-6.2,11.5-3.1,17.4c5,9.6,18.9,7.8,25.1,4.9
	c0.4-0.2,0.6-0.4,0.8-0.7C335.7,322.8,338.8,316.6,336.7,310.4z M308.2,320.9c-2.3-3.3-1.9-9.4,1.2-13c3-3.8,7.7-5.7,12.5-5
	c4.4,0.6,8.3,3.2,10.5,7c2.8,5.2,0.2,10.7-4.7,13.4c-0.2,0.1-0.4,0.3-0.5,0.4C322.9,325.5,312.3,326.8,308.2,320.9z"/>
<path d="M385.6,347.6c-1.5-3.8-4.7-6.6-8.6-7.6c-4.3-1.1-8.8,0.2-11.9,3.4c-3.1,3.2-4.3,8.1-2.2,12.2c3.5,6.8,13.3,5.5,17.7,3.5
	c0.3-0.1,0.4-0.3,0.5-0.5C384.8,356.2,387,351.9,385.6,347.6z M366.2,354.6c-1.5-2.2-1.2-6.1,0.8-8.4c1.9-2.5,5-3.7,8.1-3.2
	c2.9,0.4,5.4,2.1,6.8,4.5c1.8,3.4,0.1,7-3.1,8.7c-0.1,0.1-0.2,0.2-0.3,0.3C375.7,357.5,368.9,358.4,366.2,354.6z"/>
<path d="M167.3,119.9c-32.3,20.6-33,63-20,95.2c5.7,14.2,12.7,31.5,31,29c15.7-2.1,28.6-15,36.9-27.6c9.3-14.2,14.5-30.7,18.2-47.1
	c4.2-18.3,9-39.2,3-57.6c-4.9-15.3-20.1-21.5-33.7-11.6s-21.3,32.2-23.9,48.9s-2.4,34.8,6.1,49.2s22.5,17.3,36.6,9.7
	c16.3-8.8,30.4-24,41-39.1c9.4-13.3,16.5-30.3,9.9-46.5s-21.5-20.4-36.2-14.8s-26.5,20-32,35.1s-5.3,33.2,3.2,47.5s21,22.4,35.9,24
	c17.3,1.9,33.8-7.8,46.9-18s25.4-24.3,29.2-41.2c3-13.7,0.1-29.2-8.9-40s-25.7-15.1-39.9-10.1c-32.7,11.5-38.8,57.3-17.4,82
	c9.9,11.6,26.2,15.2,40.7,11.3s25.4-15.4,30-29.5c11-33.2-13.4-65-44.4-75.2c-18.9-6.2-39.7-5.3-58.7-0.2
	c-15,4.1-37.7,11.5-43.3,27.9s8.7,25.9,23.2,24.2s27.5-14,29.4-28.7s-5.9-27.9-18.2-34.2c-15-7.7-34.5-2.5-49.1,4.1
	c-28.5,12.9-49.2,43.7-36.4,75.1c5.8,14.1,17.9,24.1,33.1,26.1c17.9,2.5,35.7-5.5,50.7-14.4c13.3-7.9,28.9-17.9,34.9-32.9
	s-0.9-29-12.5-37.9c-14-10.6-33.3-11.8-49.6-6.4s-29.6,17.6-38.7,32s-15.9,33.3-11.1,50.5s18.8,25.7,33.7,30.7
	c39.5,13.1,81.2-2.5,115.6-21.9c9.2-5.2,18.5-10.5,27.2-16.5c5.8-4,10.8-9.3,10.2-16.8c-1.2-14.5-17-20.7-29.4-21.5
	c-17.1-1.2-35.4,4.3-50.8,11.3s-32.4,18.6-40,34.8c-6.7,14.1-3.6,29.7,6.5,41.3c11.4,13.2,28.6,18.3,45.6,17.3
	c32.1-1.8,70.6-20.6,83.8-51.5c2.9-6.7,5.4-15,4.1-22.4s-7.5-12.2-14.1-15c-15.7-6.8-33.7-1.7-48.6,4.8s-33.9,16.3-41.1,32.6
	c-6,13.4-3.2,30.4,11.1,37c14.3,6.6,31.1-0.5,42.5-10.6c13.4-11.9,22.7-27.7,26.5-45.2c6.6-32.2-10.4-68.8-43.2-78.6
	c-29.2-8.7-73.5,9-66.3,45.5c3.1,15.5,15.1,29.3,30.4,33.6c14.2,3.9,29.3-1.7,37.6-13.8c8.1-12.1,5.5-27.2-4.3-37.4
	s-26.8-15.9-42-15.2c-34.3,1.6-67,28-68.7,63.6c-1.4,31.1,29.2,60.7,60.6,49.4c15-5.4,27.8-18.1,31.8-33.7
	c3.6-13.6-1.6-27.8-14.3-34.5c-28.1-14.6-60.4,7.2-72.4,32.6c-6.5,13.9-8.8,30.1-4.6,45s15.4,26.1,31.4,23.6s31.9-18.1,42-31.5
	s19.3-32,8-46.3c-9.3-11.8-27.1-13.7-41-13.1c-16,0.7-33.1,6.1-42.3,20c-7.5,11.3-9,26.7-0.1,37.6s26.3,13.8,40.4,15.2
	c2.4,0.2,2.4-3.5,0-3.7c-13-1.3-28.7-3.2-37.6-14s-4.8-29.8,5.9-39.4s27.9-12.7,42.6-11.9c12.5,0.6,28.9,4.8,32.7,18.6
	c4.4,16.5-10.2,34.3-20.7,45.4s-25.3,23.5-40.9,18.8s-19.2-23.6-18.7-37.2c0.6-13.7,5.4-26.8,13.7-37.7
	c8.1-10.4,19.5-18.8,32.5-21.6s26.1-0.9,34.5,8.4c10.2,11.1,6.7,27.5-1.3,38.7s-24.2,21-39.5,19.2s-26.3-10.9-33.1-22.9
	s-7.3-27.4-2.7-40.7c10.4-29.6,43.6-48.7,74.6-43.5c12.2,2.1,25.4,8.8,31.5,20c7.3,13.5,0.9,28.9-12.1,36
	c-31.1,16.7-65.6-27.6-43.9-54.5c18.7-23.1,55.7-22.1,76.6-2.8s26.1,54.2,12.6,80.8c-6.5,13.1-16.9,25.6-30,32.5s-35,5.4-38.7-12.6
	s9.4-30.1,22.3-38.2s25.9-14.3,40.1-16.8c7.4-1.4,15.2-1.5,22.3,1c4.1,1.4,8.7,3.7,11.5,7.1s3.3,10.2,2.3,15.6
	C333,187,325,198.5,315,207.5c-21.2,18.8-56.2,32.2-84.3,24c-13.6-4-25.9-14.6-29.8-28.4s4.1-29.4,15.1-39.4s26.1-17.7,40.9-22.2
	c13-4,27.7-7.2,41.2-4c6.2,1.6,12.2,4.7,15.7,10.3c6.8,11.1-2.6,18-11,23.2c-13.4,8.3-26.9,16.4-41,23.1c-29.3,14-64,22.4-95.6,11.1
	c-14.1-5.1-27.1-15-30.1-30.4s3.3-31.8,11.4-44.7c16.2-25.7,51.5-44.7,80.3-26.3c12.9,8.3,20,24,12.4,38.4
	c-6.5,12.2-19.4,20.5-30.9,27.4c-13.1,7.9-27.9,14.9-43.5,14.9c-14.2,0.2-27.3-7.6-34-20.1c-13.8-25.8-0.2-54.7,23-69.3
	c12.3-7.7,28.1-13.4,42.7-12.5s28.2,12.9,29.1,28.6s-10.7,27.8-24.9,30.3c-7.9,1.3-18.4-0.9-21.1-9.5s5-18.3,12.6-23.2
	c27-17,66.6-22.1,95.6-7.5c25.5,13,42.4,43.1,29.8,70.9s-52.4,33-67.7,4.9c-14.3-26.2-4.1-67.5,29.7-70.7c14.6-1.3,27,7.1,32.6,20.3
	s4.3,27.5-2,39.9s-17.7,23.2-29.6,31.2s-27.4,15.7-42.9,11.8c-29.9-7.4-41-40.9-30.2-67.7c5.5-13.9,16.6-27.2,31.3-31.6
	c16.9-5.1,30.6,7.3,31.5,24s-10.5,32.1-20.9,44s-22.7,25.1-37.2,29.2c-16.2,4.7-26.3-9-29.9-23.1s-2.5-31.2,1.6-45.8
	s11.5-34.1,26.6-38.7c22.1-6.8,24.7,23.5,23.5,38c-1.4,15-4.3,29.8-8.7,44.2c-3.9,13.1-9.2,26-17.5,36.9s-21.6,23-36.1,21.6
	c-8.7-0.8-12.9-7.8-16.5-14.9c-4-7.7-7.2-15.8-9.6-24.1c-8-27.9-3.6-61.7,22.6-78.5C171.2,121.8,169.3,118.6,167.3,119.9
	L167.3,119.9z"/>
<path d="M245.2,1151.3c0,0,145.8,4.3,231.1-4.5c55.6-5.8-112.7-20.6-112.7-20.6S301.6,1156.9,245.2,1151.3z"/>
<path d="M438.5,1149.6c15.9-2.6,32.1,1,48-2.1c3.2-0.7,1.9-5.5-1.3-4.8c-15.8,3.1-32.1-0.5-48,2.1
	C434,1145.3,435.3,1150.1,438.5,1149.6z"/>
<path d="M482.9,1155.9l24.6-3.7c1.3-0.5,1.9-1.9,1.4-3.2c-0.4-1.1-1.6-1.8-2.7-1.6l-24.7,3.7c-1.3,0.4-2,1.7-1.7,3
	C480.1,1155.4,481.5,1156.3,482.9,1155.9C482.9,1155.9,482.9,1155.9,482.9,1155.9z"/>
<path d="M519.5,1154.8c5.3,0,10.7-0.3,16-1c1.4,0,2.5-1.1,2.5-2.5c-0.1-1.4-1.1-2.4-2.5-2.5c-5.3,0.7-10.6,1.1-16,1
	c-1.4,0-2.5,1.1-2.5,2.5S518.1,1154.8,519.5,1154.8z"/>
</svg>
