<?xml version="1.0" encoding="utf-8"?>
<!-- Generator: Adobe Illustrator 23.1.1, SVG Export Plug-In . SVG Version: 6.00 Build 0)  -->
<svg version="1.1" id="Layer_1" xmlns="http://www.w3.org/2000/svg" xmlns:xlink="http://www.w3.org/1999/xlink" x="0px" y="0px"
	 viewBox="0 0 1479.8 1735.4" style="enable-background:new 0 0 1479.8 1735.4;" xml:space="preserve">
<style type="text/css">
	.st0{fill:#DCDBF8;}
	.st1{fill:#734C4C;}
	.st2{fill:#BFD7FF;}
	.st3{fill:#FFFFFF;}
	.st4{fill:#7070B8;}
	.st5{fill:#FEC3AA;}
</style>
<title>mental health problems</title>
<path class="st0" d="M1383.1,596.2C1332.6,448.6,1175,369,1079.7,245.4c-25.4-33.1-46.9-69.8-78.3-97.2
	c-24.8-21.5-54.7-36.2-84.2-50.6C825.4,52.7,730.5,6.9,628.5,0.7c-74.2-4.4-147.9,12.4-219.9,30.4c-73.7,18.4-148.8,39.1-210.8,83
	C82.5,195.7,32.4,358.3,81.5,490.7c28.1,75.5,85.3,150.1,63.8,227.8c-14.8,53.7-63.5,89.8-96.1,135.1C5.9,913.9-8.2,994.4,12.2,1066
	c38.6,135.4,181.8,211.8,317.7,248.7c155.9,42.3,323,52.5,479.1,10.7l25.9-30.2c143.5-5.6,284.3-65.9,387.3-166
	s167.4-239,177.1-382.3C1402.8,696.2,1399.5,644.4,1383.1,596.2z"/>
<path class="st1" d="M616.2,402.8c0,0-22.1-9.2-57.5,20s-38.8,53.8-46.3,65.1s-23.8,45.1-28.4,68s3.7,43.8,9.2,46.3
	c0,0-10.9,48,4.1,76s40.1,41.3,40.1,41.3s13.8,17.1,37.1,17.5s205.5-79.9,219.7-94.5s19.8-36.1,12.3-53.6s-34.2-43.8-45.9-67.2
	s-20.4-49.7-32.9-70.1c-9.8-15.9-45.1-65.5-84.7-52.2C643,399.4,627.5,408.2,616.2,402.8z"/>
<path class="st2" d="M580.3,724.6c0,0-46.1,27-56.4,51s-40.4,110.9-40.4,110.9l-20.6,60.9c0,0,0.3,26,56.1,40.6s68.1,3.1,68.1,3.1
	l20.1-70.3c0,0,12,30.1,40.4,53.3s43.8,37.8,48.1,48.9c4.3,11.1,4.3,53.3,4.3,53.3s220.7-0.9,274-17.2
	c53.3-16.3,64.6-63.2,64.6-63.2s-34.5-21.8-51.7-31.3s-43.8-23.2-56.7-44.6s-37.8-122.9-39.5-158.1c0,0,13.5-73.6-21.9-105.2
	c0,0-26.2-22.7-61.5-21s-43.8,4.4-43.8,4.4c-0.8,10.4-2.8,20.7-6,30.7c-5.1,15.5-15.9,33.2-52.9,48.6S608.7,746.1,580.3,724.6z"/>
<path class="st3" d="M933.4,1626.5c2.7-8.1,5.5-16.2,8-24.4s6-18.4,6.3-27.4c0,0,0.5-12.4,9.3-21.2s23.4-5.6,35.2-5.1
	s22.4-4.2,35-13.8c12.6-9.6,13.4-30.4,18.9-27.6s36.8,45.4,40.1,53.6s3.1,18.9-17.7,42.1s-31.7,41.7-41.8,56.4s-49.9,57.4-74.6,67.3
	c-17.8,7.1-41.1,14.3-52.7-12.6s15.2-43.6,22.7-62.1C924.7,1645.3,931.5,1632.4,933.4,1626.5z"/>
<path class="st4" d="M788,1054.8c0,0-121.1,24.1-185,67.2s-51.5,90.5-50.6,88s-30.7,3.3-44,54.7s-21.6,88,42.3,117
	s182.6,19.9,182.6,19.9s98.3,58.6,111.5,71.9s58.6,57.6,65.2,56.8s91.3-64.8,90.4-73.1s-82.1-97-82.1-97s128.6-4.2,131.9-7.5
	s12.3-29.2,12.3-29.2s18.1-50.7,19.3-74.5c1-20.9,2.4-20.8,2.4-20.8l-97.9-0.8c0,0,66.4-20.7,86.3-45.6s33.2-55.6,27.4-99.6
	s-53.1-83.8-61.4-86.3s-33.2,36.5-122,44.8C916.6,1040.7,807.1,1045.7,788,1054.8z"/>
<path class="st5" d="M481.5,970l-57.2,130.7c0,0-46.4,126.3-54,138.6s-28.9,22.8-30.3,22.3s-49.7,12-61.2,15.9
	c-16.2,5.6-28.2,17.7-29.2,23.4c0,0-11.3,11.8-10.4,18c0.7,3.6,3.2,6.7,6.6,8c0,0-8.4,10.2,0.6,9.8s31.2-17.4,36.8-18.8
	s45.5-7.6,45.5-7.6s-18.5,12.8-23.7,14.7s-20.3,3.3-18,10.4s11.9,8.5,20.8,8.5c4.4,0,16.6-5.6,30.4-9.6s31.2-7.1,36.9-9.8
	c10.8-5.2,14.1-1.9,30.7-30.7s50.7-72,51.6-73.4s62.9-112.6,86.1-158.1s29.5-67.1,29.5-67.1s-34.4-2.3-48.7-6L481.5,970z"/>
<path class="st5" d="M931.8,1517.6c-0.5,1.5,28.5,33.1,28.5,33.1s12.5-3,32-3.5s27.5-8.6,37-14.1c9.5-5.5,10-21,10-21
	s-40-31-47.5-44.5L931.8,1517.6z"/>
<path class="st5" d="M1058.8,1334.5l27,0.5c0,0,13.6-14,20.1-24.5s9.5-27,5-38.5c-2.8-7-5.9-13.9-9.5-20.5l-20.6,4
	c0,0-1.8,21.8-7,39.5C1069.6,1308.5,1064.6,1321.6,1058.8,1334.5z"/>
<path class="st3" d="M1125,1412.9c-4.7-7.1-9.2-14.4-14.1-21.4s-10.6-16.2-17.5-22.1c0,0-9.4-8.2-10.6-20.5s10.2-21.8,17.9-30.8
	s10.7-20,11.2-35.8s-15.4-29.5-9.8-32s58.5-0.4,67,2.2s16.6,9.4,21.7,40.1s12.8,50.8,17.9,67.9s13.6,74.8,5.9,100.3
	c-5.6,18.4-14.6,41-42.8,33.3s-24.5-39.2-34.3-56.6C1134.2,1431.4,1128.3,1418.1,1125,1412.9z"/>
<path class="st5" d="M553.8,572c0,0,9.2,40.1,13.8,49.1s36.2,35.5,48.3,38.7c0,0,3.2,3.8,3.7,5.2s6.1,27.2,5.2,30.7
	s-19.3,18.2-28.6,22.2s-13,4.9-13,4.9s5.2,17.6,46,13.9s84.1-17.9,99.1-27.5s29.5-29.7,32.9-46.5s2.3-22.6,2.3-22.6
	s-16.4,5.3-26,4.7s-18.2-2.9-22.2-9.3s-10.7-27.7-10.7-27.7l-1.8-12c0,0,17.4-11.1,22.3-21.2s4.6-30.1-1.7-37.6s-17.1-5.8-22,0.6
	c0,0-19.3,10.7-35.2-1.8s-24.6-22.5-35-38.4s-27.4-44.8-53.7-6.1c0,0-7,34.7-12.2,44.8S553.8,572,553.8,572z"/>
<path d="M818.1,1269.8c0,0,99.3,65.3,109.6,74.4c7,6.1,14.5,11.4,22.5,16.1l-35.5,3.4c-12.2-15.2-25.4-29.8-39.3-43.5
	C849,1294.5,817.1,1268.5,818.1,1269.8z"/>
<path d="M786,1240.3c0,0,91,8.3,132,9c66.8,1.2,88.2-24.8,88.2-24.8l-35.8,7.5c0,0-32.3,6.7-81.6,11s-101.6-5.5-101.6-5.5
	L786,1240.3z"/>
<path d="M721.9,964.8c0,0,32.2,8.3,47.7,4.1s38.6-11,48-25.8l21.7-34.9c0,0,13.5,0.3,14.2-1.4s1.7-9,1.7-9l-19.9-5.5
	c0,0-17.7,38.7-39.2,54.6S742.3,974.1,721.9,964.8z"/>
<path d="M870.4,857.7c0,0,12.6-32.4,17.2-39.1s9.2-14.7,9.2-14.7l-6.1-42L870.4,857.7z"/>
<path d="M600.8,887.3c0,0-3.9,34.3-4.2,46.6s0.9,26.2,0.9,26.2l9.7-39.3C607.2,920.8,602.6,909.1,600.8,887.3z"/>
<path d="M501,981.3c1.1-0.4,45.5,22.5,67.4,22.5l3.5-9.1c0,0-21.8,0-39.1-5.7C508.3,981,501,981.3,501,981.3z"/>
<path d="M622.6,664.6c0,0,5.3,26,3.9,29s7.9,10.6,12.6,15.7s8.4,12.2,11.1,30.9c1.4,10.2,15.1,60.1,15.1,60.1l-12.7-83.2
	c0,0-10.9-16-15.7-25.5s-10.6-28.3-10.6-28.3L622.6,664.6z"/>
<path d="M618.3,665.4c2.1,9.5,4,19.2,5.8,28.8l0.2-1.9c-8.7,13.8-23.9,20.6-38.4,26.6c-7.3,3.1-14.8,6-21.8,9.7s-13.5,9.3-19.2,15.1
	c-12.9,13.1-24.2,28.8-31.2,45.8c-7.8,18.7-12,38.8-18.2,58.1s-13.6,39.6-21.6,59c-3.9,9.4-8.4,18.6-12.1,28.1
	c-3.1,7.8-4.8,16.9,0.9,24c2.5,3.2,6.1,5.5,9.4,7.9s6.6,4.5,10.1,6.5c7.3,4.4,15,8.2,22.9,11.4c15.9,6.6,33,11.1,50.3,12.1
	c7.3,0.4,14.6,0.1,21.8-0.9c4.5-0.5,10-1.2,13.3-4.7c0.9-1.1,1.5-2.3,1.8-3.7l2.4-7.8c1.4-4.8,2.9-9.6,4.4-14.4
	c3.1-9.7,5.3-19.7,6.8-29.8c0.6-4.9,0.9-9.9,0.9-14.9c0-3.2-5-3.2-5,0c0.2,21.6-7.2,41.9-13.3,62.2c-0.5,1.7-0.7,4-1.9,5.2
	s-2.7,1.5-3.9,1.9c-1.9,0.5-3.8,0.8-5.8,1c-7.9,1.1-15.9,1.3-23.9,0.8c-18.2-1.5-36.3-6.9-52.8-14.6c-8-3.7-15.7-7.9-23-12.8
	c-3.6-2.4-7.6-4.9-10.4-8.2s-3.4-9.1-2.2-13.9s3.6-9.7,5.7-14.4s4.2-9.6,6.3-14.5c4.2-9.9,8.1-19.9,11.9-30
	c7.6-20.3,14.2-40.9,20.1-61.7c2.6-9.9,5.7-19.6,9.3-29.1c3.8-9.2,8.7-17.9,14.6-26c10.7-15,23.3-28.6,40.2-36.4
	c14.8-6.7,30.9-11.6,43.9-21.8c3.1-2.5,6-5.3,8.6-8.4c1.6-2.1,4-4.4,3.6-7.2c-0.8-5.9-2.2-11.7-3.4-17.5c-0.7-3.7-1.5-7.3-2.3-10.9
	S617.5,662.2,618.3,665.4L618.3,665.4z"/>
<path d="M550,784c0.9-0.5,6.7,8.3,7.3,9.3c2.4,3.4,4.6,7,6.7,10.6c4.3,7.2,8,14.8,11.1,22.7c1.2,2.9,6,1.6,4.8-1.4
	c-3.8-9.4-8.3-18.5-13.6-27.2c-2.6-4.2-5.4-8.4-8.3-12.4s-5.9-8.6-10.5-5.9C544.8,781.4,547.3,785.7,550,784L550,784z"/>
<path d="M589.3,835.7c9,21.7,8.1,45.6,11.8,68.4c1.5,10.7,4.8,21.1,9.5,30.8c4.9,9.3,10.9,17.9,17.9,25.7c7.7,8.5,16.2,16.2,25.4,23
	c2.7,2,5.3,4,7.9,6.2c11,9.2,23.2,19.8,29.6,33c2,4,2.6,8.3,3.3,12.7c1,6,1.7,12.1,2.3,18.2s1.1,13,1.4,19.6c0.1,3.2,5.1,3.2,4.9,0
	c-0.6-15.4-1.6-31.4-5.1-46.4c-1.6-6.9-5.9-12.9-10.2-18.3c-5-6.1-10.6-11.8-16.6-17c-9.5-8.6-20.3-15.8-29.7-24.6
	c-16.1-15.1-29.1-33.5-34.1-55.2c-5.8-25.6-3.3-52.8-13.5-77.4C592.9,831.5,588,832.8,589.3,835.7L589.3,835.7z"/>
<path d="M702.6,609.9c2.3,9.1,4.6,18.7,10.7,26.1s17.9,11.5,28.5,11c4.3-0.2,8.7-1.9,12.9-2.7c9.8-2.1,19.7-3.7,29.6-4.8
	c23.6-2.6,47.9-2.6,68.9,9.8c11.5,6.8,21.6,16.4,28,28.2c5.1,9.3,7.2,19.6,8.3,30c2.2,21.5,0.2,43.4-2.8,64.8
	c-3.3,21.8-7.6,43.4-13.1,64.8c-3.9,15.6-8.2,31-13,46.3l-2.1,6.4c-0.3,0.8-0.5,1.5-0.7,2.2l-0.5,1.2c0-0.1,0.2,0-0.2,0
	c-0.7,0.2-1.3,0.2-2,0.1c-2.3-0.3-4.5-0.8-6.6-1.6c-15.8-5.4-30.7-15-44.6-24.1S775,848.2,763,835.9c-1.7-1.8-3.3-3.8-4.8-5.8
	c-1.8-2.7-6.1-0.2-4.3,2.5c3.5,5.3,8.4,9.8,13.2,13.9c7,6,14.3,11.6,21.8,16.9c15.3,10.8,31.3,21.1,48.3,29
	c5.5,2.5,11.4,5.3,17.4,5.9c4.1,0.3,6.6-1.1,8-5c4-11.6,7.4-23.5,10.7-35.4c5.7-20.6,10.6-41.4,14.5-62.5s7.4-45.3,7.5-68.2
	s-2.4-44.2-16.3-62c-8.3-10.5-19.1-18.9-31.3-24.4c-10.9-4.9-22.3-7.1-34.2-7.6c-21.3-0.8-42.8,2.4-63.5,7l-6.9,1.6
	c-3.6,0.7-7.8,0.2-11.4-0.5c-10.2-2.1-16.6-9.1-20.2-18.7c-1.6-4.6-3-9.3-4.1-14.1C706.6,605.4,701.8,606.7,702.6,609.9L702.6,609.9
	z"/>
<path d="M807.7,690.8c-17.8,34.1-33.3,69.6-44.6,106.3c-3.2,10.5-6,21.1-8.4,31.8c-0.7,3.1,4.1,4.4,4.8,1.3
	c10.7-47.8,29.9-93.6,52.5-136.9C813.5,690.5,809.2,688,807.7,690.8L807.7,690.8z"/>
<path d="M719.2,716.6c16.5-7.4,30.1-19.4,37.9-35.7c3.5-7.2,6.1-14.8,7.6-22.6c1-5.9,1.7-13-1.7-18.4c-1.8-2.7-6.1-0.2-4.3,2.5
	c3,4.8,1.8,11.7,0.7,16.9c-1.6,7.1-4,14-7.3,20.5c-7.5,14.9-20.3,25.7-35.4,32.5C713.8,713.6,716.3,717.9,719.2,716.6z"/>
<path d="M478.4,971.1c-26.5,57.5-51.4,115.7-74.7,174.6c-5.9,14.8-11.6,29.7-17.3,44.6l-8.1,21.5c-2.8,7.5-5.1,15.4-8.4,22.7
	c-9.8,21.8-37.3,27.9-58.3,32.7c-12.4,2.9-25,5.5-36.7,10.4c-5.7,2.2-11.1,5.2-16.1,8.7c-5.1,3.7-10.7,8.1-12.6,14.4
	c-0.9,3.1,3.9,4.4,4.8,1.3c1.7-5.6,8-10,12.8-13.1c4.5-2.9,9.3-5.3,14.3-7.3c10.7-4.2,22-6.6,33.1-9.2c20.6-4.7,45.7-10.1,58.9-28.3
	c4-5.6,6.1-12.1,8.4-18.5l8.4-22.7c5.6-14.7,11.2-29.4,16.9-44c11.6-29.5,23.6-58.8,35.9-87.9c13.8-32.7,28.1-65.2,43-97.4
	C484.1,970.7,479.8,968.2,478.4,971.1L478.4,971.1z"/>
<path d="M571.9,992.9c-17,37-34,74-52.2,110.3s-37.5,71.8-59.1,105.9c-10.8,17.1-22.3,33.9-34.4,50.1c-8.2,10.9-16.7,21.2-22.9,33.5
	c-2.1,4.2-3.9,8.4-5.5,12.8c-1,2.5-2.5,4.7-4.5,6.5c-4.5,4.4-10.6,7.1-16.5,9.3c-12.2,4.4-25.1,6.3-37.6,9.7
	c-8,2.3-15.8,5.1-23.8,7.5c-6.5,1.9-14.3,4.4-21.2,2.9c-2.3-0.4-6.9-2.6-6.5-5.5s6.5-5.5,9-6.4c4.4-1.7,9.1-2.7,13.5-4.5
	s8.2-3.9,12.3-5.9c3.8-2.1,7.8-3.8,12-5.1c3.1-0.8,1.8-5.6-1.3-4.8c-9.1,2.6-17.1,8-25.8,11.6s-18.3,3.8-23.3,11.1
	s1.9,12.3,7.6,14.1s14.5,0.1,21-1.6c8.6-2.3,16.9-5.3,25.3-7.8c6.3-1.9,12.7-3.2,19.1-4.6c13.2-3,28.1-6.4,38.6-15.4
	c5.9-5.1,7.4-11.9,10.6-18.6c3.3-7,7.2-13.7,11.8-20c1.4-2,1.4-2,2.9-3.9c3.2-4.1,6.4-8.2,9.5-12.4c6.3-8.5,12.5-17.1,18.5-25.8
	c24-35.2,45.2-72.3,64.7-110.1c19.5-37.8,38-77,55.9-116l6.6-14.4C577.6,992.6,573.3,990,571.9,992.9L571.9,992.9z"/>
<path d="M335.3,1308.6c-9.7,3.8-20.8,2.6-31,3.8s-22.5,2-32.4,8.6c-4.6,3-8.7,6.7-13.2,9.8c-2.2,1.5-4.5,2.9-7,4
	c-1.9,0.9-6,3.1-7.7,1s0.4-4.3,1.5-6c1.6-2.3,3.3-4.4,5.1-6.5c3.4-3.6,7.2-6.9,11.3-9.6c9.4-6.3,20.5-9.8,31.9-9.9
	c3.2,0,3.2-5,0-4.9c-11.3,0-22.4,3.2-32.1,9c-4.9,2.9-9.3,6.5-13.3,10.5c-3.5,3.6-7.9,8.3-9.5,13c-1.5,4.1,0.7,8.5,4.7,10
	c0.1,0,0.3,0.1,0.4,0.1c5.2,1.4,12.2-3.1,16.3-5.8s10-7.9,15.4-11.3s13-5.3,20.2-6s14.2-1.6,21.3-2s13.3-0.6,19.4-3
	C339.6,1312.2,338.3,1307.4,335.3,1308.6L335.3,1308.6z"/>
<path d="M244.6,1324.3c-2.6-0.5-4.7-1.9-4-4.9s2.5-5.2,4.1-7.3c3.3-4.2,7.3-7.8,11.8-10.6c10-6.5,21.8-9.7,33.3-12.6
	c3.1-0.8,1.8-5.6-1.3-4.8c-14,3.5-28.2,7.6-39.6,16.8c-5,3.9-9.7,9.1-12.3,15s0.1,12.1,6.7,13.2
	C246.5,1329.6,247.8,1324.8,244.6,1324.3L244.6,1324.3z"/>
<path d="M720.8,1048.7c9.5,0.8,17.9-4.7,25.5-9.8s15.6-11.1,23.1-17.1c15.3-12.5,30-25.7,44-39.6c8-8,15.9-16,23.8-24.1
	c2.3-2.3-1.2-5.8-3.5-3.5c-26.5,27-53.3,54.3-84.4,76.2c-8.2,5.8-17.9,13.8-28.5,12.9C717.6,1043.4,717.6,1048.4,720.8,1048.7
	L720.8,1048.7z"/>
<path d="M890.2,766.2c4,37.3,11.2,74.2,21.7,110.3c4.6,15.8,9.3,32.1,17.9,46.3s20,23.1,33.6,30.7s30.9,14.5,44.5,25
	c2.5,1.9,5-2.4,2.5-4.3c-23.4-18.1-55.9-24.2-73.5-49.6c-9.3-13.4-14.2-29.3-18.8-44.8c-5.2-17.1-9.5-34.5-13.2-52
	c-4.3-20.3-7.5-40.9-9.8-61.6C894.8,763,889.8,763,890.2,766.2L890.2,766.2z"/>
<path d="M931.8,1042.5c-43.5-2.7-87.1-0.6-130.1,6.3c-21.5,3.4-42.7,8-63.7,13.8c-11.4,3.2-22.6,7.1-34,10.3
	c-21.3,6-42,13.9-61.9,23.4c-14.4,6.7-28.2,14.6-41.3,23.6c-13.3,9.3-26.1,20-35.4,33.3c-17.8,25.7-19.9,58.4-12.5,88
	c3.5,13.8,8.9,27.1,16.1,39.4c4.7,8,10.1,15.7,16.9,22c12.9,12,27.8,22.1,42.2,32c20.8,14.4,42.1,28.1,63.4,41.7s45.3,28.7,68,43
	c18.8,11.8,37.5,23.6,56,35.9c6.1,4.1,12.2,8.2,18.1,12.6c10.2,7.6,19.9,17.1,29.2,26.1c11.7,11.2,23,23.4,35.9,33.3
	c3.3,2.6,7.4,5.9,11.7,6.1c2.5,0.2,4.6-1.1,6.7-2.3c7.5-4.6,14.7-9.6,21.5-15.1c9.9-7.4,19.6-15.1,29.1-23.1
	c8.6-7.1,17.1-14.4,25.1-22.1c2.7-2.7,5.4-5.3,7.8-8.2s3.2-3.7,3.3-5.9s-2.1-5.4-3.5-7.4c-3.1-4.4-6.5-8.5-9.9-12.7
	c-11.2-13.3-23.1-26.1-35.1-38.7c-16.4-17.3-33.1-34.2-50.1-50.9c-18.7-18.5-37.7-36.7-57.2-54.6c-18.5-16.9-37.3-33.6-56.7-49.6
	c-15.6-12.9-31.5-25.5-48.5-36.4c-5.8-3.9-11.9-7.4-18.2-10.4c-2.8-1.3-5.4,2.9-2.5,4.3c14.7,6.9,28,16.6,40.8,26.3
	c18.1,13.6,35.3,28.2,52.3,43.1c19.3,16.9,38.2,34.4,56.9,52.1s36,34.9,53.6,52.7c14.8,15,29.5,30.2,43.7,45.8
	c8.8,9.8,18.2,19.9,25.7,30.3c1,1.4,2,2.8,2.8,4.2s1,2,0.6,1.1c0.1,0.2,0.2,0.4,0.2,0.6c0.2,0.7,0,0,0.1,0s0.5-0.2,0-0.3
	s0.1,0-0.2,0.5c-0.6,0.9-1.2,1.8-1.9,2.7c-2.4,2.8-5,5.4-7.7,8c-16.6,16-34.8,30.6-53.2,44.5c-6.9,5.2-13.8,10.5-21.2,14.8l-1.6,0.9
	l-1,0.5c-0.7,0.4-1.5,0.5-2.3,0.2c-4.5-1.2-8.6-5.2-12-8.1c-21.6-18.3-39.8-40.6-62.7-57.4c-14.1-10.3-29-19.7-43.7-29.1
	c-20.8-13.3-41.8-26.4-62.8-39.6s-44.6-28.2-66.6-42.7c-18.4-12-36.7-24.1-54.3-37.3c-6.1-4.4-11.9-9.2-17.5-14.2
	c-6.3-5.9-11.6-12.7-16-20.2c-14.9-24.5-23-54.5-19.7-83.1c1.8-15.4,7.4-30,16.5-42.6c9.5-12.9,22.7-23.2,35.9-32.1
	c23.8-16,50.2-28,77.3-37.4c7.2-2.5,14.6-4.9,22-7c12.3-3.4,24.3-7.6,36.5-10.9c61.6-16.6,125.5-23,189.1-19
	C935,1047.7,934.9,1042.7,931.8,1042.5L931.8,1042.5z"/>
<path d="M782.6,1238.7c41.6,6.5,83.9,9.2,126,5.7c39.2-3.2,78.5-11.7,114.6-27.6c24.8-10.9,47.1-27.1,61.9-50.2
	c9.5-14.6,15.8-31.1,18.4-48.4c2.3-17.1,0-34.5-5.4-50.8c-5.3-16.2-13.5-31.4-24-44.9c-9.2-11.9-20.4-22.8-33.6-30.2
	c-2.8-1.6-5.7-2.9-8.7-4.1c-3-1.2-4.3,3.6-1.3,4.8c12.9,5.2,24,14.5,33.2,24.8c11.1,12.3,20,26.5,26.3,41.8c6.3,15.4,10,32,9.4,48.7
	s-6.2,33.9-14.4,48.7c-13.1,24-34.4,41.4-58.8,53c-32.9,15.6-69.4,24.2-105.4,28.2c-40.4,4.5-81.3,3.2-121.5-2.1
	c-5.1-0.7-10.2-1.4-15.3-2.3C780.8,1233.4,779.5,1238.2,782.6,1238.7L782.6,1238.7z"/>
<path d="M911.7,1046.3c45.6-7.3,89.3-24,128.2-48.9c2.7-1.8,0.2-6.1-2.5-4.3c-38.6,24.7-81.9,41.2-127.1,48.4
	C907.2,1042,908.5,1046.8,911.7,1046.3L911.7,1046.3z"/>
<path d="M549.3,1206.9c-23.4,9.1-37.1,34.5-44.7,57.1c-4.5,13.2-7,26.9-7.4,40.8c-0.4,12.5,1,25.4,6.4,36.8
	c11.4,24.2,37.2,39.1,61.3,48.2c12.9,4.8,26.3,8.2,40,10c11.3,1.6,22.9,2.3,34.3,3.3c25.6,1.9,51.3,2.3,76.9,0.9l14.6-0.8
	c3.2-0.1,3.2-5.1,0-4.9c-27.1,1.5-54.3,2.4-81.4,0.6c-22.5-1.6-45.6-2.8-67.5-8.9c-24.8-6.8-51.5-19-67.4-40.2s-14.2-47.9-8.6-71.6
	c3.4-14.4,8.8-28.5,16.8-40.9c6.8-10.7,16-20.9,28-25.6C553.6,1210.6,552.3,1205.7,549.3,1206.9L549.3,1206.9z"/>
<path d="M924.1,1364.6c42.3-2,84.5-5.2,126.8-9.6c1.1-0.1,2-0.8,2.4-1.9c2.4-6.9,4.6-13.9,7.2-20.7s5.7-12.9,8.4-19.4
	c3.5-8.7,6.7-17.4,9.4-26.4c5.4-16.9,8.2-34.5,8.5-52.2c0-3.4-0.4-6.8-3.8-8.4s-9.4-2-13.7-2.7c-9-1.3-18.2-2.1-27.3-2.2
	c-21.1-0.3-42.2,2.4-62.5,8.3c-3.1,0.9-1.8,5.7,1.3,4.8c17.3-5,35.1-7.7,53.1-8.1c8.9-0.2,17.8,0.2,26.7,1.1
	c4.4,0.5,8.7,1.1,13.1,1.9c1.9,0.3,3.8,0.6,5.7,1.1c2.9,0.7,2.4,2.6,2.4,5.3c-0.2,17.3-3.5,34.4-8.6,50.9
	c-2.4,7.8-5.2,15.5-8.3,23.1s-6.3,14-9.1,21.1s-4.9,14.1-7.3,21.2l2.4-1.8c-42.2,4.4-84.5,7.6-126.8,9.6
	C920.9,1359.7,920.8,1364.7,924.1,1364.6L924.1,1364.6z"/>
<path d="M935.8,1627.2c2.7-8.1,5.5-16.2,8-24.4s4.4-13.9,5.6-21.1c0.6-3.6,0.6-7.3,1.3-10.8c1.3-5.8,3.8-11.5,8.1-15.6
	c9.2-8.8,24-4.3,35.2-4.4c13.2-0.2,25.6-6.8,35.6-15c7.8-6.4,10.1-15.9,14.4-24.6c0.4-0.8,0.9-1.6,1.5-2.2c-0.7,0.5-0.8-0.3-0.4,0.2
	s0.2,0.1,0.7,0.6c2.1,1.9,4,4,5.7,6.2c11.1,12.9,21.2,26.7,30.1,41.2c2.5,4.2,4.2,8.1,3.6,13.3c-1.2,9.4-8.1,18.1-13.9,25.1
	c-9.4,11.3-19.2,22.2-27.7,34.1c-6.4,8.9-12.3,18.2-18.5,27.2c-4.6,6.4-9.6,12.5-14.9,18.2c-7.5,8.2-15.4,16.2-23.6,23.7
	s-16.3,14.2-25.4,19.9c-7.7,4.8-16.1,8.2-24.9,10.3c-9.1,2.1-19.2,2.2-26.5-4.3s-12.8-20.5-9.7-31.6s9.5-17.9,15.4-25.9
	c3.1-3.9,5.7-8.2,8-12.6c2.2-4.5,4.1-9.2,6.3-13.7S934.2,1631.9,935.8,1627.2c1.1-3.1-3.8-4.4-4.8-1.3c-1.8,5.4-4.5,10.5-7,15.7
	s-3.9,9.3-6.4,13.6c-5.3,9.3-12.9,17.1-18.1,26.5s-7.2,21.4-2.7,32.4s11.8,18.8,23,20.8s19.7-1.1,28.8-4.5
	c9.2-3.5,17.8-8.5,25.5-14.6c17.8-13.8,34-29.6,48.2-47c5.8-7,10.7-14.6,15.7-22.2c7.7-11.4,15.7-22.6,24.5-33.2
	s19.1-20.2,24.8-32.8c2.7-6.1,4-12.8,1.8-19.3s-6.2-11.3-9.7-16.4c-5.5-8.1-11.3-16-17.3-23.7c-4.1-5.2-8.3-11.3-13.5-15.5
	s-10,5.6-11.8,10.1s-4.3,9.9-7.9,13.8c-4.8,5.4-12,9.6-18.6,12.5c-5.9,2.7-12.4,4-18.9,3.7c-6.7-0.3-13.4-1.3-20.1-0.6
	s-11.6,2.3-16,6.6c-4.4,4.4-7.4,9.9-8.9,15.9c-0.9,3.4-1,6.7-1.4,10.1c-0.9,8.1-3.7,15.9-6,23.7s-5.3,16.2-8,24.4
	C930,1628.9,934.8,1630.2,935.8,1627.2z"/>
<path d="M920.8,1721.4c19-5,35.8-15.8,50.6-28.3c8-6.9,15.4-14.2,22.4-22.1c6.1-6.8,12.4-14,17.4-21.6s10.5-18.8,17.7-26.5
	c7.2-7.7,14.3-14.3,21.1-21.8s11.2-12.9,16.3-19.8s8.6-12.2,11.1-19.1c1.2-3-3.7-4.3-4.8-1.4c-2.1,5.9-5.7,11.2-9.3,16.2
	s-9.3,12-14.3,17.7c-7.2,8.2-14.6,16.1-22.5,23.6c-3.4,3.2-6,7.3-8.5,11.2s-6.5,9.9-9.6,15c-3.6,5.5-7.5,10.7-11.8,15.6
	c-6.5,7.9-13.4,15.3-20.8,22.4c-16,15.1-34.8,28.4-56.3,34.1C916.4,1717.4,917.7,1722.2,920.8,1721.4L920.8,1721.4z"/>
<path d="M1127.1,1411.7c-8.5-13.1-16.5-27.2-26.8-39c-2.5-2.7-5.3-5-7.7-7.8c-3.7-4.2-6.1-9.3-7.2-14.8
	c-2.2-13.4,11.1-22.5,18.4-31.8s9.9-21.8,10.5-33.8c0.2-5.9-0.9-11.7-3.4-17.1c-1.9-4.5-4.7-8.5-6.7-12.9c-0.3-0.6-0.7-3-1.2-1.9
	l0.6-0.2l1.2-0.2c3-0.4,6.1-0.6,9.2-0.5c9.1-0.2,18.3,0.1,27.5,0.5c7.8,0.3,15.6,0.9,23.4,2c5,0.5,9.6,3,12.7,6.9
	c6.5,8.1,8.6,19.9,10.4,29.8c2.4,14.1,5.5,28.1,9.5,41.9c2.9,10,6.5,19.8,9.2,29.9c5.2,19.1,7.3,39.5,8.2,59.2s-0.2,39.9-10.5,57.3
	c-5,8.7-12.9,14.3-23.2,13.9s-21.1-5.6-26.8-15.1c-4.8-8-6.6-17.5-9-26.4s-7-17.6-11.2-26.4
	C1132.1,1420.6,1129.7,1416,1127.1,1411.7c-1.7-2.7-6-0.2-4.3,2.5c2.9,4.9,5.5,9.9,7.8,15.1c2.2,4.6,5,9,6.8,13.7
	c3.7,9.2,5,19.1,8.5,28.4s9.1,17.9,18.3,22.4s22.6,6.3,32.4,0.7s13.6-14.3,17.1-23.3c3.6-9.2,5.6-18.9,6.2-28.8
	c1.3-22.9-1.4-46.3-5.6-68.8c-1.8-8.7-4.1-17.2-6.9-25.6c-4-12.4-7.7-24.9-10.6-37.7s-4.3-29.2-9.9-42.7
	c-2.8-6.6-6.9-13.1-13.6-16.2s-12.1-2.8-18.1-3.3c-9.7-0.7-19.4-1.2-29.1-1.4c-7.5-0.1-15.4-0.6-22.8,0.7c-9.1,1.6-2.6,11.2,0,15.8
	s5.6,10.9,6,16.9c0.3,7-0.4,14-2.3,20.8c-1.6,5.9-4.6,11.4-8.6,16.1c-4.4,5-9.2,9.6-13,15.1s-5.8,11.3-5,17.7
	c0.8,5.9,3.1,11.6,6.8,16.3c2.2,3,4.9,5.2,7.4,7.8c5.4,5.5,9.5,12.1,13.9,18.4s9.5,14.6,14.3,21.9
	C1124.6,1416.9,1128.9,1414.4,1127.1,1411.7z"/>
<path d="M1191,1482.3c8.1-18.4,10.4-38.8,9.6-58.8c-0.4-10.6-1.6-21.1-3.5-31.5c-1.4-8.5-2.9-17.5-5.7-25.7
	c-1.7-4.8-3.5-9.6-5.1-14.5s-3.9-10.8-4.6-16.2c-1.2-10-2.1-20-3.8-30c-1.4-8.4-3-16.8-5.2-25s-4.1-14-7.8-20.1
	c-1.6-2.7-6-0.2-4.3,2.5c6.8,11.3,9.2,25.6,11.5,38.3c2,10.9,3.6,21.9,4.5,32.9s5.4,20.5,8.8,30.1c5.5,15.6,8.1,32.6,9.6,49
	c1.9,22.3,0.8,45.8-8.3,66.5C1185.4,1482.7,1189.7,1485.3,1191,1482.3L1191,1482.3z"/>
<path d="M1058.7,1336.9c8.2-1.9,16.8-1.5,25.1-0.8c1.4,0,2.5-1.1,2.5-2.5c-0.1-1.3-1.2-2.4-2.5-2.5c-8.8-0.7-17.8-1-26.5,1
	C1054.2,1332.8,1055.5,1337.6,1058.7,1336.9z"/>
<path d="M1087,1256.3l1.8-0.3h1.4l3.4-0.3h3.5l1.6,0.2h1.5c1.3,0.3,2.7-0.4,3.1-1.7c0.3-1.2-0.3-2.9-1.7-3.1
	c-5.3-0.7-10.7-0.6-15.9,0.5c-1.3,0.4-2.1,1.8-1.8,3.1C1084.3,1256,1085.7,1256.8,1087,1256.3L1087,1256.3z"/>
<path d="M930.4,1521.1c9.7,8.9,19.8,17.3,27.7,27.9c0.8,1.1,2.4,1.4,3.5,0.6c1-0.7,1.3-2,0.8-3.1c-4-5.5-8.6-10.6-13.5-15.3
	c-4.9-4.7-10-9.1-15-13.6C931.5,1515.4,928,1518.9,930.4,1521.1z"/>
<path d="M991.6,1470.8c12.2,17.1,28,31.2,46.3,41.5c2.8,1.6,5.4-2.7,2.6-4.3c-17.6-9.8-32.8-23.3-44.6-39.7
	C994.1,1465.7,989.8,1468.2,991.6,1470.8L991.6,1470.8z"/>
<path d="M689.2,610.3l-0.7,1.5c-0.8,1.8-1.7,3.5-2.7,5.1c-4,6.6-8.7,12.8-14,18.5c-11.1,12.1-25.1,25.2-42.5,25.4
	c-13,0.1-23.4-7.6-33.1-15.4c-7.3-5.9-14.6-11.9-20.5-19.2c-7.6-9.3-13.1-18.9-15.6-30.7c-2.1-9.2-3.3-18.6-3.8-28.1
	c-0.1-3.2-5.1-3.2-5,0c0.3,8.6,1.8,17.1,3.3,25.5c1.7,10.7,5.8,20.9,12.1,29.8c3.3,4.8,7,9.2,11.1,13.3c4,3.7,8.1,7.4,12.3,10.9
	c10.1,8.3,21.4,17.5,34.9,18.7c17.3,1.5,31.8-8.3,43.7-19.8c7.6-7.3,14.4-15.4,20.1-24.3c2.1-3.1,3.8-6.4,5.2-9.9
	C695.1,608.6,690.2,607.2,689.2,610.3L689.2,610.3z"/>
<path d="M698.8,547.6c3-6.7,10-16.3,18.4-11.4c6.3,3.6,9,12.3,9.2,19.1c0.1,7.6-2.3,15.1-6.7,21.3c-4.5,6.6-10.9,14-18.8,16.2
	c-3.1,0.9-1.8,5.7,1.3,4.8c9.6-2.7,17.2-11.3,22.4-19.4c5.4-8,7.7-17.7,6.3-27.3c-1.2-8.1-6-18.3-14.7-20.5
	c-10.3-2.6-17.9,6.3-21.7,14.6C693.2,547.9,697.4,550.5,698.8,547.6L698.8,547.6z"/>
<path d="M718,545.3c-5.8-1-9.5,4.1-12.2,8.5c-2.5,4.4-4.3,9.1-5.2,14.1c-0.4,1.3,0.4,2.7,1.7,3.1c1.3,0.3,2.7-0.4,3.1-1.7
	c0.7-4.1,2-8.1,4-11.7c0.9-1.7,2-3.4,3.2-5c1-1.1,2.5-2.7,4.1-2.5c1.3,0.5,2.7-0.1,3.2-1.4c0.5-1.3-0.1-2.7-1.4-3.2
	C718.3,545.4,718.2,545.3,718,545.3L718,545.3z"/>
<path d="M706.8,561.6C706.4,561.5,706.7,561.6,706.8,561.6c0.3,0.2-0.3-0.2,0.2,0.1l0,0l0.4,0.4c0.1,0.1,0.4,0.5,0.2,0.2l0.2,0.3
	l0.6,1.1c-0.2-0.5,0.1,0.3,0.1,0.5l0.3,1l0,0v0.5c0.1,0.4,0.1,0.7,0,1.1v0.4c0,0-0.1,0.7,0,0.3s-0.1,0.3-0.1,0.3
	c0,0.2,0,0.3-0.1,0.5l-0.3,1c0,0.2-0.1,0.3-0.1,0.4s0,0-0.1,0.1c-0.2,0.7-0.6,1.3-1.1,1.8h-0.1l-0.3,0.4l-0.8,0.7
	c-1,1-1,2.5-0.1,3.5c0,0,0,0,0.1,0.1c1,0.9,2.5,0.9,3.5,0c3-2.6,4.6-6.4,4.5-10.3c0-2-0.5-3.9-1.4-5.7c-1.1-2.1-3.2-3.6-5.6-3.9
	c-1.4,0-2.5,1.1-2.5,2.5s1.1,2.5,2.5,2.5L706.8,561.6z"/>
<path d="M589.3,556.4c0.7,0.3,1.4,1.5,1.8,2.2c1,1.8,1.5,3.8,1.7,5.9c0.1,0.9,0.1,1.8-0.2,2.7c-0.3,0.9-0.9,1.6-1.8,1.9
	c-1.3,0.3-2.6-0.2-3.4-1.2c-1.1-1.3-1.8-2.8-2-4.5c-0.2-1.6-0.1-3.3,0.1-4.9c0.1-0.6,0.3-1.1,0.6-1.6c0.4-0.5,1-0.9,1.7-1
	C588.3,555.9,588.9,556,589.3,556.4z"/>
<path d="M588.4,558C588.6,558.1,588.3,557.8,588.4,558l0.4,0.4l0,0l0.6,1c0.5,0.8,0.8,1.6,1.1,2.5c0.2,1,0.4,1.9,0.5,2.7v1.4
	c0,0.2-0.1,0.3-0.1,0.5v0.2c0.1-0.2-0.1,0.1-0.1,0.2s-0.2,0.4-0.5,0.4s-0.2,0.1,0,0s-0.3,0-0.1,0.1H590l-0.7-0.3
	c-0.3-0.2-0.6-0.5-0.8-0.9c-0.9-1.5-1.4-3.3-1.3-5.1c0-1,0.2-2,0.5-2.9c-0.2,0.2,0-0.1,0.1-0.2s0,0.1,0,0.1s0.1-0.2,0.2-0.2l0,0
	C588.1,557.8,588.3,558,588.4,558c1,0.6,2.1,0.3,2.7-0.6c0.5-0.9,0.2-2-0.7-2.5c-1.4-0.9-3.1-0.9-4.5-0.1c-1.2,0.8-2,2.1-2.1,3.6
	c-0.5,3-0.5,6.1,0.9,8.8s4.4,4.9,7.3,3.6s3-5.1,2.6-7.9c-0.3-1.6-0.8-3.2-1.5-4.7c-0.6-1.3-1.5-2.5-2.7-3.3c-0.9-0.5-2-0.3-2.6,0.6
	C587.3,556.4,587.6,557.4,588.4,558z"/>
<path d="M653.5,541.8c0.8,0.6,1.4,1.3,1.8,2.2c1,1.9,1.6,3.9,1.7,6c0.1,0.9,0.1,1.8-0.2,2.7c-0.3,0.9-0.9,1.6-1.8,1.9
	c-1.3,0.3-2.6-0.2-3.4-1.3c-1.1-1.3-1.8-2.8-2-4.4c-0.2-1.6-0.1-3.3,0.1-4.9c0-0.6,0.2-1.1,0.6-1.6c0.4-0.5,1-0.9,1.7-1
	C652.5,541.4,653.1,541.5,653.5,541.8z"/>
<path d="M652.6,543.4c0.3,0.2-0.1-0.1,0.1,0.2l0.3,0.2l0,0l0.6,1c0.5,0.8,0.8,1.7,1.1,2.6c0.2,0.9,0.4,1.8,0.5,2.7v1.4
	c-0.1,0.2-0.1,0.3-0.1,0.5c0-0.1-0.1,0.3-0.1,0.1v0.2c-0.1,0.3-0.2,0.5-0.5,0.5s-0.2,0.1,0,0h-0.3l-0.7-0.4
	c-0.4-0.2-0.7-0.5-0.8-0.9c-1-1.5-1.4-3.3-1.2-5.1c-0.1-1,0.1-2,0.4-2.9c-0.1,0.2,0.1-0.1,0.1-0.1h0.3c-0.3,0.1,0.2-0.2-0.1-0.1
	l0.5,0.2c0.8,0.7,2,0.7,2.7-0.1s0.7-2-0.1-2.7c-0.2-0.2-0.4-0.3-0.7-0.4c-1.4-0.8-3.1-0.8-4.5,0c-1.2,0.8-2,2.1-2.1,3.5
	c-0.4,3.1-0.4,6.1,1,8.9s4.3,4.9,7.3,3.5s3-5.1,2.5-7.9c-0.3-1.6-0.8-3.1-1.5-4.6c-0.6-1.4-1.5-2.5-2.7-3.4
	c-0.9-0.5-2.1-0.2-2.6,0.7c0,0,0,0,0,0C651.5,541.8,651.8,542.9,652.6,543.4z"/>
<path d="M637.9,660.6L637.9,660.6l1.7,1.7h-0.1v1.3h0.1l-0.7,1.1h0.1l-1.1,0.7h0.1l-2.5-0.7l-0.3-0.3c0.1,0.1,0.2,0.3,0.2,0.5
	l0.3,0.7l0.7,1.6c0.3,1.1,0.7,2.2,1,3.3c0.7,2.3,1.2,4.6,1.6,6.9c0.3,1.3,1.6,2.1,2.9,1.7c0,0,0,0,0.1,0c1.3-0.3,2.1-1.7,1.8-3
	c-0.4-2.5-1-5-1.7-7.4l-1.2-3.5c-0.2-0.6-0.4-1.2-0.7-1.7c-0.2-0.8-0.6-1.6-1.1-2.3c-0.7-0.6-1.6-0.9-2.5-0.6
	c-1.4,0.5-2.2,1.9-1.9,3.3c0.3,0.8,1,1.5,1.8,1.7h0.1c1.3,0.4,2.6-0.4,3-1.6c0,0,0,0,0-0.1c0.3-1.3-0.4-2.7-1.7-3.1L637.9,660.6z"/>
<path d="M685.9,621.2c4.4-7-10,19.6-13.5,27.1s-10.4,12.4-17.1,17.3s-15.5,4.1-15.5,4.1l-0.8-7.2C639,662.5,664.5,655.5,685.9,621.2
	z"/>
<path d="M628.7,521.5c5.8,4.2,13.1,5.9,20.1,4.5c1.3-0.4,2.1-1.8,1.8-3.1c-0.4-1.3-1.8-2.1-3.1-1.7c-5.8,1.1-11.7-0.4-16.3-4
	c-1.2-0.7-2.7-0.3-3.4,0.9C627.2,519.3,627.6,520.8,628.7,521.5L628.7,521.5z"/>
<path d="M578,494.8c4.7-8.7,11.7-15.8,21.2-18.9c2.8-1,6.4-2.1,9.4-1.5c5.6,1.1,9.6,6.8,12.4,11.3c12.6,19.8,23,43.5,45.7,53.5
	c11.2,4.9,23.9,6,35,0.2c2.8-1.5,0.3-5.8-2.6-4.3c-10.6,5.6-23.1,3.5-33.3-1.9s-19.2-15.8-26-26.2c-3.4-5.3-6.6-10.8-9.8-16.2
	s-6-10.5-10.1-14.9s-8-6.8-13.2-6.7c-3.2,0.2-6.4,0.9-9.4,2c-10.4,3.7-18.4,11.4-23.6,21C572.2,495.1,576.5,497.6,578,494.8
	L578,494.8z"/>
<path d="M603.5,490.7c1.2-3.4,3.1-7,6.4-8.7h0.2l0.7-0.2c0.3-0.2,0.7-0.3,1.1-0.3c0.7-0.2-0.4,0,0.3-0.1h2c-0.4,0,0,0,0.2,0.1h0.5
	l0.7,0.2c-0.4-0.1,0.2,0.2,0.3,0.2l0.5,0.3h0.1c0.4,0.3,0.7,0.6,1,1c1.1,0.8,2.7,0.6,3.5-0.5c0.7-0.9,0.7-2.1,0-3
	c-3.1-4-8.9-4.3-13.2-2.3s-7.4,7.2-9.1,11.9c-0.4,1.3,0.4,2.6,1.6,3c0,0,0,0,0.1,0c1.3,0.4,2.7-0.4,3.1-1.7V490.7z"/>
<path d="M581.7,477.1c-1.2-4.9,1.6-10.7,3.8-15c2.4-4.5,5.5-8.7,9-12.4c7.3-7.6,16.4-13.3,25.8-18c2.9-1.5,0.4-5.8-2.5-4.3
	c-10.5,5.2-20.6,11.7-28.4,20.6c-3.7,4.1-6.8,8.7-9.2,13.7c-2.4,5.2-4.7,11-3.3,16.7C577.6,481.6,582.5,480.2,581.7,477.1
	L581.7,477.1z"/>
<path d="M542.8,718.3c-15.1-5.5-28.7-14.8-37.3-28.6c-7.6-12.1-11-26.4-11.8-40.6c-1.5-27.4,5.4-54.4,13-80.5
	c1.4-5,2.9-9.9,4.2-14.9c0.7-2.8,1.7-6.1,1.4-9s-5.2-3.2-4.9,0s-0.5,4.5-1.3,7.4c-1.1,4.4-2.4,8.7-3.6,13
	c-3.7,12.5-7.1,24.9-9.6,37.6c-5.7,28.4-8.1,60.9,6.8,87c9.2,16.2,24.5,27.1,41.7,33.4C544.5,724.2,545.8,719.4,542.8,718.3
	L542.8,718.3z"/>
<path d="M494.3,599.6c-11.1-16.8-8.9-37.8-3.7-56.2s13.6-35.2,22.3-51.8c3-5.1,5.6-10.5,8-15.9c1.8-4.3,3.1-8.8,5.2-13
	c2.6-5.5,5.8-10.8,9.4-15.7c14.8-20.2,37.8-35.6,62.3-41.3c8-1.9,15.2-1.2,23.2-0.2c3.6,0.6,7.4,0.6,11,0c3.8-0.7,7.1-2.8,10.8-3.9
	c12-3.8,23.3-1.5,34.3,3.8c3.7,1.7,7.4,3,10.7,5.2c3.8,2.6,7.4,5.4,10.8,8.5c14.5,13.1,25.9,29.3,34.7,46.7
	c6.2,12.5,10.2,25.8,15.6,38.6c4.8,11.3,10.6,22.2,17.4,32.5c5.5,8.4,11.7,16.3,18,24.1s10.3,12.5,14.6,19.3s6.1,11.1,6.6,17.5
	c0.8,10.3-0.7,21.3-5.8,30.4c-0.6,1-1.2,2-1.9,2.9c-0.5,0.8,0,0.1-0.4,0.6c-2.1,2.5,1.4,6,3.5,3.6c3.7-4.4,6.1-10.2,7.6-15.7
	c2.6-9.5,3.5-20.7,0.3-30.2c-2.2-6.9-6.3-13.1-10.7-18.9s-11.4-14.3-17-21.6c-7.1-9-13.5-18.6-19.1-28.6c-3.3-6.1-6.3-12.3-9-18.7
	s-5.1-14.2-7.8-21.2c-8.4-21.2-20.1-41.3-35.9-57.8c-4.6-4.8-9.5-9.3-14.8-13.3c-2-1.7-4.2-3.2-6.5-4.4c-8.1-4.1-17.1-8.6-26.2-9.9
	c-6.6-0.9-13.4-0.3-19.8,1.6c-3.5,1.1-6.7,3-10.2,3.9s-9.1,0.3-13.6-0.4c-7.6-1.2-15.3-0.8-22.8,1c-19.1,5.1-36.6,14.8-51,28.4
	c-9.3,8.8-17,19.2-22.6,30.7c-3.3,6.8-5.2,13.7-8.7,20.3c-8.3,16.2-17,32.1-23.3,49.3s-11.9,39.8-5.9,59.2c1.4,4.6,3.4,9,6.1,13.1
	C491.8,604.7,496.1,602.2,494.3,599.6L494.3,599.6z"/>
<path d="M504.7,827.3c3.3,0,3.3-5,0-5S501.5,827.3,504.7,827.3z"/>
<path d="M573.6,543.9c5.4-2.8,10.2-6.6,14.2-11.1c1-1,1-2.5,0-3.5c-0.9-1-2.4-1-3.4-0.1c0,0-0.1,0.1-0.1,0.1c-1.9,2.2-4,4.1-6.3,5.9
	c0.2-0.1,0.1-0.1,0,0.1l-0.5,0.3l-0.9,0.6l-1.7,1.2c-1.2,0.8-2.5,1.5-3.8,2.2c-1.2,0.7-1.6,2.2-0.9,3.4
	C570.9,544.2,572.4,544.6,573.6,543.9L573.6,543.9z"/>
<path class="st3" d="M630.2,630.8c4-0.6,7.6-3.1,11.1-5.3s7.2-4.5,11.3-5.2s6.6-0.5,8.8-2.8s1.5-7.6-1.3-10s-6.7-2.9-10.3-2.9
	c-7,0.2-13.9,1.9-20.1,5.2c-2.3,1.2-4.4,2.8-6.2,4.6c-1.8,1.9-3.2,4.2-3.9,6.7C619.6,621.1,617.9,632.7,630.2,630.8z"/>
<path d="M630.8,633.2c5.1-0.9,9.3-4.1,13.7-6.8c2.3-1.5,4.7-2.6,7.3-3.4c2.2-0.6,4.5-0.6,6.8-1.2c4.2-0.9,7.1-4.9,6.7-9.2
	c-0.5-4.4-3.6-8.1-7.8-9.4c-4.7-1.7-10.2-1.2-15-0.3c-5.4,0.9-10.5,2.8-15.2,5.5c-5.3,3-10.7,8.6-10.2,15.2c0.1,2.6,1.2,5.2,3,7.1
	C622.9,633.6,627.1,633.7,630.8,633.2c1.3-0.3,2.1-1.7,1.8-3c-0.4-1.3-1.8-2.1-3.1-1.8c-2,0.3-4.5,0.3-6-1.3c-0.4-0.5-0.7-1-1-1.5
	l-0.3-1.1c-0.1-0.2-0.1-0.5-0.1-0.7c-0.1-0.9-0.1-1.8,0-2.7c-0.2,1.5,0.4-0.8,0.6-1.2c0.4-0.8,0.8-1.6,1.3-2.3
	c1.2-1.7,2.8-3.1,4.6-4.2c6.9-4.4,15.9-7,24.1-6.2c3.3,0.4,7,1.9,7.6,5.6s-3.1,4.3-6,4.7c-4.4,0.7-8.6,2.2-12.3,4.6
	c-4,2.5-7.8,5.5-12.5,6.3C626.3,629,627.7,633.8,630.8,633.2z"/>
<path d="M664.5,559.3l3.6-3.7c0.5-0.4,0.7-1.1,0.7-1.7c0-0.7-0.2-1.3-0.7-1.8c-0.5-0.4-1.1-0.7-1.8-0.7c-0.6,0-1.3,0.2-1.7,0.7
	l-3.7,3.7c-0.4,0.5-0.7,1.1-0.7,1.8c0,0.6,0.3,1.2,0.7,1.7c0.5,0.5,1.1,0.8,1.8,0.8C663.4,560,664,559.8,664.5,559.3L664.5,559.3z"
	/>
<path d="M580.9,575.5c0.7,0.5,1.5,0.9,2.3,1.2l1.9,0.5h1c0.3,0,0.6-0.1,0.9-0.3c0.6-0.4,1-0.9,1.2-1.5c0.1-0.6,0-1.3-0.3-1.9
	l-0.4-0.5c-0.3-0.3-0.7-0.5-1.1-0.6c-0.7-0.1-1.3-0.3-1.9-0.6l0.5,0.3l-1.6-0.9c-0.3-0.2-0.6-0.3-0.9-0.3c-0.3-0.1-0.7-0.1-1,0
	c-0.6,0.2-1.2,0.6-1.5,1.2c-0.3,0.6-0.4,1.3-0.2,1.9l0.2,0.6C580.2,575,580.5,575.3,580.9,575.5L580.9,575.5z"/>
<path d="M611.9,564.4c1.4,3.1,2,6.4,1.7,9.8c-0.2,3.6-1.3,6.8-2.2,10.2s2.7,6.1,6.1,7.5c3.5,1.5,7.2,2.7,11,3.4
	c3.1,0.7,4.4-4.1,1.3-4.8c-3.4-0.6-6.8-1.7-10-3l-2.1-0.9c-0.2-0.1-1.7-0.6-1.7-0.9s0.4-0.6,0.4-0.7s0.3-0.8,0.4-1.2
	s0.5-1.6,0.7-2.4c1.6-6.5,1.8-13.4-1.3-19.5C614.8,559,610.5,561.6,611.9,564.4L611.9,564.4z"/>
<path d="M570.8,491.5c0.5,20.6-7,39.6-14,58.6c-3.4,9.1-6.7,18.4-8.6,28s-3.8,21.6-1.5,31.8s8.3,17.5,18,18.3c3.2,0.2,3.2-4.8,0-5
	c-8.9-0.7-13.1-10.8-13.8-18.5c-1-10,0.9-20.7,3.3-30.5c4.4-17.6,12.5-34.1,17.4-51.6c2.9-10.1,4.4-20.6,4.2-31.1
	C575.7,488.3,570.8,488.3,570.8,491.5L570.8,491.5z"/>
<path d="M580.9,726.7c9.6,9.2,24.7,11.4,37.4,12.4c7,0.5,13.9,0.4,20.9-0.2c5.1-0.5,10.4-1.1,15.2-2.9c3-1.1,1.7-5.9-1.3-4.8
	c-10.2,3.8-22.6,3.6-33.3,3s-26.4-2.5-35.4-11C582.1,720.9,578.6,724.5,580.9,726.7L580.9,726.7z"/>
<path d="M522.6,676.3c2.4,14.2,6.2,28.8,13.2,41.5c3,5.4,7.1,10.3,12.8,12.9s10.8,2.6,16.4,2.9c3.2,0.1,3.2-4.9,0-5
	c-5.1-0.2-10.4-0.2-14.9-2.7s-8.6-7.7-11.2-12.9c-6-11.9-9.3-25-11.5-38.1C526.9,671.8,522.1,673.1,522.6,676.3L522.6,676.3z"/>
<path d="M751.1,575.3c6,9.5,13.5,18.1,18.8,28s8.9,22.4,3.7,33.2c-1.3,2.9,3,5.4,4.3,2.5c11.9-24.6-10.5-47-22.5-66.2
	C753.7,570,749.4,572.5,751.1,575.3z"/>
<path d="M1081.1,1274.6c0,0-10.5,43.3-12.2,49.9s-4,8.7-4,8.7l-6.1,1.3L1081.1,1274.6z"/>
<path d="M942.1,1525.2c1.4-0.6,33.5-31.9,40.8-47.3l-51.1,39.7L942.1,1525.2z"/>
<path class="st5" d="M651.9,714.2c0,0-20.8-29.2-23.8-38.3s-6.8-31.5-3.4-41.5s6.4-13.5,13.4-10.8c3.3-2.5,7.1-4.2,11.1-5
	c6-1,9,1.3,9,1.3s0.4-3.7,7.8-4.3s8.7,1.3,8.7,1.3c2.2-1,4.6-1.6,7-1.7c4.7-0.3,5.4,2.7,5.4,2.7s-0.7-18.8,3.7-23.1s10-4.1,12,1
	s4.1,30.5,5.1,40.2s-1,34.2,1.3,44.6s36.6,120.5,37.6,121.8s13.4,43.6,13.4,43.6l2-4.4c0,0,28.5,27.9,47,36.3s26.1,14.4,26.1,14.4
	s-22.1,39.9-32.8,49s-44.6,32.2-73.2,24.1s-42.6-43.9-45.6-53s-11.4-51-14.1-79.8S651.9,714.2,651.9,714.2z"/>
<path d="M654.7,718.6c-3.8-8.9-9.3-16.8-14.4-25c-4.7-7.6-8.1-15.9-10.3-24.5c-1.9-7.8-3.1-15.8-3.4-23.9
	c-0.1-5.4-0.6-12.8,2.7-17.5c1.7-2.5,6.4-6.5,9.4-3.6s2.8,6.9,3.9,9.7s6,1.7,4.8-1.3c-2.1-5.6-3.5-14.9-11.4-14.4s-13,8.8-13.9,16.1
	s-0.4,15.7,0.7,23.5c1.2,9.8,3.9,19.4,7.9,28.5c5.3,11.8,14.1,21.7,19.2,33.8C651.1,722.9,655.9,721.6,654.7,718.6L654.7,718.6z"/>
<path d="M645.5,625.1c-0.2-1.1,0-2.2,0.4-3.2c-0.2,0.4,0.1-0.2,0.2-0.3s0.3-0.6,0.2-0.4s0.3-0.4,0.4-0.4s0.2-0.2,0.2-0.3h0.2
	l0.4-0.3l0.7-0.4l0.6-0.2c-0.5,0.1,0.2-0.1,0.3-0.2l1.5-0.4h3.5c-0.1,0-0.4-0.1-0.1,0l0.8,0.2h0.2l0.3,0.2h-0.1l1,1
	c0.4,0.4-0.3-0.5,0,0.1l0.4,0.6c0.4,0.6,0.7,1.2,1,1.9l0.3,0.7c0.1,0.1,0.3,0.7,0.3,0.6s0.1,0.4,0.2,0.6c0.1,0.3,0.2,0.6,0.4,0.9
	c0.6,1.6,1.2,3.2,1.9,4.8c0.3,1.3,1.7,2.1,3,1.8c1.3-0.3,2.2-1.7,1.8-3c0,0,0,0,0-0.1c-1.1-2.9-2.2-5.8-3.5-8.6
	c-0.6-1.4-1.3-2.7-2.3-3.9c-2-2.2-5-3.2-7.9-2.8c-2.6,0.2-5.1,1-7.3,2.4c-2.8,2.1-4.3,5.5-4,9c0,1.4,1.1,2.5,2.5,2.5
	s2.5-1.1,2.5-2.5L645.5,625.1z"/>
<path d="M661.6,621c0.2-0.5,0.4-1,0.6-1.5l0.6-0.9c-0.3,0.3,0.1-0.2,0.2-0.2c0.5-0.5,1.1-0.8,1.7-1.1l0.9-0.2h1.9
	c0.7,0.1-0.4-0.1,0.3,0.1h1l0.6,0.4h0.1l0.6,0.6l0.4,0.5c0.4,0.3-0.1-0.3,0.2,0.2c0.6,0.9,1.2,1.9,1.7,2.9c1,2.3,1.8,4.7,2.5,7.2
	c0.4,1.3,1.8,2.1,3.1,1.8c1.3-0.4,2.1-1.8,1.7-3.1c-0.8-3.1-1.9-6.2-3.3-9.1c-1.2-2.2-2.8-4.6-5.2-5.7c-2.6-1.2-5.6-1.4-8.3-0.3
	c-1.4,0.5-2.7,1.3-3.7,2.4c-1.1,1.4-1.9,2.9-2.4,4.6c-0.5,1.3,0.1,2.7,1.4,3.2c1.3,0.5,2.7-0.1,3.2-1.4
	C661.5,621.2,661.6,621.1,661.6,621L661.6,621z"/>
<path d="M675.9,618.5c1.7-0.9,3.6-1.1,5.4-0.7l0.9,0.3h0.4c-0.1-0.1-0.1,0,0,0c0.5,0.2,1,0.5,1.5,0.9c-0.3-0.2,0.3,0.3,0.3,0.3
	l0.5,0.5l0.3,0.4l0.4,0.7c3.2,4.6,5.8,9.7,7.7,15c0.4,1.3,1.8,2.1,3.1,1.7c1.3-0.4,2.1-1.8,1.7-3.1c0,0,0,0,0,0
	c-2.2-6.1-5.2-11.9-8.9-17.2c-3.4-4.9-10.7-6.1-15.8-3.2c-2.8,1.6-0.3,5.9,2.5,4.3L675.9,618.5z"/>
<path d="M689.1,617.5c0.1-2.7,0.5-5.3,0.7-7.9c0.4-4.4,0.3-8.9,2.1-12.9c1-2.1,2.6-4.6,5.1-4.7s3.7,2.5,4.1,4.5
	c0.7,4.1-0.7,8.4-0.6,12.5c0.3,14.3,5.2,28.2,6.8,42.3c1.2,10.4,0.8,20.9-1.2,31.2c-0.6,3.2,4.2,4.5,4.8,1.3
	c4.1-20.1,0.6-39.4-3.3-59.2c-0.8-3.9-1.5-7.9-1.9-11.8s0.1-8.1,0.4-12.3s-0.5-9.2-4.3-11.9s-8.1-1.7-11.2,1.3s-5,9.8-5.5,15.2
	s-0.7,8.3-1,12.4S688.9,620.7,689.1,617.5L689.1,617.5z"/>
<path d="M831.6,891.4c-4.7,9.3-9.9,18.4-15.7,27.1c-4.3,6.9-9.3,13.3-14.9,19.2c-6.2,6.2-13.2,11.5-20.9,15.7
	c-17,10-39.6,16.2-58.4,7c-13.2-6.4-21.8-20.4-28.1-33.1c-7.6-15.6-13-32.2-16.2-49.3c-2.3-11.7-3.1-23.6-4.5-35.4
	c-3.3-27.5-7.4-54.9-11.4-82.3c-1.9-12.3-3.7-24.5-5.6-36.8c-1-6.5-1.7-13.1-3-19.5c0-0.3-0.1-0.6-0.1-0.9c-0.5-3.2-5.3-1.8-4.8,1.3
	l7.5,49.4c4.2,28.5,8.5,57,12,85.7c1.5,11.6,2.2,23.5,4.2,35.1c2.9,17.4,8,34.3,15.3,50.3c6.2,13.8,14.6,28.2,27.4,37
	c15.9,11,38.1,9.3,55.2,2.3c16.7-6.7,31.3-17.7,42.5-31.8c8.7-11.2,16-23.5,22.6-36.1l1.2-2.4C837.4,891,833.1,888.5,831.6,891.4
	L831.6,891.4z"/>
<path d="M704.1,684.1c9.1,26.1,17.9,52.4,26.5,78.7c9.7,29.6,19.1,59.2,27.5,89.2c3.4,11.9,6.7,24,9,36.2c0.6,3.2,5.4,1.8,4.8-1.3
	c-4.7-24.9-12.5-49.3-20-73.5c-9.3-30.3-19.2-60.5-29.3-90.6c-4.5-13.4-9.1-26.7-13.7-40C707.8,679.8,703,681.1,704.1,684.1
	L704.1,684.1z"/>
<path d="M761.5,847.8l37.6,21.2l-41.6-37C757.5,832,759.5,845.9,761.5,847.8z"/>
<path class="st3" d="M1467.8,581.3c-46.6-46.2-99.8-70.7-150.9-67.6s-100,26-138.4,59.8c0,0-10.4,8.9-6,19.9s41.3,76.2,145.4,79.2
	c64.1,1.8,119.1-25.2,156.8-67C1481.6,598,1473.3,586.7,1467.8,581.3z"/>
<path d="M1469.6,579.5c-40.9-40.3-95.5-72.4-154.8-68.2c-29.7,2.2-58.8,10.9-85.3,24.4c-13.3,6.8-25.9,14.8-37.8,23.8
	c-5.2,3.9-10.4,8-15.2,12.4c-2.8,2.7-5,6-6.4,9.6c-3.8,10.2,3.5,20.5,9.3,28.5c8.6,11.7,18.9,22,30.5,30.7
	c39.1,29.3,91.7,38.8,139.6,32.9c27.7-3.4,54.3-12.4,78.4-26.5c11.5-6.8,22.3-14.7,32.3-23.5c5-4.5,9.8-9.2,14.4-14.2
	s6.5-9.5,4.3-15.9S1473.5,583.5,1469.6,579.5c-2.3-2.3-5.8,1.2-3.5,3.5c3.9,4,8.4,9.3,8.7,15.2c0.3,3.3-1.6,5.4-3.7,7.7
	s-4.4,4.7-6.7,6.9c-9.2,9-19.2,17.2-30,24.3c-21.8,14.5-46.2,24.5-71.9,29.4c-47,9.1-100,2.3-140.8-23.7c-12.7-8-24-18-33.6-29.6
	c-5.1-6.2-10-13-13.1-20.4c-0.2-0.2,0.2,0.6-0.1-0.1c-0.5-1.4-0.9-3-1-4.5c0-2.7,0.7-5.3,2.1-7.6c1.7-2.8,4-5.4,6.6-7.4
	c10.9-9.3,22.6-17.7,34.9-25.1c24.7-15,52-25.1,80.5-29.9c25.9-4.2,52.4-2.1,77.3,6.1c27.3,9.1,52.2,24.7,74,43.3
	c5.8,5,11.4,10.1,16.8,15.4C1468.3,585.3,1471.9,581.8,1469.6,579.5z"/>
<circle class="st2" cx="1319.1" cy="589.2" r="63.4"/>
<path d="M1319.1,655.1c-36.4,0-65.9-29.5-65.9-65.9s29.5-65.9,65.9-65.9c36.4,0,65.9,29.5,65.9,65.9
	C1384.9,625.6,1355.5,655,1319.1,655.1z M1319.1,528.3c-33.6,0-60.9,27.3-60.9,60.9s27.3,60.9,60.9,60.9s60.9-27.3,60.9-60.9
	S1352.7,528.3,1319.1,528.3L1319.1,528.3z"/>
<circle cx="1319.1" cy="589.2" r="25.2"/>
<path d="M1319.1,616.9c-15.3,0-27.7-12.4-27.7-27.7s12.4-27.7,27.7-27.7c15.3,0,27.7,12.4,27.7,27.7c0,0,0,0,0,0
	C1346.8,604.5,1334.4,616.9,1319.1,616.9z M1319.1,566.5c-12.5,0-22.7,10.2-22.7,22.7s10.2,22.7,22.7,22.7
	c12.5,0,22.7-10.2,22.7-22.7c0,0,0,0,0,0C1341.8,576.7,1331.6,566.5,1319.1,566.5z"/>
<path class="st3" d="M1129.6,314.8c-38.5-38.1-82.4-58.3-124.5-55.8s-82.4,21.5-114.1,49.4c0,0-8.6,7.3-5,16.3s34.1,62.9,120,65.4
	c49.1,1.6,96.5-18.6,129.3-55.2C1141,328.6,1134.1,319.3,1129.6,314.8z"/>
<path d="M1131.4,313c-34-33.4-79.2-59.9-128.4-56.3c-24.6,2-48.5,8.9-70.4,20.3c-11.1,5.7-21.7,12.4-31.6,20
	c-6.5,4.9-14.9,10.2-17.6,18.5s3.4,16.9,8.1,23.5c7.2,9.7,15.8,18.3,25.5,25.4c32.5,24.2,76.2,31.9,115.9,26.8
	c22.8-2.9,44.8-10.4,64.6-22.1c9.4-5.7,18.3-12.2,26.5-19.6c4.1-3.6,8.1-7.5,11.8-11.5c3.5-3.8,5.1-7.9,3.5-12.9
	S1134.7,316.4,1131.4,313c-3.3-3.4-5.8,1.2-3.6,3.5s7,7.7,7.2,12.4c0,2.7-1.6,4.4-3.3,6.2s-3.8,4-5.8,5.9
	c-7.6,7.4-15.8,14-24.6,19.8c-18,11.8-38.2,20-59.3,24c-38.4,7.3-81.7,1.7-115-19.5c-10.4-6.6-19.7-14.7-27.5-24.2
	c-4.4-5.1-8.1-10.8-11-16.9c-0.3-0.5,0.1,0.3,0,0c-0.4-1-0.7-2-0.8-3c-0.2-2.4,0.3-4.8,1.6-6.8c1.4-2.3,3.3-4.3,5.4-6
	c9-7.8,18.7-14.7,29-20.8c20.2-12,42.4-20.6,65.6-24.3c21.5-3.6,43.6-1.9,64.3,5.1c22.1,7.4,42.3,20,60,35.1
	c4.9,4.1,9.6,8.5,14.2,13C1130.1,318.8,1133.6,315.2,1131.4,313z"/>
<ellipse transform="matrix(0.1602 -0.9871 0.9871 0.1602 528.4614 1263.7318)" class="st2" cx="1006.9" cy="321.3" rx="52.3" ry="52.3"/>
<path d="M1006.9,376.1c-30.3,0-54.8-24.5-54.8-54.8c0-30.3,24.5-54.8,54.8-54.8c30.3,0,54.8,24.5,54.8,54.8
	S1037.2,376.1,1006.9,376.1C1006.9,376.1,1006.9,376.1,1006.9,376.1z M1006.9,271.5c-27.5,0-49.8,22.3-49.8,49.8
	c0,27.5,22.3,49.8,49.8,49.8s49.8-22.3,49.8-49.8C1056.6,293.8,1034.4,271.6,1006.9,271.5z"/>
<ellipse transform="matrix(0.1602 -0.9871 0.9871 0.1602 528.4614 1263.7319)" cx="1006.9" cy="321.3" rx="20.8" ry="20.8"/>
<path d="M1006.9,344.6c-12.9,0-23.3-10.4-23.3-23.3c0-12.9,10.4-23.3,23.3-23.3c12.9,0,23.3,10.4,23.3,23.3
	c0.1,12.8-10.3,23.2-23.1,23.3C1007,344.6,1007,344.6,1006.9,344.6z M1006.9,303c-10.1,0-18.3,8.2-18.3,18.3
	c0,10.1,8.2,18.3,18.3,18.3c10.1,0,18.3-8.2,18.3-18.3C1025.2,311.2,1017,303,1006.9,303C1006.9,303,1006.9,303,1006.9,303z"/>
<path class="st3" d="M753.5,168.8c-59.7-59-127.8-90.4-193.2-86.5s-127.9,33.3-177.1,76.6c0,0-13.3,11.4-7.7,25.4
	s52.9,97.6,186.2,101.4C643.6,288,714,253.4,762.4,200C771.2,190.2,760.6,175.8,753.5,168.8z"/>
<path d="M755.3,167c-28-27.5-59.9-51.6-95.9-67.6c-31.4-14-65.6-21.7-100.1-19.5c-38.1,2.5-75.4,13.5-109.4,30.7
	c-17.2,8.7-33.6,19-49,30.7c-6.8,5-13.3,10.3-19.6,15.9c-3.6,3.3-6.3,7.4-8.1,12c-4.9,12.9,4.6,26.1,11.8,36.1
	c10.9,14.9,24.1,28.1,39,39.1c21.4,16,46,27.3,71.7,34.4c34.7,9.3,70.9,11.9,106.6,7.5c35.1-4.4,68.9-15.8,99.4-33.7
	c14.7-8.6,28.5-18.6,41.2-29.9c6.3-5.6,12.4-11.4,18.1-17.6c2.7-2.8,5.5-5.6,6.6-9.4c0.9-3.5,0.8-7.2-0.4-10.7
	C765,178.2,760.3,172.1,755.3,167c-2.3-2.2-5.8,1.3-3.6,3.6c5,5,10.2,11.4,11.4,18.6s-6.9,13.9-12,19
	c-11.7,11.7-24.5,22.2-38.2,31.5c-27.9,18.9-59.3,32-92.3,38.6c-34.9,6.8-70.8,6.7-105.7-0.2c-26.8-5.2-52.8-14.8-75.9-29.4
	c-16.5-10.4-31.2-23.3-43.7-38.2c-6.6-8-13-16.9-17.2-26.5c-0.2-0.5,0.2,0.5-0.1-0.2c-0.7-1.8-1.2-3.7-1.3-5.6
	c-0.2-3.5,0.7-7,2.4-10c2.1-3.7,4.9-7,8.2-9.6c14.1-12.1,29.1-23,45-32.6c31.8-19,66.9-32.6,103.4-38.5c16.9-2.8,34.2-3.7,51.3-2.4
	c16.5,1.5,32.7,4.9,48.4,10.2c34.9,11.7,66.7,31.6,94.7,55.3c7.4,6.4,14.6,13.1,21.6,20C754,172.8,757.6,169.3,755.3,167z"/>
<circle class="st2" cx="563.2" cy="179" r="81.1"/>
<path d="M563.2,262.6c-46.2,0-83.6-37.4-83.6-83.6c0-46.2,37.4-83.6,83.6-83.6s83.6,37.4,83.6,83.6v0
	C646.7,225.1,609.3,262.5,563.2,262.6z M563.2,100.3c-43.5-0.1-78.7,35.1-78.8,78.6s35.1,78.7,78.6,78.8
	c43.5,0.1,78.7-35.1,78.8-78.6c0,0,0-0.1,0-0.1C641.7,135.6,606.6,100.4,563.2,100.3z"/>
<circle cx="563.2" cy="179" r="32.3"/>
<path d="M563.2,213.8c-19.2,0.1-34.8-15.5-34.9-34.7s15.5-34.8,34.7-34.9s34.8,15.5,34.9,34.7c0,0,0,0.1,0,0.1
	C597.9,198.2,582.4,213.7,563.2,213.8z M563.2,149.2c-16.5,0-29.8,13.3-29.8,29.8s13.3,29.8,29.8,29.8c16.5,0,29.8-13.3,29.8-29.8
	c0,0,0,0,0,0C592.9,162.6,579.6,149.3,563.2,149.2L563.2,149.2z"/>
<path class="st3" d="M381.8,449.4c-59.7-59.1-127.8-90.5-193.2-86.5S60.7,396.2,11.5,439.4c0,0-13.3,11.5-7.7,25.5
	s52.8,97.5,186.1,101.3c82,2.4,152.4-32.2,200.7-85.6C399.5,470.8,388.8,456.4,381.8,449.4z"/>
<path d="M383.5,447.6c-27.9-27.5-59.9-51.6-95.8-67.6c-31.4-14.1-65.7-21.8-100.2-19.5c-38.1,2.4-75.3,13.5-109.4,30.7
	c-17.2,8.7-33.6,19-48.9,30.6c-6.8,5-13.3,10.3-19.6,16c-3.6,3.3-6.4,7.4-8.1,11.9c-5,13,4.5,26.1,11.8,36.2
	c10.9,15,24,28.1,38.9,39.1c21.4,15.9,46.1,27.3,71.7,34.3c34.7,9.4,71,11.9,106.7,7.5c35.1-4.3,68.9-15.7,99.4-33.6
	c14.6-8.7,28.4-18.7,41.2-29.9c6.3-5.6,12.3-11.5,18.1-17.6c2.6-2.9,5.4-5.6,6.5-9.4c1-3.5,0.8-7.3-0.4-10.7
	C393.2,458.7,388.6,452.7,383.5,447.6c-2.2-2.3-5.8,1.3-3.5,3.5c5,5,10.2,11.5,11.3,18.7s-6.8,13.9-11.9,19
	c-11.7,11.6-24.5,22.2-38.2,31.4c-27.9,18.8-59.3,32-92.3,38.6c-34.9,6.9-70.9,6.8-105.8-0.1c-26.8-5.3-52.7-14.8-75.9-29.4
	C50.7,518.9,36,506,23.5,491.1c-6.6-8.1-13-16.9-17.1-26.5c-0.3-0.6,0.1,0.4-0.2-0.3c-0.7-1.8-1.1-3.6-1.3-5.5
	c-0.1-3.5,0.7-7,2.5-10c2-3.9,4.9-6.8,8.2-9.7c14-12.1,29.1-23,45-32.5c31.7-19.1,66.8-32.6,103.4-38.5c16.9-2.8,34.2-3.7,51.3-2.4
	c16.5,1.4,32.7,4.9,48.3,10.2c34.9,11.6,66.8,31.5,94.7,55.3c7.5,6.4,14.7,13,21.7,19.9C382.3,453.4,385.8,449.9,383.5,447.6z"/>
<circle class="st2" cx="191.4" cy="459.6" r="81.1"/>
<path d="M191.4,543.2c-46.2,0-83.7-37.5-83.7-83.7s37.5-83.7,83.7-83.7s83.7,37.5,83.7,83.7c0,0,0,0.1,0,0.1
	C275,505.8,237.6,543.2,191.4,543.2z M191.4,380.9c-43.5,0-78.7,35.2-78.7,78.7s35.2,78.7,78.7,78.7s78.7-35.2,78.7-78.7
	C270,416.2,234.8,381,191.4,380.9L191.4,380.9z"/>
<circle cx="191.4" cy="459.6" r="32.3"/>
<path d="M191.4,494.3c-19.2,0-34.8-15.6-34.8-34.8s15.6-34.8,34.8-34.8c19.2,0,34.8,15.6,34.8,34.8c0,0,0,0.1,0,0.1
	C226.1,478.8,210.6,494.3,191.4,494.3z M191.4,429.8c-16.5,0-29.8,13.3-29.8,29.8c0,16.5,13.3,29.8,29.8,29.8s29.8-13.3,29.8-29.8
	l0,0c0.1-16.4-13.2-29.7-29.6-29.8C191.5,429.8,191.5,429.8,191.4,429.8z"/>
<path class="st3" d="M327.3,958c-51.4-50.3-109.9-76.9-165.9-73.2S52,914,10.1,951.3c0,0-11.4,9.8-6.5,21.8s45.7,83.3,159.9,85.9
	c70.3,1.6,130.4-28.3,171.5-74.3C342.6,976.3,333.4,964,327.3,958z"/>
<path d="M329.1,956.2c-45-43.8-104.9-78.6-169.7-73.7c-32.6,2.5-64.3,12.2-93.3,27.1c-14.8,7.7-28.9,16.7-42.1,26.9
	c-5.6,4.2-10.9,8.6-16,13.3c-3.3,3.1-5.7,6.9-7.1,11.2c-3.6,10.9,4.6,22.1,10.8,30.5c9.5,12.7,20.8,24,33.7,33.3
	c43.2,31.8,101,41.7,153.5,34.8c44.6-5.7,86.4-25,119.8-55.1c5.5-4.9,10.7-10,15.7-15.4c2-2.2,4.2-4.4,5.2-7.3c1.1-3.3,1-6.8-0.1-10
	C337.5,965.8,333.5,960.6,329.1,956.2c-2.3-2.2-5.8,1.3-3.5,3.6c4.3,4.3,9.3,10.2,9.8,16.6c0.2,3.7-1.6,6-3.9,8.6s-5,5.3-7.6,7.8
	c-30.4,30.3-69,51-111.1,59.5c-29.5,5.8-59.8,5.8-89.3,0.2c-23-4.4-45.3-12.5-65.2-24.9c-14.1-8.8-26.7-19.7-37.4-32.4
	c-5.7-6.8-11.1-14.3-14.7-22.4c-0.3-0.6-0.2-0.4-0.2-0.3c-0.5-1.2-0.8-2.4-1-3.6c-0.4-3.2,0.2-6.5,1.8-9.4c1.8-3.1,4.2-5.9,7-8.2
	c12-10.5,24.9-19.9,38.5-28.2c26.9-16.3,56.6-28,87.6-33.3c28.9-4.8,57.7-3,85.5,6.1c30.1,9.8,57.5,26.7,81.6,47
	c6.4,5.4,12.6,11,18.6,16.9C327.9,962,331.4,958.5,329.1,956.2z"/>
<circle class="st2" cx="164.3" cy="967.6" r="69.5"/>
<path d="M164.3,1039.6c-39.6,0-71.8-32-72-71.6c-0.2-39.7,31.9-72.1,71.6-72.4h0.4c39.6-0.1,71.8,32,72,71.6l0,0
	c0.3,39.7-31.7,72.1-71.4,72.4c-0.1,0-0.1,0-0.2,0H164.3z M164.3,900.6H164c-37.1,0.1-67,30.2-66.9,67.3c0.1,37.1,30.2,67,67.3,66.9
	c37.1-0.1,67-30.2,66.9-67.3c0-0.1,0-0.1,0-0.2l0,0C231.2,930.4,201.2,900.5,164.3,900.6z"/>
<circle cx="164.3" cy="967.6" r="27.6"/>
<path d="M164.3,997.8c-16.7-0.9-29.4-15.2-28.5-31.8c0.9-15.3,13.1-27.6,28.4-28.5h0.1c16.7,0.9,29.4,15.1,28.5,31.8
	c-0.8,15.3-13,27.6-28.3,28.5H164.3z M164.3,942.5h-0.1c-13.9,0.9-24.4,12.9-23.5,26.8c0.8,12.7,10.9,22.7,23.6,23.5h0.2
	c13.9-0.9,24.4-12.9,23.5-26.8C187.1,953.3,177,943.2,164.3,942.5z"/>
<path class="st3" d="M1292.5,842.9c-42.3-41.9-90.6-64.1-137-61.3s-90.7,23.6-125.5,54.2c0,0-9.5,8.1-5.5,18.1s37.5,69.1,132,71.8
	c58.1,1.7,108-22.8,142.2-60.7C1305,858.1,1297.5,847.8,1292.5,842.9z"/>
<path d="M1294.2,841.1c-37.2-36.6-86.8-65.8-140.8-61.9c-27.1,2.2-53.4,9.8-77.5,22.3c-12.2,6.2-23.8,13.6-34.7,22
	c-7.1,5.4-16.1,11-19.2,19.9s3.5,18.6,8.6,25.8c7.9,10.8,17.5,20.3,28.3,28.2c35.7,26.4,83.6,34.9,127.1,29.4
	c24.9-3.2,48.9-11.4,70.6-24.1c10.5-6.3,20.4-13.6,29.6-21.7c4.5-4.1,8.9-8.4,13.1-12.9s5.3-8.5,3.5-14S1297.9,844.8,1294.2,841.1
	c-2.2-2.3-5.8,1.3-3.5,3.5s7.6,8.5,7.9,13.7c0.2,3-1.6,4.9-3.5,7s-4,4.2-6.1,6.2c-25.3,24.8-57.3,41.7-92,48.5
	c-42.6,8.3-90.6,2.2-127.6-21.4c-11.5-7.2-21.7-16.3-30.4-26.7c-4.6-5.6-9.1-11.8-12-18.5c-0.3-0.6,0,0.1,0-0.1
	c-0.5-1-0.8-2.2-0.9-3.3c-0.2-2.5,0.3-5.1,1.6-7.3c1.7-2.7,3.8-5.2,6.4-7.1c9.8-8.5,20.4-16.1,31.6-22.7
	c22.2-13.3,46.8-22.8,72.4-26.9c23.6-4,47.7-2.1,70.4,5.5c24.6,8.2,47,22.2,66.7,38.9c5.4,4.6,10.5,9.3,15.5,14.2
	C1293,846.9,1296.5,843.4,1294.2,841.1z"/>
<circle class="st2" cx="1157.5" cy="850.1" r="57.5"/>
<path d="M1157.5,910.1c-33.1-0.1-60-27-59.9-60.1c0.1-33.1,27-60,60.1-59.9c33.1,0.1,59.9,26.9,59.9,60c0,33.1-26.9,60-60,60
	C1157.6,910.1,1157.5,910.1,1157.5,910.1z M1157.5,795.1c-30.4,0.1-55,24.7-54.9,55.1c0.1,30.4,24.7,55,55.1,54.9
	c30.3-0.1,54.9-24.7,54.9-55C1212.5,819.7,1187.9,795.1,1157.5,795.1z"/>
<circle cx="1157.5" cy="850.1" r="33.2"/>
<path d="M1157.5,885.8c-19.7,0-35.7-16-35.7-35.7s16-35.7,35.7-35.7c19.7,0,35.7,16,35.7,35.7c0,0,0,0,0,0
	C1193.2,869.8,1177.2,885.8,1157.5,885.8z M1157.5,819.4c-17,0-30.7,13.7-30.7,30.7s13.7,30.7,30.7,30.7c17,0,30.7-13.7,30.7-30.7
	c0,0,0,0,0,0C1188.1,833.2,1174.4,819.5,1157.5,819.4L1157.5,819.4z"/>
<path class="st3" d="M424.8,728.9c-33.1-32.7-70.8-50.1-107-47.9s-70.9,18.5-98.2,42.4c0,0-7.4,6.3-4.3,14.1s29.3,54.1,103.2,56.2
	c45.4,1.3,84.4-17.9,111.2-47.5C434.6,740.8,428.7,732.8,424.8,728.9z"/>
<path d="M426.6,727.2c-29.1-28.6-67.8-51.5-109.9-48.6c-21.5,1.6-42.4,7.5-61.5,17.5c-9.6,4.9-18.7,10.7-27.2,17.3
	c-5.5,4.2-12.5,8.6-15,15.4s2.4,15,6.7,21c6.2,8.4,13.6,15.9,22,22.1c28.3,21,66.2,27.6,100.6,23.1c19.6-2.6,38.4-9.1,55.4-19.3
	c8.1-4.9,15.8-10.5,22.8-16.8c3.7-3.2,7.1-6.7,10.4-10.3c2.9-2.9,3.9-7.2,2.5-11.1C432,733.6,429.6,730.1,426.6,727.2
	c-2.3-2.3-5.8,1.2-3.5,3.5s6,6.6,6,10.7s-5.6,7.8-8.1,10.3c-6.5,6.2-13.6,11.9-21.1,16.8c-15.5,10.1-32.8,17-51,20.4
	c-32.9,6.1-69.9,1.2-98.4-17c-13-8.4-26.4-20.5-32.7-35c-0.2-0.4,0.2,0.5,0,0c-0.4-0.9-0.7-1.9-0.7-2.9c-0.1-1.9,0.5-3.9,1.5-5.5
	c1.3-2.2,3.2-3.7,5.1-5.4c7.8-6.6,16.1-12.5,24.9-17.6c17.3-10.4,36.5-17.4,56.4-20.7c18.3-2.9,37.1-1.3,54.6,4.7
	c18.9,6.4,36.2,17.2,51.4,30.1c4.1,3.5,8.2,7.2,12.1,11.1C425.3,732.9,428.9,729.4,426.6,727.2z"/>
<circle class="st2" cx="319.3" cy="734.6" r="45"/>
<path d="M319.3,782c-26.2,0-47.5-21.3-47.5-47.5c0-26.2,21.3-47.5,47.5-47.5s47.5,21.3,47.5,47.5c0,0,0,0.1,0,0.1
	C366.7,760.8,345.5,782,319.3,782z M319.3,692.1c-23.5,0-42.5,19-42.5,42.5s19,42.5,42.5,42.5s42.5-19,42.5-42.5
	c0.1-23.4-18.9-42.4-42.3-42.5C319.4,692.1,319.4,692.1,319.3,692.1z"/>
<circle cx="319.3" cy="734.6" r="25.9"/>
<path d="M319.3,763c-15.7,0-28.5-12.8-28.5-28.5s12.8-28.5,28.5-28.5c15.7,0,28.5,12.8,28.5,28.5c0,0,0,0.1,0,0.1
	C347.7,750.3,335,763,319.3,763z M319.3,711.1c-13,0-23.5,10.5-23.5,23.5s10.5,23.5,23.5,23.5s23.5-10.5,23.5-23.5
	S332.3,711.1,319.3,711.1L319.3,711.1z"/>
<path class="st3" d="M1048.6,553.8c-23.1-22.8-49.3-34.9-74.6-33.4s-49.3,12.8-68.3,29.5c0,0-5.2,4.4-3,9.8s20.4,37.7,71.8,39.2
	c29.5,1,57.8-11.2,77.5-33.1C1055.4,562,1051.3,556.5,1048.6,553.8z"/>
<path d="M1050.3,552c-20.7-20.4-48.3-36.4-78.4-34c-14.9,1.4-29.4,5.7-42.7,12.7c-6.6,3.5-12.9,7.6-18.9,12.2
	c-3.9,3-8.7,6.2-10.2,11.2s2.1,10.7,5.2,14.9c4.4,6,9.7,11.2,15.7,15.6c19.9,14.5,46.4,19.1,70.4,15.9c15.7-2.1,30.8-7.9,43.9-16.8
	c6.2-4.3,12-9.3,17.2-14.8c2.2-2.4,3.8-4.8,3.1-8.2S1052.7,554.4,1050.3,552c-2.4-2.4-5.7,1.2-3.5,3.5s4.6,4.8,3.9,7.5
	s-4.5,5.3-6.3,6.9c-4.5,4.3-9.4,8.2-14.7,11.5c-10.7,6.8-22.7,11.4-35.2,13.6c-22.5,3.9-47.7,0.4-67.1-12.1
	c-8.9-5.7-18-14-22.3-23.9c-0.1-0.2-0.2-0.4,0,0.2s-0.3-1-0.4-1.5c-0.1-1.3,0.2-2.5,0.8-3.6c1-1.6,2.3-3,3.9-4.1
	c5.3-4.5,10.9-8.5,16.9-12c12-7.1,25.3-12,39.1-14.2c31.3-4.8,59.6,10.3,81.4,31.7C1049.1,557.8,1052.6,554.3,1050.3,552z"/>
<circle class="st2" cx="975.1" cy="557.7" r="31.3"/>
<path d="M975.1,591.5c-18.7,0-33.8-15.1-33.8-33.8s15.1-33.8,33.8-33.8c18.7,0,33.8,15.1,33.8,33.8l0,0
	C1008.8,576.3,993.7,591.4,975.1,591.5z M975.1,528.9c-15.9,0-28.8,12.9-28.8,28.8s12.9,28.8,28.8,28.8c15.9,0,28.8-12.9,28.8-28.8
	l0,0C1003.9,541.8,991,528.9,975.1,528.9z"/>
<circle cx="975.1" cy="557.7" r="18.1"/>
<path d="M975.1,578.3c-11.4,0-20.6-9.2-20.6-20.6s9.2-20.6,20.6-20.6s20.6,9.2,20.6,20.6v0C995.7,569.1,986.5,578.3,975.1,578.3z
	 M975.1,542.1c-8.6,0-15.6,7-15.6,15.6s7,15.6,15.6,15.6s15.6-7,15.6-15.6v0C990.7,549.1,983.7,542.1,975.1,542.1z"/>
</svg>
