<svg id="Layer_1" data-name="Layer 1" xmlns="http://www.w3.org/2000/svg" viewBox="0 0 963.5 1083.2"><title>mental health problems</title><path d="M572.5,74.7c-226.3,6.6-276.1,141-276.1,141L268.8,676.5,490,964.2H876.7c15.2,0,14.9-14.8,14.9-14.8V367.3C891.6,222.5,782.5,68.5,572.5,74.7Z" fill="#fff"/><path d="M519.7,305.5s-2.1-32,44.4-49.2,88.7-11.2,120.8,8.1,43.3,42.2,54,74.8,25.7,51.9,27.8,84.5,0,43.3,3.2,53.4,25.1,36.4,31,65.8,3.2,52.9,0,58.3-322.3-23-322.3-23-8.1-1.6-2.2-26.2,17.7-36.4,16.1-51.9c-.8-7.6,1.3-17.8.2-29s-5.6-24.4-6.7-43.7c-2.1-37.9,2.2-67.9,5.9-81.2S508.5,309.8,519.7,305.5Z" fill="#734c4c"/><path d="M440.6,704.3s4.3-70.5,16.6-99.4,23-32.6,33.7-38,64.6-25.1,74.8-27.2,124.6-2.2,145.9,4.8,82.4,39,82.4,39,33.1,26.2,40.1,51.9,9.6,54.5,9.6,54.5l11.7,152.9s4.3,69,3.8,88.7-4.3,33.2-4.3,33.2l-107.4.5-258.8-1.6L435.8,811.2Z" fill="#bfd7ff"/><path d="M110.2,565.9s-25.1-3.2-39.5,11.7-28.4,42.3-31,74.9.5,92.5,4.2,119.7S61.6,877,61.6,877,68,973.2,71.7,980.2s3.8,32.1,11.8,36.9,58.3,9.6,137.4,10.7,120.8,0,120.8,0,9.1,14.4,43.8,10.1,57.8-23,73.3-33.7,41.7-62.5,41.7-62.5l50.8-103.2s19.7-39,20.3-41.7-15.5-29.9-15.5-29.9-37.4-43.9-69.5-42.3c0,0-1.6-.5-3.2,4.3S438.5,800,438.5,800l1.6-73.2s-3.2-39-26.8-68.4S336.9,593.7,300,578.2,110.2,565.9,110.2,565.9Z" fill="#a096cf"/><path d="M308.7,922.6s-3.6,63.3,3.7,76.7,26.9,24.4,26.9,24.4-15-18.7-20.7-40.4S308.7,922.6,308.7,922.6Z"/><path d="M304,581.1l11.1,4.5s-10.7,2.1-17.5,14.8-13.5,42.8-13.5,42.8-2.1-18.5,2.6-31.4c2-5.5,3.7-12.5,6.9-18A56.7,56.7,0,0,1,304,581.1Z"/><path d="M425.6,354.2s11.3-6.4,10.7-35.3-9.1-54.5-31-66.8c0,0-12.8-4.8-19.2-7s-39-28.3-92-28.3-95.7,28.3-114.4,44.9-39,52.4-48.1,102.6-8,116.6-11.2,133.7,1.6,32.1-14.4,67.3S68.5,630,65.3,669s12.9,73.8,42.3,93.1,68.4,19.7,70,20.3,43.8,17.8,60.4,14.5,20.8-12.4,29.4-19.9,19.2-54,17.6-80.2-.8-71.2,1.7-85,20.8-40,28.3-49.7,12.8-33.1,16-51.8,5.9-43.3.5-79.1c0,0-18.1-20.9-13.9-41.7s23.6-11.8,23.6-11.8l7.5,5.9s7.4-26.2,11.2-32.6,16-24.1,21.4-31,6.4-13.4,6.9-20.9-1.1-19.8-1.1-19.8,11.8-3.7,17.7-.5,15,20.3,16,28.3S425.6,354.2,425.6,354.2Z" fill="#734c4c"/><path d="M304,581.1l38.8,19s-2.7-23-2.7-31.6,0-50.7,11.8-72.7c0,0,14.4,13.4,45.4,10.2,0,0,15.5-2.1,20.3-17.6s5.4-40.1,9.6-43.3,13.9-7.5,16.6-11.8,3.2-8.6-3.2-17.1-12.3-12.3-12.3-19.8-3.7-39-3.7-60.4-4.8-61.5-30.5-60.9c0,0-5.9-1.6-5.4,10.1s1.7,28.9-14.9,43.3-25.1,55.1-25.1,55.1-9.1-13.9-23-9.1-11.8,26.7-6.4,37.9a81.8,81.8,0,0,0,12.2,18.8s9.1,25.6,4.9,47-5.9,58.3-17.1,75.4S304,581.1,304,581.1Z" fill="#fec3aa"/><path d="M495.1,724.6,529.3,661s6.5-16.5,7-24,2.7-34.2,5.3-47.1,8.6-27.2,13.4-32.6,10.7-9.1,16.6-9.6c0,0,9.6-20.3,17.6-26.2s11.2-8.6,16.6-1.6c0,0,8-7,12.8-7.5l4.8-.5s2.2-.6,8.1.5,16,10.2,16,10.2-3.8-7.5,3.7-7.5,15.5,11.2,17.1,15.5,4.3,10.7,4.3,10.7-.5-10.2,7.5-10.2,15,15,15,15,10.7,23.5,12.3,41.2,4.2,51.8,5.3,58.8,33.2,65.2,33.2,65.2l7.4,9.6s-17.1,27.8-40.1,35.8-28.8,6.4-28.8,6.4-18.7-62.5-20.3-65.2-17.1-17.6-23.6-24-18.7-23.6-18.7-23.6-8.5,25.7-19.7,37.5-13.9,15.5-13.9,15.5l-32.1,63.6S523.5,726.8,495.1,724.6Z" fill="#fec3aa"/><path d="M563.6,310.9s-19.8-4.3-36.9,12.3-11.3,54-11.3,54,3.8,34.2,3.8,49.7,9.1,40.6,17.6,47.6,37.5,26.7,37.5,26.7l7.7,18.7-2.9,19.8,132.5,4.8s-22.9-12.3-33.6-29.9-12.3-42.3-11.8-46.6,0-18.7,0-18.7,16-9.1,20.9-23.5,3.2-23.5-.6-29.4-14.4-7.5-25.1,3.7c0,0-16.6-.5-26.2-25.6s-24.1-52.9-27.3-59.9S584.4,279.9,563.6,310.9Z" fill="#fec3aa"/><path d="M270.5,221c3.4.8,0-19.4,18.5-48.9s48.9-59.7,85.9-79.9S490.2,47.6,572.7,41.7,743.6,73.7,771.4,88s87.5,63.1,119.5,128.8,32,108.6,32.8,134.6.9,569.9.9,569.9.8,44.6,0,51.4S915.3,992,901,994.6s-436,0-436,0l23.7-31,382-.2s18.5,5.1,20.2-16,0-592.6,0-592.6-2.5-109.4-73.2-182.7c0,0-103.6-125.4-292.1-93.4,0,0-169.1,11.8-231.5,138.1Z" fill="#a096cf"/><path d="M496.7,726.4c7.9-16,16.9-31.5,25.3-47.2,4-7.6,8.1-15.1,11.4-23.1,8.3-19.8,6.5-41,10.3-61.8,2.1-11.3,5.5-22.6,11.8-32.3,3.6-5.5,9.6-13.7,17.2-12.3,3.1.5,4.5-4.3,1.3-4.8-6.3-1.2-11.1,1.3-15.5,5.6-6.7,6.4-11.3,15-14.5,23.6s-5.7,20.6-6.8,31.2-1.4,22.4-3.6,33.5-7.7,22.5-13.3,33l-15.8,29.4c-4,7.5-8.3,15-12.1,22.6-1.4,2.9,2.9,5.4,4.3,2.6Z"/><path d="M559.6,592.3c5.3-15.6,9.9-31.5,16.7-46.4,3.4-7.4,7.1-14.6,12.4-20.8,3.1-3.7,11.4-10.3,15.3-4.2,1.7,2.7,6,.2,4.3-2.5-4.1-6.4-11.5-5.7-17.3-2s-11.9,12.7-15.6,20c-9,17.4-14.4,36.2-20.7,54.5-1,3.1,3.8,4.4,4.9,1.4Z"/><path d="M582.8,571.7c5.1-14.4,11.2-28.8,19.2-41.9,3.5-5.8,8.2-12.7,14.9-15.1s7.6,7,6,11.8c-1,3.1,3.8,4.4,4.8,1.4,1.9-5.8,2.4-15-4.4-17.9s-15.7,4-20.2,9.5c-5.8,7.1-10,15.5-13.9,23.7A255.1,255.1,0,0,0,578,570.4c-1.1,3.1,3.7,4.4,4.8,1.3Z"/><path d="M602,584.6c3.9-13.5,7.7-27.4,14.5-39.9a58.5,58.5,0,0,1,10.8-14.9c1.8-1.7,4.4-4.4,7-4.6a6.1,6.1,0,0,1,1.7.4c7.5,3.4,1.5,14.9-1.3,19.5-5.4,9.3-10.6,18.2-13.9,28.6a205.4,205.4,0,0,0-6.5,24.5c-.6,3.1,4.2,4.4,4.8,1.3a192.8,192.8,0,0,1,6.6-24.5,95.6,95.6,0,0,1,8.4-19.1c2.4-4.1,5.1-8.1,7.1-12.3,3.4-7,5.9-17.9-2.7-22.3s-18,7.7-22.3,14.1c-9.6,14.3-14.3,31.5-19,47.9-.9,3.1,3.9,4.4,4.8,1.3Z"/><path d="M635.5,553.4c2-2.7,4.3-1.7,5.4,1.1s.7,6,0,8.8c-1.4,5.7-3.8,11.2-5.7,16.8-3.9,11.6-7.3,23.5-9,35.7-.8,5.2-1,10.5-1.8,15.7a96.9,96.9,0,0,1-3.8,15c-3.8,11.7-9.9,22.5-16.4,33a107.9,107.9,0,0,1-9.5,13.7c-1.9,2.1-4.7,5.8-7.8,6.1s-3.2,5.2,0,4.9c8.4-.7,14.4-11.1,18.6-17.3,7.7-11.8,14.8-24.3,19.4-37.6a92.9,92.9,0,0,0,4.5-17.8c1-6.7,1.3-13.4,2.5-20.1,2.6-14.2,7.4-27.9,12.2-41.5,2.1-6.2,4.1-13.7.2-19.6s-9.7-4.1-13.1.6c-1.9,2.6,2.4,5.1,4.3,2.5Z"/><path d="M626.8,513.5l.6-.4-1.8.7c7.7-.8,14.2,6.5,17.7,12.5a93.4,93.4,0,0,1,6.3,14.1,212.6,212.6,0,0,1,10.7,38.2c.6,3.1,5.4,1.8,4.8-1.3a208.3,208.3,0,0,0-12-41.6c-2.7-6.5-5.5-13.2-10.2-18.5a26.2,26.2,0,0,0-9.5-6.9c-3.1-1.3-7.2-2.6-10.1-.3s1,5.4,3.5,3.5Z"/><path d="M650.6,525.9c-.9-2.1-2.2-8.3.8-9.4s6.4,3.7,7.6,5.1c4.3,5.3,6.8,12.3,9.3,18.5a235.8,235.8,0,0,1,13,44.2c.6,3.2,5.4,1.9,4.8-1.3a234.9,234.9,0,0,0-17.8-55.5c-3-6.4-7.4-13.4-14.5-15.5-8.9-2.7-10.4,9.3-8,15.2,1.1,2.9,5.9,1.7,4.8-1.3Z"/><path d="M679.1,555.6a43.5,43.5,0,0,1-4.4-14.5c-.4-3.8.1-11.1,5.9-9s8.5,8.9,10.9,13.8c6.4,13.1,10.3,27.5,13,41.8a235.2,235.2,0,0,1,3.6,28.9c.6,8,.2,16.1,1,24.1,1,9.9,5.3,18.5,9.7,27.3,7.9,15.5,16.1,30.9,25.8,45.4,1.7,2.6,6.1.1,4.3-2.5-9.4-14.2-17.5-29.2-25.2-44.3-1.7-3.4-3.4-6.7-5-10.1a52.4,52.4,0,0,1-4.9-20.9c-.4-9.8-.6-19.6-1.6-29.3a252.4,252.4,0,0,0-4.7-28.7c-3.3-13.9-7.7-28.2-15.2-40.5-3.8-6.2-11.9-14.5-19.3-8-3.6,3.2-3.7,8.1-3.2,12.5a50.1,50.1,0,0,0,5,16.5c1.4,2.9,5.7.4,4.3-2.5Z"/><path d="M639.6,620.5c7.1,2.2,13.2,8.1,18.2,13.3A80,80,0,0,1,671,652.3c1.5,2.8,5.8.3,4.3-2.5A85.3,85.3,0,0,0,661,629.9c-5.6-5.8-12.3-11.8-20.1-14.3-3.1-.9-4.4,3.9-1.3,4.9Z"/><path d="M620.3,651.5c6.5,14.2,18.4,23.6,29,34.4,6.6,6.8,12.2,13.8,15.6,22.7s5.4,17.4,8,26.1,5.5,18.7,8.2,28.1c.9,3.1,5.7,1.8,4.8-1.3-2.4-8.5-4.9-16.9-7.4-25.3s-4.9-17.7-7.9-26.4A65.1,65.1,0,0,0,657.1,687c-5.1-5.6-10.6-10.6-16-15.9s-12.6-13.6-16.5-22.1c-1.4-2.9-5.7-.4-4.3,2.5Z"/><path d="M444.2,910.3a272.3,272.3,0,0,1-5.5-41.1c-.4-8.6-.1-17.2.1-25.8.5-24.4,1.3-48.7,2.1-73.1.7-20.3,2.8-40.8-1.6-60.8a138.7,138.7,0,0,0-24.5-53.3c-10.7-14.2-24.5-26-38.6-36.8-7.6-5.7-15.4-11.2-23.4-16.3-5.6-3.6-11.2-7.4-17.2-10.3-9-4.4-18.2-8.5-27.5-12.5-1.4-.6-2.7-1.3-4.2-1.8s-4.3,3.8-1.3,4.8a109.9,109.9,0,0,1,11.1,4.9l15.3,7c11.7,5.4,22.6,12.8,33.1,20.1,15.3,10.7,30.2,22.5,42.6,36.4a131.3,131.3,0,0,1,27.4,49.9c4.4,14.6,5.3,28.9,4.7,44.1-.3,6.5-.5,13.1-.7,19.6-.8,24.1-1.6,48.1-2.2,72.2-.2,8.9-.4,17.8-.3,26.7.2,14.7,2.4,29.4,5.1,43.8.3,1.2.5,2.4.7,3.6.7,3.1,5.5,1.8,4.8-1.3Z"/><path d="M440.2,802.3c9.1-14.4,17.4-29.4,26.6-43.9,4.6-7.2,9.4-14.3,14.6-21.1,1.7-2.1,4.2-4.2,4.7-6.9a3.5,3.5,0,0,1,.9-2.6c1.9-1.8,5.6-1,7.8-.6a58.2,58.2,0,0,1,10.7,2.8A74,74,0,0,1,524,740.1c12,8.7,22,20.1,30.9,31.9,5.8,7.7,17,20.3,12,30.7l-8.3,16.8Q541.4,854.8,524,890c-12.8,25.9-24.8,52.6-40.1,77.2-12.7,20.4-28.2,39.6-48.8,52.5a115.5,115.5,0,0,1-33.4,14c-10.8,2.7-23,5.1-34.2,3.5-16.8-2.3-28.8-14.8-36.5-29.1-15.2-27.7-17.7-60-22-90.7a36.9,36.9,0,0,0-.8-4.6c-.7-3.1-5.5-1.8-4.8,1.3a91.6,91.6,0,0,1,1.7,11.7c.8,6.7,1.6,13.4,2.6,20,2.5,16.6,5.9,33.2,11.8,49s13.9,30.3,27.5,39.6c16.6,11.5,37.6,8.7,56.1,4.1a123.7,123.7,0,0,0,58-33.5c17.4-17.6,30.3-39.1,41.6-61,22.9-44.3,44.4-89.4,66.2-134.2,2.6-5.3,4.8-9.5,3.7-15.8s-5.7-13.9-10.1-19.9-8.3-11.2-12.8-16.5c-9-10.5-19.3-20.3-31.4-27.2a73.5,73.5,0,0,0-18.5-7.3c-4.9-1.1-11.8-2.8-16,.9a8.3,8.3,0,0,0-2.7,6.6l.7-1.8c-17.8,22-30.8,47.2-45.9,71-1.7,2.7,2.6,5.2,4.3,2.5Z"/><path d="M370.7,638.9c-18.5,15-25.3,40-31.3,62a517.3,517.3,0,0,0-14.7,81c-1.7,15.6-2.7,31.3-3.3,47-.1,3.2,4.9,3.2,5,0a624.4,624.4,0,0,1,7.8-80.7c4.3-25.2,9.8-51,19.2-74.9,4.5-11.7,10.9-22.9,20.8-30.9,2.5-2-1.1-5.5-3.5-3.5Z"/><path d="M857.2,959.4c3.5-11.3,4.5-23,4.5-34.8a141.1,141.1,0,0,0-2.7-29c-3-14.6-9.4-27.8-15.4-41.3-1.3-2.9-5.6-.4-4.3,2.5,5.7,12.9,11.8,25.5,14.8,39.4a130.9,130.9,0,0,1,2.6,27.3c0,11.7-.9,23.4-4.3,34.6-1,3.1,3.8,4.4,4.8,1.3Z"/><path d="M832.4,842.2c-5-10.5-9.8-21-15-31.3-6.4-12.8-13.4-25.1-20.3-37.5-10.5-18.7-20.6-37.5-30.8-56.4l-8.1-15.2c-1.4-2.6-5.1-.7-4.6,1.9,1.6,8.1-2.3,15.8-6.9,22.2a83.6,83.6,0,0,1-14.8,15.5,90.9,90.9,0,0,1-38.4,18.8c-3.3.8-6.6,1.1-10,1.7-1.2.2-2.7-.1-3.9.5-3.3,1.6-3.1,6.7-2.7,9.7.8,5,2.5,9.9,3.9,14.7,5.3,18,11,35.9,16.3,54,2.3,7.9,4.7,15.8,6.5,23.8,1.3,5.2,1.6,9.6,2.8,14.9a250.1,250.1,0,0,0,11.4,34.6,255.9,255.9,0,0,0,22.1,43.7c1.7,2.7,6,.2,4.3-2.5-14.2-22.1-24.7-46.9-31.7-72.2-1.5-5.5-2.2-10.8-3.3-16.4-1.4-7.1-3.5-14.1-5.5-21.1-5.2-18.3-11-36.6-16.5-54.9-1.8-5.9-3.7-11.8-5.1-17.9-.1-.4-.4-2.2-.3-1.6a16.1,16.1,0,0,1,0-3.1c.2-1.9.5-.7-.6-1.1s-.8.1.4.1l4.9-.6a91.3,91.3,0,0,0,10.2-1.9,97.9,97.9,0,0,0,40.6-21.2c11.3-9.9,24.3-24.8,21.1-41l-4.5,1.9c7,13.2,14.2,26.5,21.3,39.7,11.6,21.2,23.9,42.2,35,63.7,6.3,12.2,12,24.6,17.9,37,1.3,2.9,5.6.4,4.3-2.5Z"/><path d="M746.1,693.4h0l.7,1.7h0l-.7,1.8c-.9,1-2.6.2-1.6.6h.4c.6.3-.5-.2.1.1h.3l1.7.9,1.6,1,.4.3c.5.4-.4-.3,0,.1l.8.6a20.6,20.6,0,0,1,2.5,2.6l.2.2c.1.2.1.1-.1-.1s.2.2.2.3l.6.8,1,1.7a2.4,2.4,0,0,0,3.4.8,2.6,2.6,0,0,0,.9-3.4,24.6,24.6,0,0,0-6.9-7.8,18.4,18.4,0,0,0-4.1-2.4c-1.1-.5-2.3-1.2-3.5-.8a2.5,2.5,0,0,0-1.8,1.3,2.5,2.5,0,0,0,3.9,3.2,2.6,2.6,0,0,0,0-3.6Z"/><path d="M557.7,768.5c10.3-22.1,21.1-44,32.2-65.7,1.5-2.9-2.8-5.4-4.3-2.5-11.1,21.6-21.9,43.5-32.2,65.7-1.3,2.8,3,5.4,4.3,2.5Z"/><path d="M524.7,949.7c48.2-7.2,90-34.5,127.1-64.6,11.2-9,22.1-18.4,32.9-27.8,2.5-2.1-1.1-5.6-3.5-3.5-36.5,31.5-74.1,63.9-119.8,81.1a178.9,178.9,0,0,1-38,10c-3.1.5-1.8,5.3,1.3,4.8Z"/><path d="M575.9,536.5c-24.1,5.3-48.1,11.5-70.9,21.1-15.9,6.7-33.1,14.3-42.5,29.5-7.1,11.2-11.1,24.4-14.3,37.1a295,295,0,0,0-8.1,46.6l-3,34.4c-.3,3.2,4.7,3.2,4.9,0l2.6-29a359.4,359.4,0,0,1,6.2-41.4c3.1-14.2,6.9-28.7,13.8-41.5a49.1,49.1,0,0,1,7.4-10.6c7.5-8,18.1-12.8,27.9-17.4,24.5-11.4,51-18.2,77.3-24,3.1-.7,1.8-5.5-1.3-4.8Z"/><path d="M571.9,504.2c3.7,5.6,6.9,12.1,7.5,18.9.4,3.9.1,8.6-3,11.2s1,5.5,3.5,3.5c4.1-3.4,4.9-9.3,4.6-14.3-.6-7.9-4-15.3-8.3-21.8-1.7-2.6-6-.1-4.3,2.5Z"/><path d="M663.3,450.1c-.1,5.9.5,11.9.9,17.8s.8,11.6,1.5,17.3c2.2,16.9,8.5,32.8,20.8,44.8,7.1,7,15.7,12.5,25.4,14.9,3.2.7,4.5-4.1,1.4-4.8-15.2-3.8-28.6-16-35.3-29.9s-7.7-26.9-8.7-40.9c-.5-6.3-1.2-12.8-1-19.2.1-3.2-4.9-3.2-5,0Z"/><path d="M706.9,542.7,732,556c8.9,4.7,17.7,9.8,26.8,14.2s20.4,8.4,29.9,14a86.9,86.9,0,0,1,13.8,10.3,99.7,99.7,0,0,1,23.1,28.6c8.2,15.3,11.2,31.7,12.5,48.9,1.1,14.4,2.6,28.9,3.8,43.3,2.6,29.9,5.2,59.9,7.5,89.8s4.6,58.1,6.3,87.1c.1,2.8.3,5.6.4,8.4s5.2,3.2,5,0c-1.4-28.4-3.6-56.7-5.8-85-2.5-30.9-5-61.7-7.7-92.5-1.5-16.8-3.1-33.6-4.5-50.4-1.1-14.7-3-28.8-8.7-42.6A100.9,100.9,0,0,0,811.5,596a111.3,111.3,0,0,0-34.6-23.2c-9.6-4.2-19-8.6-28.3-13.6l-27.7-14.7-11.4-6.1c-2.9-1.5-5.4,2.8-2.6,4.3Z"/><path d="M771.3,617.9c-9.8,17.2-13.1,36.8-16.2,56.1-.5,3.1,4.3,4.5,4.8,1.3,3-18.8,6.1-38.1,15.7-54.9,1.6-2.8-2.7-5.3-4.3-2.5Z"/><path d="M134,770.7c-32.7-3.6-52.6-34.7-61.5-63.5a102.1,102.1,0,0,1-1-55.1c5.1-20.5,14.6-39.7,23.8-58.7s18.2-37.1,23.2-57c4.1-16.8,5.1-34.5,5.8-51.7,1.6-35.6-.1-71.9,6.7-107,5.1-26.3,11.4-52.5,23.6-76.4,13.4-26.4,33.4-47.7,59.7-61.5,20.6-10.9,44.2-17.5,67.3-19.7,19.6-1.9,39.4-.3,58.1,5.8,15.9,5.2,29.2,15,44.4,21.3,5.1,2.2,10.7,2.5,15.8,4.7a41.7,41.7,0,0,1,13.6,9.1c7.7,7.6,12.5,17.7,15.4,28.1a108.8,108.8,0,0,1,3.4,33.1c-.4,9.1-1.6,18.4-4.9,27a24.8,24.8,0,0,1-3.9,7.4c-2,2.4,1.5,6,3.6,3.5,4.9-5.8,6.9-13.9,8.3-21.3a117.9,117.9,0,0,0,1.5-32.5c-2-22.2-10.6-46.6-31.7-57.4-5.5-2.8-11-3.7-16.8-5.4s-12.8-6.1-18.8-9.4c-7.9-4.2-15.8-8.4-24.2-11.5a139.5,139.5,0,0,0-30.5-7.2c-31.8-3.8-64.7,2.8-93.9,15.6a140.6,140.6,0,0,0-57,45.4c-17.5,23.8-27.3,52.2-33.8,80.7a333.8,333.8,0,0,0-7.3,42.1c-1.8,19.1-2.2,38.2-2.7,57.3s-.9,37.5-2.8,56.1a154.7,154.7,0,0,1-5,27,217.1,217.1,0,0,1-11.3,30c-16.6,36.8-41.4,74.9-37.7,117,1.8,20.1,9.6,40.4,21,57,8.5,12.5,19.8,23,34,28.4a60.1,60.1,0,0,0,15.6,3.7c3.2.3,3.1-4.6,0-5Z"/><path d="M112.5,703.4c8.6,37.5,33.7,79.8,76.7,81.9,3.2.1,3.2-4.8,0-5-40.7-1.9-63.8-43.1-71.9-78.3-.8-3.1-5.6-1.8-4.8,1.4Z"/><path d="M158.9,733.2c7.6,16.6,15.6,32.3,29.1,44.9,11,10.3,26.4,23.3,42.7,17.8,3-1,1.7-5.8-1.4-4.8-15.2,5.2-29.8-8.9-39.9-18.5-12.1-11.7-19.3-26.8-26.2-41.9-1.3-2.9-5.6-.4-4.3,2.5Z"/><path d="M329,431.6c3.5,7.5,4.2,16.3,4.5,24.4a217.7,217.7,0,0,1-1.3,33.3c-2.3,21.1-6.2,43.4-14.7,62.9-4.9,11-12.8,20.3-19.2,30.4-8.6,13.4-14.8,27.5-16.4,43.5s.4,34.6.7,51.8-.1,35.3-2.9,52.6a215.8,215.8,0,0,1-5.8,25.3,72.3,72.3,0,0,1-6,15c-5.8,10.2-15.8,17.1-25.1,23.8-2.6,1.9-.1,6.2,2.5,4.3,8.7-6.2,17.9-12.6,24.2-21.4s9.1-19.4,11.7-29.6c4.2-17,6-34.6,6.4-52.1s-1-35.6-1.3-53.3c-.1-9,.3-18,2.3-26.7a85,85,0,0,1,9.1-22.6c3.9-7.1,8.6-13.8,13.1-20.5,3.2-4.6,6.6-9.1,9.1-14.1,4.4-8.4,7.2-17.7,9.6-26.8a287.9,287.9,0,0,0,6.7-34.5,244.3,244.3,0,0,0,2.4-39.2c-.3-9.7-1.2-20.1-5.3-29-1.3-2.9-5.6-.4-4.3,2.5Z"/><path d="M250.7,719.8c4.7,14.4,4,30.7-.3,45.1-3.3,11.1-10,25.5-23,27.3-3.1.5-1.8,5.3,1.4,4.8,14.1-1.9,22.1-17,25.9-29.3,5-15.6,5.9-33.6.8-49.3-1-3-5.8-1.7-4.8,1.4Z"/><path d="M388.4,280.3c1.9-2.5,4.8-5.4,8.3-5s6.3,3.6,8.4,6.2A64.5,64.5,0,0,1,418.7,312c1,5.7,1.5,11.5,2.1,17.2s1.4,11.1,1.5,16.7c.3,11.4-.3,22.7,1.3,34s3.1,22.7,9.3,32a31.8,31.8,0,0,0,4.4,5.3c1.8,1.7,3.9,3.3,5.2,5.4,3.3,5.8-2.7,11.2-7.1,13.9s-9.3,4.3-11.8,8.5c-1.3,2.2-1.6,4.9-2,7.5l-1.4,9.7c-1,6.1-1.8,12.2-2.8,18.3s-1.7,10.2-4.6,14.4c-6,9.2-20,11-30,9.9A78.2,78.2,0,0,1,350.1,493c-2.7-1.8-5.2,2.6-2.5,4.3,17.4,11,42.5,18.5,61.6,7.4,10.1-5.8,12-16.5,13.7-27.2l3.3-21.9c.4-2.8.4-6.7,2.4-9s5-3.3,7.5-4.7c4.9-2.8,9.7-6.3,11.6-11.9s0-9.5-3.5-13.2a78,78,0,0,1-5.8-5.7,34.6,34.6,0,0,1-4.6-8.2c-2.4-5.9-3.6-12.3-4.6-18.6a142.8,142.8,0,0,1-1.8-19.5c-.1-6.5.1-13-.1-19.5s-1.2-12.5-1.8-18.8-1.2-12-2.3-17.9a67.3,67.3,0,0,0-7.2-19.5c-2.8-5.1-6-10.4-10.4-14.4s-6.8-4.8-11-4.3-7.8,3.9-10.5,7.3,2.4,5.1,4.3,2.6Z"/><path d="M411.9,460.2a38.8,38.8,0,0,1-22.3-5.2c-2.8-1.6-5.3,2.7-2.5,4.3a43.3,43.3,0,0,0,24.8,5.9,2.5,2.5,0,0,0,2.5-2.5,2.5,2.5,0,0,0-2.5-2.5Z"/><path d="M353.6,385.3c-4.9-5.9-10.7-11.9-18.6-13.1s-13.8,2.4-17.6,8.6c-7.9,12.8-2.9,32.2,6.4,43.1,5.5,6.4,13.8,10.4,22.3,9.6,3.1-.3,3.2-5.3,0-5-17.4,1.7-27.2-17.6-27.5-32.6-.1-7.2,2.8-16.8,10.9-18.7s15.6,5.7,20.6,11.6c2,2.5,5.5-1.1,3.5-3.5Z"/><path d="M333.1,397.6l.3-.5c-.1.2,0,0,.1-.1l.3-.2a5,5,0,0,1,1.8-.2l.7.2,1.2.3,2,1.1a9.7,9.7,0,0,1,3.8,7.4l4.7-1.2a7.2,7.2,0,0,0-7.9-3.6,7.2,7.2,0,0,0-5.4,6.9c0,6.5,7.2,11.2,13.2,11,3.2-.1,3.2-5.1,0-5s-6.8-1.7-8-4.9a2.3,2.3,0,0,1,1.1-3.1,1.6,1.6,0,0,1,1.5.1,2.1,2.1,0,0,1,1.2,1.1,2.5,2.5,0,0,0,4.6-1.3,14.5,14.5,0,0,0-6.8-12c-3.6-2.3-10.4-3.4-12.7,1.5a2.7,2.7,0,0,0,.9,3.4c1.1.6,2.9.3,3.4-.9Z"/><path d="M407,346.5a54.9,54.9,0,0,1-21,17.2,2.5,2.5,0,0,0,2.5,4.3,60,60,0,0,0,22.8-19,2.5,2.5,0,0,0-.9-3.4,2.6,2.6,0,0,0-3.4.9Z"/><path d="M385.1,279.2c1.5,10.3,3.1,21.3-1.3,31.2-3.7,8.3-10.2,14.9-15.5,22.2a118.9,118.9,0,0,0-21.2,51.7c-.5,3.1,4.3,4.5,4.8,1.3a117.3,117.3,0,0,1,23.4-54.1c5.6-7.2,11.7-14.2,14.5-23s1.6-20.5.1-30.6c-.5-3.2-5.3-1.8-4.8,1.3Z"/><path d="M348.2,496.7c-4.6,13.9-7.2,28.5-9,43.1a253.1,253.1,0,0,0-2.2,40.8c.2,4.7.5,9.8,2,14.3s5.8,1.7,4.8-1.3c-1.7-5.2-1.8-10.9-1.9-16.3q-.1-12.3.9-24.6c1.5-18.4,4.4-37.1,10.2-54.7,1.1-3-3.7-4.3-4.8-1.3Z"/><path d="M107.1,563.7a129.2,129.2,0,0,0-19.6,3.2,47.5,47.5,0,0,0-19.7,11c-13.1,11.8-20.5,28.5-24.7,45.3-4.8,19.6-5.9,40-6.6,60.1a512.8,512.8,0,0,0,.7,52.6c1.8,26.5,6.4,52.5,11.6,78.4,2.3,11.3,4.6,22.6,6.4,34,2.7,16.6,4.2,33.4,6,50.1q4.3,41.9,8,83.8a5.7,5.7,0,0,1,.1,1.3c.3,3.2,5.3,3.2,5,0-1.9-22.5-4.1-45.1-6.3-67.6-3.1-30.3-6-60.4-11.9-90.3-4.7-24.1-9.8-48.2-12.4-72.8a485.8,485.8,0,0,1,.1-104.4c2.1-18.7,6.2-38,16.6-54a60.8,60.8,0,0,1,17.2-17.8c6.3-4.1,13.5-5.7,20.9-6.9l8.6-1c3.2-.3,3.2-5.3,0-5Z"/><path d="M75.4,870.1c10.6,8.6,19.5,19.1,28.4,29.4s17.2,19.6,26.3,29.1a460.5,460.5,0,0,0,58,51.8,322.7,322.7,0,0,0,37.3,23.8c2.8,1.5,5.3-2.8,2.5-4.3-45.8-24.9-83.8-61.6-117.8-100.7-9.9-11.3-19.4-23.1-31.2-32.6-2.4-2-6,1.5-3.5,3.5Z"/><path d="M405.8,384.2a8.1,8.1,0,0,1,1.6,2.7,19.7,19.7,0,0,1,1,6.8,7.3,7.3,0,0,1-.7,2.9,3.2,3.2,0,0,1-2.3,1.8c-1.4.3-2.7-.7-3.5-1.8a9.6,9.6,0,0,1-1.6-5.2,20.3,20.3,0,0,1,.9-5.4,3.2,3.2,0,0,1,.9-1.6,2.7,2.7,0,0,1,2-.9A3.6,3.6,0,0,1,405.8,384.2Z"/><path d="M404.4,385.5a5.5,5.5,0,0,1,1.1,1.7,13.2,13.2,0,0,1,.8,3.3c.3,1.6.6,4.4-.5,5.6s-.3.3-.3.4h-.8a4.2,4.2,0,0,1-1.7-1.8,9.6,9.6,0,0,1-.6-5.8,9.1,9.1,0,0,1,1-3.3h.1c.1-.2-.2.1,0,0h.5c-.1,0,.2,0,0-.1l.8.5a1.9,1.9,0,0,0,2.6-.6,2,2,0,0,0-.7-2.6,4.6,4.6,0,0,0-4.8-.4,5.3,5.3,0,0,0-2.5,3.6c-.9,3-1.4,6.4-.3,9.4s3.7,5.9,7,5,4.2-4.8,4.1-7.9a17,17,0,0,0-.9-5.4,7.9,7.9,0,0,0-2.2-4,2,2,0,0,0-2.7,0A1.9,1.9,0,0,0,404.4,385.5Z"/><path d="M510.8,361a300.4,300.4,0,0,1,4.4,36.5c.7,10.9.3,21.7,2,32.4,2.8,17,7.3,33.6,19.3,46.5a147.3,147.3,0,0,0,18.1,16.3c4.8,3.7,9.7,7.6,15.4,9.6,16.4,5.7,36.1.1,50.3-8.9a143,143,0,0,0,24.8-20.5,51.5,51.5,0,0,0,7.4-8.8c1.8-2.6-2.5-5.1-4.3-2.5-5.6,8.6-15.1,16.2-23.4,22.5-14,10.6-32.4,18.6-50.3,14.3-5.6-1.4-10.2-4.6-14.8-8a164.6,164.6,0,0,1-17.3-15,66.5,66.5,0,0,1-13-18.5c-3.5-7.5-5.1-16.1-6.6-24.2-2.2-11.7-1.9-23.4-2.6-35.2a319.7,319.7,0,0,0-4.6-37.8c-.5-3.1-5.3-1.8-4.8,1.3Z"/><path d="M662.3,404.1c3.8-5.7,11.7-13.5,18.9-8.1s7.1,13.5,6.2,20.2a35.1,35.1,0,0,1-9.9,19.6c-5.3,5.5-12.3,11.6-20.1,12.5-3.1.4-3.2,5.4,0,5,9.8-1.2,18.6-8.2,25-15.4s10.2-16,10.2-25.4-3.3-19.3-11.8-22.4-17.9,4.1-22.8,11.5c-1.8,2.7,2.5,5.2,4.3,2.5Z"/><path d="M680.6,405c-5.4-1.8-9.9,3-13,6.7a42.2,42.2,0,0,0-7.1,13,2.4,2.4,0,0,0,1.7,3,2.5,2.5,0,0,0,3.1-1.7,37.9,37.9,0,0,1,5.5-10.3,34.7,34.7,0,0,1,4.1-4.5,12.8,12.8,0,0,1,2.1-1.4,3,3,0,0,1,2.3,0,2.5,2.5,0,0,0,3-1.8,2.4,2.4,0,0,0-1.7-3Z"/><path d="M667.3,419.1c.6.2-.2-.1.1,0l.4.3h.1c.1.1.3.5.1.1l.4.8c.2.3,0-.3.1.1s.1.4.1.6l.3.9c.1.6-.1-.5,0,.1v1.5c0,.1-.1.7,0,.3s-.1.3-.1.3a6,6,0,0,1-.6,1.9c-.1.4.3-.5,0,.1s-.2.3-.2.5a5.6,5.6,0,0,0-.5.8l-.3.4c-.2.3.2-.3-.1.1l-.7.8-.3.2-.2.2-.3.2-.5.3a2.5,2.5,0,0,0-.9,3.5,2.6,2.6,0,0,0,3.4.9,12.8,12.8,0,0,0,6.1-9.2c.6-4-.6-9.3-5.1-10.6a2.6,2.6,0,0,0-3,1.8,2.5,2.5,0,0,0,1.7,3Z"/><path d="M540.1,394.4a5.1,5.1,0,0,1,1.3,2.4,15.1,15.1,0,0,1,.8,6,6.6,6.6,0,0,1-.6,2.5,2.9,2.9,0,0,1-2.1,1.6,3.2,3.2,0,0,1-3-1.7,8.4,8.4,0,0,1-1.3-4.6,15.1,15.1,0,0,1,.9-4.7,3,3,0,0,1,.7-1.5,3.4,3.4,0,0,1,1.8-.7A2.6,2.6,0,0,1,540.1,394.4Z"/><path d="M538.8,395.7c0,.1.3.3.1.1l.3.4.3.6c.1.2,0,.1,0,0s.1.2.1.3a28.6,28.6,0,0,1,.7,2.8,15,15,0,0,1,0,3,2,2,0,0,1-.2,1,.7.7,0,0,1-.1.5c-.1.1-.1.2-.2.2s.2-.1,0,.1l-.2.2h0l-.3.2c.1-.1.2-.1,0-.1H539a2.6,2.6,0,0,1-1.4-1.5,5.9,5.9,0,0,1-.5-2.2,8,8,0,0,1,.2-2.7,11.6,11.6,0,0,1,.4-1.8l.3-.7s.1-.3,0-.2.2-.1.2-.2-.2.1,0,0h.4c.1-.1,0,0-.1-.1l.6.5a2,2,0,0,0,2.6-.7,1.9,1.9,0,0,0-.7-2.5,4.1,4.1,0,0,0-4.4-.5,5.1,5.1,0,0,0-2.4,3.3c-.8,2.7-1.3,5.7-.4,8.4s3.3,5.5,6.4,4.7,3.9-4.3,3.9-7.1a16.1,16.1,0,0,0-.7-4.9,8,8,0,0,0-2-3.6,1.8,1.8,0,1,0-2.6,2.6Z"/><path d="M598.7,389.4a5.8,5.8,0,0,1,1.4,2.4,17.4,17.4,0,0,1,.8,6,5.9,5.9,0,0,1-.7,2.6,2.6,2.6,0,0,1-2,1.5,3.3,3.3,0,0,1-3.1-1.7,7.2,7.2,0,0,1-1.2-4.6,15.5,15.5,0,0,1,.8-4.7,3.9,3.9,0,0,1,.8-1.4,2.3,2.3,0,0,1,1.8-.7C597.9,388.7,598.3,389.1,598.7,389.4Z"/><path d="M597.4,390.8c.1,0,.3.3.2,0l.3.5a1.4,1.4,0,0,1,.2.6c.1.2.1,0,0,0l.2.3a11.8,11.8,0,0,1,.6,2.7,10.1,10.1,0,0,1,.1,3,5.2,5.2,0,0,1-.2,1.1l-.2.4c0,.1-.1.2-.1.3h-.1l-.2.2h-.3c.2,0-.5-.1-.2,0a2.8,2.8,0,0,1-1.4-1.6,9,9,0,0,1-.6-2.2,24.5,24.5,0,0,1,.2-2.7c.2-.5.3-1.1.5-1.7s.1-.5.2-.8.1-.2.1-.1a.2.2,0,0,1,.2-.2c.2-.2-.3.1,0,0s.1-.1.2-.1.1,0,.1,0,.1,0-.1-.1l.7.4a1.8,1.8,0,0,0,2.6-.6,2,2,0,0,0-.7-2.6,4.1,4.1,0,0,0-4.4-.4,4.6,4.6,0,0,0-2.4,3.3,13.4,13.4,0,0,0-.4,8.4c.9,2.6,3.3,5.4,6.4,4.6s3.9-4.3,3.9-7.1a19.2,19.2,0,0,0-.7-4.8,8.3,8.3,0,0,0-2-3.7,2.1,2.1,0,0,0-2.7,0A1.9,1.9,0,0,0,597.4,390.8Z"/><path d="M556.2,410.1c-.9,2.4-2.7,4.5-4.3,6.5a31.7,31.7,0,0,0-4.4,7c-2.2,5.6.3,10.9,3.2,15.6,1.6,2.8,6,.3,4.3-2.5a19.5,19.5,0,0,1-3.1-6.5,8.3,8.3,0,0,1,1-6.3c2.4-4.4,6.3-7.7,8.1-12.5a2.5,2.5,0,0,0-1.7-3.1,2.6,2.6,0,0,0-3.1,1.8Z"/><path d="M604.7,450.9a49.4,49.4,0,0,0-37.4,7c-2.7,1.8-.2,6.1,2.5,4.3a44.3,44.3,0,0,1,33.6-6.5c3.2.7,4.5-4.2,1.3-4.8Z"/><path d="M516.1,361.2a47.6,47.6,0,0,1,44.5-49c3.2-.2,3.2-5.2,0-5a52.5,52.5,0,0,0-49.5,54c.1,3.3,5.1,3.3,5,0Z"/><path d="M568.4,308c2.5-8.9,13.6-10.3,21.1-7.5,9.5,3.5,15.6,12.1,19.9,20.8,9.2,18.7,14,39.3,24.1,57.6,4.7,8.4,10.8,16.4,19.8,20.3,3,1.3,5.5-3,2.6-4.3-9.3-4-15-12.5-19.5-21.2-5.5-10.6-9.5-21.8-13.7-33-6.7-17.9-15-43-37.1-46.3-9.1-1.4-19.4,2.9-22,12.3-.9,3.1,3.9,4.4,4.8,1.3Z"/><path d="M578.5,314.8a22.8,22.8,0,0,1,28.7,4.1c2.2,2.4,5.7-1.1,3.6-3.5-8.6-9.6-24-11.8-34.9-4.9-2.7,1.7-.2,6,2.6,4.3Z"/><path d="M477.3,573.4a69.4,69.4,0,0,1,1.5-20.8,102.3,102.3,0,0,1,5.6-16.1c5.5-13,9.7-25.7,10.6-39.8,1.6-23.6-5.5-46.5-7-69.9-1.2-17.6,0-35.4,2.4-52.9s5.2-33.2,13.5-47.6a53.7,53.7,0,0,1,14-16c2-1.5,3.7-2.2,3.7-4.9a42.1,42.1,0,0,1-.2-7.1c1-8.4,7.2-15,13.1-20.6a91.6,91.6,0,0,1,17.9-12.9c19.6-10.8,42.8-15,65-14.7,7.1.1,14.3-.3,21.3.5a109.3,109.3,0,0,1,47.2,16.7c7.6,4.8,14.1,11.1,20.3,17.6A120.5,120.5,0,0,1,722,304.7a94.3,94.3,0,0,1,9.6,20c2.1,5.9,3.8,12,6,17.8,4.6,12.3,10,24.2,14.5,36.5,5.5,15.3,9.8,31.1,11.7,47.3a183.3,183.3,0,0,1,1.1,28.7,60.5,60.5,0,0,0,1,15.9c1.9,9,6.4,17.3,11,25.2s10.8,18,15.1,27.6a112.2,112.2,0,0,1,9.1,39.1,145.1,145.1,0,0,1-.9,25.5c-.3,3.1,4.7,3.1,5,0,1.8-16.1,1.5-32.4-2.4-48.2a132.3,132.3,0,0,0-13.7-33c-4.9-8.7-10.5-17-14.6-26.1a58.7,58.7,0,0,1-4.1-12.9c-1.2-6.4-.4-12.8-.4-19.3a193.7,193.7,0,0,0-7.3-53c-3.9-14.2-9.4-27.7-15-41.3-2.3-5.6-4.7-11.3-6.7-17.1s-4-13.1-6.6-19.4c-6.3-15.4-16.3-28.4-28.1-40.1-6.2-6.1-12.6-11.8-20.1-16.3a119.5,119.5,0,0,0-23-10.5,111,111,0,0,0-24.9-5.6c-5-.5-9.8-.1-14.7-.2-18.6-.4-36.9,1.1-54.7,7-13.6,4.5-26.4,11.3-37,21.1-5.9,5.4-11.9,11.8-14.4,19.6a28.7,28.7,0,0,0-1.2,9.7,12.4,12.4,0,0,0,.3,2.7c.3,1.1-.1-.4.2-.2s.5-.4-.5,0l-1.2,1c-12.1,9.1-19.2,22.5-23.5,36.7-5.4,17.9-7.6,37.1-8.6,55.7a231.4,231.4,0,0,0,1.7,44.8c1.5,10.8,3.8,21.5,5,32.4,1.4,14.3.6,29-3.7,42.8-3.6,11.5-9.8,22.2-12.3,34a72.9,72.9,0,0,0-1.3,20.8c.2,3.2,5.2,3.2,4.9,0Z"/><path d="M584.7,359.8a46.2,46.2,0,0,0,22.7,10.8,2.5,2.5,0,0,0,1.3-4.9,41.1,41.1,0,0,1-20.5-9.4,2.5,2.5,0,0,0-3.5,0,2.4,2.4,0,0,0,0,3.5Z"/><path d="M530.2,374.2a53.1,53.1,0,0,0,21.2-14.4,2.5,2.5,0,0,0-3.6-3.5,45.8,45.8,0,0,1-19,13.1,2.5,2.5,0,0,0-1.7,3,2.6,2.6,0,0,0,3.1,1.8Z"/><path d="M395.8,282.2c-.5.7.1,0,.2-.1l.3-.3c.3-.2.3,0-.1.1l.7-.5.7-.4c.1,0,.6-.2.2,0s0-.1.1-.1l.9-.3,1.7-.4c.3,0-.5.1-.1.1H403c.2,0,.5.2-.1,0l1.6.4c.1,0,.5.2.1,0s-.1,0,0,0l.7.4a2.5,2.5,0,1,0,2.5-4.3c-2.5-1.7-5.8-1.7-8.6-1.3a12.2,12.2,0,0,0-7.7,4.3,2.4,2.4,0,0,0,.9,3.4,2.6,2.6,0,0,0,3.4-.9Z"/><path d="M629.4,484.7s-18.3,17.8-32.5,22-20.2,2.9-20.2,2.9l-2.6-7.6s6.5,1.3,22.5-1.1S629.4,484.7,629.4,484.7Z"/><path d="M876.7,966.7H490a2.5,2.5,0,0,1,0-5H876.7c3.8,0,6.8-1,8.9-3.2s3.5-9,3.5-9.1V367.3c0-78.6-31.8-154.5-87.1-208.2-57.9-56.3-137.2-84.6-229.4-81.9-64,1.9-154.4,15.9-221.1,72.2-40,33.6-52.7,66.8-52.8,67.2a2.5,2.5,0,0,1-3.2,1.4,2.6,2.6,0,0,1-1.5-3.2c.5-1.3,53.1-136,278.5-142.6,93.5-2.7,174,26.1,233,83.3,56.3,54.7,88.6,131.8,88.6,211.8V949.4c0,.2.1,7.5-4.9,12.6C886.1,965.1,881.9,966.7,876.7,966.7Z"/><path d="M895.3,997H473.9a2.5,2.5,0,0,1-2.5-2.5,2.5,2.5,0,0,1,2.5-2.5H895.3c8.7,0,15.4-2.6,19.9-7.6,8.4-9.1,7.1-23.7,7.1-23.8V356.4c0-83-33.9-163.5-92.9-220.8C766,73.9,678.7,42.9,576.9,45.8c-69.9,2-168.5,17.1-241.4,77.3-43.6,36-57.5,71.6-57.6,72a2.5,2.5,0,0,1-3.2,1.4,2.5,2.5,0,0,1-1.5-3.2c.6-1.5,57.8-145.4,303.5-152.5C679.9,37.9,768.5,69.4,832.9,132c60,58.3,94.4,140,94.4,224.4V960.3c0,.5,1.5,16.7-8.4,27.5C913.4,993.9,905.5,997,895.3,997Z"/><path d="M478.2,597.3c3.5,15.4,6.3,31,8.4,46.6.4,3.2,5.2,1.9,4.8-1.3-2.1-15.6-4.9-31.2-8.4-46.6-.7-3.1-5.5-1.8-4.8,1.3Z"/><path d="M492.9,683.9a190.6,190.6,0,0,0-8.5,40.2c-.3,3.2,4.7,3.1,5,0a183.8,183.8,0,0,1,8.3-38.8c1-3.1-3.9-4.4-4.8-1.4Z"/><path d="M466.5,994.5c-.7.5,19.3-.9,19.3-.9s6.9-17.6,8.7-28.7l-8.4.2S475.2,988.2,466.5,994.5Z"/><path d="M515.1,730.4s28.6,13.5,35.9,20.9,8.4,9.6,8.4,9.6l-4.9,7.6S523.1,735.5,515.1,730.4Z"/><path d="M710.2,756.3s27.1-13.2,35-28.1-2.9-20.9-2.9-20.9,11.9,4.3,11.9,8.3S742.3,749,710.2,756.3Z"/><path d="M445.2,246.8c19.9-17.3,41.1-33.2,62-49.3q34.6-26.5,69.7-52.8L594,131.9c2.6-1.8.1-6.2-2.5-4.3-15.1,10.9-29.9,22.4-44.8,33.6-25.1,19-50.2,38.1-74.9,57.6-10.2,8-20.4,16-30.2,24.5-2.4,2.1,1.2,5.6,3.6,3.5Z"/><path d="M557.9,221.8l48.9-35c2.6-1.9.1-6.2-2.5-4.3l-48.9,35c-2.6,1.8-.1,6.1,2.5,4.3Z"/><path d="M697,493.6c4.8,23.2,13,47.8,34.4,60.7,2.7,1.7,5.2-2.6,2.5-4.3-20.2-12.2-27.5-35.9-32.1-57.7-.6-3.1-5.4-1.8-4.8,1.3Z"/><path d="M522.2,554.3c-2.5-6.1-1.6-13.1-.4-19.3s3.6-15.2,5.7-22.6c.9-3.1-3.9-4.4-4.8-1.3-2.2,7.9-4.6,15.8-6,23.9s-2,14.2.7,20.6c1.2,2.9,6,1.6,4.8-1.3Z"/><path d="M697.6,834.2s3.1,55.7,8,67c25.7,60,2,60.5,3,62.5s38.9,1.5,38.9,1.5-10.9-20-20.9-38S697.6,834.2,697.6,834.2Z"/><path d="M822.4,263.7l-68.7,68.6c-2.3,2.2,1.3,5.7,3.5,3.5l68.7-68.6c2.3-2.3-1.3-5.8-3.5-3.5Z"/><path d="M823.8,315.2l-15.7,15.7a2.5,2.5,0,0,0,3.5,3.5l15.8-15.7a2.5,2.5,0,0,0,0-3.5,2.6,2.6,0,0,0-3.6,0Z"/></svg>