<?xml version="1.0" encoding="utf-8"?>
<!-- Generator: Adobe Illustrator 23.1.1, SVG Export Plug-In . SVG Version: 6.00 Build 0)  -->
<svg version="1.1" id="Layer_1" xmlns="http://www.w3.org/2000/svg" xmlns:xlink="http://www.w3.org/1999/xlink" x="0px" y="0px"
	 viewBox="0 0 1160.7 1574.2" style="enable-background:new 0 0 1160.7 1574.2;" xml:space="preserve">
<style type="text/css">
	.st0{fill:#734C4C;}
	.st1{fill:#FFFFFF;}
	.st2{fill:#FEC3AA;}
	.st3{fill:#BFD7FF;}
	.st4{fill:none;}
	.st5{fill:#A096CF;}
</style>
<title>mental health problems</title>
<path class="st0" d="M136.3,164.9c0,0-12-14.7-9.2-38.1S145,87.7,145,87.7s8.7-35.3,34.3-55.4s53.8-30.5,72.2-30.5s38.1,12,38.1,12
	s32.6-8.2,63.6,12.5s50.5,67.4,48.4,91.8s-160.9,102.2-202.8,90.8S136.3,164.9,136.3,164.9z"/>
<path class="st1" d="M960.5,1407.7c0,0-10-2.4-1.9-11s33.9-15.8,41.6-22.5s19.6-7.2,25.8-5.3s37.3,35.9,38.7,37.8
	s42.1,42.6,63.2,66.5s34.4,49.2,31,70.3s-15.3,30.1-33,30.6s-29.6-23.5-42-30.2s-53.1-32.5-70.3-37.3s-29.7-8.6-29.2-22.9
	s7.2-28.7,5.8-35.4S974.4,1412.4,960.5,1407.7z"/>
<path class="st2" d="M940.4,1403.8l13.4-1.9c0,0,16.7,11.5,25.4,21.1c7.6,8.4,11.1,19.8,9.5,31c-1.4,9.1-7.6,23-4.3,29.7
	s4.3,9.1,4.3,9.1l-29.2,1.4C959.5,1494.2,955.7,1427.3,940.4,1403.8z"/>
<path class="st3" d="M247.7,296.7c0,0-57.7,35.4-63.3,47.7s-58.9,153.1-58.9,153.1s15.7,32,20.2,54.4s2.8,28.6,2.8,28.6l-41,14.6
	c0,0,15.8,23,30.3,19.6s39.8-23,39.8-23s55.6-30.3,61.7-29.1c0,0,54.4,115.5,56.7,131.2s1.7,33.1,2.8,44.9s5.6,30.2-6.7,66.1
	s-25.3,107.7-24.7,116.1s1.8,17.5,16,20.6s88.3,8,132.6,5.2s138.5-6.2,167.1,2.3s99.8,30.2,117.2,25.2s26.4-20.2,26.9-59.5
	s-5-79.6-10.6-102s-3.4-77-26.9-144.1c-22.5-64-32.6-118.4-32.6-152.6s-20.7-132.9-37-168.2s-48.8-88.1-111.6-92
	s-144.7-5-183.9,12.3C299.5,279.1,273.9,288.6,247.7,296.7z"/>
<path class="st2" d="M377.8,268.7c0-1-0.1-2-0.5-3c-3.1-8.3-19-50.7-19.8-66s-17.4-51.2-23-63.4c-1.1-2.5-3.5-4.1-6.2-4.1
	c-5.7-0.2-16.4-1-26.2-4c-13-4.1-24.2-12.4-32-23.5c-5.9-8.9-16.3-14.2-28.3-11.5c-7.2,1.6-11.2,8.8-13.2,14.4
	c-1.3,3.4-4.9,5.3-8.4,4.5c-7.9-1.9-20.5-3.8-25.6-0.7c-7.2,4.3-13.2,18.5-15.6,42s7.9,45.1,7.9,46.8s-3.5-1.1-3.5-1.1
	s-18.8-17.3-25.7-20.3s-14.9-18.5-15.5-19.4s-7.2,17.6-9.8,26.9s-3.3,37.6,0.6,51s4.1,31.3,2.3,34.6S81.6,373.4,81.6,373.4L6,513.7
	c-0.3,0.6-0.6,1.2-0.7,1.9c-1.2,6.1-6.7,37.2,4.1,51.2c11.9,15.5,20,29.5,67.1,30.4c36.9,0.7,60.1-9.9,68.4-14.5
	c2.3-1.2,3.7-3.6,3.7-6.2c0-8.9-0.9-31.1-10-49.7c-6.6-13.6-10.2-20.3-12-23.4c-1-1.9-1.2-4.1-0.4-6.1c6.7-16.9,37.2-93.3,42-106.6
	c5.3-14.9,26.8-86.5,29.5-94.3c1.5-4.3,2.7-8.8,3.6-13.3c0.2-0.9,0.6-1.7,1.1-2.5l3.6-5.5c2.1-3.2,6.4-4.2,9.7-2.1
	c0.2,0.1,0.4,0.2,0.5,0.4c9.1,7.2,26,20.3,34.3,24.8c11.7,6.3,24.8,13.4,35,11h0.3c8.8-2.3,11.7-1.7,12.3-0.8s6.2,8.2,3.8,9.4
	c-12,5.7-15.1,21.8-10.2,25.3c15.4,10.9,40.3,15.7,50.5,12.7c7.2-2.1,25.5-5.3,33.8-11.2c1.9-1.4-1.1-20.6-1.1-22.9v-11.8
	L377.8,268.7z"/>
<path class="st4" d="M378.3,312.2l-3-40.9l-0.7-0.5c0.1,10.2,0.3,24.7,0.4,39.5L378.3,312.2z"/>
<path class="st1" d="M375.3,368.3c0.2-0.6,0.1-20.4-0.1-43.1h-0.3L375.3,368.3z"/>
<path class="st1" d="M374.6,270.8c-0.1,0-0.1,0-0.1-0.1l0,0l0.3,39.5h0.2C374.9,295.5,374.7,281,374.6,270.8z"/>
<path class="st1" d="M374.8,310.2v15.1h0.3c0-4.9-0.1-9.9-0.2-14.9L374.8,310.2z"/>
<path d="M360.1,259.7c0,0,10,16.6,9.7,22.2s4.3,40.6,5.1,43.4c0.8,2.8,2.9-56.6,2.9-56.6S365.1,266,360.1,259.7z"/>
<path d="M469.5,573.5L469.5,573.5z"/>
<path d="M468.6,573.5L468.6,573.5z"/>
<path d="M470.9,573.6L470.9,573.6z"/>
<path d="M469.1,573.5L469.1,573.5z"/>
<path d="M472.1,573.6L472.1,573.6z"/>
<path d="M471.4,573.6L471.4,573.6z"/>
<path d="M472.2,573.6L472.2,573.6z"/>
<path d="M503,582.2c1.6,0,30.2-19.6,40.2-37.6c0,0-45.6,29.6-71,29C472.2,573.6,475.1,582.2,503,582.2z"/>
<path d="M465.6,573.4L465.6,573.4z"/>
<path d="M471.7,573.6L471.7,573.6z"/>
<path d="M470.5,573.6L470.5,573.6z"/>
<path d="M544.8,541.7l0.5-0.9L544.8,541.7z"/>
<path d="M463.4,573.4L463.4,573.4z"/>
<path d="M545.3,540.8c0.3-0.6,0.6-1.2,1-1.7L545.3,540.8z"/>
<path d="M546.3,539.1l0.2-0.5L546.3,539.1z"/>
<path d="M543.5,544l1.3-2.3C544.3,542.7,543.8,543.5,543.5,544z"/>
<path d="M463.2,573.4L463.2,573.4z"/>
<path d="M462.5,573.4L462.5,573.4z"/>
<path d="M543.2,544.6l0.3-0.6L543.2,544.6z"/>
<path d="M461.7,573.4L461.7,573.4z"/>
<path d="M298.9,315.9c-5.7,3.6-10.1,9.7-12.7,15.9c-0.9,2.2-1.5,4.3-0.6,6.6c1.6,3.8,5,6.6,8.2,9c14.7,11.2,33.9,14.3,51.9,11.7
	c11.5-1.7,22.5-5.6,33-10.6c2.9-1.4,0.4-5.7-2.5-4.3c-19.2,9.2-41.3,14.4-62.2,8c-4.8-1.5-9.3-3.6-13.6-6.2
	c-2.1-1.3-4.1-2.8-5.9-4.5c-1.5-1.3-4.4-3.5-4.5-5.6s2.1-4.9,3.1-6.6c2.2-3.5,4.8-6.9,8.3-9.1S301.6,314.2,298.9,315.9L298.9,315.9z
	"/>
<path d="M313.1,394.8c18.1,3.9,34.5-5.5,49.3-14.7c2.7-1.7,0.2-6-2.5-4.3c-13.5,8.4-28.9,17.8-45.4,14.2
	C311.3,389.3,310,394.1,313.1,394.8z"/>
<path class="st1" d="M718.4,1444.5c-8.1-2.2-16.1-4.5-24.3-6.4s-18.4-4.7-27.3-4.5c0,0-12.1,0.2-21.2-7.9s-6.9-22.6-7.2-34.2
	s-5.4-21.6-15.5-33.4s-30.6-11.3-28.2-16.8s42.2-38.8,50.1-42.5s18.3-4.1,42.3,14.8s42.7,28.6,57.7,37.6s59.1,45.4,70.3,69.1
	c8,17,16.4,39.3-9.1,52.3s-43.7-12.4-62.3-18.6C737.3,1451.9,724.3,1446,718.4,1444.5z"/>
<path d="M719.1,1442.1c-14.7-3.9-29.5-8.7-44.6-10.6c-3.9-0.5-7.8-0.2-11.6-0.7c-5.6-0.7-10.8-3-15.2-6.5c-9.1-8-6.5-22.1-6.8-32.8
	c-0.4-13-7-24-15.1-33.7c-6.7-8.1-15.9-10.8-25.4-14.3c-1.2-0.4-2.3-1-3.4-1.6c-0.2-0.1-0.1,0.1,0,0.4s0.2-0.4,0.4-0.7
	c1.6-1.9,3.2-3.6,5-5.3c11.9-11.6,24.7-22.2,38.2-31.9c3.7-2.6,7.5-5,12.2-5.2c8.7-0.2,17.1,5.2,24,9.9s12.2,9.3,18.4,13.9
	s11.1,7.9,16.9,11.6c9.2,5.9,18.8,11.3,28.3,16.9c15.7,9.3,29.8,21.5,42.9,34s27.7,28.2,34.4,47.2c3,8.7,4.8,18.8-0.4,27.1
	s-18.6,15.2-29.5,13.7s-19.4-8.2-28-13.8c-4.1-2.7-8.3-5.1-12.8-7.1c-4.6-1.9-9.3-3.5-13.8-5.3
	C728.6,1445.3,723.9,1443.5,719.1,1442.1c-3.1-0.9-4.4,3.9-1.3,4.8c5.2,1.6,10.3,3.5,15.3,5.7c4.8,1.9,9.9,3.4,14.5,5.7
	c9.7,4.8,18,12.2,27.9,16.6s22.1,5,32.6-0.7s16.8-13.7,17.5-24.9s-3.4-19.6-7.5-28.4s-10.2-16.7-16.7-24
	c-14.5-16.1-30.8-30.6-48.4-43.2c-7.4-5.2-15.3-9.5-23.1-14.1c-11.7-6.8-23.1-14.3-34-22.3c-10.5-7.8-20.5-17-33.1-21.3
	c-6.2-2.2-12.6-2.4-18.6,0.3s-10.7,7.2-15.6,11c-7.5,5.9-14.8,12-22,18.3c-2.9,2.7-5.9,5.4-8.7,8.2c-2,1.6-3.6,3.6-5,5.7
	c-4.2,7,8,9.4,12.2,10.9s10.4,4,14.3,7.8c5.3,5.2,9.6,11.3,12.8,18c2.7,5.9,3.9,12.3,3.7,18.7c0,6.1-0.3,12.2,0.7,18.2
	c2,12.2,11.5,19.9,23.4,22.2c3.6,0.7,7,0.6,10.6,0.8c7.7,0.5,15.3,2.6,22.8,4.4s16.3,4.2,24.4,6.4
	C720.9,1447.7,722.2,1442.9,719.1,1442.1z"/>
<path d="M812.1,1451.2c-6-18.2-17.4-34.1-30.7-47.8c-7.1-7.4-14.6-14.2-22.7-20.5c-7.1-5.6-14.5-11.4-22.3-15.9s-19-9.2-27.1-15.7
	c-2.6-2.1-4.9-4.6-7.5-6.8c-4.9-4.3-9.9-8.5-15-12.5s-13.3-10.3-20.4-14.9s-12.4-7.7-19.4-9.8c-3.1-0.9-4.4,3.9-1.3,4.8
	c5.8,1.7,11.2,4.9,16.3,8.1s12.4,8.4,18.2,12.9c8.5,6.6,16.7,13.5,24.5,20.7c3.4,3.2,7.6,5.5,11.6,7.8s10.1,5.7,15.2,8.4
	c5.5,3.1,10.7,6.6,15.7,10.4c8.3,6,16.1,12.5,23.6,19.5c15.6,14.7,29.7,32.1,36.5,52.7C808.3,1455.6,813.2,1454.3,812.1,1451.2
	L812.1,1451.2z"/>
<path class="st5" d="M959.1,1473.6c-4.3-22.4-15.8-66.4-15.8-66.4s-1.4-6.2-10.5-10.1s-69.8-2.8-69.8-2.8L644,1410l6.2-19.6
	l19.1-94.2c0,0,19.1-152,25.8-197.9s0-120-1.9-121.5s-25.3-13.4-61.2-20.5s-81.8-11.5-101.8-11.5s-151.1,1.9-188.9,0.5
	s-57.9-3.8-57.9-3.8l-15.7,36.3c0,0-64.6,153.5-81.8,185s-47.3,144.9-54.5,165s-10.5,56.4-0.5,83.7s38.3,60.2,96.1,69.3
	s187-15.8,187-15.8c15.3,54.1,36.8,60.3,73.6,78.9s121.9,15.8,148.2,10.6s163.6-23,190.3-30.7s77.5-6.6,103.3-9.5s30.6-5.8,30.6-5.8
	S963.4,1496.1,959.1,1473.6z M409.2,1307l-66.8-5.4l82.3-131.8L409.2,1307z"/>
<path d="M367.6,213c4.1,11.8,8.5,24.1,15.4,34.6c4.6,7,10.9,13.7,19.8,14.2c3.2,0.2,3.2-4.8,0-5c-7.6-0.4-12.8-7.4-16.5-13.3
	c-6.1-9.8-10.1-20.9-13.9-31.8C371.4,208.7,366.6,210,367.6,213L367.6,213z"/>
<path d="M348.7,239.5c-0.8,3.4-2,6.8-3.5,10c-4.4,10-10.1,19.4-16.7,28c-11.9,16-27.6,31-49,29.7c-7.4-0.4-14.8-4.1-21.3-7.4
	c-7.3-3.9-14.5-8.1-21.4-12.7c-13.6-9.1-26.5-20.5-33.6-35.5c-5.6-11.8-8.5-24.9-12.6-37.3c-3.1-9.3-7.5-17.9-12-26.6
	c-1.5-2.8-5.8-0.3-4.3,2.5c4.2,8.1,8.3,16.2,11.3,24.8c3.9,11.5,6.7,23.4,11.3,34.6c6.8,16.8,20,30,34.8,40.1c6.9,4.6,14,9,21.3,13
	s14.9,7.7,22.9,9.1c19.8,3.4,37.3-8.5,49.7-22.7c9-10.3,16.6-21.7,22.6-34c2.1-4.5,4.3-9.4,5.3-14.3
	C354.2,237.7,349.4,236.3,348.7,239.5L348.7,239.5z"/>
<path d="M348.9,167.1c2.5-8.5,9.8-20.8,20.5-15.2c7.3,3.9,11.4,12.9,12.6,20.7s-0.7,17.6-4.7,25.4s-10.1,16.9-18.7,20.7
	c-2.9,1.3-0.4,5.6,2.5,4.3c8.1-3.5,13.5-11,18-18.3s7.8-15.6,8.2-24.4c0.5-8-1.5-16-5.6-22.9c-4.2-6.6-11-12.7-19.3-11.6
	c-10.3,1.3-15.7,11-18.3,20C343.2,168.9,348,170.2,348.9,167.1z"/>
<path d="M370.1,162.2c-6.3-0.1-9.5,6.2-11.6,11.3c-2.3,5.4-3.5,11.2-3.8,17.1c-0.1,3.2,4.9,3.2,5,0c0.2-4.8,1.2-9.5,2.9-14
	c0.8-2.1,1.8-4.2,2.9-6.2c1.1-1.6,2.5-3.2,4.6-3.2S373.3,162.3,370.1,162.2L370.1,162.2z"/>
<path d="M360,181.7c0.5,0,1,0.2,1.3,0.5c0.5,0.4,0.9,0.9,1.3,1.4l0.5,1c0.1,0.1,0.2,0.5,0.1,0.2c0.1,0.2,0.2,0.4,0.2,0.6l0.3,1.1
	c0.1,0.2,0.1,0.4,0.1,0.6c0.1,0.4,0-0.6,0.1,0.2c0,0.7,0,1.5,0,2.2c0,0-0.1,0.7,0,0.4s-0.1,0.4-0.1,0.4l-0.3,1.1
	c0,0.2-0.1,0.4-0.2,0.6v0.4l-0.2,0.4c-0.1,0.1-0.1,0.3-0.2,0.4c-0.2,0.4-0.4,0.8-0.7,1.1c0,0.1-0.2,0.3,0,0.1l-0.5,0.5
	c-1,1-1,2.6,0,3.6c1,1,2.5,1,3.5,0c3-3.4,4.4-7.9,3.6-12.4c-0.6-4.3-3.8-9.4-8.7-9.4c-1.4,0.1-2.4,1.1-2.5,2.5
	c-0.1,1.3,1,2.4,2.3,2.5C360,181.7,360,181.7,360,181.7L360,181.7z"/>
<path d="M232.7,204.9l-1.4,12.8c-0.5,4.1-1.3,8.3-1.5,12.5c-0.3,7.3,7,12.6,13.1,15.3c2.9,1.3,5.4-3,2.5-4.3c-2.9-1.2-5.5-3-7.8-5.2
	c-1.2-1-2.2-2.4-2.7-3.9c-0.2-1.6-0.1-3.2,0.2-4.7c0.9-7.5,1.7-15,2.6-22.5C238.1,201.7,233.1,201.7,232.7,204.9L232.7,204.9z"/>
<path d="M215.1,203.3c0.9,0.5,1.7,1.2,2.3,2.1c1.4,2,2.4,4.2,2.9,6.5c0.3,1,0.4,2.1,0.2,3.1c-0.2,1-0.8,1.9-1.7,2.4
	c-1.4,0.5-2.9,0.1-4-0.9c-1.5-1.2-2.5-2.8-3-4.6c-0.5-1.8-0.8-3.7-0.7-5.6c0-0.7,0.1-1.3,0.4-1.9c0.4-0.6,1-1.1,1.7-1.4
	C213.8,202.8,214.5,203,215.1,203.3z"/>
<path d="M214.1,204.9l0.9,0.5l0.4,0.5l0.3,0.3c0.1,0.1,0.1,0.2,0,0.1c0.7,0.8,1.3,1.8,1.7,2.8c0.5,1,0.8,2,1.1,3c0.3,1,0.3,2,0.1,3
	c-0.2,0.5-0.8,0.8-1.3,0.7c-0.7-0.2-1.4-0.6-1.9-1.2c-1.3-1.5-2.1-3.3-2.3-5.3c-0.1-0.7-0.1-1.5-0.1-2.2c-0.1-0.6,0-1.1,0.1-1.7
	c0-0.1,0.3-0.4,0.1-0.2s0.1-0.1,0.2-0.2s-0.2,0.2,0.1,0s0.3-0.2,0.2-0.2l0.9,0.3c1,0.2,2-0.3,2.3-1.3c0.3-1-0.3-2-1.3-2.3
	c-1.7-0.7-3.6-0.3-4.9,1c-1.2,1.1-1.4,2.7-1.4,4.3c0,3.2,0.5,6.6,2.5,9.2s5.3,4.8,8.3,2.8s2.6-6,1.6-9.1c-0.6-1.7-1.4-3.3-2.4-4.8
	c-0.8-1.4-1.9-2.5-3.3-3.3c-0.9-0.4-2-0.1-2.5,0.7C213,203.2,213.2,204.3,214.1,204.9z"/>
<path d="M278.8,177.6c0.9,0.5,1.7,1.3,2.3,2.2c1.4,1.9,2.4,4.2,3,6.5c0.2,1,0.3,2,0.1,3c-0.2,1-0.8,1.9-1.7,2.5
	c-1.4,0.5-2.9,0.1-4-0.9c-1.5-1.2-2.5-2.9-3-4.7c-0.5-1.8-0.7-3.6-0.7-5.5c0-0.7,0.2-1.3,0.4-1.9
	C275.9,177.5,277.5,176.9,278.8,177.6L278.8,177.6z"/>
<path d="M277.9,179.2c0.3,0.1,0.6,0.3,0.8,0.6l0.4,0.5l0.3,0.3l0,0c0.7,0.9,1.3,1.9,1.7,2.9c0.5,1,0.8,2,1.1,3
	c0.3,0.9,0.3,1.9,0.1,2.9c-0.1,0.5-0.7,0.8-1.2,0.7c-0.8-0.1-1.5-0.5-2-1.1c-1.3-1.5-2.1-3.4-2.3-5.4c0-0.7-0.1-1.4-0.1-2.1
	c-0.1-0.6,0-1.2,0.1-1.8h0.1l0.2-0.2c0.2-0.2-0.2,0.1,0.1,0l0.2-0.2c0.2-0.1,0.7,0.1,0.9,0.2c0.9,0.3,2-0.2,2.3-1.2c0,0,0-0.1,0-0.1
	c0.3-1-0.3-2-1.3-2.3c-1.7-0.7-3.6-0.3-4.9,1c-1,1.2-1.6,2.8-1.4,4.4c0,3.2,0.5,6.6,2.5,9.2s5.3,4.8,8.3,2.8s2.6-6.1,1.6-9.1
	c-0.6-1.7-1.4-3.3-2.4-4.8c-0.8-1.4-1.9-2.5-3.3-3.3c-0.9-0.5-2-0.2-2.5,0.6c0,0,0,0,0,0.1c-0.5,0.8-0.2,1.8,0.6,2.3
	C277.8,179.2,277.9,179.2,277.9,179.2z"/>
<path d="M214.2,168.3c1.9-0.6,3-2.6,2.4-4.5c0,0,0,0,0,0c-0.3-0.9-1-1.6-2-1.8c-1-0.1-2,0.3-2.5,1.2c-3.3,7.4-9.2,13.4-16.6,16.9
	c-1.1,0.7-1.5,2.2-0.9,3.4c0.7,1.2,2.2,1.6,3.4,0.9c8.1-3.9,14.6-10.5,18.4-18.7l-4.6-0.6c-0.1-0.7,0.4-1.4,1.1-1.6
	c-1.3,0.3-2.1,1.7-1.8,3C211.5,167.7,212.9,168.8,214.2,168.3L214.2,168.3z"/>
<path d="M254,154.7l13.6,1.7c4,0.5,8.2,0.4,11.8-1.8s0.2-6-2.6-4.3s-6.7,1.5-10,1.1l-12.8-1.7c-1.3-0.2-2.5,1.3-2.5,2.5
	C251.6,153.6,252.6,154.6,254,154.7z"/>
<path d="M139.3,164.1c-6.1-8.5-10-18.2-10.3-28.8c-0.1-8.4,1.5-16.8,4.6-24.6c2.3-6,5.4-11.7,9-17c2.2-3.2,3.8-4.7,5.1-8.6
	c11.5-35,42.9-65.2,78.1-76.1c15.9-4.9,34.5-6.2,50.1,0.8c3.1,1.4,6.1,3.1,8.8,5.2c2.1,1.7,4.4,0.8,6.9,0.5
	c18.3-2.7,38.5,0.3,55,9.8c13.2,7.5,23.7,18.8,31.6,31.7c5.3,8.7,9,18,12.7,27.4c-0.2-0.5,0.2,0.5,0.3,0.9s1.1,2.8,1.6,4.2
	c1.5,4.1,2.7,8.3,3.6,12.6c1.3,5.1,1.8,10.3,1.7,15.5c0,3.2,5,3.2,5,0c0.4-15.1-5.2-29.8-10.9-43.6s-14.4-28.9-26-40.1
	C350.3,18.7,329.3,10,307.3,9.6c-7-0.2-14,0.4-20.9,1.7l2.4,0.7C281,4.5,268.7,1.3,258.3,0.3c-21-1.9-42.1,5-59.9,15.9
	S163.1,44,152,63.3c-2.8,5-5.3,10.2-7.4,15.6c-0.5,1.4-1,2.7-1.4,4s-0.9,3.3-0.6,2.5c-0.1,0.3-0.3,0.6-0.6,0.8
	c-3.3,4.7-6.6,9.2-9.2,14.3c-4.9,9.1-7.8,19.2-8.7,29.5c-0.7,13.1,3.1,26,10.9,36.6C136.8,169.2,141.1,166.7,139.3,164.1z"/>
<path d="M298.2,305.2h-0.1l2.2,1.2h-0.1l0.4,1.3v0.5l-0.6,1.1l0,0l-1.1,0.7h0.1l-2.4-0.6c-0.3-0.3-0.3-0.3-0.1,0l0.3,0.5
	c0.2,0.3,0.4,0.6,0.5,0.9l1,1.7c0.6,1.2,1.2,2.3,1.7,3.5c1,2.3,1.9,4.8,2.7,7.2c0.5,1.3,1.9,1.9,3.2,1.4c1.1-0.4,1.8-1.6,1.6-2.7
	c-1.2-3.8-2.6-7.5-4.4-11l-1.3-2.4c-0.5-0.9-1-1.8-1.7-2.6c-1-1-2.7-0.9-3.7,0.1c-0.3,0.3-0.5,0.7-0.6,1.1c-0.4,1.4,0.4,2.8,1.8,3.2
	c0.2,0.1,0.5,0.1,0.7,0.1c1.4,0.3,2.7-0.6,2.9-2c0.3-1.4-0.6-2.7-2-2.9c-0.3-0.1-0.7-0.1-1,0L298.2,305.2z"/>
<path d="M346.4,252.7c3.8-8.6-8.2,23.6-10.9,32.7s-9.8,15.6-16.5,22.2s-16.9,7.2-16.9,7.2l-2-8C300.1,306.8,327.8,294.8,346.4,252.7
	z"/>
<path class="st2" d="M542.7,498.1c-13.2-31.3-53.3-64.3-54.3-65.3L429,256.1c0,0-1.8-41.2-7.4-76.1s-15.6-59.7-28.1-73.1
	s-23-10.2-23-10.2s-13.4-10.1-16.1-8.3c-1.3,0.9-2.7,1.7-4.2,2.4c0,0-8.3-6-11.6-3.3s-3.9,8-3.9,8s-6.3-7.7-13.1-3.5
	s-1.5,15.2-0.6,16.7s11.6,23.6,11.6,23.6l5.7,11.9c0,0-7.2-14-15.2-7.5s-3.9,15.8-1.2,23.3s13.1,31.3,14.3,37.3s-1.2,31.4,6.6,43.6
	s27.6,26.7,31.7,29.8h0.1l2.8,52.8c0,0,4.8,139,6.2,154.9s20.6,74.6,48.4,89.8s38.6,8.4,62.7,1.5c28.3-8.2,60.9-37.4,60.9-37.4
	S555.8,529.5,542.7,498.1z"/>
<path d="M372.4,267.4c-8.3-6.8-17.6-13-23.7-22.1c-4.1-6.2-6.3-13.4-7.5-20.7s-0.6-14.7-1.6-22c-2.1-14.8-10.1-28.1-15.7-41.8
	c-1.5-3.3-2.5-6.8-3.2-10.4c-0.4-2.9-0.9-7.4,1-9.9s4.8-1.9,7-1c3.7,1.4,5.7,5.6,7.7,8.8c7.6,11.6,13.5,24.3,17.6,37.5
	c1,3.1,5.8,1.8,4.8-1.3c-4-13-9.7-25.3-16.9-36.8c-3.8-6.2-7.5-13.2-15.5-13.7c-6.3-0.5-10.2,3.7-10.9,9.8
	c-0.9,8.4,2.7,16.6,6.1,24.1s7,15.3,9.9,23.1c1.3,3.5,2.2,7.1,2.9,10.8c0.9,4.9,0.6,9.7,0.9,14.6c0.4,8,2,16,4.9,23.5
	c5.5,13.7,17.7,22,28.7,31C371.4,272.9,374.9,269.4,372.4,267.4L372.4,267.4z"/>
<path d="M373.8,267.3c0,36.9,0.1,73.8,1.3,110.7c0.6,18.2,1.5,36.4,2.6,54.6c0.9,16.6,1.9,33.2,5.3,49.5c6.5,31.3,18.3,63.2,44,83.8
	c11.3,9,25.4,15.5,40.2,14.4s30.6-5.9,44.5-12.5c16.3-7.8,32.2-19.1,43.7-33.1l0.6-0.7c1.9-2.5-1.6-6.1-3.6-3.6
	c-8.7,11.3-21,20.5-33.2,27.7c-12.4,7.4-26,12.6-40.2,15.4c-7.5,1.5-15.2,2.7-22.8,1.2c-7-1.4-13.7-4.1-19.7-8.1
	c-12.8-8.2-23-20.3-30.5-33.4s-12.9-30.1-16.7-45.8s-5.2-30.6-6.1-46.1c-1.2-18.1-2.1-36.1-2.8-54.2c-1.3-34.9-1.6-69.8-1.6-104.8
	v-15C378.8,264.1,373.8,264.1,373.8,267.3z"/>
<path d="M342.1,146.3c-2.5-7.2-5.5-14.2-8.9-21c-4.1-7.8-9.8-14.9-12.7-23.2c-1.2-3.5-2.3-7.5,2.3-8.3s9.4,3.2,12.3,6.9
	c5.9,7.7,10.9,16.2,15.7,24.7s10.8,20.2,15.8,30.5c1.4,2.9,5.7,0.3,4.3-2.6c-5.1-10.4-10.3-20.8-16.1-30.9c-2.9-5.2-6-10.2-9.2-15.2
	s-5.6-8.8-9.2-12.5s-7.6-6.1-12.5-6s-7.7,1.7-9,5.4s0.2,8.1,1.7,11.6c1.8,4.2,3.9,8.2,6.4,12c5.8,9.4,10.6,19.5,14.3,29.9
	C338.4,150.6,343.2,149.3,342.1,146.3L342.1,146.3z"/>
<path d="M339.8,96.8c-1.3-1.9-4.2-6-1-7.6s7.1,2.5,9.1,4.5c5.4,5.2,10.2,11,14.3,17.3c9,13.5,14.8,28.8,20,44c1.1,3,5.9,1.7,4.8-1.3
	c-6.3-18.6-13.6-37.1-25.9-52.7c-2.9-3.7-6-7.2-9.3-10.5c-3.3-3.2-7.2-6.8-12.2-6.6c-2.8,0.2-5.2,1.8-6.5,4.3
	c-1.9,3.8,0.2,8,2.4,11.1S341.7,99.4,339.8,96.8z"/>
<path d="M371.9,98.8c2.5-3.2,8.7,1,11.1,2.6c3.7,2.4,7,5.4,9.7,8.9c4.3,5.6,7.9,11.8,10.7,18.3c6.7,15.4,11,31.9,14.4,48.2
	c4.6,21.8,7.3,43.9,8.1,66.1c0.1,3,0.1,6,0.2,9s-0.3,3.8,0.1,5.5c0.1,0.4,0.3,0.9,0.5,1.3c0.9,2.4,1.9,4.9,2.9,7.4
	c9.3,24,18.3,48.1,26.8,72.4c4.9,13.9,9.6,27.9,13.9,42.1s8.2,31.8,12.5,47.6c7.1,26.8,16,53,25.1,79.2c0.6,1.7,1.2,3.4,1.7,5.2
	c0.5,1.8,5.8,1.7,4.9-1.4c-3-9.2-6.5-18.3-9.6-27.5c-5.2-15.1-10-30.5-14.3-45.9c-4.9-17.5-8.8-35.3-13.8-52.7
	c-4.1-14.3-8.8-28.3-13.7-42.3c-8.9-25.7-18.4-51.2-28.2-76.6l-3.2-8.4c-0.3-0.5-0.5-1-0.7-1.6c-0.1-1.2,0-2.5,0.1-3.7
	c-0.1-3-0.1-6-0.2-9c-0.7-22.7-3.5-45.3-8.2-67.5c-3.5-16.9-8-33.8-14.8-49.6c-3-6.7-6.7-13.1-11.1-18.9
	c-4.8-6.2-12.2-12.9-20.2-14.5c-3.4-0.8-6.9,0.5-9,3.3C365.7,98.9,370,101.4,371.9,98.8L371.9,98.8z"/>
<path d="M352.3,93.2c5.4-4.6,14.6,5,18.1,8.7c4.7,5.1,8.9,10.6,12.5,16.5c6.8,11,12.6,22.5,17.4,34.5c1.2,2.9,6.1,1.7,4.8-1.3
	c-5.7-14-12.4-27.8-20.9-40.3c-4.3-6.3-9.2-12.5-15-17.4s-13.7-10-20.4-4.3C346.3,91.7,349.9,95.2,352.3,93.2L352.3,93.2z"/>
<path d="M318.3,885.7c4.4,1.5,8.9,2.5,13.5,3c6.2,0.8,12.5,1.3,18.7,1.6c12.5,0.6,25,0.7,37.5,0.1c16-0.7,32.1-3.1,48-5.7
	c15.8-2.5,31.5-5.9,46.9-10.2c24.5-6.8,47.9-16.6,69.9-29.3c18.2-10.7,34.9-23.6,50.7-37.4s30.1-27.5,45.7-40.6l6.2-5.1
	c2.4-2.1-1.1-5.6-3.6-3.6c-15.6,12.8-30.3,26.7-45.4,40.1s-31.1,26.6-48.4,37.6c-20.5,12.8-42.5,23-65.6,30.2
	c-31.7,10.1-64.8,15.5-97.8,18.6c-10.9,0.8-21.9,1.1-32.9,0.7c-12.2-0.3-24.7-0.5-36.6-3.2c-1.9-0.4-3.7-0.9-5.5-1.6
	C316.7,879.6,315.4,884.5,318.3,885.7L318.3,885.7z"/>
<path d="M333,837.7c42,7.3,84.8,9,127.2,4.9c11.9-1.1,23.7-2.7,35.4-4.7c3.2-0.6,1.9-5.4-1.3-4.9c-41,7-82.7,8.6-124.1,4.7
	c-12-1.1-24-2.7-35.9-4.8C331.2,832.4,329.8,837.2,333,837.7L333,837.7z"/>
<path d="M280,942.5c-23.7,56.4-49.4,112-73.7,168.2s-47.3,112.7-64.7,171.2c-3.8,12.9-7.2,25.9-10.8,38.9
	c-2.9,10.7-5.8,21.4-7.5,32.4c-4,26,0.7,51.4,12.2,75c10.1,20.7,28.9,34.2,49.8,42.7c9.3,3.8,18.9,6.9,28.7,9.3
	c14.5,3.4,29.5,4.3,44.4,4.3s30.2-1.2,45.3-2.2s28.6-1.6,42.8-3.3c21.3-2.5,42.4-5.8,63.4-10.1l3.5-0.7c3.1-0.7,1.8-5.5-1.3-4.8
	c-15,3.2-30.2,5.7-45.4,8c-28.3,4.1-56.7,5.8-85.2,7.3c-14.6,0.8-29.3,1.2-43.9,0c-12.9-1.1-25.6-3.7-37.8-7.8
	c-19.7-6.4-39.1-15.8-52.1-32.5c-8.6-10.9-13.9-24.8-17.4-38.2c-3.1-11.6-4.2-23.6-3.4-35.6c0.8-11.1,3.3-22,6.1-32.8
	s6.4-23.6,9.6-35.4c16.2-57.6,38.2-113.4,61.6-168.3s48.8-109.9,72.5-165.2l8.1-19.1C286,940.8,281.2,939.6,280,942.5L280,942.5z"/>
<path d="M636.3,1409.6c1.3,0.3,2.7,0.4,4.1,0.4c6.5,0.3,13.1,0.3,19.6,0.3c25.3,0,50.7-0.6,76-2.5s51.7-4.4,77.5-6.6
	s50.5-4.2,75.8-4.7c9.5-0.4,19.1-0.2,28.6,0.6c5.4,0.5,12.1,1.1,16.6,3.7c1.8,1,3.5,3.3,4.8,5.6c2.2,3.9,4,7.9,5.3,12.2
	c3.4,11.1,6.1,22.4,7.8,33.8c1.9,11.1,3.3,22.2,4.4,33.4c0.6,6.5,1.6,13.4,1,20c-0.1,0.7,0.2-0.4,0,0.2s0.2-0.1-0.3,0.5l-0.5,0.5
	c-0.3,0.3-0.6,0.5-1,0.7c-2.8,1.4-5.9,2.4-9,2.9c-13,2.8-26.7,3-40,3.3c-8.8,0.2-17.5,0.1-26.2,0.9s-16.3,1.9-24.5,3
	c-22.2,3.2-44.4,6.8-66.6,10.5c-26.7,4.3-53.4,8.7-80.2,12.8s-53.8,7.8-80.8,10.6c-22.7,2.5-45.6,4.4-68.5,4.1
	c-29.1-0.4-58.9-6-85-19.3c-11.8-5.9-22.5-13.6-31.8-22.9c-8.5-8.7-14.6-18.6-19.4-29.7c-14.5-33.9-17.9-71.8-17.2-108.3
	c0.5-27.5,3.7-54.8,7.1-82c3.9-31.5,8.1-62.8,11.7-94.3c1.8-15.4,3.4-30.9,4.7-46.4c1-11,1.4-22.1,2.3-33.1
	c1.3-15.3,0.3-31.5-3.8-46.4s-10.8-28.1-18-41.1c-3.6-6.5-7.4-12.9-11.5-19.1c-1.8-2.6-6.1-0.1-4.3,2.6c4.5,6.7,8.6,13.7,12.4,20.8
	c7.3,13.3,14.2,27.3,17.6,42.2c3.1,14.3,4,29,2.4,43.6c-0.2,1.4-0.1-0.5-0.1,0.8l-0.3,5.2c-0.1,3.3-0.3,6.7-0.6,10.1
	c-0.4,7.2-1,14.4-1.7,21.6c-2.9,32.4-7,64.7-11.1,97c-3.6,27.6-7.4,55.2-9.9,82.9c-3.1,34.4-3.3,69.7,3.2,103.7
	c5.4,28.5,15.3,57.5,37.2,77.5s52.1,31.7,81.7,36.6c23.2,3.8,46.5,3.4,69.9,1.8c26-1.7,51.9-4.8,77.8-8.3
	c27.8-3.8,55.5-8.2,83.2-12.6c25-4.1,50-8.3,75.1-12.2c17.6-2.8,35.4-5.7,53.2-7.1c11.3-0.9,22.7-0.4,34.1-0.9s23.2-0.9,34-4.3
	c4.5-1.3,9.4-3.4,9.7-8.7s-0.5-14-1.1-20.8c-2.2-22.8-5.2-46.4-12.6-68.2c-2.3-6.6-5.2-15.5-11.3-19.6s-11.3-3.9-16.8-4.5
	c-21-2.4-42.7-0.8-63.7,0.5c-27.1,1.7-54.2,4.2-81.2,6.6c-23.2,2-46.4,4.3-69.6,5.1c-15.1,0.5-30.2,0.7-45.3,0.7
	c-6.8,0-13.7,0.1-20.6-0.3l-3-0.2l0,0C634.6,1403.7,633.3,1408.5,636.3,1409.6L636.3,1409.6z"/>
<path d="M691.3,976.9c4.3,17.8,4.1,36.9,3.9,55c-0.3,27.8-2.3,55.6-4.8,83.3c-2.9,32.6-6.7,65-11.1,97.4s-9.7,65.5-15.5,98.1
	c-5.1,28.7-10.7,57.3-17.4,85.7c-0.7,3.1-1.5,6.2-2.2,9.2s4,4.5,4.8,1.4c6.8-27.8,12.5-55.9,17.7-84c5.9-32.7,11.1-65.5,15.8-98.2
	s8.6-65.6,11.9-98.7c2.8-28.4,5-57,5.6-85.6c0.5-19.9,0.8-40.3-2.9-59.9c-0.3-1.7-0.6-3.4-1-5S690.5,973.8,691.3,976.9L691.3,976.9z
	"/>
<path d="M425.2,1160c-11.9,26.5-28.1,51.3-43.8,75.7s-33.8,51.1-51,76.4c-5.2,7.9-10.7,15.6-15.5,23.7c-1.7,2.8,2.6,5.3,4.3,2.6
	c4-6.9,8.6-13.4,13-20c7.7-11.4,15.4-22.6,23-34c18.2-27.1,36.4-54.4,53.1-82.5c7.6-12.8,15.1-25.8,21.2-39.4
	C430.8,1159.6,426.5,1157.1,425.2,1160L425.2,1160z"/>
<path d="M342,1302.6c10.1,1.4,20.4,1.9,30.6,2.8s23.2,1.5,34.1,4.5c3.1,0.9,4.4-4,1.3-4.8c-11.1-3-23.3-3.5-34.7-4.6
	s-21-1.5-31.3-2.9C338.8,1297.2,338.8,1302.2,342,1302.6z"/>
<path d="M494,351.7h-0.2c-1.1-0.3-2.2,0.2-2.8,1.1c-0.6,0.9-0.6,2.1,0,3c0.6,0.9,1.7,1.4,2.8,1.2c2.1-0.5,3.1-2.8,4.2-4.5l4.1-5.7
	c2.8-3.9,5.7-7.6,8.7-11.3c6-7.2,12.4-14.1,19.1-20.7c2.4-2.2-1.2-5.7-3.5-3.5c-6.5,6.3-12.6,12.9-18.4,19.8
	c-2.9,3.4-5.6,6.9-8.2,10.5l-4,5.4l-1.9,2.7l-0.8,1.3c-0.1,0.1-1.2,1.3-0.6,1.2l2.8,1.1v2l-2.8,1.2h0.2
	C495.8,357.2,497.2,352.4,494,351.7L494,351.7z"/>
<path d="M549.2,1424.8c18.2-7.1,37.4-10.9,56.9-11.3c3.2,0,3.2-5,0-5c-19.9,0.4-39.6,4.3-58.2,11.5
	C545,1421.2,546.3,1426,549.2,1424.8z"/>
<path d="M146.3,577.7c-6.3,5.1-14.7,7.7-22.5,9.6c-9.7,2.3-19.6,3.9-29.5,4.8c-15.7,1.4-32.7,2.7-48.2-1.1
	c-19-4.6-34.5-17.2-39.3-36.6c-3.3-13.2-1.9-27.3,2.6-40.1c3.1-8.7,7.7-16.9,11.9-25.1c20.3-39.9,42.7-78.8,64.3-118.1
	c16.4-29.8,33.4-59.5,48.5-90c2.6-5.2,4.1-10.9,4.4-16.7c0.5-5.9,0.2-11.9-0.9-17.8c-1.2-6.2-3.7-12.1-4.8-18.5
	c-3.5-21,0.4-43.9,8.1-63.5c0.7-2.1,1.7-4.1,2.9-6c1.7-2.8-2.7-5.3-4.4-2.6c-3.4,5.6-5.3,12.5-7.1,18.7c-3.1,10.8-5,22-5.5,33.2
	c-0.3,6.4-0.1,12.8,0.8,19.1c0.9,6.5,3,12.3,4.7,18.6c2.4,9.2,2.6,21.5-1.2,30.3c-4.5,10.5-10.5,20.5-15.9,30.5
	c-9.8,18.1-19.6,36.2-29.5,54.3c-22.3,40.5-45.5,80.7-66.6,121.9c-4.2,8.1-8.6,16.2-12.2,24.5c-5.4,12.7-8,26.6-6.4,40.4
	c2.4,20.4,14.7,36.9,33.7,44.8c15.6,6.5,32.5,6.4,49,5.5c19-1,39.4-2.9,57-10.7c3.5-1.6,6.7-3.5,9.7-5.9
	C152.3,579.2,148.8,575.7,146.3,577.7L146.3,577.7z"/>
<path d="M206.4,267.5c-0.4,5.5-2.8,8.8-6.4,12.6s-4.3,7.6-5.4,12.6s-2.5,12.7-4.2,19c-3.8,14.4-8.6,28.6-13.4,42.8
	c-12.7,37.7-26.3,75.1-40.8,112.2c-5.4,13.7-10.6,27.7-17.2,40.9c-1.4,2.9,2.9,5.4,4.3,2.5c5.7-11.4,10.3-23.4,15-35.2
	c7.2-18.1,14-36.3,20.7-54.6c12.6-34.2,25.4-68.6,35.2-103.7c1.8-6.4,3-12.9,4.4-19.4c0.8-3.2,1.1-6.9,2.3-9.9
	c0.9-1.8,2.1-3.5,3.7-4.8c4.1-3.9,6.5-9.3,6.7-15C211.5,264.3,206.6,264.3,206.4,267.5L206.4,267.5z"/>
<path d="M184.9,347.8c6.4-11.5,19.4-18.3,29.6-25.9c5.3-3.9,10.2-8.3,15.9-11.8s12.8-7,19-10.9c2.8-1.7,0.3-6-2.5-4.3
	c-6.5,4-13.4,7.4-19.9,11.4s-10.9,8.3-16.5,12.4c-10.5,7.6-23.3,14.8-29.9,26.5C179.1,348.1,183.4,350.6,184.9,347.8L184.9,347.8z"
	/>
<path d="M429,255.8c11.3,1.8,22.9,1.1,34.3,1c16.3-0.2,32.8-0.2,49,1.9c28,3.7,54.4,14.8,72.2,37.3c15.5,19.5,28.6,39.8,38.1,62.8
	c20.5,49.3,27.8,103.3,31.6,156.2c2,30.2,6.7,60.1,13.8,89.5c5.4,21.9,12.5,43.3,19.5,64.7c6,18.2,11.7,36.6,14.5,55.6
	c3.4,22.6,4.7,45.4,9.4,67.9c2.1,10.1,5.1,20.1,6.8,30.4c3.1,19.8,5.1,40.2,6.5,60.2c1,12.6,1.3,25.3,0.8,38
	c-0.6,10.9-1.9,22.3-6.1,32.5c-2.5,6.1-6.4,12.1-12.4,15.3c-4.4,2.3-9.5,2.5-14.3,2.1c-6.9-0.6-13.7-2.5-20.3-4.3l-27.8-8
	c-27-7.4-54.6-12.3-82.5-14.7c-52.6-4.5-105.8-2.2-158.5-1.2c-23.8,0.5-47.6,1-71.4,0.3c-15.2-0.4-31.8-0.3-46.4-5.1
	c-1.9-0.6-3.6-1.4-5.3-2.4c-0.6-0.4-1.1-0.9-1.6-1.4c-0.3-0.3-0.5-0.7-0.7-1c-1-3-5.9-1.7-4.8,1.3s5.3,6.1,9,7.5
	c5.8,2.3,12.1,3.2,18.2,4c19.9,2.5,40.1,2.4,60,2.4c53.7-0.2,107.3-2.8,160.9-1.5c29,0.7,58,2.9,86.6,8.4
	c21.8,4.2,43,10.7,64.4,16.6c11.4,3.1,25.1,7.1,36.3,1.6c16-7.7,19.7-29.5,21.1-45.2c2.3-24.6-0.2-49.6-3-74.1
	c-1.7-15.4-3-30.9-6.6-46c-3.1-12.9-5.9-25.7-7.8-38.9c-3.4-23.8-4.8-47.8-10.9-71.1c-5.2-19.9-12.3-39.2-18.5-58.7
	c-7.9-24.9-14.1-50.4-18.4-76.2c-5.4-33.8-6.2-68-10.9-101.9c-3.7-26.3-8.9-52.5-16.8-77.8c-9.2-29.2-22.3-56.9-41-81.3l-8.3-10.5
	c-8.4-10.6-19.1-19.3-31.2-25.4c-28.3-14.3-60.5-15.1-91.5-14.8c-11.5,0.1-23.3,1-34.7-0.8C427.2,250.5,425.8,255.3,429,255.8z"/>
<path d="M555.1,547c3.6-5.8,2.7-13.2,1.1-19.5c-2.2-9-6.3-17.7-10.7-25.9c-10.7-19.4-23.7-37.4-38.7-53.7c-6-6.5-12.4-13.1-20-17.7
	c-2.8-1.7-5.3,2.6-2.5,4.3c6.2,3.7,11.4,9,16.4,14.2c7,7.3,13.5,15,19.5,23.1c11.9,15.9,23.8,33.4,29.9,52.4
	c2,6.1,4.3,14.4,0.7,20.3C549.2,547.2,553.5,549.7,555.1,547z"/>
<path d="M205.3,447.7c7.2,16.5,13.4,33.5,18.4,50.8c3.4,11.8,6.2,23.8,8.8,35.8c1.7,7.5,3.2,15.1,4.7,22.6c0.6,3.3,0.8,7,2.2,10.1
	c11.9,25.9,23.8,51.8,34.7,78.2c6.7,16.1,13.3,32.4,18.2,49.2c1.5,5.1,3.2,10.6,3.5,15.8s-0.3,10.8-0.2,16.2c0.1,8.6,0.7,17.3,1,26
	c0.4,13.3-0.3,26.3-3.4,39.3c-1.7,7.3-3.6,14.6-5.5,21.9c-5,19.5-10,39-14.4,58.7c-2,9.1-4,18.4-5.5,27.6
	c-1.4,7.1-2.1,14.3-2.3,21.5c0.1,5.5,1,9.4,5.1,13.3c8.1,7.8,19.4,11,30.3,12.4c7.1,0.9,14.2,1.2,21.3,0.9c3.2-0.1,3.2-5.1,0-5
	c-13,0.3-27.3,0-39.2-5.8c-4.2-2-8.4-4.8-11.2-8.5c-0.7-1.3-1.1-2.7-1.1-4.1c-0.6-6.2,0.3-12.7,1.2-18.8c1.3-9,3.1-17.9,5-26.7
	c4.2-19.7,9.2-39.2,14.2-58.7c4.5-17.7,9.9-35.3,10.5-53.6s-1.6-33.9-1-50.8c0.2-5.6-0.3-11.1-1.7-16.5c-3.9-15.6-10-30.8-16-45.8
	c-11.7-29.2-24.5-57.9-37.9-86.4c-2.5-5.3-2.9-11-4-16.8c-2.7-13.4-5.6-26.8-8.9-40.1c-4.6-18.2-10.5-36.1-17.6-53.5
	c-1.6-3.9-3.2-7.8-4.9-11.7S204.1,444.7,205.3,447.7L205.3,447.7z"/>
<path d="M514.1,585.7c-16.5,0-36-2.7-40.8-7.5l3.6-3.5c4.7,4.7,42.1,8.4,55.6,4.2c20.9-6.4,26.9-13.6,35.8-33.5
	c17-38.4,54.6-143.1,55.3-149.1l1.9,0.2l3-1c1.5,4.7-42.9,123.2-55.7,151.9c-9.3,21.1-16.3,29.4-38.8,36.3
	C529.5,585.1,522.1,585.7,514.1,585.7z"/>
<path d="M151.7,178.9c-7,27.9,21,46.4,28.6,70.5c1,3,5.8,1.7,4.8-1.4c-3.7-11.7-11.4-21.3-18.2-31.4s-13.7-23.3-10.4-36.4
	C157.2,177.1,152.4,175.8,151.7,178.9L151.7,178.9z"/>
<path d="M481.6,945.8c-2.3-0.7,74-3.8,131.6,17.6c42.2,15.6,82.1,29.1,82.1,29.1s-1.6-20.7-3.4-20.1s-62.9-15.1-95.5-21.2
	S481.6,945.8,481.6,945.8z"/>
<path d="M322,1328.2c8.3-10.7,11-11.5,26.5-13.3s60.7-7.9,60.7-7.9v1.6l-66.9-7L322,1328.2z"/>
<path d="M403.8,1375.5c0,0-8.1,49.3-2.5,91.2l13.4-1C414.7,1465.7,400.6,1428.5,403.8,1375.5z"/>
<path d="M217.1,474c0,0,7.9,40,10.4,55.6c3,19-1.9,37.7-1.9,37.7l14.8-5.2C240.4,562.1,223.6,485.2,217.1,474z"/>
<path d="M1056.8,1523.5c-7.4-3.5-14.7-7.3-22.1-10.7s-13.5-6.5-20.6-8.7c-3.5-1.1-7-1.6-10.4-2.8c-5-1.7-9.5-4.6-13-8.6
	c-8.9-10.6-1.6-25.4-0.4-37.3c0.5-6-0.1-12.1-2-17.9c-2-6.7-4.9-13-8.8-18.8c-3.1-4-6.9-7.5-11.3-10.1c-3.4-2.2-7.2-3.9-10.4-6.3
	c-0.5-0.3-0.8-0.8-1.3-1.1s0.4,0,0,0.5s-0.4,0.1,0.1-0.2c0.4-0.3,0.8-0.6,1.2-1c2.2-1.7,4.5-3.3,6.9-4.7c14-8.8,28.9-17.3,44.2-23.7
	c4.5-1.8,8.9-2.5,13.7-1c9.6,3.1,17.3,11.9,23.7,19.2c9.6,10.9,19.3,21.6,29.9,31.4c7.5,7,15.5,13.5,22.9,20.6
	c13.9,13.4,25.9,29.5,36.6,45.6s19.6,33.2,20.1,52.7c0.2,9-2.5,17.7-10.3,22.9s-21,7.7-30.8,2.9s-15.4-11.5-22.2-18.2
	c-3.2-3.1-6.5-6-10.1-8.7c-4.1-2.7-8.4-5.2-12.5-7.9C1065.7,1528.6,1061.3,1525.9,1056.8,1523.5c-2.9-1.4-5.4,2.9-2.5,4.3
	c5.1,2.6,9.8,6,14.6,9.1s8.6,5.1,12.5,8.1c8,6.1,14.3,14.1,22.2,20.3s17.5,10,27.9,8.6s21.5-7,26.2-17c4-8.5,3.4-18.2,1.8-27.3
	c-1.6-9.3-4.7-18.2-9-26.6c-10.3-19.9-24.4-38.3-39.2-55c-5.9-6.4-12.2-12.5-18.8-18.2c-9.9-8.8-19.6-17.7-28.7-27.3
	s-18.2-22.2-29.7-30.7c-5.7-4.2-12.5-7.3-19.7-6.4s-11.7,4-17.1,6.7c-8.5,4.2-16.9,8.7-25.1,13.4c-6.2,3.5-13,7-18.4,11.8
	s2,9.8,6.3,12.3s9,5.2,12.7,8.9s7.9,12.1,10.1,18.5c2.4,6.4,3.1,13.3,2.2,20c-1,6.7-3,13.3-3.5,20.1s0.5,12.6,4.4,17.6
	c3.6,4.5,8.2,8.1,13.5,10.3c3.3,1.5,6.6,2.1,10.1,3c7.7,1.9,14.9,5.5,22,8.8s15.1,7.4,22.7,11
	C1057.2,1529.2,1059.7,1525,1056.8,1523.5z"/>
<path d="M1146.1,1550.9c-2.4-19.4-10.7-37.6-21.3-54c-5.7-8.8-12-17.1-18.8-25c-5.6-6.5-11.4-13.2-17.8-18.8
	c-3.8-3.2-7.7-6.3-11.4-9.5s-8.9-7.2-12.3-11.5c-6-7.7-11.7-15.6-18-23c-5.4-6.5-11.1-12.7-17.1-18.6c-5.1-5-10.5-9.9-16.8-13.3
	c-2.9-1.5-5.4,2.8-2.5,4.3c11.5,6.2,20.9,17.3,29.4,27c7,8.1,13.8,16.5,20.1,25.2c2.7,3.4,5.7,6.6,9,9.4c4.4,3.9,8.9,7.6,13.4,11.4
	c12.5,10.2,23.3,23.4,32.7,36.4c12.8,17.8,23.7,38.1,26.4,60C1141.5,1554.1,1146.5,1554.1,1146.1,1550.9L1146.1,1550.9z"/>
<path class="st1" d="M305.2,254c-1.1-3.7-6-7.2-10.2-8.2c-15.5-3.5-29.4-0.7-38.2,10.5c-2.5,3-3.4,7-2.3,10.8
	c0.9,4.3,8.4,11,18.7,4.3c15.3-9.8,18.7-5.8,26.7-9.3C305.5,259.6,305.9,256.3,305.2,254z"/>
<path d="M307.6,253.4c-3.7-10.8-18.6-12.1-28.2-11.3s-21.1,5.8-26.1,15.1c-3.6,6.3-1.3,14.3,5,17.9c1.6,0.9,3.5,1.5,5.3,1.6
	c6.3,0.5,11-3.5,16.3-6.3c3.5-1.9,7.3-3.2,11.3-3.8C298.1,265.6,310.1,263,307.6,253.4c-0.8-3.1-5.6-1.8-4.8,1.3
	c1.4,5.2-8,6.4-11.5,6.9c-7.4,1-13.4,4.1-19.7,7.9c-3.6,2.2-8,3.3-11.7,0.8s-3.7-4.6-3.3-7.8s4.6-7.9,7.9-10.2
	c3.4-2.4,7.2-4,11.3-4.7c4.8-0.9,9.7-1,14.5-0.1c4.5,0.7,10.8,2.2,12.5,7.2C303.8,257.7,308.6,256.4,307.6,253.4z"/>
<path d="M123.2,503.2c13,20.4,21,43.7,23.3,67.8c0.6,6,0.8,12.1,0.6,18.1c-0.1,5.6,0.1,12.4-2,17.6s-8.3,7.1-13.3,5.3
	c-2.6-0.9-4.9-3.2-6.9-5c-6-5.2-11.3-11.4-17.5-16.4c-2.5-2-6,1.5-3.5,3.5c6.2,5.1,11.4,11.2,17.5,16.5c2.5,2.2,5.3,4.8,8.5,6
	c4.7,1.6,9.9,1.2,14.3-1.3c5-3,6.5-8.5,7.1-14c0.8-6.7,1-13.5,0.8-20.2c-0.4-13.2-2.4-26.3-6-39c-4.2-14.6-10.5-28.5-18.6-41.4
	C125.7,498,121.4,500.5,123.2,503.2L123.2,503.2z"/>
<path d="M144.3,615.6c10.8-3.6,20.4-10.4,29.7-16.8c12.3-8.3,24.6-16.5,37.9-22.9c9-4.3,18.4-7.8,28.1-10.3c3.1-0.8,1.8-5.6-1.3-4.8
	c-16.1,4.3-31.5,10.9-45.7,19.7c-11.6,7-22.5,15.1-33.9,22.2c-5,3.3-10.5,6.1-16.2,8.1C139.9,611.8,141.2,616.6,144.3,615.6z"/>
<path d="M240.2,110c-0.1-0.9-0.1-1.7-0.1-2.6v-0.8c0.1-0.4,0,0.1,0.1-0.1c0-0.4,0.1-0.9,0.2-1.3c0.1-0.4,0.2-0.8,0.4-1.2
	c0-0.2,0.1-0.5,0.2-0.7c0.2-0.4,0,0.1,0.1-0.2c0.3-0.8,0.8-1.6,1.3-2.3l0.7-1.1l0.2-0.2l0.4-0.5c0.6-0.7,1.3-1.3,2-1.9
	c0.3-0.3,0,0,0.2-0.1c0.1-0.2,0.3-0.3,0.5-0.4c0.4-0.3,0.8-0.6,1.3-0.8l1.1-0.6l1.1-0.4c1.3-0.4,2-1.8,1.7-3.1
	c-0.3-1.3-1.6-2.1-2.9-1.7c0,0,0,0-0.1,0c-8.1,2.8-14.5,11.1-13.4,20c0.1,1.4,1.1,2.4,2.5,2.5C238.9,112.5,240.4,111.3,240.2,110z"
	/>
<path d="M330.7,129.6c-6.7,2.6-14.5,0.6-21-1.5c-8-2.7-15.6-6.4-22.6-11.2c-3-1.9-5.7-4.1-8.2-6.6c-3.9-4.1-7.1-8.8-11.6-12.4
	c-7.5-6-18.2-10.9-27.8-7.4s-13.9,13.9-13.9,23.4l4.2-1.7c-4.7-5.5-10.4-10-16.9-13.1c-3.2-1.2-6.8-1.3-10.1-0.1
	c-5,1.8-9.2,5.3-11.8,10c-0.9,1.6-2,3.1-3.1,4.6c-13.3,17.7-13.8,41.6-10.2,62.4c1.6,9.4,3.9,18.9,7.8,27.6c1.3,3,5.6,0.4,4.3-2.5
	c-0.1-0.1-0.2-0.5,0,0.1s-0.3-0.7-0.4-1.1l-1.5-4c-1.6-4.6-2.9-9.3-4-14.1c-2.9-13.1-4.5-26.9-2.1-40.3c1.3-8,4.1-15.7,8.4-22.6
	c0.9-1.5,1.9-2.8,3-4.1c2.1-2.8,3.3-6,6.1-8.4s6.9-4.1,10.6-3.3s5.2,2.7,7.3,4.2c3.4,2.3,6.4,5.1,9.1,8.2c1.5,1.7,4.3,0.3,4.3-1.8
	c0-8.6,4.4-18.4,13.9-19.5s20.4,7.1,26.9,14.8c9.9,11.8,23.9,19.8,38.6,24.2c6.8,2.1,15,3.7,22,1
	C334.9,133.3,333.7,128.5,330.7,129.6L330.7,129.6z"/>
<path d="M193.2,115.3c4.1-6,12.7-2.6,17.9-0.5c1.3,0.4,2.7-0.4,3.1-1.7c0,0,0,0,0-0.1c0.3-1.3-0.4-2.6-1.7-3
	c-4.1-1.6-8.3-3.2-12.7-3c-4.4,0.1-8.4,2.2-10.9,5.8c-0.6,1.3,0,2.7,1.2,3.3C191.2,116.6,192.5,116.3,193.2,115.3L193.2,115.3z"/>
<path d="M224.6,81.1c4.9-24.8,22.3-46.5,45.7-56.2c3-1.2,1.7-6-1.3-4.8c-25,10.4-43.9,33-49.2,59.6C219.2,82.9,224,84.2,224.6,81.1
	L224.6,81.1z"/>
<path d="M133.5,123.8c-1.5,26.6,11.7,51.8,34.4,65.7c2.8,1.7,5.3-2.6,2.5-4.3c-21.1-13-33.4-36.6-31.9-61.4
	C138.7,120.6,133.7,120.6,133.5,123.8z"/>
<path d="M963.3,1497.2c7.7-1.7,15.7-2.4,23.6-2.1c3.2,0.1,3.2-4.8,0-5c-8.4-0.3-16.7,0.5-24.9,2.3
	C958.8,1493.1,960.1,1497.9,963.3,1497.2L963.3,1497.2z"/>
<path d="M945,1406.4l2.5-0.5c0.1,0,0.8-0.1,0.2,0h1.8c1.7-0.2,3.4-0.2,5.1-0.2c1.4,0,2.5-1.1,2.5-2.5s-1.1-2.5-2.5-2.5
	c-3.7,0-7.3,0.3-10.9,1.1c-1.3,0.3-2.1,1.6-1.7,2.9c0,0,0,0,0,0.1c0.3,1.3,1.7,2.1,3,1.8L945,1406.4z"/>
<path d="M410.3,1036.4c0,0,17,59.1,17.2,75.5c0.4,39.4-14.3,72.6-14.3,72.6l14.7-27.7c0,0,8-51.6,3.4-67.5
	S410.3,1036.4,410.3,1036.4z"/>
<path d="M661.8,1345.3c0,0-2.6,41.6,3.1,49.6s44.3,11.5,44.3,11.5s-64.9,3.8-62.3-3.1S661.8,1345.3,661.8,1345.3z"/>
<path d="M949.3,1418.9c0,0,15.8,35.4,19.8,51.2s3.9,22.6,3.9,22.6l-13.5,1.5C959.5,1494.2,956.6,1448.9,949.3,1418.9z"/>
<path d="M189.7,365.1l11.9,40.8c0.8,3.1,5.7,1.8,4.8-1.3l-11.9-40.8C193.6,360.7,188.8,362,189.7,365.1z"/>
</svg>
