<svg xmlns="http://www.w3.org/2000/svg" viewBox="0 0 64 64"><g id="Expanded"><path d="M53,58H46.89A7,7,0,0,0,49,53V42.1a7,7,0,0,0-1.53-4.37l-1.8-2.24A3,3,0,0,0,47,33V31a3,3,0,0,0-3-3H34.41L44,18.39A1,1,0,0,0,42.61,17L33,26.59V13a1,1,0,0,0-2,0V26.59L21.39,17A1,1,0,0,0,20,18.39L29.59,28H20a3,3,0,0,0-3,3v2a3,3,0,0,0,1.33,2.49l-1.8,2.24A7,7,0,0,0,15,42.1V53a7,7,0,0,0,2.11,5H11a1,1,0,0,0,0,2H53a1,1,0,0,0,0-2ZM19,31a1,1,0,0,1,1-1H44a1,1,0,0,1,1,1v2a1,1,0,0,1-1,1H20a1,1,0,0,1-1-1Zm3,27a5,5,0,0,1-5-5V42.1A5,5,0,0,1,18.1,39l2.38-3h23l2.38,3A5,5,0,0,1,47,42.1V53a5,5,0,0,1-5,5ZM40,45H38c-.26,0-.51,0-.76,0a5,5,0,0,0-1.36-2.58l-3.17-3.17a1,1,0,0,0-1.42,0l-3.17,3.17A5,5,0,0,0,26.76,45c-.25,0-.5,0-.76,0H24a1,1,0,0,0-1,1v4a5,5,0,0,0,5,5h8a5,5,0,0,0,5-5V46A1,1,0,0,0,40,45ZM29.54,43.88,32,41.41l2.46,2.47a2.91,2.91,0,0,1,.84,1.66A7.1,7.1,0,0,0,32,48.41a7.1,7.1,0,0,0-3.3-2.87A2.91,2.91,0,0,1,29.54,43.88ZM25,50V47h1a5,5,0,0,1,5,5v1H28A3,3,0,0,1,25,50Zm14,0a3,3,0,0,1-3,3H33V52a5,5,0,0,1,5-5h1ZM31,9V5a1,1,0,0,1,2,0V9a1,1,0,0,1-2,0Zm12,4V9a1,1,0,0,1,2,0v4a1,1,0,0,1-2,0ZM19,13V9a1,1,0,0,1,2,0v4a1,1,0,0,1-2,0Z"/></g></svg>