<svg xmlns="http://www.w3.org/2000/svg" viewBox="0 0 64 64"><g id="Expanded"><path d="M57,30H55.44A3.91,3.91,0,0,0,56,28a4,4,0,0,0-1.38-3A4,4,0,0,0,52,18h-.28a8.85,8.85,0,0,0-2.66-6.37L47.7,10.29a1,1,0,0,0-1.4,0l-1.36,1.34A8.85,8.85,0,0,0,42.28,18H42a4,4,0,0,0-2.62,7A4,4,0,0,0,38,28a3.91,3.91,0,0,0,.56,2H25.44a3.86,3.86,0,0,0,0-4A4,4,0,0,0,25,18h-.56A3.91,3.91,0,0,0,25,16a4,4,0,0,0-4-4H11a4,4,0,0,0,0,8h.56a3.86,3.86,0,0,0,0,4A4,4,0,0,0,8,28a3.91,3.91,0,0,0,.56,2H7a3,3,0,0,0-3,3v2a3,3,0,0,0,3,3H26.38L20.55,49.66A3,3,0,0,0,23.24,54H40.76a3,3,0,0,0,2.69-4.34L37.62,38H57a3,3,0,0,0,3-3V33A3,3,0,0,0,57,30ZM46.34,13.05,47,12.4l.66.65A6.92,6.92,0,0,1,49.72,18H44.28A6.92,6.92,0,0,1,46.34,13.05ZM40,22a2,2,0,0,1,2-2H52a2,2,0,0,1,0,4H42A2,2,0,0,1,40,22Zm0,6a2,2,0,0,1,2-2H52a2,2,0,0,1,0,4H42A2,2,0,0,1,40,28ZM9,16a2,2,0,0,1,2-2H21a2,2,0,0,1,0,4H11A2,2,0,0,1,9,16Zm12,4h4a2,2,0,0,1,0,4H15a2,2,0,0,1,0-4ZM10,28a2,2,0,0,1,2-2H22a2,2,0,0,1,0,4H12A2,2,0,0,1,10,28ZM41.66,50.55a1,1,0,0,1,0,1,1,1,0,0,1-.85.47H23.24a1,1,0,0,1-.85-.47,1,1,0,0,1-.05-1L28.62,38h6.76ZM58,35a1,1,0,0,1-1,1H7a1,1,0,0,1-1-1V33a1,1,0,0,1,1-1H57a1,1,0,0,1,1,1ZM32,50a4,4,0,1,0-4-4A4,4,0,0,0,32,50Zm0-6a2,2,0,1,1-2,2A2,2,0,0,1,32,44Z"/></g></svg>