<svg xmlns="http://www.w3.org/2000/svg" viewBox="0 0 64 64"><g id="Expanded"><path d="M57,33a4,4,0,0,0-3-3.87A11,11,0,0,0,43,19a11.14,11.14,0,0,0-1.17.07,11.48,11.48,0,0,0-.72-1.22A7,7,0,0,0,43,13.1v-4a1,1,0,0,0-1-1H38a7,7,0,0,0-1.52.19,7.09,7.09,0,0,0-.94-1.2L32.71,4.26a1,1,0,0,0-1.42,0L28.46,7.09a7.09,7.09,0,0,0-.94,1.2A7,7,0,0,0,26,8.1H22a1,1,0,0,0-1,1v4a7,7,0,0,0,1.89,4.78,11.48,11.48,0,0,0-.72,1.22A11.14,11.14,0,0,0,21,19,11,11,0,0,0,10,29.16a4,4,0,0,0,0,7.73V42A13,13,0,0,0,23,55h.52l-.35.89A3,3,0,0,0,26,60h12.1a3,3,0,0,0,2.78-4.11L40.48,55H41A13,13,0,0,0,54,42V36.89A4,4,0,0,0,57,33Zm-5.06-4H41.79A10.86,10.86,0,0,0,43,24a11,11,0,0,0-.42-3L43,21A9,9,0,0,1,51.94,29ZM24.53,29a8.95,8.95,0,0,1-.84-8.45,9,9,0,0,1,16.62,0A8.73,8.73,0,0,1,41,24a8.85,8.85,0,0,1-1.53,5ZM41,10.1v3a5,5,0,0,1-1.17,3.21,10.83,10.83,0,0,0-2.64-2,6.94,6.94,0,0,0,.12-4.18A5.36,5.36,0,0,1,38,10.1ZM32,6.38,34.12,8.5a4.42,4.42,0,0,1,1,1.39,5,5,0,0,1,.25,3.66,11,11,0,0,0-6.68,0,5,5,0,0,1,.26-3.69,4.45,4.45,0,0,1,1-1.36ZM23,10.1h3a5.36,5.36,0,0,1,.69.06,7.06,7.06,0,0,0,.12,4.17,11.13,11.13,0,0,0-2.64,2A5,5,0,0,1,23,13.1ZM21,21l.42,0A11,11,0,0,0,21,24a10.86,10.86,0,0,0,1.21,5H12.06A9,9,0,0,1,21,21ZM39,56.66A1,1,0,0,1,38.05,58H26A1,1,0,0,1,25,56.66L25.68,55H38.32ZM52,42A11,11,0,0,1,41,53H23A11,11,0,0,1,12.05,43H29a1,1,0,0,0,0-2H12V37H52Zm1-7H11a2,2,0,0,1,0-4H53a2,2,0,0,1,0,4Z"/></g></svg>