<svg xmlns="http://www.w3.org/2000/svg" viewBox="0 0 64 64"><g id="Expanded"><path d="M59.68,36.7l-1.41-1.41a22.94,22.94,0,0,0-11.13-6.16,22.87,22.87,0,0,0,.69-5.55v-2a1,1,0,0,0-1-1h-2a23.31,23.31,0,0,0-5.15.59,22.78,22.78,0,0,0-5.56-9l-1.41-1.42a1,1,0,0,0-1.42,0l-1.41,1.42a22.78,22.78,0,0,0-5.56,9,23.31,23.31,0,0,0-5.15-.59h-2a1,1,0,0,0-1,1v2a22.87,22.87,0,0,0,.69,5.55A22.94,22.94,0,0,0,5.73,35.29L4.32,36.7a1,1,0,0,0,0,1.42l1.41,1.41A23,23,0,0,0,22,46.27c.48,0,1,0,1.44-.06l6.47,6.46a3,3,0,0,0,4.24,0l6.47-6.46c.48,0,1,.06,1.44.06a22.94,22.94,0,0,0,16.24-6.74l1.41-1.41A1,1,0,0,0,59.68,36.7ZM44.83,22.58h1v1a20.92,20.92,0,0,1-.66,5.19,23,23,0,0,0-4.32-.19c0-.06,0-.11,0-.17a23.38,23.38,0,0,0-.64-5.31A20.82,20.82,0,0,1,44.83,22.58Zm-13.54-9,.71-.71.71.71A21,21,0,0,1,33,42.93V28.41a1,1,0,1,0-2,0V42.93a21,21,0,0,1,.29-29.37Zm-13.12,10v-1h1a20.82,20.82,0,0,1,4.61.52,23.38,23.38,0,0,0-.64,5.31c0,.06,0,.11,0,.17a23.77,23.77,0,0,0-4.31.19A20.46,20.46,0,0,1,18.17,23.58Zm-11,14.53-.71-.7.71-.7a20.9,20.9,0,0,1,16.1-6.12,22.92,22.92,0,0,0,1.34,5.82H18a1,1,0,0,0,0,2h7.44a23,23,0,0,0,3.11,4.81A21.07,21.07,0,0,1,7.15,38.11ZM32.71,51.26a1,1,0,0,1-1.42,0L26,45.91A22.84,22.84,0,0,0,30,44.82l1.27,1.27.07,0a1,1,0,0,0,.25.17,1.09,1.09,0,0,0,.39.08,1,1,0,0,0,.39-.08,1,1,0,0,0,.25-.17l.07,0L34,44.82a22.84,22.84,0,0,0,4.07,1.09ZM56.85,38.11a21.07,21.07,0,0,1-21.41,5.11,23,23,0,0,0,3.11-4.81H46a1,1,0,1,0,0-2H39.41a22.92,22.92,0,0,0,1.34-5.82,20.88,20.88,0,0,1,16.1,6.12l.71.7Z"/></g></svg>