<svg xmlns="http://www.w3.org/2000/svg" viewBox="0 0 64 64"><g id="Expanded"><path d="M29.35,53.13a3,3,0,0,0,5.3,0L47.45,29A17,17,0,0,0,32.43,4h-.86a17,17,0,0,0-15,25ZM18.72,13.26A14.89,14.89,0,0,1,31.57,6h.86A15,15,0,0,1,45.68,28L32.88,52.19a1,1,0,0,1-1.76,0L18.32,28A14.9,14.9,0,0,1,18.72,13.26ZM54,53.5C54,57.77,42.93,60,32,60s-22-2.23-22-6.5c0-3.89,8.79-5.44,12.57-5.92a1,1,0,0,1,.26,2C15.36,50.52,12,52.44,12,53.5c0,1.57,6.87,4.5,20,4.5s20-2.93,20-4.5c0-1.06-3.36-3-10.83-3.94a1,1,0,0,1,.26-2C45.21,48.06,54,49.61,54,53.5ZM28,27h8a5,5,0,0,0,5-5V18a1,1,0,0,0-1-1H38c-.26,0-.51,0-.76,0a5,5,0,0,0-1.36-2.58l-3.17-3.17a1,1,0,0,0-1.42,0l-3.17,3.17A5,5,0,0,0,26.76,17c-.25,0-.5,0-.76,0H24a1,1,0,0,0-1,1v4A5,5,0,0,0,28,27Zm11-8v3a3,3,0,0,1-3,3H33V24a5,5,0,0,1,5-5Zm-9.46-3.12L32,13.41l2.46,2.47a2.91,2.91,0,0,1,.84,1.66A7.1,7.1,0,0,0,32,20.41a7.1,7.1,0,0,0-3.3-2.87A2.91,2.91,0,0,1,29.54,15.88ZM25,19h1a5,5,0,0,1,5,5v1H28a3,3,0,0,1-3-3Z"/></g></svg>