<svg xmlns="http://www.w3.org/2000/svg" viewBox="0 0 64 64"><g id="Expanded"><path d="M60,32a1,1,0,0,0-.29-.71A24.88,24.88,0,0,0,47.6,24.61,15.86,15.86,0,0,0,47.85,22v-4.8a1,1,0,0,0-1-1h-4.8a16.1,16.1,0,0,0-2.68.25A24.81,24.81,0,0,0,32.71,4.32,1,1,0,0,0,32,4h0a1,1,0,0,0-.71.29A24.94,24.94,0,0,0,24.63,16.4,16.1,16.1,0,0,0,22,16.15h-4.8a1,1,0,0,0-1,1V22a15.74,15.74,0,0,0,.25,2.65A24.94,24.94,0,0,0,4.32,31.29,1.05,1.05,0,0,0,4,32a1,1,0,0,0,.29.71A24.88,24.88,0,0,0,16.4,39.39a15.86,15.86,0,0,0-.25,2.66v4.8a1,1,0,0,0,1,1H22a15.74,15.74,0,0,0,2.65-.25,24.94,24.94,0,0,0,6.69,12.08A1,1,0,0,0,32,60h0a1,1,0,0,0,.71-.29A24.88,24.88,0,0,0,39.39,47.6a15.86,15.86,0,0,0,2.66.25h4.8a1,1,0,0,0,1-1v-4.8a15.86,15.86,0,0,0-.25-2.66,24.92,24.92,0,0,0,12.08-6.68A1.05,1.05,0,0,0,60,32ZM45.85,18.15V22a14.43,14.43,0,0,1-.21,2.28A25.88,25.88,0,0,0,42,24c-.72,0-1.4,0-2.08.1a24.75,24.75,0,0,0-.18-5.71,15,15,0,0,1,2.31-.21ZM33,41h-.12a9.43,9.43,0,0,1-1.68,0l-.12,0a8.87,8.87,0,0,1-5.26-2.44,3.22,3.22,0,0,1-.31-.32A8.86,8.86,0,0,1,23.05,33s0-.08,0-.12a8.84,8.84,0,0,1,0-1.68.5.5,0,0,1,0-.12,8.87,8.87,0,0,1,2.44-5.26,3.22,3.22,0,0,1,.32-.31A8.86,8.86,0,0,1,31,23.05h.12a9.43,9.43,0,0,1,1.68,0H33a8.94,8.94,0,0,1,5.26,2.45,3.22,3.22,0,0,1,.31.32A8.79,8.79,0,0,1,40.94,31a.5.5,0,0,1,0,.12,8.84,8.84,0,0,1,0,1.68s0,.08,0,.12a8.94,8.94,0,0,1-2.45,5.26,3.22,3.22,0,0,1-.32.31A8.86,8.86,0,0,1,33,41ZM32,6.48a22.77,22.77,0,0,1,5.63,11.26A23.1,23.1,0,0,1,38,22.8a11.05,11.05,0,0,0-4.7-1.72l-.16,0a14.72,14.72,0,0,0-2.3,0l-.16,0A11.12,11.12,0,0,0,26,22.79c0-.26,0-.52,0-.79a23.56,23.56,0,0,1,.4-4.27A22.87,22.87,0,0,1,32,6.48ZM18.15,22v-3.8H22a13.91,13.91,0,0,1,2.32.22A24.46,24.46,0,0,0,24,22c0,.71,0,1.4.1,2.07a25.28,25.28,0,0,0-5.71.17A14.55,14.55,0,0,1,18.15,22ZM22.8,26a10.88,10.88,0,0,0-1.72,4.69l0,.16c0,.38-.05.76-.05,1.15s0,.77.05,1.15l0,.16A11.12,11.12,0,0,0,22.79,38L22,38a22.56,22.56,0,0,1-4.2-.39h-.07A22.82,22.82,0,0,1,6.48,32,22.82,22.82,0,0,1,22.8,26ZM22,45.85h-3.8v-3.8a14.43,14.43,0,0,1,.21-2.28A25.88,25.88,0,0,0,22,40c.71,0,1.4,0,2.07-.1a25.28,25.28,0,0,0,.17,5.71A14.66,14.66,0,0,1,22,45.85ZM32,57.52A22.82,22.82,0,0,1,26,41.2a10.88,10.88,0,0,0,4.69,1.72l.16,0c.38,0,.76,0,1.15,0s.77,0,1.15,0l.16,0A11.12,11.12,0,0,0,38,41.21c0,.26,0,.52,0,.79a23.43,23.43,0,0,1-.38,4.2v0s0,0,0,.05A22.93,22.93,0,0,1,32,57.52ZM45.85,42.05v3.8h-3.8a14.43,14.43,0,0,1-2.28-.21A25.88,25.88,0,0,0,40,42c0-.71,0-1.4-.1-2.07.7.06,1.41.1,2.1.1a25.46,25.46,0,0,0,3.61-.26A14.43,14.43,0,0,1,45.85,42.05ZM41.2,38a10.88,10.88,0,0,0,1.72-4.69l0-.16c0-.38,0-.76,0-1.15s0-.77,0-1.15l0-.16A11.07,11.07,0,0,0,41.21,26L42,26a22.56,22.56,0,0,1,4.2.39h.11A22.87,22.87,0,0,1,57.52,32,22.82,22.82,0,0,1,41.2,38ZM32,26a6,6,0,1,0,6,6A6,6,0,0,0,32,26Zm0,10a4,4,0,1,1,4-4A4,4,0,0,1,32,36Z"/></g></svg>