<svg xmlns="http://www.w3.org/2000/svg" viewBox="0 0 64 64"><g id="Expanded"><path d="M53.61,18.82a7,7,0,0,0-4-6.14V6a2,2,0,0,0-2-2h-3a2,2,0,0,0-2,2V8a2,2,0,0,1-4,0V6a2,2,0,0,0-2-2h-3a2,2,0,0,0-2,2v6.68a6.76,6.76,0,0,0-1.94,1.37,6.9,6.9,0,0,0-2.05,4.77,6.78,6.78,0,0,0,2,4.95,7.52,7.52,0,0,0,2,1.45V28h-13a3,3,0,0,0-3,3v2a3,3,0,0,0,1.72,2.7L10.54,56.05a3,3,0,0,0,2.85,4h3.9A3,3,0,0,0,20,58.28l5.61-11.93,5.62,11.93A3,3,0,0,0,33.94,60h3.9a3,3,0,0,0,2.84-4L33.9,35.7A3,3,0,0,0,35.61,33V32h11a3,3,0,0,0,3-3V25.22a7.41,7.41,0,0,0,2-1.45A6.82,6.82,0,0,0,53.61,18.82ZM17.61,31a1,1,0,0,1,1-1h14a1,1,0,0,1,1,1v2a1,1,0,0,1-1,1h-14a1,1,0,0,1-1-1Zm-.32,27h-3.9a1,1,0,0,1-.81-.42,1,1,0,0,1-.14-.9l.23-.68h6.19l-.67,1.43A1,1,0,0,1,17.29,58Zm8.32-13.65A2,2,0,0,0,23.8,45.5l-4,8.5H13.33l6-18H31.89l6,18H31.43l-4-8.5A2,2,0,0,0,25.61,44.35Zm13,13.23a1,1,0,0,1-.81.42h-3.9a1,1,0,0,1-.9-.57L32.37,56h6.19l.23.68A1,1,0,0,1,38.65,57.58Zm9-28.58a1,1,0,0,1-1,1H35.43a3,3,0,0,0-1.82-1.82v-2.3a6.64,6.64,0,0,0,1.26.12H46.36a6.54,6.54,0,0,0,1.25-.12Zm2.59-6.63A5.38,5.38,0,0,1,46.36,24H34.87A5.38,5.38,0,0,1,31,22.37a4.81,4.81,0,0,1-1.41-3.5,4.93,4.93,0,0,1,1.47-3.41,4.65,4.65,0,0,1,1.85-1.16,1,1,0,0,0,.67-1V6h3V8a4,4,0,0,0,8,0V6h3v7.35a1,1,0,0,0,.68,1,4.81,4.81,0,0,1,1.86,1.17,4.92,4.92,0,0,1,1.46,3.4A4.85,4.85,0,0,1,50.2,22.37Z"/></g></svg>