<svg xmlns="http://www.w3.org/2000/svg" viewBox="0 0 64 64"><g id="Expanded"><path d="M32,36c-12.34,0-22,5.27-22,12s9.66,12,22,12,22-5.27,22-12S44.34,36,32,36Zm0,22c-10.84,0-20-4.58-20-10s9.16-10,20-10,20,4.58,20,10S42.84,58,32,58Zm0-18c-8,0-14.36,3.51-14.36,8S24,56,32,56s14.36-3.51,14.36-8S40.05,40,32,40Zm0,14c-6.7,0-12.36-2.75-12.36-6S25.3,42,32,42s12.36,2.75,12.36,6S38.7,54,32,54Zm0-10c-3.83,0-6.73,1.72-6.73,4s2.9,4,6.73,4,6.73-1.72,6.73-4S35.83,44,32,44Zm0,6c-2.89,0-4.73-1.18-4.73-2s1.84-2,4.73-2,4.73,1.18,4.73,2S34.89,50,32,50ZM26,30H38a9,9,0,0,0,9-9V15a1,1,0,0,0-1-1H44a13,13,0,0,0-5.26,1.12,11,11,0,0,0-3.2-7.9L32.71,4.34a1,1,0,0,0-1.42,0L28.46,7.17a11,11,0,0,0-3.2,7.9A13,13,0,0,0,20,14H18a1,1,0,0,0-1,1v6A9,9,0,0,0,26,30ZM45,16v5a7,7,0,0,1-7,7H33V27A11,11,0,0,1,44,16ZM29.88,8.59,32,6.46l2.12,2.13a9,9,0,0,1,2.53,7.65A13,13,0,0,0,32,22a13,13,0,0,0-4.65-5.72A9,9,0,0,1,29.88,8.59ZM19,16h1A11,11,0,0,1,31,27v1H26a7,7,0,0,1-7-7Z"/></g></svg>