<svg xmlns="http://www.w3.org/2000/svg" viewBox="0 0 64 64"><g id="Expanded"><path d="M59.68,31.29l-4.24-4.24a18.82,18.82,0,0,0-12.73-5.52l-.24-.24A18.82,18.82,0,0,0,37,8.56L32.71,4.32a1,1,0,0,0-1.42,0L27.05,8.56a18.82,18.82,0,0,0-5.52,12.73l-.24.24A18.82,18.82,0,0,0,8.56,27.05L4.32,31.29a1,1,0,0,0,0,1.42L8.56,37a18.82,18.82,0,0,0,12.73,5.52l.24.24a18.82,18.82,0,0,0,5.52,12.73l4.24,4.24a1,1,0,0,0,1.42,0L37,55.44a18.82,18.82,0,0,0,5.52-12.73l.24-.24A18.82,18.82,0,0,0,55.44,37l4.24-4.24A1,1,0,0,0,59.68,31.29ZM41.52,40.84a7.7,7.7,0,0,1-.7.7A13.33,13.33,0,0,1,38.92,43,8,8,0,0,0,32,31a6,6,0,0,1,0-12,13,13,0,0,1,8.82,3.46h0a7.7,7.7,0,0,1,.7.7,13,13,0,0,1,0,17.66Zm-18.36.68a7.7,7.7,0,0,1-.7-.7,13,13,0,0,1,0-17.66,7.27,7.27,0,0,1,.68-.68h0A13.33,13.33,0,0,1,25.08,21,8,8,0,0,0,32,33a6,6,0,0,1,0,12A13,13,0,0,1,23.16,41.52ZM28.47,10,32,6.44,35.53,10h0a16.81,16.81,0,0,1,4.8,9.55,15,15,0,0,0-16.66,0A16.81,16.81,0,0,1,28.47,10Zm-22,22L10,28.47a16.78,16.78,0,0,1,9.56-4.78,14.89,14.89,0,0,0,0,16.62A16.78,16.78,0,0,1,10,35.53ZM35.53,54,32,57.56,28.47,54a16.78,16.78,0,0,1-4.78-9.56,14.89,14.89,0,0,0,16.62,0A16.78,16.78,0,0,1,35.53,54ZM54,35.53a16.78,16.78,0,0,1-9.56,4.78,14.89,14.89,0,0,0,0-16.62A16.78,16.78,0,0,1,54,28.47L57.56,32ZM32,22a3,3,0,1,0,3,3A3,3,0,0,0,32,22Zm0,4a1,1,0,1,1,1-1A1,1,0,0,1,32,26Zm0,10a3,3,0,1,0,3,3A3,3,0,0,0,32,36Zm0,4a1,1,0,1,1,1-1A1,1,0,0,1,32,40Z"/></g></svg>